<svg width="73" height="120" viewBox="0 0 73 120" fill="none" xmlns="http://www.w3.org/2000/svg">
<rect x="1.00589" y="16.9456" width="70.4124" height="101.595" rx="4.02357" stroke="#2D4C1C" stroke-width="2.01178"/>
<rect x="19.7308" width="33.6587" height="13.9277" rx="3.31208" fill="#2D4C1C"/>
<path d="M2.01184 24.4897H1.00595V26.5015H2.01184V24.4897ZM8.81358 26.5015C9.36912 26.5015 9.81948 26.0511 9.81948 25.4956C9.81948 24.9401 9.36912 24.4897 8.81358 24.4897V26.5015ZM2.01184 26.5015H8.81358V24.4897H2.01184V26.5015Z" fill="#2D4C1C"/>
<path d="M2.01184 34.0114H1.00595V36.0232H2.01184V34.0114ZM8.81358 36.0232C9.36912 36.0232 9.81948 35.5729 9.81948 35.0173C9.81948 34.4618 9.36912 34.0114 8.81358 34.0114V36.0232ZM2.01184 36.0232H8.81358V34.0114H2.01184V36.0232Z" fill="#2D4C1C"/>
<path d="M2.01184 43.5339H1.00595V45.5457H2.01184V43.5339ZM8.81358 45.5457C9.36912 45.5457 9.81948 45.0953 9.81948 44.5398C9.81948 43.9843 9.36912 43.5339 8.81358 43.5339V45.5457ZM2.01184 45.5457H8.81358V43.5339H2.01184V45.5457Z" fill="#2D4C1C"/>
<path d="M2.01184 53.0571H1.00595V55.0689H2.01184V53.0571ZM8.81358 55.0689C9.36912 55.0689 9.81948 54.6185 9.81948 54.063C9.81948 53.5074 9.36912 53.0571 8.81358 53.0571V55.0689ZM2.01184 55.0689H8.81358V53.0571H2.01184V55.0689Z" fill="#2D4C1C"/>
<path d="M2.01184 62.5793H1.00595V64.5911H2.01184V62.5793ZM8.81358 64.5911C9.36912 64.5911 9.81948 64.1407 9.81948 63.5852C9.81948 63.0297 9.36912 62.5793 8.81358 62.5793V64.5911ZM2.01184 64.5911H8.81358V62.5793H2.01184V64.5911Z" fill="#2D4C1C"/>
<path d="M2.01184 72.1013H1.00595V74.1131H2.01184V72.1013ZM8.81358 74.1131C9.36912 74.1131 9.81948 73.6627 9.81948 73.1072C9.81948 72.5516 9.36912 72.1013 8.81358 72.1013V74.1131ZM2.01184 74.1131H8.81358V72.1013H2.01184V74.1131Z" fill="#2D4C1C"/>
<path d="M2.01184 81.624H1.00595V83.6358H2.01184V81.624ZM8.81358 83.6358C9.36912 83.6358 9.81948 83.1854 9.81948 82.6299C9.81948 82.0743 9.36912 81.624 8.81358 81.624V83.6358ZM2.01184 83.6358H8.81358V81.624H2.01184V83.6358Z" fill="#2D4C1C"/>
<path d="M2.01184 91.1467H1.00595V93.1585H2.01184V91.1467ZM8.81358 93.1585C9.36912 93.1585 9.81948 92.7081 9.81948 92.1526C9.81948 91.597 9.36912 91.1467 8.81358 91.1467V93.1585ZM2.01184 93.1585H8.81358V91.1467H2.01184V93.1585Z" fill="#2D4C1C"/>
<path d="M2.01184 100.669H1.00595V102.681H2.01184V100.669ZM8.81358 102.681C9.36912 102.681 9.81948 102.231 9.81948 101.675C9.81948 101.12 9.36912 100.669 8.81358 100.669V102.681ZM2.01184 102.681H8.81358V100.669H2.01184V102.681Z" fill="#2D4C1C"/>
<path d="M2.01184 110.191H1.00595V112.203H2.01184V110.191ZM8.81358 112.203C9.36912 112.203 9.81948 111.753 9.81948 111.197C9.81948 110.642 9.36912 110.191 8.81358 110.191V112.203ZM2.01184 112.203H8.81358V110.191H2.01184V112.203Z" fill="#2D4C1C"/>
</svg>
