<svg width="18" height="19" viewBox="0 0 18 19" fill="none" xmlns="http://www.w3.org/2000/svg">
<path d="M12.3841 12.2713H11.6011L11.3236 11.9926C12.3284 10.7785 12.8807 9.22849 12.8796 7.62547C12.8796 6.29822 12.5018 5.00078 11.7939 3.89722C11.086 2.79366 10.0799 1.93353 8.90271 1.42562C7.72554 0.917703 6.43022 0.784809 5.18055 1.04374C3.93087 1.30267 2.78297 1.9418 1.88201 2.88031C0.981046 3.81881 0.367482 5.01454 0.118906 6.31628C-0.129669 7.61803 -0.00209149 8.96732 0.485507 10.1935C0.973105 11.4197 1.79882 12.4678 2.85825 13.2052C3.91767 13.9426 5.16321 14.3361 6.43737 14.3361C8.03306 14.3361 9.49991 13.727 10.6298 12.7153L10.8974 13.0043V13.8199L15.853 18.9717L17.3297 17.4334L12.3841 12.2713ZM6.43737 12.2713C3.96949 12.2713 1.97735 10.1962 1.97735 7.62547C1.97735 5.05477 3.96949 2.97962 6.43737 2.97962C8.90524 2.97962 10.8974 5.05477 10.8974 7.62547C10.8974 10.1962 8.90524 12.2713 6.43737 12.2713Z" fill="white"/>
</svg>
