<svg width="316" height="38" viewBox="0 0 316 38" fill="none" xmlns="http://www.w3.org/2000/svg">
<rect width="316" height="38" fill="black"/>
<path d="M27.0524 23L27.0418 21.8425L29.8027 19.3046C30.5248 18.6143 30.9071 18.1896 30.9071 17.5843C30.9071 16.9047 30.3868 16.4799 29.6859 16.4799C28.9638 16.4799 28.4966 16.9365 28.4966 17.6693H26.978C26.9674 16.1614 28.0824 15.2056 29.7071 15.2056C31.3531 15.2056 32.4468 16.1401 32.4468 17.4781C32.4468 18.3489 32.0221 19.071 30.4398 20.5045L29.2718 21.6408V21.6832H32.553V23H27.0524ZM36.6732 23.1062C34.7512 23.1062 33.5831 21.6726 33.5831 19.1559C33.5831 16.6392 34.7512 15.2056 36.6732 15.2056C38.5953 15.2056 39.7633 16.6498 39.7633 19.1559C39.7633 21.6832 38.5953 23.1062 36.6732 23.1062ZM36.6732 21.7894C37.5652 21.7894 38.1386 20.9293 38.128 19.1559C38.128 17.4038 37.5652 16.5118 36.6732 16.5118C35.7812 16.5118 35.2184 17.4038 35.2184 19.1559C35.2078 20.9293 35.7812 21.7894 36.6732 21.7894ZM44.1809 15.3118V23H42.5774V16.8304H42.5349L40.7722 17.9347V16.5224L42.673 15.3118H44.1809ZM48.8107 23.1062C47.1223 23.1062 45.9118 22.1717 45.8799 20.8337H47.494C47.5258 21.4071 48.078 21.7894 48.8214 21.7894C49.5859 21.7894 50.1381 21.3541 50.1275 20.7381C50.1381 20.1116 49.5753 19.6656 48.6727 19.6656H47.9612V18.4869H48.6727C49.4266 18.4869 49.9576 18.0728 49.9576 17.4675C49.9576 16.8834 49.5116 16.4799 48.832 16.4799C48.1524 16.4799 47.5896 16.8622 47.5683 17.4463H46.0392C46.0604 16.1189 47.2604 15.2056 48.832 15.2056C50.4355 15.2056 51.508 16.1507 51.4974 17.3719C51.508 18.2321 50.9027 18.848 50.0426 18.9966V19.0603C51.1682 19.1984 51.7947 19.8886 51.7841 20.8443C51.7947 22.1611 50.5416 23.1062 48.8107 23.1062ZM60.7359 14.3243V21.4284H59.3873V18.2639H56.9874V17.202H59.3873V16.4587H56.9874V15.3968H59.3873V14.3243H60.7359ZM60.9695 22.7239V23.807H54.3114V20.7912H55.6706V22.7239H60.9695ZM54.4707 14.9295V19.0603C55.6547 19.0497 56.7591 18.9701 57.9643 18.7524L58.1024 19.8462C56.6582 20.1222 55.3521 20.1753 53.9079 20.1753H53.1327V14.9295H54.4707ZM67.7869 23.1062C66.1941 23.0956 64.6862 22.1505 64.6862 19.3364C64.6862 16.7454 65.9286 15.2056 67.8506 15.2056C69.401 15.2056 70.4523 16.1826 70.6116 17.4463H69.04C68.9125 16.9047 68.4665 16.5755 67.8506 16.5755C66.81 16.5755 66.2578 17.5206 66.2472 19.0285H66.3215C66.6719 18.3489 67.4365 17.9453 68.286 17.9453C69.6665 17.9453 70.6965 18.986 70.6965 20.4302C70.6965 21.9912 69.5178 23.1168 67.7869 23.1062ZM67.7763 21.8425C68.5621 21.8425 69.1462 21.2479 69.1462 20.4727C69.1462 19.7081 68.5834 19.1028 67.7975 19.1028C67.0117 19.1028 66.4171 19.7187 66.4065 20.4727C66.4171 21.2266 66.9905 21.8425 67.7763 21.8425ZM79.6696 14.3243V19.9205H78.3104V19.6125H76.5582V18.7949H78.3104V14.3243H79.6696ZM71.4823 17.7223C73.3513 17.733 75.6662 17.7117 77.7369 17.5206L77.8007 18.3595C76.9458 18.4763 76.0698 18.5506 75.2096 18.5931V19.9417H73.8716V18.6462C73.0805 18.6674 72.3212 18.6674 71.6204 18.6568L71.4823 17.7223ZM79.6696 20.2072V22.469H74.2327V22.9681H79.8926V23.9132H72.9053V21.5983H78.321V21.1204H72.8628V20.2072H79.6696ZM74.5937 14.4517C76.0273 14.4517 77.0149 15.0357 77.0255 15.9065C77.0149 16.8091 76.0273 17.3507 74.5937 17.3507C73.1177 17.3507 72.1407 16.8091 72.1407 15.9065C72.1407 15.0357 73.1177 14.4517 74.5937 14.4517ZM74.5937 15.3437C73.861 15.3331 73.415 15.5561 73.4256 15.9065C73.415 16.2675 73.861 16.4693 74.5937 16.4693C75.3052 16.4693 75.7618 16.2675 75.7618 15.9065C75.7618 15.5561 75.3052 15.3331 74.5937 15.3437ZM83.7048 23L83.6942 21.8425L86.4552 19.3046C87.1773 18.6143 87.5595 18.1896 87.5595 17.5843C87.5595 16.9047 87.0392 16.4799 86.3383 16.4799C85.6163 16.4799 85.149 16.9365 85.149 17.6693H83.6305C83.6199 16.1614 84.7349 15.2056 86.3596 15.2056C88.0055 15.2056 89.0993 16.1401 89.0993 17.4781C89.0993 18.3489 88.6745 19.071 87.0923 20.5045L85.9242 21.6408V21.6832H89.2055V23H83.7048ZM93.1664 23.1062C91.5629 23.1062 90.3948 22.1611 90.363 20.8337H91.9133C91.9452 21.439 92.4974 21.8425 93.1664 21.8425C93.9628 21.8425 94.5256 21.2797 94.5256 20.4833C94.5256 19.6656 93.9522 19.1028 93.1451 19.0922C92.5717 19.0922 92.1682 19.3046 91.9346 19.74H90.4904L90.9045 15.3118H95.6406V16.618H92.2213L92.0089 18.5613H92.0726C92.3593 18.179 92.9328 17.9135 93.6124 17.9135C95.0247 17.9135 96.076 18.9648 96.076 20.4408C96.076 21.9912 94.8973 23.1062 93.1664 23.1062ZM99.5909 14.6004C101.056 14.6004 102.171 15.5136 102.171 16.8091C102.171 18.0834 101.056 19.0072 99.5909 19.0072C98.0936 19.0072 96.9892 18.0834 96.9892 16.8091C96.9892 15.5136 98.0936 14.6004 99.5909 14.6004ZM99.5909 15.7047C98.8475 15.7047 98.2954 16.1083 98.306 16.8091C98.2954 17.4993 98.8475 17.9135 99.5909 17.9135C100.324 17.9135 100.865 17.4993 100.865 16.8091C100.865 16.1083 100.324 15.7047 99.5909 15.7047ZM104.932 14.3136V19.1559H103.573V14.3136H104.932ZM104.932 19.5594V22.1823H99.7926V22.8089H105.198V23.8708H98.4653V21.1948H103.584V20.6001H98.444V19.5594H104.932ZM117.102 14.3136V23.9769H115.817V14.3136H117.102ZM115.126 14.4729V23.531H113.852V18.7205H112.578V17.6268H113.852V14.4729H115.126ZM111.803 16.9047C111.803 18.5082 112.302 20.1329 113.714 20.9399L112.918 21.9381C112.058 21.4284 111.489 20.5629 111.166 19.5276C110.831 20.6532 110.247 21.6089 109.36 22.1505L108.543 21.1523C109.966 20.2815 110.497 18.54 110.497 16.9047V16.3844H108.914V15.3012H113.268V16.3844H111.803V16.9047ZM121.307 23.1062C119.618 23.1062 118.408 22.1717 118.376 20.8337H119.99C120.022 21.4071 120.574 21.7894 121.317 21.7894C122.082 21.7894 122.634 21.3541 122.624 20.7381C122.634 20.1116 122.071 19.6656 121.169 19.6656H120.457V18.4869H121.169C121.923 18.4869 122.454 18.0728 122.454 17.4675C122.454 16.8834 122.008 16.4799 121.328 16.4799C120.648 16.4799 120.086 16.8622 120.064 17.4463H118.535C118.556 16.1189 119.756 15.2056 121.328 15.2056C122.931 15.2056 124.004 16.1507 123.993 17.3719C124.004 18.2321 123.399 18.848 122.539 18.9966V19.0603C123.664 19.1984 124.291 19.8886 124.28 20.8443C124.291 22.1611 123.038 23.1062 121.307 23.1062ZM128.719 15.3118V23H127.115V16.8304H127.073L125.31 17.9347V16.5224L127.211 15.3118H128.719ZM133.476 23.1062C131.883 23.0956 130.375 22.1505 130.375 19.3364C130.375 16.7454 131.618 15.2056 133.54 15.2056C135.09 15.2056 136.142 16.1826 136.301 17.4463H134.729C134.602 16.9047 134.156 16.5755 133.54 16.5755C132.499 16.5755 131.947 17.5206 131.936 19.0285H132.011C132.361 18.3489 133.126 17.9453 133.975 17.9453C135.356 17.9453 136.386 18.986 136.386 20.4302C136.386 21.9912 135.207 23.1168 133.476 23.1062ZM133.466 21.8425C134.251 21.8425 134.835 21.2479 134.835 20.4727C134.835 19.7081 134.273 19.1028 133.487 19.1028C132.701 19.1028 132.106 19.7187 132.096 20.4727C132.106 21.2266 132.68 21.8425 133.466 21.8425ZM145.295 14.3136V23.9769H143.947V14.3136H145.295ZM137.214 21.2479C137.952 21.2426 138.796 21.2426 139.678 21.216V20.3983C138.616 20.2125 137.926 19.5541 137.936 18.6462C137.926 17.5631 138.913 16.8304 140.336 16.8304C141.77 16.8304 142.768 17.5631 142.768 18.6462C142.768 19.5488 142.078 20.2072 141.016 20.3983V21.1735C141.823 21.1364 142.64 21.0726 143.416 20.9718L143.511 21.97C141.398 22.331 139.115 22.3522 137.395 22.3522L137.214 21.2479ZM143.278 15.3862V16.4481H137.405V15.3862H139.678V14.3561H141.026V15.3862H143.278ZM140.336 17.8604C139.678 17.8604 139.21 18.1471 139.221 18.6462C139.21 19.1559 139.678 19.432 140.336 19.432C141.016 19.432 141.472 19.1559 141.472 18.6462C141.472 18.1471 141.016 17.8604 140.336 17.8604ZM156.87 14.7384V15.4924C156.87 16.2038 156.87 17.0215 156.679 18.0622H157.921V19.1453H154.162V20.5364H156.88V23.9769H155.521V21.5983H149.967V20.5364H152.803V19.1453H149.075V18.0622H155.309C155.489 17.1595 155.516 16.4481 155.521 15.8109H150.159V14.7384H156.87ZM166.597 14.3136V23.9769H165.248V14.3136H166.597ZM158.516 21.2479C159.254 21.2426 160.098 21.2426 160.979 21.216V20.3983C159.918 20.2125 159.227 19.5541 159.238 18.6462C159.227 17.5631 160.215 16.8304 161.638 16.8304C163.071 16.8304 164.07 17.5631 164.07 18.6462C164.07 19.5488 163.379 20.2072 162.317 20.3983V21.1735C163.124 21.1364 163.942 21.0726 164.717 20.9718L164.813 21.97C162.7 22.331 160.417 22.3522 158.696 22.3522L158.516 21.2479ZM164.579 15.3862V16.4481H158.707V15.3862H160.979V14.3561H162.328V15.3862H164.579ZM161.638 17.8604C160.979 17.8604 160.512 18.1471 160.523 18.6462C160.512 19.1559 160.979 19.432 161.638 19.432C162.317 19.432 162.774 19.1559 162.774 18.6462C162.774 18.1471 162.317 17.8604 161.638 17.8604ZM168.434 20.0692C168.434 18.0728 169.05 16.4162 170.069 14.9826H171.567C170.834 16.0445 170.069 18.1683 170.069 20.0692C170.069 21.9806 170.834 24.1044 171.567 25.1663H170.069C169.05 23.7327 168.434 22.0655 168.434 20.0692ZM180.2 14.3243V19.7824H178.841V14.3243H180.2ZM180.2 20.2178V23.8708H173.722V20.2178H180.2ZM175.06 21.2903V22.7876H178.872V21.2903H175.06ZM174.901 14.7596C176.409 14.7596 177.545 15.7154 177.545 17.0958C177.545 18.4232 176.409 19.4002 174.901 19.4002C173.393 19.4002 172.257 18.4232 172.257 17.0958C172.257 15.7154 173.393 14.7596 174.901 14.7596ZM174.901 15.8959C174.126 15.8959 173.574 16.3419 173.584 17.0958C173.574 17.8179 174.126 18.2639 174.901 18.2639C175.655 18.2639 176.207 17.8179 176.207 17.0958C176.207 16.3419 175.655 15.8959 174.901 15.8959ZM185.265 16.5012C185.265 18.2745 186.072 20.0585 187.707 20.7488L186.911 21.8319C185.807 21.3328 185.042 20.3718 184.607 19.1772C184.166 20.478 183.375 21.5293 182.196 22.0655L181.379 20.9399C183.067 20.2284 183.885 18.3807 183.895 16.5012V15.057H185.265V16.5012ZM189.598 14.3136V23.9982H188.228V14.3136H189.598ZM199.027 14.3136V23.9769H197.679V14.3136H199.027ZM190.946 21.2479C191.684 21.2426 192.529 21.2426 193.41 21.216V20.3983C192.348 20.2125 191.658 19.5541 191.668 18.6462C191.658 17.5631 192.645 16.8304 194.068 16.8304C195.502 16.8304 196.5 17.5631 196.5 18.6462C196.5 19.5488 195.81 20.2072 194.748 20.3983V21.1735C195.555 21.1364 196.373 21.0726 197.148 20.9718L197.243 21.97C195.13 22.331 192.847 22.3522 191.127 22.3522L190.946 21.2479ZM197.01 15.3862V16.4481H191.137V15.3862H193.41V14.3561H194.758V15.3862H197.01ZM194.068 17.8604C193.41 17.8604 192.943 18.1471 192.953 18.6462C192.943 19.1559 193.41 19.432 194.068 19.432C194.748 19.432 195.204 19.1559 195.204 18.6462C195.204 18.1471 194.748 17.8604 194.068 17.8604ZM203.402 20.0692C203.402 22.0655 202.786 23.7327 201.767 25.1663H200.27C201.002 24.1044 201.767 21.9806 201.767 20.0692C201.767 18.1683 201.002 16.0445 200.27 14.9826H201.767C202.786 16.4162 203.402 18.0728 203.402 20.0692ZM210.252 23.1062C208.5 23.1062 207.236 22.1823 207.236 20.9293C207.236 19.963 207.979 19.1772 208.935 19.0285V18.9754C208.107 18.8161 207.533 18.1153 207.533 17.2764C207.533 16.0764 208.68 15.2056 210.252 15.2056C211.823 15.2056 212.97 16.0764 212.981 17.2764C212.97 18.1259 212.386 18.8161 211.579 18.9754V19.0285C212.514 19.1772 213.267 19.963 213.267 20.9293C213.267 22.1823 212.004 23.1062 210.252 23.1062ZM210.252 21.885C211.059 21.885 211.6 21.4284 211.6 20.77C211.6 20.101 211.037 19.6125 210.252 19.6125C209.466 19.6125 208.892 20.101 208.903 20.77C208.892 21.4284 209.434 21.885 210.252 21.885ZM210.252 18.4869C210.931 18.4869 211.42 18.0515 211.42 17.4356C211.42 16.841 210.942 16.4162 210.252 16.4162C209.561 16.4162 209.094 16.8304 209.094 17.4356C209.094 18.0515 209.572 18.4869 210.252 18.4869ZM217.536 17.3401C217.536 18.7099 218.248 20.2709 219.788 20.993L219.034 22.0124C218.004 21.5505 217.287 20.6373 216.878 19.5594C216.464 20.7222 215.699 21.7045 214.605 22.1823L213.862 21.1311C215.434 20.4408 216.188 18.7949 216.198 17.3401V16.9684H214.202V15.8853H216.188V14.526H217.547V15.8853H219.511V16.9684H217.536V17.3401ZM221.667 14.3136V18.0622H223.09V19.1984H221.667V23.9769H220.308V14.3136H221.667ZM228.41 14.6641V15.6304H232.286V14.6641H233.635V18.6143H231.022V19.432H234.76V20.5152H225.947V19.432H229.663V18.6143H227.072V14.6641H228.41ZM228.41 17.5312H232.286V16.6711H228.41V17.5312ZM233.762 22.7239V23.807H227.008V21.0673H228.368V22.7239H233.762ZM243.468 14.3136V23.9769H242.119V14.3136H243.468ZM235.387 21.2479C236.125 21.2426 236.969 21.2426 237.85 21.216V20.3983C236.789 20.2125 236.098 19.5541 236.109 18.6462C236.098 17.5631 237.086 16.8304 238.509 16.8304C239.942 16.8304 240.941 17.5631 240.941 18.6462C240.941 19.5488 240.25 20.2072 239.188 20.3983V21.1735C239.996 21.1364 240.813 21.0726 241.588 20.9718L241.684 21.97C239.571 22.331 237.288 22.3522 235.567 22.3522L235.387 21.2479ZM241.45 15.3862V16.4481H235.578V15.3862H237.85V14.3561H239.199V15.3862H241.45ZM238.509 17.8604C237.85 17.8604 237.383 18.1471 237.394 18.6462C237.383 19.1559 237.85 19.432 238.509 19.432C239.188 19.432 239.645 19.1559 239.645 18.6462C239.645 18.1471 239.188 17.8604 238.509 17.8604ZM247.875 14.9614C249.404 14.9508 250.551 15.949 250.551 17.3294C250.551 18.7205 249.404 19.7081 247.875 19.7081C246.346 19.7081 245.188 18.7205 245.188 17.3294C245.188 15.949 246.346 14.9508 247.875 14.9614ZM247.875 16.1295C247.11 16.1295 246.526 16.5755 246.537 17.3294C246.526 18.094 247.11 18.5294 247.875 18.5294C248.639 18.5294 249.223 18.094 249.234 17.3294C249.223 16.5755 248.65 16.1295 247.875 16.1295ZM252.866 14.3136V23.9982H251.517V14.3136H252.866ZM244.785 20.9187C246.505 20.9293 248.894 20.8974 250.965 20.6107L251.071 21.5877C248.926 22.0018 246.632 22.0231 244.944 22.0231L244.785 20.9187ZM262.975 18.6462V19.655H254.129V18.6462H262.975ZM261.913 20.1329V22.416H256.497V22.9681H262.2V23.892H255.149V21.5558H260.575V21.0673H255.138V20.1329H261.913ZM261.903 14.4835V16.756H256.582V17.2764H262.072V18.1896H255.234V15.8959H260.543V15.4074H255.213V14.4835H261.903ZM274.858 19.294V20.3559H266.023V19.294H269.761V18.6993H267.127V14.5473H273.828V15.5879H268.486V16.1295H273.605V17.1064H268.486V17.6586H273.913V18.6993H271.12V19.294H274.858ZM270.44 20.8019C272.575 20.7912 273.796 21.3647 273.806 22.3841C273.796 23.4248 272.575 23.9769 270.44 23.9769C268.274 23.9769 267.053 23.4248 267.053 22.3841C267.053 21.3647 268.274 20.7912 270.44 20.8019ZM270.44 21.8001C269.049 21.8001 268.401 21.9806 268.412 22.3841C268.401 22.7982 269.049 22.9788 270.44 22.9788C271.799 22.9788 272.437 22.7982 272.447 22.3841C272.437 21.9806 271.799 21.8001 270.44 21.8001ZM280.104 15.7897V16.8622H275.431V15.7897H277.109V14.5791H278.447V15.7897H280.104ZM277.789 17.2976C279.02 17.2976 279.902 18.2533 279.912 19.5913C279.902 20.9399 279.02 21.8956 277.789 21.8956C276.557 21.8956 275.654 20.9399 275.654 19.5913C275.654 18.2533 276.557 17.2976 277.789 17.2976ZM277.789 18.4232C277.226 18.4232 276.843 18.8586 276.843 19.5913C276.843 20.324 277.226 20.7488 277.789 20.7488C278.33 20.7488 278.712 20.324 278.723 19.5913C278.712 18.8586 278.33 18.4232 277.789 18.4232ZM283.799 14.3136V23.9769H282.514V19.3258H281.728V23.5628H280.465V14.5048H281.728V18.2427H282.514V14.3136H283.799Z" fill="white"/>
</svg>
