<svg width="291" height="21" viewBox="0 0 291 21" fill="none" xmlns="http://www.w3.org/2000/svg">
<path d="M33.1391 1.14527V1.97729C33.1391 3.02677 33.1391 4.19917 32.8176 5.9294L31.91 5.83485C32.2409 4.19917 32.2409 2.99841 32.2409 1.97729V1.87329H27.0975V1.14527H33.1391ZM34.0089 6.9127V7.65963H26.2844V6.9127H29.2248V3.92498H30.1135V6.9127H34.0089ZM41.6862 0.738709V1.45727H39.1051C39.1571 2.37912 40.3767 3.19223 41.951 3.38605L41.6106 4.09517C40.1593 3.90607 38.968 3.23005 38.5094 2.27984C38.0509 3.22532 36.8643 3.90607 35.4177 4.09517L35.0773 3.38605C36.661 3.19223 37.8665 2.37912 37.9138 1.45727H35.361V0.738709H41.6862ZM42.3953 4.64354V5.37156H39.0294V7.0167H38.1407V5.37156H34.6424V4.64354H42.3953ZM41.535 7.896V8.62402H35.6068V6.20359H36.505V7.896H41.535ZM45.7991 0.7198C47.0755 0.7198 48.002 1.42891 48.002 2.47839C48.002 3.51842 47.0755 4.23699 45.7991 4.22753C44.5227 4.23699 43.615 3.51842 43.615 2.47839C43.615 1.42891 44.5227 0.7198 45.7991 0.7198ZM45.7991 1.44782C45.0332 1.44782 44.4754 1.85438 44.4849 2.47839C44.4754 3.09296 45.0332 3.49951 45.7991 3.49006C46.5838 3.49951 47.1417 3.09296 47.1417 2.47839C47.1417 1.85438 46.5838 1.44782 45.7991 1.44782ZM50.0632 0.341608V8.80366H49.1744V0.341608H50.0632ZM43.0099 4.88937C44.5699 4.88937 46.7351 4.85155 48.5882 4.57736L48.6544 5.24865C47.8839 5.3952 47.0802 5.48502 46.3002 5.54175V8.53892H45.402V5.58902C44.5794 5.62684 43.8041 5.63157 43.1328 5.6363L43.0099 4.88937ZM57.6743 5.60793C59.4234 5.60793 60.4824 6.19413 60.4824 7.19634C60.4824 8.20801 59.4234 8.7942 57.6743 8.80366C55.9063 8.7942 54.8284 8.20801 54.8284 7.19634C54.8284 6.19413 55.9063 5.60793 57.6743 5.60793ZM57.6743 6.31704C56.4452 6.31704 55.7172 6.62905 55.7266 7.19634C55.7172 7.76363 56.4452 8.08509 57.6743 8.08509C58.894 8.08509 59.6031 7.76363 59.6031 7.19634C59.6031 6.62905 58.894 6.31704 57.6743 6.31704ZM60.4067 0.332153V2.40276H61.6359V3.16859H60.4067V5.39047H59.5085V0.332153H60.4067ZM54.9608 0.861622V2.08129H57.1827V0.861622H58.0714V4.79482H54.0815V0.861622H54.9608ZM54.9608 4.07626H57.1827V2.7904H54.9608V4.07626ZM65.0585 2.48785C65.0491 3.99116 65.9189 5.52284 67.1858 6.1374L66.628 6.85597C65.7062 6.3785 64.9923 5.42829 64.6236 4.29372C64.2407 5.50393 63.4985 6.5156 62.5341 7.0167L61.9762 6.28868C63.281 5.66466 64.1603 4.03844 64.1603 2.48785V1.04126H65.0585V2.48785ZM68.7175 0.332153V3.70752H70.079V4.47336H68.7175V8.80366H67.8193V0.332153H68.7175ZM73.4922 1.5991C73.4922 2.7904 74.258 3.84934 75.5439 4.26535L75.0522 4.96501C74.1209 4.62936 73.4355 3.97698 73.0667 3.13078C72.698 4.09989 71.9605 4.85155 70.9394 5.22029L70.4572 4.50172C71.8092 4.03844 72.594 2.91331 72.6034 1.63692V0.804893H73.4922V1.5991ZM77.5483 0.332153V5.33374H76.6501V2.7904H74.8631V2.05293H76.6501V0.332153H77.5483ZM74.7119 5.57012C76.4894 5.57012 77.5767 6.15631 77.5767 7.18689C77.5767 8.20801 76.4894 8.7942 74.7119 8.78475C72.9344 8.7942 71.8376 8.20801 71.8471 7.18689C71.8376 6.15631 72.9344 5.57012 74.7119 5.57012ZM74.7119 6.26977C73.4733 6.26977 72.7358 6.60069 72.7358 7.18689C72.7358 7.75418 73.4733 8.07564 74.7119 8.07564C75.9504 8.07564 76.6879 7.75418 76.6879 7.18689C76.6879 6.60069 75.9504 6.26977 74.7119 6.26977ZM88.5443 0.332153V8.80366H87.6839V0.332153H88.5443ZM86.8802 0.521249V8.36874H86.0387V5.22029H84.9892V4.48281H86.0387V3.46169H84.9892V2.72422H86.0387V0.521249H86.8802ZM85.1878 1.36273V2.1002H84.5354V5.9294C84.8238 5.91049 85.098 5.88212 85.3485 5.85376L85.4147 6.52505C84.1005 6.75197 82.3419 6.78033 81.2262 6.78978L81.1222 6.0334L81.9543 6.02395V2.1002H81.3019V1.36273H85.1878ZM82.7674 6.01449L83.7128 5.97667V2.1002H82.7674V6.01449ZM96.6281 0.332153V8.80366H95.7204V0.332153H96.6281ZM94.1037 1.23981C94.1037 3.71697 93.0447 5.87267 90.1421 7.26253L89.6694 6.53451C91.9243 5.46138 93.0211 3.93443 93.196 1.95838H90.0759V1.23981H94.1037ZM105.676 3.83989V4.55845H102.254V5.29593H104.703V7.28143H99.7671V8.02836H104.939V8.71857H98.8878V6.62905H103.814V5.98613H98.8784V5.29593H101.356V4.55845H97.9518V3.83989H105.676ZM104.684 0.606342V3.21587H98.9445V0.606342H104.684ZM99.8238 1.31545V2.50676H103.785V1.31545H99.8238ZM115.755 0.332153V8.82257H114.857V4.41663H113.108V3.68861H114.857V0.332153H115.755ZM111.69 3.05514C111.69 4.39772 112.55 5.76867 113.855 6.34541L113.354 7.03561C112.385 6.60542 111.638 5.72139 111.264 4.653C110.891 5.78285 110.148 6.72833 109.175 7.17743L108.683 6.48723C109.969 5.90103 110.801 4.45445 110.801 3.05514V2.4973H108.919V1.77874H110.81V0.502339H111.709V1.77874H113.543V2.4973H111.69V3.05514ZM124.794 4.76646V5.48502H121.428V7.04506H120.539V5.48502H117.041V4.76646H124.794ZM123.934 7.896V8.62402H118.005V6.30759H118.894V7.896H123.934ZM118.951 0.596887V1.62746H122.875V0.596887H123.773V4.01953H118.062V0.596887H118.951ZM118.951 3.30096H122.875V2.29875H118.951V3.30096ZM128.529 2.48785C128.519 4.03844 129.455 5.58902 130.769 6.17522L130.23 6.88433C129.257 6.42105 128.486 5.47084 128.094 4.31263C127.697 5.55121 126.917 6.57705 125.9 7.07343L125.352 6.31704C126.685 5.72139 127.621 4.10462 127.621 2.48785V1.04126H128.529V2.48785ZM132.433 0.332153V8.82257H131.535V0.332153H132.433ZM140.848 0.332153V4.69082H139.95V2.51621H138.163V1.78819H139.95V0.332153H140.848ZM140.848 5.08792V7.19634H136.206V7.98109H141.141V8.69966H135.327V6.5156H139.959V5.79703H135.308V5.08792H140.848ZM136.764 1.34382C136.764 2.42166 137.539 3.42387 138.815 3.83043L138.343 4.53009C137.411 4.20862 136.707 3.57042 136.338 2.76204C135.965 3.6697 135.237 4.38354 134.239 4.72864L133.757 4.01007C135.081 3.58461 135.866 2.53512 135.875 1.34382V0.606342H136.764V1.34382ZM152.26 5.31484V6.02395H148.8V8.80366H147.92V6.02395H144.507V5.31484H152.26ZM146.36 0.672526V1.77874H150.388V0.672526H151.286V4.35045H145.472V0.672526H146.36ZM146.36 3.63188H150.388V2.4973H146.36V3.63188ZM156.004 2.82822C156.004 4.24644 156.931 5.71194 158.236 6.26977L157.744 6.96943C156.747 6.52978 155.952 5.59848 155.56 4.4639C155.168 5.67412 154.369 6.70469 153.385 7.18689L152.865 6.47778C154.142 5.88212 155.087 4.28426 155.097 2.82822V1.93001H153.158V1.18309H157.933V1.93001H156.004V2.82822ZM159.9 0.332153V8.80366H159.001V0.332153H159.9ZM164.239 1.88274C164.239 3.02677 165.005 4.14244 166.282 4.58682L165.79 5.28647C164.863 4.93192 164.173 4.23226 163.814 3.34824C163.445 4.33154 162.722 5.10683 161.724 5.48502L161.242 4.77591C162.556 4.30317 163.341 3.13078 163.351 1.85438V0.852167H164.239V1.88274ZM168.314 0.341608V6.65742H167.416V3.00786H165.629V2.27039H167.416V0.341608H168.314ZM168.504 7.896V8.62402H162.783V5.94831H163.691V7.896H168.504ZM176.682 0.332153V5.37156H175.784V3.22532H174.205V2.48785H175.784V0.332153H176.682ZM173.845 5.60793C175.623 5.60793 176.71 6.19413 176.71 7.2058C176.71 8.21746 175.623 8.7942 173.845 8.80366C172.068 8.7942 170.971 8.21746 170.981 7.2058C170.971 6.19413 172.068 5.60793 173.845 5.60793ZM173.845 6.30759C172.607 6.30759 171.869 6.62905 171.869 7.2058C171.869 7.77308 172.607 8.104 173.845 8.09455C175.084 8.104 175.822 7.77308 175.822 7.2058C175.822 6.62905 175.084 6.30759 173.845 6.30759ZM172.654 1.82601C172.654 2.90386 173.42 3.94389 174.696 4.37881L174.233 5.08792C173.283 4.757 172.583 4.08098 172.219 3.24423C171.846 4.19444 171.104 4.95555 170.092 5.32429L169.619 4.60572C170.933 4.15189 171.737 3.00786 171.737 1.83547V1.64637H169.903V0.918351H174.47V1.64637H172.654V1.82601ZM179.509 7.34762L178.753 9.95714H177.949L178.45 7.34762H179.509ZM189.871 0.332153V8.80366H188.964V0.332153H189.871ZM187.347 1.23981C187.347 3.71697 186.288 5.87267 183.385 7.26253L182.913 6.53451C185.168 5.46138 186.264 3.93443 186.439 1.95838H183.319V1.23981H187.347ZM195.516 0.653616C195.516 1.62746 196.858 2.44057 198.513 2.62967L198.201 3.31042C196.811 3.14496 195.596 2.55876 195.053 1.69364C194.504 2.55876 193.289 3.14496 191.914 3.31042L191.602 2.62967C193.256 2.44057 194.599 1.62746 194.599 0.653616V0.369972H195.516V0.653616ZM198.92 3.80207V4.52063H195.497V5.27702H197.946V7.28143H193.01V8.02836H198.182V8.71857H192.131V6.62905H197.057V5.96722H192.122V5.27702H194.599V4.52063H191.195V3.80207H198.92ZM206.814 0.332153V8.80366H205.954V4.40717H204.905V8.3971H204.063V0.559068H204.905V3.67915H205.954V0.332153H206.814ZM203.222 1.41C203.212 3.64133 202.475 5.6363 200.054 7.00725L199.534 6.38323C201.416 5.31956 202.21 3.8777 202.352 2.14748H199.894V1.41H203.222ZM209.14 0.691435V1.84492H211.362V0.691435H212.251V4.38826H208.261V0.691435H209.14ZM209.14 3.6697H211.362V2.53512H209.14V3.6697ZM214.586 0.332153V2.10966H215.815V2.83768H214.586V4.69082H213.688V0.332153H214.586ZM214.586 5.05956V7.19634H210.01V8H214.879V8.71857H209.131V6.53451H213.698V5.76867H209.112V5.05956H214.586ZM217.82 7.34762L217.063 9.95714H216.26L216.761 7.34762H217.82ZM228.163 0.341608V6.49669H227.265V0.341608H228.163ZM228.419 7.896V8.62402H222.623V5.87267H223.531V7.896H228.419ZM223.568 0.908896C224.845 0.908896 225.819 1.77874 225.819 3.00786C225.819 4.2559 224.845 5.11628 223.568 5.11628C222.292 5.11628 221.309 4.2559 221.309 3.00786C221.309 1.77874 222.292 0.908896 223.568 0.908896ZM223.568 1.69364C222.774 1.69364 222.188 2.23257 222.188 3.00786C222.188 3.80207 222.774 4.33154 223.568 4.33154C224.344 4.33154 224.939 3.80207 224.939 3.00786C224.939 2.23257 224.344 1.69364 223.568 1.69364ZM233.543 0.842712V3.31042H230.745V4.48281C232.219 4.48754 233.023 4.45445 233.978 4.27481L234.063 5.00283C233.033 5.18247 232.163 5.21083 230.47 5.21083H229.856V2.62967H232.645V1.56128H229.846V0.842712H233.543ZM236.569 0.341608V5.55121H235.67V4.05735H234.082V3.33878H235.67V2.2893H234.082V1.57073H235.67V0.341608H236.569ZM236.569 5.97667V8.81311H235.67V6.70469H230.82V5.97667H236.569ZM245.73 1.53291V2.27039H244.53V3.34824H245.73V4.09517H244.53V5.33374H243.631V0.332153H244.53V1.53291H245.73ZM240.256 0.823803C241.551 0.823803 242.506 1.64637 242.516 2.83768C242.506 4.01953 241.551 4.84209 240.256 4.85155C238.961 4.84209 237.996 4.01953 238.006 2.83768C237.996 1.64637 238.961 0.823803 240.256 0.823803ZM240.256 1.58019C239.462 1.58019 238.876 2.09075 238.885 2.83768C238.876 3.59406 239.462 4.08571 240.256 4.09517C241.05 4.08571 241.636 3.59406 241.636 2.83768C241.636 2.09075 241.05 1.58019 240.256 1.58019ZM241.797 5.56066C243.527 5.56066 244.605 6.15631 244.605 7.17743C244.605 8.1891 243.527 8.7942 241.797 8.78475C240.048 8.7942 238.951 8.1891 238.951 7.17743C238.951 6.15631 240.048 5.56066 241.797 5.56066ZM241.797 6.28868C240.568 6.28868 239.84 6.61014 239.849 7.17743C239.84 7.75418 240.568 8.06618 241.797 8.06618C243.017 8.06618 243.726 7.75418 243.726 7.17743C243.726 6.61014 243.017 6.28868 241.797 6.28868ZM249.248 1.5991C249.248 2.7904 250.013 3.84934 251.299 4.26535L250.808 4.96501C249.876 4.62936 249.191 3.97698 248.822 3.13078C248.453 4.09989 247.716 4.85155 246.695 5.22029L246.213 4.50172C247.565 4.03844 248.349 2.91331 248.359 1.63692V0.804893H249.248V1.5991ZM253.304 0.332153V5.33374H252.405V2.7904H250.619V2.05293H252.405V0.332153H253.304ZM250.467 5.57012C252.245 5.57012 253.332 6.15631 253.332 7.18689C253.332 8.20801 252.245 8.7942 250.467 8.78475C248.69 8.7942 247.593 8.20801 247.602 7.18689C247.593 6.15631 248.69 5.57012 250.467 5.57012ZM250.467 6.26977C249.229 6.26977 248.491 6.60069 248.491 7.18689C248.491 7.75418 249.229 8.07564 250.467 8.07564C251.706 8.07564 252.443 7.75418 252.443 7.18689C252.443 6.60069 251.706 6.26977 250.467 6.26977ZM264.706 4.31263V5.0501H256.972V4.31263H264.706ZM263.808 2.84713V3.57515H257.937V0.634707H263.751V1.37218H258.825V2.84713H263.808ZM260.83 5.71194C262.655 5.71194 263.751 6.26977 263.751 7.25307C263.751 8.23637 262.655 8.7942 260.83 8.78475C258.995 8.7942 257.889 8.23637 257.889 7.25307C257.889 6.26977 258.995 5.71194 260.83 5.71194ZM260.83 6.40214C259.534 6.41159 258.797 6.71415 258.797 7.25307C258.797 7.79199 259.534 8.09455 260.83 8.09455C262.106 8.09455 262.853 7.79199 262.853 7.25307C262.853 6.71415 262.106 6.41159 260.83 6.40214ZM7.55911 13.0129V13.826C7.55911 14.9039 7.55911 16.1141 7.20928 17.9389L5.99906 17.8159C6.32525 16.1897 6.33944 14.9795 6.34889 13.9678H1.28112V13.0129H7.55911ZM8.31549 18.8371V19.8204H0.468003V18.8371H3.27608V15.8777H4.47684V18.8371H8.31549ZM15.9739 12.6347V13.5802H13.6007C13.7425 14.2893 14.6313 15.0079 16.3332 15.197L15.8888 16.1424C14.2767 15.9628 13.1989 15.2915 12.7498 14.4028C12.296 15.2868 11.2276 15.9628 9.62025 16.1424L9.18533 15.197C10.8872 15.0079 11.7665 14.2798 11.9083 13.5802H9.55407V12.6347H15.9739ZM16.7019 16.549V17.5134H13.4589V18.9978H12.2676V17.5134H8.82605V16.549H16.7019ZM15.8321 19.7542V20.7186H9.75262V18.232H10.9534V19.7542H15.8321ZM20.0111 12.6253C21.3253 12.6158 22.2802 13.3627 22.2802 14.45C22.2802 15.5279 21.3253 16.2843 20.0111 16.2748C18.6969 16.2843 17.7419 15.5279 17.7514 14.45C17.7419 13.3627 18.6969 12.6158 20.0111 12.6253ZM20.0111 13.5896C19.3682 13.5896 18.9143 13.9017 18.9143 14.45C18.9143 14.989 19.3682 15.301 20.0111 15.2915C20.6729 15.301 21.1362 14.989 21.1362 14.45C21.1362 13.9017 20.6729 13.5896 20.0111 13.5896ZM24.4548 12.2754V20.8698H23.2635V12.2754H24.4548ZM17.2219 16.8043C18.7441 16.8043 20.9093 16.7665 22.7435 16.4923L22.8192 17.381C22.1101 17.5228 21.382 17.6127 20.6635 17.6647V20.6146H19.4627V17.7403C18.7063 17.7734 17.9925 17.7781 17.3732 17.7876L17.2219 16.8043ZM31.8107 17.5323C33.5976 17.5323 34.7133 18.1469 34.7133 19.1963C34.7133 20.2647 33.5976 20.8793 31.8107 20.8793C29.9859 20.8793 28.8608 20.2647 28.8608 19.1963C28.8608 18.1469 29.9859 17.5323 31.8107 17.5323ZM31.8107 18.4683C30.6761 18.4683 30.0615 18.7047 30.071 19.1963C30.0615 19.688 30.6761 19.9433 31.8107 19.9433C32.9264 19.9433 33.522 19.688 33.522 19.1963C33.522 18.7047 32.9264 18.4683 31.8107 18.4683ZM34.6282 12.266V14.2609H35.7912V15.2726H34.6282V17.3432H33.418V12.266H34.6282ZM29.2579 12.8049V13.8922H31.0165V12.8049H32.2267V16.8515H28.0571V12.8049H29.2579ZM29.2579 15.8966H31.0165V14.8282H29.2579V15.8966ZM39.3367 14.2137C39.3273 15.7548 39.9891 17.3148 41.3695 17.9767L40.6415 18.9411C39.7196 18.4872 39.1003 17.6363 38.7411 16.5963C38.3676 17.7119 37.701 18.6243 36.7272 19.1018L35.9803 18.1279C37.4363 17.4567 38.1265 15.8115 38.1265 14.2137V12.9278H39.3367V14.2137ZM42.9579 12.266V15.5846H44.2248V16.6057H42.9579V20.8698H41.7477V12.266H42.9579ZM47.7893 13.4384C47.7799 14.5919 48.3755 15.6508 49.7559 16.0763L49.1224 17.0217C48.1959 16.7003 47.5671 16.1046 47.2126 15.3293C46.8249 16.2275 46.13 16.9366 45.0947 17.2865L44.4612 16.3221C45.9362 15.8493 46.5602 14.6959 46.5696 13.4951V12.7103H47.7893V13.4384ZM51.7887 12.266V17.3054H50.5879V14.8282H48.9712V13.8449H50.5879V12.266H51.7887ZM48.8482 17.5323C50.6825 17.5323 51.8076 18.1469 51.8171 19.2058C51.8076 20.2647 50.6825 20.8698 48.8482 20.8698C47.014 20.8698 45.8889 20.2647 45.8889 19.2058C45.8889 18.1469 47.014 17.5323 48.8482 17.5323ZM48.8482 18.4683C47.7042 18.4683 47.0897 18.7141 47.0897 19.2058C47.0897 19.6785 47.7042 19.9338 48.8482 19.9338C49.9923 19.9338 50.6163 19.6785 50.6163 19.2058C50.6163 18.7141 49.9923 18.4683 48.8482 18.4683ZM62.6617 12.266V20.8698H61.4988V12.266H62.6617ZM60.922 12.4362V20.4633H59.7969V17.3337H58.9554V16.3504H59.7969V15.6224H58.9554V14.6391H59.7969V12.4362H60.922ZM59.1445 13.2209V14.1947H58.5961V17.8443C58.8325 17.8254 59.0594 17.8018 59.2674 17.7781L59.3525 18.6763C58.0383 18.9032 56.2797 18.9411 55.1735 18.9411L55.0411 17.9483L55.7597 17.9389V14.1947H55.2019V13.2209H59.1445ZM56.8281 17.9294L57.5088 17.901V14.1947H56.8281V17.9294ZM70.7361 12.266V20.8698H69.5164V12.266H70.7361ZM68.155 13.1642C68.155 15.7737 67.2378 17.9389 64.165 19.3949L63.5316 18.4305C65.7534 17.381 66.732 16.0195 66.9258 14.1097H63.9948V13.1642H68.155ZM79.7182 15.6792V16.6341H76.3901V17.1825H78.7633V19.3854H73.9697V19.9055H78.9902V20.8131H72.7878V18.5345H77.5719V18.0901H72.7784V17.1825H75.1799V16.6341H71.8707V15.6792H79.7182ZM78.7254 12.5118V15.2253H72.8445V12.5118H78.7254ZM74.0264 13.4478V14.2988H77.5247V13.4478H74.0264ZM87.2915 12.89V13.4289C87.2915 14.0246 87.2915 14.885 87.0929 15.9533L85.9111 15.8399C86.0624 15.0126 86.1002 14.3886 86.1096 13.8733H82.8666V12.89H87.2915ZM85.1547 14.8755V16.5206C86.0104 16.4875 86.8897 16.4214 87.698 16.3032L87.7642 17.173C85.9773 17.5039 83.9539 17.5323 82.4601 17.5418L82.3561 16.5774C82.8383 16.5774 83.3819 16.5774 83.9539 16.5585V14.8755H85.1547ZM89.3999 12.266V14.885H90.4399V15.8966H89.3999V18.7047H88.1613V12.266H89.3999ZM89.6646 19.7542V20.7186H83.623V18.1279H84.8332V19.7542H89.6646ZM98.0511 12.266V20.8888H96.8503V12.266H98.0511ZM95.3848 12.9845V16.3032H92.5484V17.8821C93.8578 17.8774 94.9735 17.8018 96.2357 17.5985L96.3397 18.5723C94.9215 18.8181 93.6451 18.8749 92.0756 18.8749H91.3003V15.3482H94.1557V13.9584H91.2909V12.9845H95.3848ZM102.372 14.2137C102.362 15.7548 103.024 17.3148 104.405 17.9767L103.677 18.9411C102.755 18.4872 102.136 17.6363 101.776 16.5963C101.403 17.7119 100.736 18.6243 99.7624 19.1018L99.0154 18.1279C100.471 17.4567 101.162 15.8115 101.162 14.2137V12.9278H102.372V14.2137ZM105.993 12.266V15.5846H107.26V16.6057H105.993V20.8698H104.783V12.266H105.993ZM109.974 12.6347C111.075 12.6253 111.95 13.254 112.186 14.1758H113.623V12.266H114.824V16.8894H113.623V15.1402H112.195C111.969 16.0857 111.085 16.7286 109.974 16.7286C108.65 16.7286 107.676 15.8683 107.686 14.6675C107.676 13.4856 108.65 12.6253 109.974 12.6347ZM109.974 13.6369C109.302 13.6275 108.82 14.0246 108.83 14.6675C108.82 15.3104 109.302 15.717 109.974 15.717C110.626 15.717 111.099 15.3104 111.099 14.6675C111.099 14.0246 110.626 13.6275 109.974 13.6369ZM110.276 17.2676V18.0996H113.623V17.2676H114.824V20.7753H109.085V17.2676H110.276ZM110.276 19.8014H113.623V19.0262H110.276V19.8014ZM119.863 12.3889C121.839 12.3889 122.983 12.9089 122.993 13.8544C122.983 14.8093 121.839 15.3293 119.863 15.3293C117.878 15.3293 116.724 14.8093 116.724 13.8544C116.724 12.9089 117.878 12.3889 119.863 12.3889ZM119.863 13.2682C118.596 13.2682 117.982 13.4762 117.991 13.8544C117.982 14.2798 118.596 14.4406 119.863 14.4406C121.14 14.4406 121.745 14.2798 121.745 13.8544C121.745 13.4762 121.14 13.2682 119.863 13.2682ZM123.787 15.7359V16.6908H115.94V15.7359H123.787ZM122.832 17.1919V19.3854H118.039V19.9055H123.059V20.8131H116.857V18.544H121.641V18.0712H116.847V17.1919H122.832ZM129.252 14.2326C129.252 15.0835 129.744 15.9344 130.831 16.2937L130.292 17.2014C129.531 16.9319 129.011 16.4355 128.704 15.821C128.401 16.497 127.876 17.0406 127.087 17.3337L126.538 16.445C127.616 16.0384 128.108 15.1497 128.108 14.2326V14.1853H126.775V13.2398H128.108V12.3511H129.252V13.2398H130.576V14.1853H129.252V14.2326ZM133.932 12.2754V17.5323H132.788V15.405H132.098V17.5134H130.963V12.4078H132.098V14.4311H132.788V12.2754H133.932ZM133.932 17.901V20.8698H132.731V18.8749H127.985V17.901H133.932ZM142.11 12.2754V17.1352H140.9V12.2754H142.11ZM142.11 17.5228V20.7753H136.343V17.5228H142.11ZM137.534 18.4778V19.8109H140.929V18.4778H137.534ZM137.392 12.6631C138.735 12.6631 139.747 13.514 139.747 14.7431C139.747 15.925 138.735 16.7948 137.392 16.7948C136.05 16.7948 135.038 15.925 135.038 14.7431C135.038 13.514 136.05 12.6631 137.392 12.6631ZM137.392 13.6747C136.702 13.6747 136.211 14.0718 136.22 14.7431C136.211 15.3861 136.702 15.7832 137.392 15.7832C138.064 15.7832 138.555 15.3861 138.555 14.7431C138.555 14.0718 138.064 13.6747 137.392 13.6747ZM146.611 14.6108C146.611 16.0006 147.32 17.485 148.767 18.0901L148.114 19.0356C147.098 18.6054 146.398 17.7498 146.015 16.7003C145.623 17.8396 144.909 18.7851 143.897 19.2531L143.207 18.2981C144.635 17.6647 145.372 16.0668 145.372 14.6108V14.0813H143.548V13.098H148.407V14.0813H146.611V14.6108ZM150.478 12.266V20.8698H149.258V12.266H150.478ZM158.732 13.0129V13.826C158.732 14.9039 158.732 16.1141 158.382 17.9389L157.172 17.8159C157.498 16.1897 157.512 14.9795 157.522 13.9678H152.454V13.0129H158.732ZM159.488 18.8371V19.8204H151.641V18.8371H154.449V15.8777H155.65V18.8371H159.488ZM165.35 14.9606C165.35 16.1803 165.984 17.5701 167.355 18.213L166.683 19.1207C165.766 18.7094 165.128 17.8963 164.764 16.9366C164.395 17.9719 163.715 18.8465 162.741 19.272L162.079 18.336C163.478 17.7214 164.15 16.2559 164.159 14.9606V14.6297H162.382V13.6653H164.15V12.4551H165.36V13.6653H167.109V14.6297H165.35V14.9606ZM169.028 12.266V15.6035H170.295V16.6152H169.028V20.8698H167.818V12.266H169.028ZM177.802 12.266V16.6814H176.602V12.266H177.802ZM177.812 17.0217V19.3193H173.236V19.8865H178.048V20.8131H172.054V18.4589H176.611V17.9389H172.035V17.0217H177.812ZM175.694 12.6631V13.6275H173.973C174.058 14.4878 174.701 15.3199 176.025 15.6697L175.448 16.5963C174.451 16.3221 173.76 15.7453 173.377 15.0079C172.98 15.8304 172.252 16.4781 171.193 16.7759L170.645 15.821C171.988 15.4522 172.645 14.5446 172.725 13.6275H170.967V12.6631H175.694ZM183.277 17.2959V18.1563H184.203V17.2959H185.319V19.9055C186.274 19.48 186.68 18.6763 186.68 17.8916V17.2297H187.891V17.8916C187.881 18.7709 188.307 19.6029 189.384 19.9527L188.76 20.8509C188.018 20.5957 187.541 20.104 187.267 19.4894C186.978 20.0851 186.505 20.5815 185.811 20.8509L185.319 20.104V20.7753H182.161V17.2959H183.277ZM183.277 19.8582H184.203V19.0451H183.277V19.8582ZM183.608 12.5874C184.704 12.5874 185.579 13.1973 185.82 14.1097H187.257V12.266H188.458V16.8232H187.257V15.1024H185.82C185.588 16.0337 184.709 16.653 183.608 16.653C182.284 16.653 181.31 15.8115 181.32 14.6108C181.31 13.4289 182.284 12.5874 183.608 12.5874ZM183.608 13.5802C182.936 13.5802 182.454 13.9773 182.464 14.6108C182.454 15.2631 182.936 15.6602 183.608 15.6697C184.26 15.6602 184.733 15.2631 184.733 14.6108C184.733 13.9773 184.26 13.5802 183.608 13.5802ZM196.778 12.266V20.8888H195.558V12.266H196.778ZM192.107 12.8711C193.403 12.8711 194.367 14.0624 194.367 15.9344C194.367 17.8254 193.403 19.0072 192.107 19.0072C190.784 19.0072 189.819 17.8254 189.829 15.9344C189.819 14.0624 190.784 12.8711 192.107 12.8711ZM192.107 13.9584C191.436 13.9584 190.992 14.658 190.992 15.9344C190.992 17.2203 191.436 17.9105 192.107 17.9105C192.76 17.9105 193.204 17.2203 193.204 15.9344C193.204 14.658 192.76 13.9584 192.107 13.9584ZM208.02 17.4188V18.4021H204.682V20.8793H203.491V18.4021H200.172V17.4188H208.02ZM207.301 13.2587V14.2042H204.72C204.857 14.9606 205.826 15.8115 207.604 16.0101L207.169 16.9556C205.713 16.7901 204.659 16.1944 204.096 15.405C203.538 16.2039 202.475 16.7901 201.004 16.9556L200.57 16.0101C202.347 15.8115 203.326 14.9653 203.472 14.2042H200.882V13.2587H203.491V12.2754H204.682V13.2587H207.301ZM211.896 13.9678C211.896 14.9984 212.53 16.0479 213.948 16.4734L213.334 17.4188C212.369 17.1163 211.688 16.497 211.301 15.717C210.908 16.5632 210.209 17.2439 209.202 17.5796L208.578 16.6341C210.005 16.1708 210.667 15.0551 210.667 13.9678V13.8449H208.899V12.8805H213.627V13.8449H211.896V13.9678ZM215.744 12.2754V18.4967H214.534V12.2754H215.744ZM215.971 19.7542V20.7186H209.977V17.9294H211.197V19.7542H215.971ZM223.734 12.266V14.3838H224.897V15.3955H223.734V17.4567H222.524V12.266H223.734ZM223.734 17.8348V20.7753H218.108V17.8348H223.734ZM219.299 18.7803V19.8109H222.542V18.7803H219.299ZM222.013 13.0413V13.9962H216.907V13.0413H218.865V12.2187H220.065V13.0413H222.013ZM219.46 14.2609C220.708 14.2609 221.578 14.8944 221.578 15.8021C221.578 16.7381 220.708 17.3621 219.46 17.3621C218.193 17.3621 217.323 16.7381 217.323 15.8021C217.323 14.8944 218.193 14.2609 219.46 14.2609ZM219.46 15.1686C218.883 15.1686 218.496 15.3955 218.505 15.8021C218.496 16.237 218.883 16.4734 219.46 16.4734C220.037 16.4734 220.434 16.237 220.434 15.8021C220.434 15.3955 220.037 15.1686 219.46 15.1686ZM229.199 12.3889C231.175 12.3889 232.319 12.9089 232.328 13.8544C232.319 14.8093 231.175 15.3293 229.199 15.3293C227.213 15.3293 226.06 14.8093 226.06 13.8544C226.06 12.9089 227.213 12.3889 229.199 12.3889ZM229.199 13.2682C227.932 13.2682 227.317 13.4762 227.327 13.8544C227.317 14.2798 227.932 14.4406 229.199 14.4406C230.475 14.4406 231.08 14.2798 231.08 13.8544C231.08 13.4762 230.475 13.2682 229.199 13.2682ZM233.122 15.7359V16.6908H225.275V15.7359H233.122ZM232.167 17.1919V19.3854H227.374V19.9055H232.394V20.8131H226.192V18.544H230.976V18.0712H226.183V17.1919H232.167ZM242.728 12.6063V15.6319H240.393V16.4544H243.721V17.4283H235.874V16.4544H239.183V15.6319H236.848V12.6063H242.728ZM238.029 13.5424V14.6864H241.547V13.5424H238.029ZM242.766 18.0618V20.8698H241.566V19.0072H236.744V18.0618H242.766ZM252.117 18.9505V19.9149H244.241V18.9505H246.198V17.3148H244.894V16.341H246.047V13.9206H244.856V12.9562H251.455V13.9206H250.245V16.341H251.417V17.3148H250.122V18.9505H252.117ZM247.257 16.341H249.054V13.9206H247.257V16.341ZM247.409 18.9505H248.912V17.3148H247.409V18.9505ZM260.485 18.9222V19.9149H252.609V18.9222H255.927V17.6268H253.516V14.7337H258.386V13.7882H253.507V12.8238H259.577V15.6792H254.727V16.6435H259.776V17.6268H257.128V18.9222H260.485ZM270.034 12.266V14.3366H271.197V15.3388H270.034V17.3054H268.824V12.266H270.034ZM265.6 17.6363V18.2887H268.824V17.6363H270.034V20.7753H264.399V17.6363H265.6ZM265.6 19.8298H268.824V19.2153H265.6V19.8298ZM268.313 13.0224V13.9678H263.208V13.0224H265.165V12.2092H266.366V13.0224H268.313ZM265.76 14.2137C267.008 14.2137 267.878 14.8188 267.878 15.7359C267.878 16.653 267.008 17.2581 265.76 17.2581C264.493 17.2581 263.624 16.653 263.624 15.7359C263.624 14.8188 264.493 14.2137 265.76 14.2137ZM265.76 15.1024C265.184 15.093 264.796 15.3293 264.805 15.7359C264.796 16.1519 265.184 16.3788 265.76 16.3788C266.337 16.3788 266.734 16.1519 266.734 15.7359C266.734 15.3293 266.337 15.093 265.76 15.1024ZM278.808 12.266V20.8698H277.607V12.266H278.808ZM273.23 13.0885V17.7119C274.393 17.6978 275.641 17.589 276.908 17.3432L277.059 18.336C275.546 18.648 274.128 18.752 272.795 18.7425H272.038V13.0885H273.23ZM286.731 12.266V15.4617H287.998V16.445H286.731V20.8888H285.521V12.266H286.731ZM284.32 13.0602V14.034H281.484V17.8065C282.732 17.7923 283.762 17.7356 284.906 17.5323L285.039 18.544C283.706 18.7709 282.533 18.8087 281.011 18.7992H280.283V13.0602H284.32ZM289.426 20.0851C288.981 20.0851 288.622 19.7258 288.632 19.2909C288.622 18.856 288.981 18.5061 289.426 18.5061C289.842 18.5061 290.211 18.856 290.211 19.2909C290.211 19.7258 289.842 20.0851 289.426 20.0851Z" fill="black"/>
</svg>
