<svg width="354" height="166" viewBox="0 0 354 166" fill="none" xmlns="http://www.w3.org/2000/svg">
<path d="M72.9805 24.1094V32.8105H72.209V24.1094H72.9805ZM68.3613 24.7832C69.6504 24.793 70.5781 25.9648 70.5781 27.8105C70.5781 29.6562 69.6504 30.8281 68.3613 30.8281C67.0625 30.8281 66.1445 29.6562 66.1445 27.8105C66.1445 25.9648 67.0625 24.793 68.3613 24.7832ZM68.3613 25.4668C67.4922 25.4766 66.8867 26.3945 66.8867 27.8105C66.8867 29.2266 67.4922 30.1445 68.3613 30.1445C69.2305 30.1445 69.8359 29.2266 69.8359 27.8105C69.8359 26.3945 69.2305 25.4766 68.3613 25.4668ZM76.7988 24.7832C77.9805 24.793 78.8301 25.8037 78.957 27.4297H80.9004V24.1094H81.6621V32.8105H80.9004V28.0645H78.9668C78.874 29.7637 78.0098 30.8281 76.7988 30.8281C75.5195 30.8281 74.6211 29.6562 74.6211 27.8105C74.6211 25.9648 75.5195 24.793 76.7988 24.7832ZM76.7988 25.4668C75.9395 25.4766 75.3535 26.3945 75.3535 27.8105C75.3535 29.2266 75.9395 30.1445 76.7988 30.1445C77.6484 30.1445 78.2441 29.2266 78.2441 27.8105C78.2441 26.3945 77.6484 25.4766 76.7988 25.4668ZM86.2129 26.7754C86.2129 28.25 87.2871 29.7441 88.5664 30.3008L88.1367 30.9062C87.1211 30.4424 86.2422 29.4414 85.8418 28.2402C85.4316 29.5146 84.5576 30.623 83.5664 31.1211L83.1074 30.5156C84.3477 29.9199 85.4316 28.2793 85.4414 26.7754V25.6426H83.3906V25.0078H88.2832V25.6426H86.2129V26.7754ZM90.2656 24.1094V32.791H89.4941V24.1094H90.2656ZM98.7715 26.7461V27.3613H92.8242V24.4316H93.5859V26.7461H98.7715ZM99.6895 28.543V29.168H91.7402V28.543H99.6895ZM98.8203 31.9414V32.5762H92.7754V30.0566H93.5371V31.9414H98.8203ZM110.1 24.1094V32.8105H109.328V28.2402H107.424V27.6055H109.328V24.1094H110.1ZM105.9 26.9414C105.9 28.377 106.877 29.7832 108.166 30.3594L107.727 30.9551C106.74 30.501 105.92 29.5537 105.539 28.4062C105.158 29.6172 104.348 30.6328 103.361 31.1113L102.922 30.5156C104.191 29.9199 105.148 28.4355 105.148 26.9414V26.248H103.156V25.623H105.148V24.2754H105.91V25.623H107.873V26.248H105.9V26.9414ZM119.484 28.709V29.334H115.949V31.0332H115.188V29.334H111.535V28.709H119.484ZM118.596 31.9609V32.6055H112.551V30.2324H113.312V31.9609H118.596ZM113.361 24.3926V25.5059H117.658V24.3926H118.42V27.8594H112.6V24.3926H113.361ZM113.361 27.2344H117.658V26.0918H113.361V27.2344ZM123.273 26.4434C123.264 28.0254 124.348 29.627 125.627 30.2031L125.158 30.8086C124.172 30.3252 123.317 29.3047 122.902 28.0645C122.497 29.3779 121.643 30.4717 120.627 30.9844L120.139 30.3398C121.428 29.7441 122.502 28.0938 122.512 26.4434V24.8613H123.273V26.4434ZM127.346 24.1094V32.8105H126.574V24.1094H127.346ZM136.027 24.1094V28.6016H135.256V26.3457H133.322V25.7109H135.256V24.1094H136.027ZM136.027 29.041V31.1113H131.174V32.0586H136.35V32.6738H130.422V30.5254H135.266V29.6562H130.402V29.041H136.027ZM131.789 25.2129C131.779 26.3555 132.678 27.3906 133.947 27.8105L133.537 28.4062C132.575 28.0645 131.809 27.3809 131.428 26.502C131.057 27.4932 130.271 28.25 129.24 28.6211L128.82 28.0059C130.129 27.5762 131.027 26.4824 131.037 25.2129V24.3926H131.789V25.2129ZM147.18 24.1191V30.5352H146.408V27.4395H144.484V26.7949H146.408V24.1191H147.18ZM144.523 24.7832C144.514 27.0098 142.922 28.709 140.451 29.5195L140.119 28.9043C142.121 28.2451 143.513 27 143.684 25.4277H140.559V24.7832H144.523ZM147.404 31.9609V32.6055H141.652V29.8809H142.434V31.9609H147.404ZM155.822 24.1094V28.6016H155.051V26.3457H153.117V25.7109H155.051V24.1094H155.822ZM155.822 29.041V31.1113H150.969V32.0586H156.145V32.6738H150.217V30.5254H155.061V29.6562H150.197V29.041H155.822ZM151.584 25.2129C151.574 26.3555 152.473 27.3906 153.742 27.8105L153.332 28.4062C152.37 28.0645 151.604 27.3809 151.223 26.502C150.852 27.4932 150.065 28.25 149.035 28.6211L148.615 28.0059C149.924 27.5762 150.822 26.4824 150.832 25.2129V24.3926H151.584V25.2129ZM163.703 29.5977C165.568 29.5977 166.75 30.1836 166.75 31.1895C166.75 32.1855 165.568 32.7715 163.703 32.7715C161.848 32.7715 160.666 32.1855 160.666 31.1895C160.666 30.1836 161.848 29.5977 163.703 29.5977ZM163.703 30.1836C162.316 30.1934 161.418 30.5742 161.428 31.1895C161.418 31.7949 162.316 32.166 163.703 32.166C165.09 32.166 165.979 31.7949 165.988 31.1895C165.979 30.5742 165.09 30.1934 163.703 30.1836ZM166.682 24.5586V25.291C166.682 25.9941 166.682 26.6973 166.438 27.5957L165.686 27.5078C165.92 26.6094 165.92 25.9746 165.92 25.291V25.1836H160.725V24.5586H166.682ZM167.688 28.1621V28.7871H159.787V28.1621H163.059V26.4824H163.811V28.1621H167.688ZM171.33 26.4434C171.33 27.9766 172.346 29.5488 173.576 30.1543L173.107 30.7695C172.15 30.2666 171.35 29.2412 170.969 28.0352C170.578 29.3193 169.758 30.4131 168.781 30.9355L168.293 30.3203C169.562 29.6953 170.568 28.0254 170.578 26.4434V24.8613H171.33V26.4434ZM175.139 24.1094V27.6348H176.594V28.2988H175.139V32.791H174.377V24.1094H175.139ZM184.074 28.1816V28.8066H181.389V31.0527H185.012V31.6973H177.062V31.0527H180.637V28.8066H178.078V24.8223H183.986V25.4473H178.85V28.1816H184.074ZM190.549 24.7832C191.73 24.793 192.58 25.8037 192.707 27.4297H194.65V24.1094H195.412V32.8105H194.65V28.0645H192.717C192.624 29.7637 191.76 30.8281 190.549 30.8281C189.27 30.8281 188.371 29.6562 188.371 27.8105C188.371 25.9648 189.27 24.793 190.549 24.7832ZM190.549 25.4668C189.689 25.4766 189.104 26.3945 189.104 27.8105C189.104 29.2266 189.689 30.1445 190.549 30.1445C191.398 30.1445 191.994 29.2266 191.994 27.8105C191.994 26.3945 191.398 25.4766 190.549 25.4668ZM204.045 24.1094V32.8105H203.283V29.1094H201.477V28.4648H203.283V26.7363H201.545V26.0918H203.283V24.1094H204.045ZM200.979 24.9004V27.9863H197.951V30.125C199.255 30.1201 200.334 30.0713 201.652 29.8711L201.721 30.5156C200.334 30.7305 199.221 30.7793 197.834 30.7793H197.189V27.3613H200.227V25.5352H197.16V24.9004H200.979ZM213.439 28.5234V29.1582H209.914V30.9355H209.143V29.1582H205.49V28.5234H213.439ZM212.551 31.9512V32.6055H206.516V30.0664H207.287V31.9512H212.551ZM209.455 24.334C211.311 24.3438 212.512 25.0078 212.512 26.082C212.512 27.1562 211.311 27.8105 209.455 27.8105C207.6 27.8105 206.389 27.1562 206.389 26.082C206.389 25.0078 207.6 24.3438 209.455 24.334ZM209.455 24.959C208.107 24.959 207.199 25.3887 207.209 26.082C207.199 26.7559 208.107 27.1855 209.455 27.1855C210.803 27.1855 211.701 26.7559 211.701 26.082C211.701 25.3887 210.803 24.959 209.455 24.959ZM217.844 24.7441V28.1621C219.079 28.167 220.363 28.0889 221.779 27.791L221.867 28.4258C220.393 28.7383 219.074 28.8164 217.766 28.8164H217.072V24.7441H217.844ZM223.439 24.1191V26.6973H224.748V27.3613H223.439V30.3887H222.678V24.1191H223.439ZM223.752 31.9609V32.6055H218.039V29.7734H218.801V31.9609H223.752ZM230.109 24.7832V25.2422C230.1 25.8086 230.1 26.6777 229.885 27.8105L229.113 27.752C229.323 26.7119 229.343 25.9746 229.357 25.4277H225.783V24.7832H230.109ZM227.873 26.707V28.5723C228.835 28.5332 229.831 28.4648 230.734 28.3379L230.783 28.9043C228.967 29.2168 226.867 29.2559 225.324 29.2559L225.246 28.6211C225.808 28.6162 226.442 28.6113 227.111 28.5918V26.707H227.873ZM232.102 24.1094V26.9414H233.371V27.5957H232.102V30.6426H231.32V24.1094H232.102ZM232.385 31.9609V32.6055H226.584V30.0566H227.355V31.9609H232.385ZM237.893 24.2656C239.826 24.2656 240.959 24.793 240.959 25.7598C240.959 26.7461 239.826 27.2734 237.893 27.2832C235.959 27.2734 234.816 26.7461 234.816 25.7598C234.816 24.793 235.959 24.2656 237.893 24.2656ZM237.893 24.8418C236.447 24.8418 235.607 25.1934 235.617 25.7598C235.607 26.3652 236.447 26.6973 237.893 26.6973C239.328 26.6973 240.178 26.3652 240.178 25.7598C240.178 25.1934 239.328 24.8418 237.893 24.8418ZM241.848 27.8691V28.4941H233.938V27.8691H241.848ZM240.832 29.2461V31.1895H235.676V32.0879H241.096V32.6934H234.914V30.623H240.08V29.832H234.895V29.2461H240.832ZM251.994 24.5391V25.1348C251.994 25.7891 251.994 26.6338 251.779 27.7715H253.039V28.4062H245.09V27.7715H251.008C251.228 26.6338 251.232 25.8086 251.232 25.1641H246.096V24.5391H251.994ZM252.062 29.7051V32.8203H251.291V30.3203H245.93V29.7051H252.062ZM261.643 28.6016V29.2363H253.732V28.6016H257.307V27.5566H254.787V24.3145H255.549V25.3203H259.846V24.3145H260.607V27.5566H258.068V28.6016H261.643ZM260.666 30.0957V32.791H259.895V30.7109H254.611V30.0957H260.666ZM255.549 26.9414H259.846V25.9062H255.549V26.9414ZM266.711 25.6133V26.2383H262.355V25.6133H264.162V24.373H264.924V25.6133H266.711ZM264.533 26.8242C265.627 26.8242 266.408 27.6445 266.418 28.7969C266.408 29.959 265.627 30.7891 264.533 30.7891C263.449 30.7891 262.668 29.959 262.668 28.7969C262.668 27.6445 263.449 26.8242 264.533 26.8242ZM264.533 27.4688C263.85 27.4785 263.352 28.0352 263.352 28.7969C263.352 29.5684 263.85 30.125 264.533 30.1152C265.227 30.125 265.734 29.5684 265.734 28.7969C265.734 28.0352 265.227 27.4785 264.533 27.4688ZM269.768 24.1094V32.791H269.035V28.4062H267.883V32.3613H267.16V24.3242H267.883V27.7715H269.035V24.1094H269.768ZM277.736 24.1094V27.6445H279.143V28.2891H277.736V32.791H276.975V24.1094H277.736ZM275.49 25.0469C275.49 27.5078 274.338 29.7441 271.506 31.1406L271.076 30.5352C273.322 29.417 274.543 27.7471 274.719 25.6914H271.477V25.0469H275.49ZM283.967 24.9785V26.1992H286.096V24.1094H286.857V32.8105H286.096V29.2266H283.967V30.5938H280.012V24.9785H283.967ZM280.773 25.584V29.9785H283.225V25.584H280.773ZM283.967 28.5918H286.096V26.834H283.967V28.5918ZM289.729 31.3457L288.967 34.002H288.244L288.781 31.3457H289.729ZM8.83008 44L8.82031 43.3555L11.2324 40.8164C12.0723 39.9277 12.4727 39.4492 12.4727 38.7949C12.4727 38.0723 11.8574 37.5938 11.0664 37.5938C10.2266 37.5938 9.68945 38.1309 9.68945 38.9219H8.85938C8.84961 37.6719 9.81641 36.832 11.0957 36.832C12.375 36.832 13.293 37.6914 13.293 38.7949C13.293 39.5859 12.9219 40.2012 11.6719 41.4902L10.0508 43.1602V43.2188H13.4199V44H8.83008ZM17.0137 44.0977C15.4414 44.0977 14.543 42.7793 14.543 40.4648C14.543 38.1699 15.4609 36.832 17.0137 36.832C18.5664 36.832 19.4844 38.1699 19.4844 40.4648C19.4844 42.7793 18.5762 44.0977 17.0137 44.0977ZM17.0137 43.3164C18.0293 43.3164 18.625 42.291 18.625 40.4648C18.625 38.6387 18.0293 37.5938 17.0137 37.5938C15.998 37.5938 15.3926 38.6387 15.3926 40.4648C15.3926 42.291 15.9883 43.3164 17.0137 43.3164ZM23.4492 36.9297V44H22.1699V38.1699H22.1309L20.4805 39.2246V38.0625L22.2285 36.9297H23.4492ZM25.041 42.6816V41.666L28.0977 36.9297H29.6797V41.6367H30.6074V42.6816H29.6797V44H28.4688V42.6816H25.041ZM26.3398 41.6367H28.4883V38.375H28.4102L26.3398 41.5879V41.6367ZM38.7227 36.0508V42.5547H37.6387V39.6152H35.334V38.7559H37.6387V37.9551H35.334V37.0957H37.6387V36.0508H38.7227ZM38.9473 43.8145V44.6934H32.9219V41.9785H34.0156V43.8145H38.9473ZM32.9121 36.6367V40.4551C34.0352 40.4404 35.0947 40.3721 36.2812 40.1621L36.3887 41.041C35.0312 41.2949 33.8398 41.3438 32.5312 41.3535H31.8379V36.6367H32.9121ZM45.2852 44.0977C43.9082 44.0879 42.5215 43.2676 42.5312 40.6602C42.5312 38.2383 43.6348 36.832 45.3633 36.832C46.7305 36.832 47.668 37.6914 47.8242 38.834H46.5645C46.4375 38.2969 46.0078 37.9355 45.3633 37.9355C44.3379 37.9355 43.7617 38.8438 43.7617 40.3281H43.8301C44.1914 39.7227 44.875 39.3613 45.6465 39.3613C46.916 39.3613 47.8926 40.3184 47.8926 41.6562C47.8926 43.0625 46.8477 44.1074 45.2852 44.0977ZM45.2852 43.0723C46.0762 43.0723 46.6621 42.457 46.6621 41.6855C46.6621 40.9336 46.0859 40.3281 45.3047 40.3281C44.5137 40.3281 43.9082 40.9531 43.8984 41.6953C43.9082 42.4375 44.4844 43.0723 45.2852 43.0723ZM56.0762 36.0508V41.1973H54.9824V40.8359H53.332V40.1719H54.9824V36.0508H56.0762ZM48.6641 39.2344C50.373 39.2344 52.502 39.2148 54.3965 39.0293L54.4551 39.7129C53.6494 39.8252 52.8193 39.8936 52.0039 39.9277V41.207H50.9297V39.9766C50.1729 39.9961 49.4453 40.001 48.7812 39.9961L48.6641 39.2344ZM56.0762 41.4707V43.4531H51.0566V44.0195H56.3105V44.791H49.9922V42.7402H55.002V42.2129H49.9531V41.4707H56.0762ZM51.5156 36.1875C52.8242 36.1875 53.7227 36.7148 53.7227 37.5156C53.7227 38.3359 52.8242 38.834 51.5156 38.834C50.1777 38.834 49.2891 38.3359 49.2891 37.5156C49.2891 36.7148 50.1777 36.1875 51.5156 36.1875ZM51.5156 36.9102C50.7734 36.9102 50.3145 37.1445 50.3242 37.5156C50.3145 37.8867 50.7734 38.1113 51.5156 38.1113C52.2383 38.1113 52.707 37.8867 52.707 37.5156C52.707 37.1445 52.2383 36.9102 51.5156 36.9102ZM62.5508 44.0977C61.0371 44.0977 59.9629 43.2773 59.9336 42.0859H61.2129C61.252 42.6523 61.8184 43.0234 62.5508 43.0234C63.332 43.0234 63.8887 42.5938 63.8887 41.9688C63.8887 41.334 63.3418 40.875 62.4238 40.875H61.7891V39.8984H62.4238C63.1758 39.8984 63.7031 39.4785 63.6934 38.8633C63.7031 38.2676 63.2539 37.8672 62.5605 37.8672C61.8965 37.8672 61.3203 38.2383 61.3008 38.834H60.0801C60.1094 37.6426 61.1836 36.832 62.5703 36.832C64.0059 36.832 64.9336 37.7109 64.9238 38.7949C64.9336 39.5859 64.4062 40.1621 63.6348 40.3184V40.377C64.6309 40.5137 65.1973 41.1484 65.1875 42.0371C65.1973 43.2285 64.084 44.0977 62.5508 44.0977ZM68.9082 44.0977C67.209 44.0977 66.1934 42.7793 66.1934 40.4648C66.1934 38.1602 67.209 36.832 68.9082 36.832C70.5977 36.832 71.623 38.1602 71.623 40.4648C71.623 42.7793 70.6074 44.0977 68.9082 44.0977ZM68.9082 43.0332C69.7969 43.0332 70.3438 42.1641 70.3438 40.4648C70.3438 38.7754 69.7871 37.8867 68.9082 37.8867C68.0293 37.8867 67.4727 38.7754 67.4727 40.4648C67.4727 42.1641 68.0195 43.0332 68.9082 43.0332ZM74.8945 36.3242C76.2324 36.3242 77.2285 37.1543 77.2383 38.3164C77.2285 39.4883 76.2324 40.3086 74.8945 40.3086C73.5469 40.3086 72.5508 39.4883 72.5508 38.3164C72.5508 37.1543 73.5469 36.3242 74.8945 36.3242ZM74.8945 37.2227C74.1523 37.2227 73.6055 37.6426 73.6055 38.3164C73.6055 39 74.1523 39.4297 74.8945 39.4297C75.6367 39.4297 76.1836 39 76.1836 38.3164C76.1836 37.6426 75.6367 37.2227 74.8945 37.2227ZM79.748 36.041V40.5039H78.6543V36.041H79.748ZM79.748 40.8848V43.1895H74.9727V43.9023H80.0117V44.7617H73.9082V42.3887H78.6641V41.7344H73.8887V40.8848H79.748ZM88.6543 36.041V44.8691H87.6094V36.041H88.6543ZM86.8379 36.1973V44.4395H85.8027V40.2402H84.9629C84.8604 41.959 84.123 43.0234 83.0293 43.0137C81.877 43.0234 81.125 41.8027 81.125 39.8594C81.125 37.916 81.877 36.7148 83.0293 36.7148C84.0986 36.7148 84.8262 37.7109 84.9531 39.3613H85.8027V36.1973H86.8379ZM83.0293 37.7402C82.4727 37.7305 82.1211 38.4824 82.1309 39.8594C82.1211 41.2363 82.4727 41.9883 83.0293 41.9785C83.6152 41.9883 83.9668 41.2363 83.9668 39.8594C83.9668 38.4824 83.6152 37.7305 83.0293 37.7402ZM95.2168 36.9297V44H93.9375V38.1699H93.8984L92.248 39.2246V38.0625L93.9961 36.9297H95.2168ZM103.605 36.041V38.5215H104.846V39.4199H103.605V42.4277H102.521V36.041H103.605ZM100.969 36.7734V37.6426H98.0879V40.0449C99.748 40.0498 100.671 39.9912 101.721 39.7715L101.838 40.6504C100.686 40.875 99.6504 40.9336 97.7266 40.9336H97.0137V36.7734H100.969ZM103.957 43.8145V44.6934H97.9512V41.7539H99.0352V43.8145H103.957ZM112.902 36.041V44.8691H111.867V36.041H112.902ZM111.076 36.2559V44.4492H110.041V41.5H108.664V40.6113H110.041V39.3027H108.82C108.405 40.7676 107.482 42.0273 105.832 43.0039L105.197 42.2324C107.028 41.1533 107.868 39.7715 108.029 37.9941H105.666V37.1152H109.104C109.104 37.5596 109.074 37.9941 109.016 38.4141H110.041V36.2559H111.076ZM124.357 40.2695V41.1387H116.301V40.2695H119.797V39.4297H117.287V36.4414H123.381V37.291H118.371V38.5703H123.43V39.4297H120.861V40.2695H124.357ZM120.314 41.6465C122.219 41.6465 123.361 42.2227 123.371 43.2578C123.361 44.2832 122.219 44.8691 120.314 44.8691C118.391 44.8691 117.238 44.2832 117.238 43.2578C117.238 42.2227 118.391 41.6465 120.314 41.6465ZM120.314 42.4766C119.025 42.4766 118.332 42.75 118.342 43.2578C118.332 43.7656 119.025 44.0293 120.314 44.0293C121.574 44.0293 122.277 43.7656 122.287 43.2578C122.277 42.75 121.574 42.4766 120.314 42.4766ZM132.023 36.3926V36.9785C132.023 37.54 132.023 38.2627 131.857 39.1367H133.01V39.9863H129.494V40.9238H132.014V43.209H126.965V43.9316H132.238V44.7812H125.881V42.457H130.93V41.7734H125.871V40.9238H128.42V39.9863H124.943V39.1367H130.764C130.91 38.3652 130.935 37.7695 130.939 37.252H125.939V36.3926H132.023ZM140.988 36.041V44.8789H139.904V40.3672H138.195V39.4883H139.904V36.041H140.988ZM136.809 38.8438C136.799 40.1816 137.6 41.6074 138.996 42.2227L138.41 43.0527C137.399 42.623 136.667 41.7393 136.281 40.6797C135.891 41.8027 135.163 42.7451 134.152 43.1992L133.566 42.3594C134.943 41.7344 135.725 40.2305 135.725 38.8438V38.3848H133.83V37.5156H135.734V36.2266H136.818V37.5156H138.664V38.3848H136.809V38.8438ZM150.285 40.6113V41.4805H146.877V43.0039H145.803V41.4805H142.219V40.6113H150.285ZM149.396 43.8145V44.6934H143.195V42.2617H144.27V43.8145H149.396ZM144.348 36.3242V37.3203H148.156V36.3242H149.23V39.918H143.273V36.3242H144.348ZM144.348 39.0586H148.156V38.1309H144.348V39.0586ZM154.963 41.4902C156.789 41.4902 157.912 42.1055 157.922 43.1699C157.912 44.2441 156.789 44.8691 154.963 44.8691C153.117 44.8691 151.975 44.2441 151.975 43.1699C151.975 42.1055 153.117 41.4902 154.963 41.4902ZM154.963 42.3398C153.752 42.3398 153.059 42.623 153.059 43.1699C153.059 43.7168 153.752 44.0098 154.963 44.0098C156.174 44.0098 156.848 43.7168 156.848 43.1699C156.848 42.623 156.174 42.3398 154.963 42.3398ZM157.834 36.041V38.1504H159.064V39.0586H157.834V41.2754H156.75V36.041H157.834ZM152.248 36.5977V37.7891H154.309V36.5977H155.383V40.7188H151.174V36.5977H152.248ZM152.248 39.8594H154.309V38.6387H152.248V39.8594ZM162.805 37.3008C162.805 38.4629 163.527 39.5566 164.934 39.9961L164.396 40.8555C163.376 40.5137 162.648 39.8447 162.258 38.9805C161.853 39.9082 161.115 40.6455 160.07 41.002L159.523 40.1523C160.949 39.6641 161.682 38.502 161.682 37.3008V36.4609H162.805V37.3008ZM166.867 41.7246V44.8691H165.773V42.5938H160.842V41.7246H166.867ZM166.867 36.041V41.3242H165.773V36.041H166.867ZM171.018 36.6562C172.414 36.6465 173.439 37.5352 173.449 38.7852C173.439 40.0449 172.414 40.9238 171.018 40.9238C169.631 40.9238 168.596 40.0449 168.596 38.7852C168.596 37.5352 169.631 36.6465 171.018 36.6562ZM171.018 37.5938C170.246 37.5938 169.67 38.0527 169.67 38.7852C169.67 39.5273 170.246 39.9766 171.018 39.9766C171.799 39.9766 172.385 39.5273 172.385 38.7852C172.385 38.0527 171.799 37.5938 171.018 37.5938ZM175.51 36.041V44.8789H174.426V36.041H175.51ZM168.195 42.1445C169.787 42.1445 171.994 42.125 173.898 41.8516L173.986 42.6426C172.004 43.0234 169.885 43.0332 168.332 43.0332L168.195 42.1445ZM187.219 40.0938V40.9727H183.723V41.7051C185.305 41.8125 186.232 42.3594 186.242 43.2773C186.232 44.293 185.09 44.8594 183.186 44.8594C181.262 44.8594 180.109 44.293 180.109 43.2773C180.109 42.3594 181.047 41.8076 182.648 41.7051V40.9727H179.172V40.0938H187.219ZM183.186 42.5254C181.896 42.5352 181.203 42.7891 181.213 43.2773C181.203 43.7656 181.896 44.0293 183.186 44.0293C184.445 44.0293 185.148 43.7656 185.158 43.2773C185.148 42.7891 184.445 42.5352 183.186 42.5254ZM186.496 36.4316V37.3008H183.957C184.128 38.0283 185.183 38.6826 186.838 38.834L186.457 39.6934C184.855 39.5322 183.664 38.8926 183.186 37.9941C182.707 38.8877 181.535 39.5322 179.934 39.6934L179.562 38.834C181.184 38.6826 182.238 38.0186 182.424 37.3008H179.904V36.4316H186.496ZM195.217 36.041V44.8789H194.133V40.0547H192.434V39.166H194.133V36.041H195.217ZM191.057 38.3848C191.057 39.9082 191.877 41.5293 193.303 42.1445L192.658 43.0137C191.633 42.5254 190.9 41.5439 190.52 40.377C190.124 41.6221 189.377 42.6719 188.352 43.1895L187.697 42.3398C189.113 41.6758 189.943 39.9961 189.953 38.3848V37.7988H188.059V36.9102H192.951V37.7988H191.057V38.3848ZM203.781 36.4414V37.3105H201.223C201.32 38.1406 202.399 38.9316 204.104 39.1367L203.693 39.9961C202.111 39.8057 200.944 39.1074 200.471 38.1504C199.997 39.1025 198.84 39.8057 197.258 39.9961L196.857 39.1367C198.562 38.9316 199.626 38.1406 199.729 37.3105H197.189V36.4414H203.781ZM204.514 40.4844V41.3633H201.105V42.9746H200.031V41.3633H196.447V40.4844H204.514ZM203.625 43.8145V44.6934H197.424V42.1641H198.508V43.8145H203.625ZM207.98 36.4316C209.318 36.4219 210.295 37.1836 210.295 38.2871C210.295 39.3711 209.318 40.1426 207.98 40.1328C206.652 40.1426 205.686 39.3711 205.686 38.2871C205.686 37.1836 206.652 36.4219 207.98 36.4316ZM207.98 37.3105C207.258 37.3008 206.73 37.6816 206.74 38.2871C206.73 38.8828 207.258 39.2441 207.98 39.2441C208.732 39.2441 209.26 38.8828 209.26 38.2871C209.26 37.6816 208.732 37.3008 207.98 37.3105ZM212.482 36.0508V44.8594H211.408V36.0508H212.482ZM205.109 40.7383C206.701 40.7383 208.928 40.709 210.832 40.4258L210.91 41.2266C210.148 41.373 209.357 41.4658 208.586 41.5195V44.5957H207.492V41.5879C206.677 41.6221 205.91 41.627 205.246 41.6367L205.109 40.7383ZM217.834 41.4902C219.66 41.4902 220.783 42.1055 220.793 43.1699C220.783 44.2441 219.66 44.8691 217.834 44.8691C215.988 44.8691 214.846 44.2441 214.846 43.1699C214.846 42.1055 215.988 41.4902 217.834 41.4902ZM217.834 42.3398C216.623 42.3398 215.93 42.623 215.93 43.1699C215.93 43.7168 216.623 44.0098 217.834 44.0098C219.045 44.0098 219.719 43.7168 219.719 43.1699C219.719 42.623 219.045 42.3398 217.834 42.3398ZM220.705 36.041V38.1504H221.936V39.0586H220.705V41.2754H219.621V36.041H220.705ZM215.119 36.5977V37.7891H217.18V36.5977H218.254V40.7188H214.045V36.5977H215.119ZM215.119 39.8594H217.18V38.6387H215.119V39.8594ZM230.051 36.041V44.8691H229.016V36.041H230.051ZM228.293 36.2266V44.4297H227.287V41.1875H226.301V40.2988H227.287V39.4004H226.301V38.502H227.287V36.2266H228.293ZM226.506 37.0664V37.9551H225.881V41.8125C226.154 41.7979 226.413 41.7734 226.652 41.7441L226.73 42.5547C225.373 42.7891 223.557 42.8184 222.414 42.8281L222.287 41.9297L223.088 41.9199V37.9551H222.463V37.0664H226.506ZM224.064 41.9004L224.904 41.8711V37.9551H224.064V41.9004ZM239.074 39.625V40.4844H235.578V41.1484H238.068V43.3164H233.049V43.9609H238.312V44.791H231.984V42.5352H237.004V41.9688H231.975V41.1484H234.494V40.4844H231.027V39.625H239.074ZM238.039 36.3145V39.0684H232.043V36.3145H238.039ZM233.107 37.1641V38.2188H236.955V37.1641H233.107ZM247.072 36.041V44.8789H245.988V40.3672H244.279V39.4883H245.988V36.041H247.072ZM242.893 38.8438C242.883 40.1816 243.684 41.6074 245.08 42.2227L244.494 43.0527C243.483 42.623 242.751 41.7393 242.365 40.6797C241.975 41.8027 241.247 42.7451 240.236 43.1992L239.65 42.3594C241.027 41.7344 241.809 40.2305 241.809 38.8438V38.3848H239.914V37.5156H241.818V36.2266H242.902V37.5156H244.748V38.3848H242.893V38.8438ZM256.369 40.6113V41.4805H252.961V43.0039H251.887V41.4805H248.303V40.6113H256.369ZM255.48 43.8145V44.6934H249.279V42.2617H250.354V43.8145H255.48ZM250.432 36.3242V37.3203H254.24V36.3242H255.314V39.918H249.357V36.3242H250.432ZM250.432 39.0586H254.24V38.1309H250.432V39.0586ZM260.295 38.1602C260.285 39.7812 261.135 41.4023 262.57 42.0176L261.926 42.8867C260.91 42.418 260.163 41.4805 259.758 40.3281C259.353 41.5732 258.596 42.5889 257.521 43.0918L256.857 42.1836C258.332 41.5488 259.191 39.8594 259.191 38.1602V36.7539H260.295V38.1602ZM264.299 36.041V44.8789H263.205V36.041H264.299ZM272.99 36.041V40.5625H271.906V38.3262H270.148V37.457H271.906V36.041H272.99ZM272.99 40.9434V43.2285H268.254V43.9023H273.273V44.7617H267.189V42.418H271.916V41.793H267.18V40.9434H272.99ZM268.801 37.0371C268.801 38.1211 269.514 39.1562 270.881 39.5762L270.305 40.416C269.348 40.0938 268.654 39.4736 268.273 38.668C267.883 39.5713 267.16 40.2695 266.115 40.6113L265.549 39.7422C266.965 39.3125 267.707 38.2285 267.707 37.0371V36.334H268.801V37.0371ZM280.588 41.5586C282.502 41.5684 283.713 42.1738 283.723 43.2188C283.713 44.2441 282.502 44.8594 280.588 44.8594C278.684 44.8594 277.463 44.2441 277.463 43.2188C277.463 42.1738 278.684 41.5684 280.588 41.5586ZM280.588 42.3789C279.318 42.3789 278.547 42.6816 278.557 43.2188C278.547 43.7363 279.318 44.0195 280.588 44.0195C281.867 44.0195 282.639 43.7363 282.648 43.2188C282.639 42.6816 281.867 42.3789 280.588 42.3789ZM283.664 36.4609V37.1934C283.664 37.8867 283.664 38.6289 283.42 39.5371L282.346 39.4395C282.565 38.5801 282.58 37.96 282.58 37.3203H277.551V36.4609H283.664ZM284.641 40.0449V40.9238H276.633V40.0449H279.738V38.4434H280.812V40.0449H284.641ZM288.41 38.1602C288.4 39.7324 289.191 41.334 290.559 41.9883L289.895 42.8574C288.938 42.374 288.249 41.4414 287.873 40.3184C287.487 41.5195 286.765 42.5156 285.754 43.0234L285.09 42.1543C286.506 41.4805 287.316 39.791 287.326 38.1602V36.7539H288.41V38.1602ZM292.17 36.041V39.498H293.527V40.4258H292.17V44.8691H291.086V36.041H292.17ZM301.955 40.0449V40.8652H293.889V40.0449H301.955ZM300.979 41.3926V43.4043H295.92V44.0195H301.242V44.7715H294.836V42.7012H299.904V42.1543H294.826V41.3926H300.979ZM300.959 36.2363V38.2285H295.988V38.8047H301.115V39.5469H294.914V37.5254H299.875V36.9883H294.885V36.2363H300.959ZM307.58 36.4219C308.869 36.4219 309.787 37.1348 309.797 38.1992C309.787 39.0732 309.128 39.7324 308.146 39.918V40.6309C308.879 40.5918 309.616 40.5234 310.305 40.4258L310.393 41.2168C308.557 41.5488 306.506 41.5781 305.012 41.5781L304.895 40.709C305.529 40.7139 306.271 40.709 307.053 40.6797V39.918C306.042 39.752 305.363 39.0879 305.373 38.1992C305.363 37.1348 306.281 36.4219 307.58 36.4219ZM307.58 37.252C306.877 37.252 306.379 37.6035 306.389 38.1992C306.379 38.7754 306.877 39.1367 307.58 39.1465C308.283 39.1367 308.762 38.7754 308.771 38.1992C308.762 37.6035 308.283 37.252 307.58 37.252ZM311.906 36.0508V38.9023H313.098V39.8008H311.906V42.7891H310.822V36.0508H311.906ZM312.219 43.8047V44.6836H306.105V42.1934H307.189V43.8047H312.219ZM321.623 42.9453V43.8438H313.557V42.9453H315.695V41.4902H314.514V38.6094H319.592V37.5254H314.494V36.6465H320.666V39.4785H315.598V40.6113H320.871V41.4902H319.582V42.9453H321.623ZM316.75 42.9453H318.518V41.4902H316.75V42.9453ZM329.113 36.041V39.5566H330.471V40.4551H329.113V44.8691H328.039V36.041H329.113ZM327.355 37.3984V38.2676H322.15V37.3984H324.24V36.168H325.324V37.3984H327.355ZM324.787 38.8438C326.057 38.8438 327.004 39.7031 327.004 40.9238C327.004 42.1445 326.057 42.9941 324.787 42.9941C323.498 42.9941 322.551 42.1445 322.561 40.9238C322.551 39.7031 323.498 38.8438 324.787 38.8438ZM324.787 39.7324C324.094 39.7324 323.596 40.2012 323.596 40.9238C323.596 41.6465 324.094 42.1055 324.787 42.0957C325.461 42.1055 325.959 41.6465 325.969 40.9238C325.959 40.2012 325.461 39.7324 324.787 39.7324ZM334.074 41.7832C334.064 42.5254 334.406 43.2969 335.168 43.7949C335.93 43.2627 336.271 42.4424 336.281 41.7832V41.3242H337.346V41.7832C337.346 42.6914 337.883 43.5801 339.064 43.9512L338.518 44.752C337.668 44.4541 337.097 43.8926 336.799 43.1895C336.506 43.8828 335.979 44.5078 335.168 44.8301C334.348 44.5273 333.825 43.9316 333.537 43.2188C333.22 43.8975 332.663 44.459 331.848 44.752L331.32 43.9512C332.463 43.5605 333.01 42.6426 333.02 41.7832V41.3242H334.074V41.7832ZM333.293 36.4902C333.991 36.4902 334.606 36.7441 335.031 37.1738H337.15V36.041H338.234V41.0215H337.15V40.0059H335.051C334.631 40.4453 334.006 40.709 333.293 40.709C331.955 40.709 330.959 39.8301 330.959 38.6094C330.959 37.3789 331.955 36.4902 333.293 36.4902ZM333.293 37.3984C332.551 37.3984 332.004 37.877 332.004 38.6094C332.004 39.3418 332.551 39.8008 333.293 39.8008C334.016 39.8008 334.562 39.3418 334.562 38.6094C334.562 37.877 334.016 37.3984 333.293 37.3984ZM335.529 38.043C335.578 38.2188 335.607 38.4092 335.607 38.6094C335.607 38.79 335.583 38.9609 335.539 39.127H337.15V38.043H335.529ZM346.691 36.8516V37.7012C346.682 38.7949 346.682 40.0254 346.34 41.8711L345.246 41.7539C345.588 40.0352 345.588 38.7803 345.598 37.7207H340.324V36.8516H346.691ZM347.531 42.8379V43.7266H339.484V42.8379H342.453V39.7715H343.527V42.8379H347.531ZM91.2129 48.0508V54.7305H90.1191V53.959H88.3906V53.1973H90.1191V48.0508H91.2129ZM91.418 55.8145V56.6934H84.9434V54.0859H86.0273V55.8145H91.418ZM83.7715 52.0156C85.4023 52.0059 87.5898 51.9863 89.4648 51.752L89.5234 52.5332C88.7959 52.6553 88.0439 52.7383 87.2969 52.7871V54.4863H86.2129V52.8457C85.3877 52.8799 84.6016 52.8848 83.9082 52.8848L83.7715 52.0156ZM86.6523 48.373C87.9414 48.373 88.8398 49.0078 88.8496 49.9355C88.8398 50.8828 87.9414 51.4883 86.6523 51.4883C85.3438 51.4883 84.4453 50.8828 84.4453 49.9355C84.4453 49.0078 85.3438 48.373 86.6523 48.373ZM86.6523 49.1738C85.9492 49.1738 85.4707 49.457 85.4707 49.9355C85.4707 50.4141 85.9492 50.6973 86.6523 50.6973C87.3262 50.6973 87.8047 50.4141 87.8145 49.9355C87.8047 49.457 87.3262 49.1738 86.6523 49.1738ZM95.6172 50.5508C95.6172 51.918 96.4277 53.4707 97.8242 54.1152L97.2188 54.9746C96.2227 54.5059 95.4854 53.5586 95.0898 52.4551C94.6895 53.666 93.918 54.7012 92.9023 55.1895L92.2676 54.3398C93.6738 53.6758 94.5234 52.0156 94.5332 50.5508V49.8086H92.6094V48.9102H97.4629V49.8086H95.6172V50.5508ZM99.3672 48.041V51.4785H100.725V52.3867H99.3672V56.8691H98.2832V48.041H99.3672ZM105.314 48.5684V51.2246H102.531V52.3086C103.947 52.3135 104.763 52.2695 105.695 52.0938L105.803 52.9727C104.748 53.1484 103.83 53.1777 102.102 53.1777H101.457V50.4141H104.23V49.4277H101.438V48.5684H105.314ZM108.488 48.0508V53.4805H107.404V52.0254H105.842V51.1562H107.404V50.1699H105.842V49.3008H107.404V48.0508H108.488ZM108.488 53.9004V56.8691H107.404V54.7695H102.453V53.9004H108.488ZM116.701 48.041V50.6289H117.932V51.5273H116.701V54.4961H115.617V48.041H116.701ZM117.053 55.8145V56.6934H111.047V53.8223H112.131V55.8145H117.053ZM112.219 48.627C113.557 48.627 114.592 49.5547 114.602 50.8535C114.592 52.1328 113.557 53.0703 112.219 53.0703C110.881 53.0703 109.826 52.1328 109.836 50.8535C109.826 49.5547 110.881 48.627 112.219 48.627ZM112.219 49.5742C111.477 49.5742 110.891 50.0723 110.9 50.8535C110.891 51.6152 111.477 52.1133 112.219 52.1133C112.961 52.1133 113.537 51.6152 113.537 50.8535C113.537 50.0723 112.961 49.5742 112.219 49.5742ZM125.773 48.0508V54.4961H124.689V51.2637H123.127V50.3848H124.689V48.0508H125.773ZM125.998 55.8145V56.6934H119.982V53.9297H121.066V55.8145H125.998ZM121.623 49.8086C121.623 50.873 122.336 51.9668 123.703 52.416L123.156 53.2852C122.17 52.9482 121.472 52.2793 121.086 51.4395C120.695 52.3721 119.958 53.1094 118.918 53.4707L118.361 52.5918C119.768 52.1328 120.52 50.9707 120.52 49.7988V49.5645H118.684V48.6855H123.449V49.5645H121.623V49.8086ZM129.904 48.4316C131.242 48.4219 132.219 49.1836 132.219 50.2871C132.219 51.3711 131.242 52.1426 129.904 52.1328C128.576 52.1426 127.609 51.3711 127.609 50.2871C127.609 49.1836 128.576 48.4219 129.904 48.4316ZM129.904 49.3105C129.182 49.3008 128.654 49.6816 128.664 50.2871C128.654 50.8828 129.182 51.2441 129.904 51.2441C130.656 51.2441 131.184 50.8828 131.184 50.2871C131.184 49.6816 130.656 49.3008 129.904 49.3105ZM134.406 48.0508V56.8594H133.332V48.0508H134.406ZM127.033 52.7383C128.625 52.7383 130.852 52.709 132.756 52.4258L132.834 53.2266C132.072 53.373 131.281 53.4658 130.51 53.5195V56.5957H129.416V53.5879C128.601 53.6221 127.834 53.627 127.17 53.6367L127.033 52.7383ZM143.068 48.0508V54.7305H141.975V53.959H140.246V53.1973H141.975V48.0508H143.068ZM143.273 55.8145V56.6934H136.799V54.0859H137.883V55.8145H143.273ZM135.627 52.0156C137.258 52.0059 139.445 51.9863 141.32 51.752L141.379 52.5332C140.651 52.6553 139.899 52.7383 139.152 52.7871V54.4863H138.068V52.8457C137.243 52.8799 136.457 52.8848 135.764 52.8848L135.627 52.0156ZM138.508 48.373C139.797 48.373 140.695 49.0078 140.705 49.9355C140.695 50.8828 139.797 51.4883 138.508 51.4883C137.199 51.4883 136.301 50.8828 136.301 49.9355C136.301 49.0078 137.199 48.373 138.508 48.373ZM138.508 49.1738C137.805 49.1738 137.326 49.457 137.326 49.9355C137.326 50.4141 137.805 50.6973 138.508 50.6973C139.182 50.6973 139.66 50.4141 139.67 49.9355C139.66 49.457 139.182 49.1738 138.508 49.1738ZM151.662 48.041V56.8691H150.578V48.041H151.662ZM144.348 54.418C145.051 54.4131 145.847 54.4131 146.682 54.3887V53.5781C145.686 53.4219 145.041 52.8115 145.041 51.9766C145.041 50.9805 145.92 50.3164 147.209 50.3164C148.508 50.3164 149.406 50.9805 149.406 51.9766C149.406 52.8066 148.757 53.4121 147.766 53.5684V54.3496C148.542 54.3154 149.323 54.252 150.061 54.1543L150.139 54.9648C148.195 55.2969 146.096 55.3164 144.504 55.3164L144.348 54.418ZM149.904 49.0566V49.916H144.533V49.0566H146.682V48.0703H147.766V49.0566H149.904ZM147.209 51.1465C146.545 51.1562 146.066 51.459 146.076 51.9766C146.066 52.4844 146.545 52.7871 147.209 52.7773C147.902 52.7871 148.361 52.4844 148.361 51.9766C148.361 51.459 147.902 51.1562 147.209 51.1465ZM161.018 54.9453V55.8438H152.951V54.9453H156.428V53.5098H153.908V50.6191H158.986V49.5254H153.889V48.6465H160.061V51.4785H154.992V52.6211H160.266V53.5098H157.502V54.9453H161.018ZM169.65 53.1777V54.0371H166.135V56.8691H165.061V54.0371H161.584V53.1777H169.65ZM163.635 48.3926V49.4766H167.58V48.3926H168.674V52.2598H162.561V48.3926H163.635ZM163.635 51.3809H167.58V50.3359H163.635V51.3809ZM177.639 48.041V56.8789H176.564V52.1133H174.904V51.2344H176.564V48.041H177.639ZM174.768 48.8027V49.6914H171.73V51.2734H174.416V52.1328H171.73V53.9492C173.073 53.9443 174.079 53.9004 175.217 53.7148L175.324 54.5938C174.035 54.7891 172.912 54.8379 171.33 54.8477H170.637V48.8027H174.768ZM184.406 50.1602C184.396 51.7324 185.188 53.334 186.555 53.9883L185.891 54.8574C184.934 54.374 184.245 53.4414 183.869 52.3184C183.483 53.5195 182.761 54.5156 181.75 55.0234L181.086 54.1543C182.502 53.4805 183.312 51.791 183.322 50.1602V48.7539H184.406V50.1602ZM188.166 48.041V51.498H189.523V52.4258H188.166V56.8691H187.082V48.041H188.166ZM197.941 52.2891V53.1582H189.895V52.2891H191.77V51.166C191.105 50.8877 190.725 50.4434 190.725 49.8672C190.725 48.8125 191.965 48.1875 193.908 48.1875C195.852 48.1875 197.082 48.8125 197.092 49.8672C197.087 50.4482 196.706 50.8926 196.037 51.166V52.2891H197.941ZM193.908 53.6953C195.812 53.6855 196.955 54.252 196.965 55.2676C196.955 56.293 195.812 56.8496 193.908 56.8496C191.984 56.8496 190.832 56.293 190.832 55.2676C190.832 54.252 191.984 53.6855 193.908 53.6953ZM193.908 54.5156C192.619 54.5156 191.926 54.7695 191.936 55.2676C191.926 55.7656 192.619 56.0293 193.908 56.0293C195.168 56.0293 195.871 55.7656 195.881 55.2676C195.871 54.7695 195.168 54.5156 193.908 54.5156ZM193.908 49.0273C192.6 49.0273 191.848 49.3203 191.857 49.8672C191.848 50.4043 192.6 50.6875 193.908 50.6875C195.207 50.6875 195.969 50.4043 195.969 49.8672C195.969 49.3203 195.207 49.0273 193.908 49.0273ZM192.863 52.2891H194.953V51.4492C194.636 51.4932 194.284 51.5176 193.908 51.5176C193.532 51.5176 193.181 51.4932 192.863 51.4492V52.2891ZM203.117 48.5098C203.117 49.5059 204.338 50.5215 206.154 50.7363L205.754 51.5957C204.294 51.3906 203.132 50.7217 202.57 49.8086C201.999 50.7314 200.832 51.3906 199.367 51.5957L198.957 50.7363C200.783 50.5215 201.994 49.5156 202.004 48.5098V48.1875H203.117V48.5098ZM206.584 52.1523V53.0117H198.537V52.1523H206.584ZM202.551 53.6953C204.455 53.6855 205.598 54.252 205.607 55.2773C205.598 56.293 204.455 56.8691 202.551 56.8691C200.627 56.8691 199.475 56.293 199.475 55.2773C199.475 54.252 200.627 53.6855 202.551 53.6953ZM202.551 54.5156C201.262 54.5156 200.568 54.7695 200.578 55.2773C200.568 55.7852 201.262 56.0293 202.551 56.0293C203.811 56.0293 204.514 55.7852 204.523 55.2773C204.514 54.7695 203.811 54.5156 202.551 54.5156ZM214.533 48.0508V54.4277H213.439V48.0508H214.533ZM214.777 55.8145V56.6934H208.693V53.7832H209.787V55.8145H214.777ZM209.719 48.627C211.057 48.627 212.092 49.5547 212.092 50.834C212.092 52.1426 211.057 53.0508 209.719 53.0508C208.371 53.0508 207.336 52.1426 207.336 50.834C207.336 49.5547 208.371 48.627 209.719 48.627ZM209.719 49.5742C208.967 49.5742 208.391 50.0723 208.4 50.834C208.391 51.6152 208.967 52.1035 209.719 52.1035C210.451 52.1035 211.027 51.6152 211.027 50.834C211.027 50.0723 210.451 49.5742 209.719 49.5742ZM219.836 48.1777C221.848 48.1777 223.01 48.7148 223.02 49.6914C223.01 50.6777 221.848 51.2051 219.836 51.2148C217.824 51.2051 216.652 50.6777 216.652 49.6914C216.652 48.7148 217.824 48.1777 219.836 48.1777ZM219.836 48.9785C218.488 48.9785 217.785 49.2324 217.795 49.6914C217.785 50.1797 218.488 50.4043 219.836 50.4043C221.203 50.4043 221.896 50.1797 221.896 49.6914C221.896 49.2324 221.203 48.9785 219.836 48.9785ZM223.869 51.6836V52.5527H215.822V51.6836H223.869ZM222.863 53.1484V55.3066H217.844V55.9609H223.107V56.791H216.779V54.5352H221.799V53.9492H216.77V53.1484H222.863ZM233.801 48.041V50.0918H235.031V50.9902H233.801V53.1875H232.717V48.041H233.801ZM228.215 48.5586V49.7598H230.275V48.5586H231.35V52.7188H227.141V48.5586H228.215ZM228.215 51.8594H230.275V50.5996H228.215V51.8594ZM233.859 53.6172V54.4863H229.191V55.8828H234.025V56.7422H228.107V53.6172H233.859ZM237.961 48.5293C239.318 48.5293 240.334 49.3887 240.344 50.6387C240.334 51.8887 239.318 52.7578 237.961 52.7578C236.594 52.7578 235.568 51.8887 235.578 50.6387C235.568 49.3887 236.594 48.5293 237.961 48.5293ZM237.961 49.4375C237.199 49.4375 236.633 49.916 236.643 50.6387C236.633 51.3809 237.199 51.8398 237.961 51.8398C238.713 51.8398 239.279 51.3809 239.279 50.6387C239.279 49.916 238.713 49.4375 237.961 49.4375ZM242.443 48.041V50.0234H243.674V50.9023H242.443V53.002H241.359V48.041H242.443ZM238.518 53.7637C238.508 54.5107 238.845 55.2773 239.602 55.7754C240.368 55.2432 240.715 54.4277 240.725 53.7637V53.3828H241.779V53.7637C241.779 54.7012 242.326 55.5703 243.488 55.9609L242.951 56.7617C242.097 56.4492 241.535 55.8828 241.232 55.1699C240.949 55.8779 240.427 56.5078 239.621 56.8398C238.786 56.5176 238.264 55.9121 237.99 55.1992C237.673 55.8926 237.116 56.459 236.301 56.7617L235.764 55.9609C236.896 55.5508 237.463 54.6328 237.473 53.7637V53.3828H238.518V53.7637ZM246.164 53.334V54.1738H250.051V53.334H251.135V56.7617H245.09V53.334H246.164ZM246.164 55.9023H250.051V55.0039H246.164V55.9023ZM252.17 51.9473V52.8359H244.123V51.9473H252.17ZM248.703 48.4707C248.703 49.418 249.914 50.4141 251.74 50.6289L251.359 51.4883C249.88 51.2881 248.713 50.6338 248.146 49.7402C247.575 50.6387 246.403 51.2881 244.934 51.4883L244.533 50.6289C246.379 50.4043 247.58 49.4473 247.59 48.4707V48.1387H248.703V48.4707ZM260.129 48.041V56.8691H259.055V48.041H260.129ZM254.348 48.9004V53.7246C255.588 53.7051 256.906 53.5928 258.264 53.3242L258.4 54.2324C256.848 54.5547 255.402 54.6523 254.035 54.6523H253.273V48.9004H254.348ZM268.322 48.041V51.3906H269.68V52.2793H268.322V56.8789H267.238V48.041H268.322ZM265.9 48.8809V49.7598H262.854V53.8125C264.226 53.8125 265.31 53.7441 266.525 53.5293L266.652 54.4473C265.285 54.6816 264.094 54.7207 262.502 54.7207H261.77V48.8809H265.9ZM271.125 56.0781C270.705 56.0781 270.363 55.7363 270.363 55.3164C270.363 54.9062 270.705 54.5645 271.125 54.5645C271.525 54.5645 271.877 54.9062 271.877 55.3164C271.877 55.7363 271.525 56.0781 271.125 56.0781Z" fill="#121212"/>
<path d="M31.2246 110.109V118.811H30.4531V110.109H31.2246ZM26.6055 110.783C27.8945 110.793 28.8223 111.965 28.8223 113.811C28.8223 115.656 27.8945 116.828 26.6055 116.828C25.3066 116.828 24.3887 115.656 24.3887 113.811C24.3887 111.965 25.3066 110.793 26.6055 110.783ZM26.6055 111.467C25.7363 111.477 25.1309 112.395 25.1309 113.811C25.1309 115.227 25.7363 116.145 26.6055 116.145C27.4746 116.145 28.0801 115.227 28.0801 113.811C28.0801 112.395 27.4746 111.477 26.6055 111.467ZM40.1602 111.105V111.74H33.1191V111.105H36.2832V110.061H37.0352V111.105H40.1602ZM40.6582 115.734V116.369H37.0352V118.811H36.2832V116.369H32.709V115.734H40.6582ZM36.6641 112.238C38.4316 112.238 39.4961 112.756 39.4961 113.693C39.4961 114.611 38.4316 115.129 36.6641 115.139C34.8867 115.129 33.8223 114.611 33.832 113.693C33.8223 112.756 34.8867 112.238 36.6641 112.238ZM36.6641 112.824C35.3652 112.824 34.6133 113.146 34.623 113.693C34.6133 114.23 35.3652 114.543 36.6641 114.543C37.9434 114.543 38.6953 114.23 38.7051 113.693C38.6953 113.146 37.9434 112.824 36.6641 112.824ZM44.1738 118L44.1641 117.355L46.5762 114.816C47.416 113.928 47.8164 113.449 47.8164 112.795C47.8164 112.072 47.2012 111.594 46.4102 111.594C45.5703 111.594 45.0332 112.131 45.0332 112.922H44.2031C44.1934 111.672 45.1602 110.832 46.4395 110.832C47.7188 110.832 48.6367 111.691 48.6367 112.795C48.6367 113.586 48.2656 114.201 47.0156 115.49L45.3945 117.16V117.219H48.7637V118H44.1738ZM52.3574 118.098C50.7852 118.098 49.8867 116.779 49.8867 114.465C49.8867 112.17 50.8047 110.832 52.3574 110.832C53.9102 110.832 54.8281 112.17 54.8281 114.465C54.8281 116.779 53.9199 118.098 52.3574 118.098ZM52.3574 117.316C53.373 117.316 53.9688 116.291 53.9688 114.465C53.9688 112.639 53.373 111.594 52.3574 111.594C51.3418 111.594 50.7363 112.639 50.7363 114.465C50.7363 116.291 51.332 117.316 52.3574 117.316ZM58.5 110.93V118H57.6113V111.848H57.5723L55.8535 112.99V112.102L57.6113 110.93H58.5ZM62.6895 118.098C61.4102 118.098 60.4434 117.307 60.3945 116.223H61.2441C61.3125 116.857 61.9277 117.326 62.6895 117.326C63.6074 117.326 64.2715 116.652 64.2715 115.764C64.2715 114.846 63.5781 114.172 62.6309 114.162C62.0352 114.152 61.5762 114.338 61.3125 114.797H60.4629L60.9609 110.93H64.7891V111.711H61.6934L61.4297 113.781H61.498C61.8105 113.537 62.2891 113.371 62.7871 113.371C64.1348 113.371 65.1309 114.367 65.1309 115.744C65.1309 117.111 64.0957 118.098 62.6895 118.098ZM73.2363 110.119V116.545H72.4648V113.537H69.9648V112.922H72.4648V111.877H69.9648V111.262H72.4648V110.119H73.2363ZM73.4707 117.961V118.605H67.6406V115.998H68.4121V117.961H73.4707ZM67.3281 110.744V114.602C68.5244 114.597 69.6768 114.533 71 114.289L71.0781 114.924C69.6621 115.188 68.4805 115.246 67.2109 115.256H66.5566V110.744H67.3281ZM77.7285 118L80.9707 111.76V111.711H77.2305V110.93H81.8789V111.75L78.6465 118H77.7285ZM89.8672 110.119V115.236H89.0957V114.758H87.3379V114.25H89.0957V110.119H89.8672ZM82.6797 113.391C84.3594 113.4 86.5078 113.381 88.3828 113.176L88.4316 113.674C87.582 113.796 86.6982 113.869 85.834 113.908V115.266H85.082V113.938C84.2617 113.967 83.4756 113.972 82.7676 113.967L82.6797 113.391ZM89.8672 115.549V117.346H84.7988V118.127H90.1504V118.693H84.0469V116.809H89.1055V116.105H84.0078V115.549H89.8672ZM85.5117 110.285C86.8008 110.285 87.6602 110.793 87.6699 111.594C87.6602 112.404 86.8008 112.893 85.5117 112.893C84.2031 112.893 83.3535 112.404 83.3535 111.594C83.3535 110.793 84.2031 110.285 85.5117 110.285ZM85.5117 110.822C84.6328 110.822 84.0664 111.125 84.0762 111.594C84.0664 112.053 84.6328 112.365 85.5117 112.365C86.3809 112.365 86.9473 112.053 86.9473 111.594C86.9473 111.125 86.3809 110.822 85.5117 110.822ZM101.771 114.172V114.807H98.1875V115.734C99.8281 115.803 100.795 116.34 100.805 117.258C100.795 118.225 99.6816 118.771 97.8164 118.771C95.9316 118.771 94.8184 118.225 94.8184 117.258C94.8184 116.34 95.7803 115.803 97.4355 115.734V114.807H93.8613V114.172H101.771ZM97.8164 116.32C96.4199 116.33 95.5898 116.672 95.5996 117.258C95.5898 117.834 96.4199 118.176 97.8164 118.176C99.1934 118.176 100.033 117.834 100.033 117.258C100.033 116.672 99.1934 116.33 97.8164 116.32ZM101.068 110.52V111.145H98.3145C98.3633 112.121 99.7988 112.878 101.332 113.039L101.049 113.645C99.6279 113.474 98.2949 112.839 97.8164 111.867C97.3428 112.839 96.0146 113.474 94.584 113.645L94.3105 113.039C95.8145 112.878 97.2598 112.121 97.3184 111.145H94.584V110.52H101.068ZM109.701 110.109V118.811H108.93V113.908H107.025V113.273H108.93V110.109H109.701ZM105.512 112.688C105.512 114.133 106.547 115.705 107.816 116.281L107.357 116.896C106.366 116.413 105.531 115.363 105.141 114.152C104.74 115.437 103.886 116.55 102.895 117.072L102.426 116.477C103.686 115.861 104.73 114.23 104.74 112.688V111.643H102.758V111.008H107.504V111.643H105.512V112.688ZM115.6 111.193C115.59 112.258 117.055 113.127 118.588 113.342L118.285 113.947C116.884 113.747 115.575 113.044 115.102 112.023C114.633 113.044 113.329 113.747 111.918 113.947L111.635 113.342C113.168 113.127 114.604 112.258 114.604 111.193V111.174H111.869V110.549H118.354V111.174H115.6V111.193ZM119.086 114.582V115.217H115.551V116.994H114.789V115.217H111.137V114.582H119.086ZM118.197 117.961V118.605H112.152V116.125H112.924V117.961H118.197ZM122.65 110.539C123.949 110.529 124.877 111.242 124.877 112.307C124.877 113.361 123.949 114.094 122.65 114.084C121.352 114.094 120.424 113.361 120.424 112.307C120.424 111.242 121.352 110.529 122.65 110.539ZM122.65 111.164C121.781 111.154 121.166 111.633 121.176 112.307C121.166 112.99 121.781 113.459 122.65 113.449C123.529 113.459 124.145 112.99 124.145 112.307C124.145 111.633 123.529 111.154 122.65 111.164ZM126.947 110.119V118.801H126.195V110.119H126.947ZM119.77 114.826C121.4 114.826 123.627 114.797 125.561 114.514L125.609 115.09C124.779 115.241 123.915 115.334 123.08 115.383V118.527H122.318V115.432C121.435 115.471 120.6 115.476 119.877 115.48L119.77 114.826ZM132.436 115.568C134.223 115.568 135.297 116.154 135.297 117.17C135.297 118.195 134.223 118.781 132.436 118.791C130.648 118.781 129.555 118.195 129.555 117.17C129.555 116.154 130.648 115.568 132.436 115.568ZM132.436 116.174C131.127 116.184 130.316 116.545 130.326 117.17C130.316 117.795 131.127 118.166 132.436 118.166C133.754 118.166 134.555 117.795 134.555 117.17C134.555 116.545 133.754 116.184 132.436 116.174ZM135.219 110.109V112.297H136.527V112.951H135.219V115.334H134.457V110.109H135.219ZM129.555 110.656V111.984H132.084V110.656H132.846V114.66H128.803V110.656H129.555ZM129.555 114.035H132.084V112.59H129.555V114.035ZM139.984 112.443C139.984 113.977 141 115.549 142.23 116.154L141.762 116.77C140.805 116.267 140.004 115.241 139.623 114.035C139.232 115.319 138.412 116.413 137.436 116.936L136.947 116.32C138.217 115.695 139.223 114.025 139.232 112.443V110.861H139.984V112.443ZM143.793 110.109V113.635H145.248V114.299H143.793V118.791H143.031V110.109H143.793ZM148.705 111.477C148.695 112.717 149.574 113.811 150.854 114.24L150.424 114.836C149.467 114.475 148.715 113.771 148.344 112.854C147.968 113.894 147.172 114.704 146.127 115.1L145.707 114.475C147.045 114.006 147.934 112.854 147.943 111.506V110.607H148.705V111.477ZM152.914 110.109V115.256H152.143V112.609H150.209V111.975H152.143V110.109H152.914ZM150.033 115.51C151.84 115.51 152.943 116.105 152.943 117.15C152.943 118.186 151.84 118.771 150.033 118.771C148.227 118.771 147.123 118.186 147.123 117.15C147.123 116.105 148.227 115.51 150.033 115.51ZM150.033 116.115C148.705 116.115 147.875 116.506 147.885 117.15C147.875 117.775 148.705 118.156 150.033 118.156C151.361 118.156 152.182 117.775 152.182 117.15C152.182 116.506 151.361 116.115 150.033 116.115ZM161.83 110.109V118.791H161.088V110.109H161.83ZM160.141 110.324V118.332H159.418V115.061H158.236V114.426H159.418V113.225H158.236V112.59H159.418V110.324H160.141ZM158.441 111.213V111.857H157.709V115.9C158.031 115.886 158.344 115.856 158.627 115.822L158.686 116.398C157.318 116.623 155.502 116.662 154.359 116.672L154.262 116.008L155.18 115.998V111.857H154.447V111.213H158.441ZM155.883 115.988C156.249 115.979 156.63 115.969 157.006 115.949V111.857H155.883V115.988ZM170.18 110.109V118.791H169.408V110.109H170.18ZM167.611 111.057C167.602 113.557 166.439 115.764 163.529 117.16L163.109 116.535C165.458 115.422 166.654 113.757 166.83 111.682H163.51V111.057H167.611ZM179.555 113.781V114.406H175.971V115.266H178.539V117.209H173.383V118.088H178.803V118.693H172.621V116.633H177.787V115.861H172.602V115.266H175.209V114.406H171.645V113.781H179.555ZM178.529 110.402V113.049H172.67V110.402H178.529ZM173.432 111.018V112.434H177.768V111.018H173.432ZM184.242 110.266C186.176 110.266 187.309 110.793 187.309 111.76C187.309 112.746 186.176 113.273 184.242 113.283C182.309 113.273 181.166 112.746 181.166 111.76C181.166 110.793 182.309 110.266 184.242 110.266ZM184.242 110.842C182.797 110.842 181.957 111.193 181.967 111.76C181.957 112.365 182.797 112.697 184.242 112.697C185.678 112.697 186.527 112.365 186.527 111.76C186.527 111.193 185.678 110.842 184.242 110.842ZM188.197 113.869V114.494H180.287V113.869H188.197ZM187.182 115.246V117.189H182.025V118.088H187.445V118.693H181.264V116.623H186.43V115.832H181.244V115.246H187.182ZM194.545 112.775C194.545 114.25 195.619 115.744 196.898 116.301L196.469 116.906C195.453 116.442 194.574 115.441 194.174 114.24C193.764 115.515 192.89 116.623 191.898 117.121L191.439 116.516C192.68 115.92 193.764 114.279 193.773 112.775V111.643H191.723V111.008H196.615V111.643H194.545V112.775ZM198.598 110.109V118.791H197.826V110.109H198.598ZM206.801 110.109V113.693H208.256V114.328H206.801V118.791H206.039V110.109H206.801ZM205.199 111.506V112.141H200.033V111.506H202.27V110.217H203.031V111.506H205.199ZM202.66 112.863C203.891 112.863 204.779 113.684 204.789 114.855C204.779 116.027 203.891 116.848 202.66 116.848C201.42 116.848 200.521 116.027 200.531 114.855C200.521 113.684 201.42 112.863 202.66 112.863ZM202.66 113.508C201.85 113.508 201.254 114.074 201.264 114.855C201.254 115.646 201.85 116.203 202.66 116.193C203.461 116.203 204.047 115.646 204.057 114.855C204.047 114.074 203.461 113.508 202.66 113.508ZM214.145 112.443C214.145 113.977 215.16 115.549 216.391 116.154L215.922 116.77C214.965 116.267 214.164 115.241 213.783 114.035C213.393 115.319 212.572 116.413 211.596 116.936L211.107 116.32C212.377 115.695 213.383 114.025 213.393 112.443V110.861H214.145V112.443ZM217.953 110.109V113.635H219.408V114.299H217.953V118.791H217.191V110.109H217.953ZM222.338 110.432C223.637 110.441 224.584 111.223 224.584 112.355C224.584 113.488 223.637 114.27 222.338 114.27C221.02 114.27 220.082 113.488 220.082 112.355C220.082 111.223 221.02 110.441 222.338 110.432ZM222.338 111.076C221.469 111.076 220.824 111.604 220.834 112.355C220.824 113.117 221.469 113.645 222.338 113.645C223.197 113.645 223.842 113.117 223.842 112.355C223.842 111.604 223.197 111.076 222.338 111.076ZM227.045 110.109V114.572H226.283V110.109H227.045ZM227.045 114.992V117.082H222.172V118.059H227.357V118.674H221.42V116.506H226.283V115.607H221.4V114.992H227.045ZM236.469 117.072V117.717H228.52V117.072H232.094V115.432H229.516V112.756H234.711V111.389H229.496V110.754H235.463V113.381H230.277V114.797H235.668V115.432H232.846V117.072H236.469ZM244.604 110.109V118.791H243.861V110.109H244.604ZM242.855 110.295V118.352H242.123V114.133H241.01C240.927 115.822 240.209 116.877 239.135 116.877C238.002 116.877 237.27 115.705 237.27 113.859C237.27 112.014 238.002 110.842 239.135 110.842C240.189 110.842 240.902 111.862 241 113.498H242.123V110.295H242.855ZM239.135 111.564C238.432 111.564 237.982 112.443 237.992 113.859C237.982 115.266 238.432 116.154 239.135 116.145C239.838 116.154 240.287 115.266 240.287 113.859C240.287 112.443 239.838 111.564 239.135 111.564ZM251.605 114.689V116.281C252.44 116.247 253.295 116.174 254.096 116.057L254.154 116.623C252.172 116.984 250.033 116.994 248.471 116.994L248.363 116.359C249.091 116.354 249.95 116.35 250.854 116.32V114.689H251.605ZM253.646 111.252V111.887H251.605C251.625 113.01 252.558 113.923 253.842 114.289L253.48 114.895C252.436 114.582 251.62 113.913 251.234 113.029C250.854 113.962 250.043 114.655 248.998 114.973L248.627 114.387C249.911 114.011 250.814 113.059 250.834 111.887H248.842V111.252H250.854V110.178H251.605V111.252H253.646ZM255.434 110.109V118.811H254.672V110.109H255.434ZM264.906 117.053V117.697H256.957V117.053H260.541V115.061H261.293V117.053H264.906ZM264.145 111.496V112.131H261.312C261.317 113.493 262.763 114.494 264.428 114.768L264.135 115.373C262.743 115.124 261.469 114.426 260.922 113.342C260.37 114.426 259.096 115.124 257.699 115.373L257.396 114.768C259.071 114.494 260.526 113.493 260.531 112.131H257.699V111.496H260.541V110.295H261.293V111.496H264.145ZM272.797 110.109V118.811H272.025V114.24H270.121V113.605H272.025V110.109H272.797ZM268.598 112.941C268.598 114.377 269.574 115.783 270.863 116.359L270.424 116.955C269.438 116.501 268.617 115.554 268.236 114.406C267.855 115.617 267.045 116.633 266.059 117.111L265.619 116.516C266.889 115.92 267.846 114.436 267.846 112.941V112.248H265.854V111.623H267.846V110.275H268.607V111.623H270.57V112.248H268.598V112.941ZM282.182 114.709V115.334H278.646V117.033H277.885V115.334H274.232V114.709H282.182ZM281.293 117.961V118.605H275.248V116.232H276.01V117.961H281.293ZM276.059 110.393V111.506H280.355V110.393H281.117V113.859H275.297V110.393H276.059ZM276.059 113.234H280.355V112.092H276.059V113.234ZM289.604 110.109V113.693H291.059V114.328H289.604V118.791H288.842V110.109H289.604ZM288.002 111.506V112.141H282.836V111.506H285.072V110.217H285.834V111.506H288.002ZM285.463 112.863C286.693 112.863 287.582 113.684 287.592 114.855C287.582 116.027 286.693 116.848 285.463 116.848C284.223 116.848 283.324 116.027 283.334 114.855C283.324 113.684 284.223 112.863 285.463 112.863ZM285.463 113.508C284.652 113.508 284.057 114.074 284.066 114.855C284.057 115.646 284.652 116.203 285.463 116.193C286.264 116.203 286.85 115.646 286.859 114.855C286.85 114.074 286.264 113.508 285.463 113.508ZM294.516 115.939C294.516 116.716 294.926 117.536 295.756 118C296.586 117.492 297.016 116.608 297.016 115.939V115.344H297.768V115.939C297.768 116.828 298.412 117.736 299.545 118.107L299.145 118.693C298.285 118.376 297.68 117.771 297.387 117.043C297.113 117.751 296.581 118.42 295.766 118.762C294.931 118.444 294.398 117.805 294.135 117.072C293.822 117.775 293.227 118.376 292.396 118.693L292.016 118.107C293.119 117.717 293.773 116.779 293.783 115.939V115.344H294.516V115.939ZM293.92 110.588C294.647 110.588 295.272 110.866 295.678 111.33H297.953V110.109H298.725V115.07H297.953V113.918H295.697C295.292 114.396 294.662 114.68 293.92 114.68C292.621 114.68 291.674 113.84 291.674 112.639C291.674 111.438 292.621 110.588 293.92 110.588ZM293.92 111.242C293.051 111.242 292.406 111.828 292.416 112.639C292.406 113.459 293.051 114.025 293.92 114.035C294.77 114.025 295.414 113.459 295.414 112.639C295.414 111.828 294.77 111.242 293.92 111.242ZM296.039 111.955C296.112 112.165 296.156 112.395 296.156 112.639C296.156 112.868 296.117 113.083 296.059 113.283H297.953V111.955H296.039ZM301.938 115.324V116.34H306.273V115.324H307.045V118.674H301.176V115.324H301.938ZM301.938 118.059H306.273V116.945H301.938V118.059ZM308.08 114.074V114.709H300.17V114.074H308.08ZM304.525 110.617C304.525 111.691 306.107 112.648 307.631 112.844L307.348 113.459C306 113.259 304.682 112.57 304.135 111.594C303.578 112.575 302.25 113.259 300.912 113.459L300.619 112.844C302.162 112.639 303.734 111.721 303.734 110.617V110.207H304.525V110.617ZM315.971 110.109V118.791H315.209V110.109H315.971ZM310.131 110.969V115.891C311.454 115.886 312.826 115.778 314.281 115.471L314.389 116.125C312.846 116.447 311.469 116.555 310.082 116.555H309.379V110.969H310.131ZM324.174 110.109V113.547H325.629V114.191H324.174V118.811H323.412V110.109H324.174ZM321.889 110.959V111.594H318.598V115.988C320.17 115.988 321.283 115.915 322.572 115.676L322.67 116.34C321.312 116.584 320.17 116.633 318.52 116.633H317.836V110.959H321.889ZM327.016 118.059C326.674 118.059 326.381 117.775 326.391 117.424C326.381 117.082 326.674 116.799 327.016 116.799C327.357 116.799 327.641 117.082 327.641 117.424C327.641 117.775 327.357 118.059 327.016 118.059ZM97.6895 142V141.082L100.189 138.67C100.902 137.957 101.273 137.537 101.273 136.941C101.273 136.287 100.756 135.867 100.062 135.867C99.3301 135.867 98.8613 136.326 98.8711 137.039H97.6602C97.6504 135.701 98.6562 134.832 100.072 134.832C101.518 134.832 102.494 135.691 102.494 136.883C102.494 137.684 102.104 138.328 100.717 139.637L99.457 140.887V140.936H102.602V142H97.6895ZM106.322 142.098C104.623 142.098 103.607 140.779 103.607 138.465C103.607 136.16 104.623 134.832 106.322 134.832C108.012 134.832 109.037 136.16 109.037 138.465C109.037 140.779 108.021 142.098 106.322 142.098ZM106.322 141.033C107.211 141.033 107.758 140.164 107.758 138.465C107.758 136.775 107.201 135.887 106.322 135.887C105.443 135.887 104.887 136.775 104.887 138.465C104.887 140.164 105.434 141.033 106.322 141.033ZM112.973 134.93V142H111.693V136.17H111.654L110.004 137.225V136.062L111.752 134.93H112.973ZM117.201 142.098C115.785 142.098 114.75 141.258 114.711 140.086H115.951C115.99 140.662 116.527 141.072 117.201 141.072C117.992 141.072 118.559 140.496 118.559 139.715C118.559 138.904 117.973 138.328 117.162 138.328C116.615 138.318 116.215 138.514 115.99 138.934H114.809L115.238 134.93H119.418V135.994H116.283L116.068 137.869H116.137C116.41 137.557 116.928 137.332 117.504 137.332C118.822 137.332 119.789 138.318 119.789 139.676C119.789 141.092 118.725 142.098 117.201 142.098ZM127.963 134.051V140.555H126.879V137.615H124.574V136.756H126.879V135.955H124.574V135.096H126.879V134.051H127.963ZM128.188 141.814V142.693H122.162V139.979H123.256V141.814H128.188ZM122.152 134.637V138.455C123.275 138.44 124.335 138.372 125.521 138.162L125.629 139.041C124.271 139.295 123.08 139.344 121.771 139.354H121.078V134.637H122.152ZM134.447 142.098C132.875 142.098 131.762 141.258 131.762 140.105C131.762 139.207 132.426 138.475 133.275 138.338V138.299C132.533 138.143 132.025 137.498 132.025 136.727C132.025 135.633 133.051 134.832 134.447 134.832C135.834 134.832 136.859 135.633 136.859 136.727C136.859 137.498 136.342 138.143 135.609 138.299V138.338C136.459 138.475 137.133 139.207 137.133 140.105C137.133 141.258 136.01 142.098 134.447 142.098ZM134.447 141.092C135.277 141.092 135.824 140.643 135.824 139.988C135.824 139.324 135.238 138.836 134.447 138.836C133.646 138.836 133.061 139.324 133.07 139.988C133.061 140.643 133.607 141.092 134.447 141.092ZM134.447 137.889C135.131 137.889 135.619 137.459 135.619 136.844C135.619 136.248 135.141 135.828 134.447 135.828C133.744 135.828 133.266 136.238 133.266 136.844C133.266 137.459 133.754 137.889 134.447 137.889ZM145.297 134.051V139.197H144.203V138.836H142.553V138.172H144.203V134.051H145.297ZM137.885 137.234C139.594 137.234 141.723 137.215 143.617 137.029L143.676 137.713C142.87 137.825 142.04 137.894 141.225 137.928V139.207H140.15V137.977C139.394 137.996 138.666 138.001 138.002 137.996L137.885 137.234ZM145.297 139.471V141.453H140.277V142.02H145.531V142.791H139.213V140.74H144.223V140.213H139.174V139.471H145.297ZM140.736 134.188C142.045 134.188 142.943 134.715 142.943 135.516C142.943 136.336 142.045 136.834 140.736 136.834C139.398 136.834 138.51 136.336 138.51 135.516C138.51 134.715 139.398 134.188 140.736 134.188ZM140.736 134.91C139.994 134.91 139.535 135.145 139.545 135.516C139.535 135.887 139.994 136.111 140.736 136.111C141.459 136.111 141.928 135.887 141.928 135.516C141.928 135.145 141.459 134.91 140.736 134.91ZM149.203 142V141.082L151.703 138.67C152.416 137.957 152.787 137.537 152.787 136.941C152.787 136.287 152.27 135.867 151.576 135.867C150.844 135.867 150.375 136.326 150.385 137.039H149.174C149.164 135.701 150.17 134.832 151.586 134.832C153.031 134.832 154.008 135.691 154.008 136.883C154.008 137.684 153.617 138.328 152.23 139.637L150.971 140.887V140.936H154.115V142H149.203ZM157.797 142.098C156.225 142.098 155.111 141.258 155.111 140.105C155.111 139.207 155.775 138.475 156.625 138.338V138.299C155.883 138.143 155.375 137.498 155.375 136.727C155.375 135.633 156.4 134.832 157.797 134.832C159.184 134.832 160.209 135.633 160.209 136.727C160.209 137.498 159.691 138.143 158.959 138.299V138.338C159.809 138.475 160.482 139.207 160.482 140.105C160.482 141.258 159.359 142.098 157.797 142.098ZM157.797 141.092C158.627 141.092 159.174 140.643 159.174 139.988C159.174 139.324 158.588 138.836 157.797 138.836C156.996 138.836 156.41 139.324 156.42 139.988C156.41 140.643 156.957 141.092 157.797 141.092ZM157.797 137.889C158.48 137.889 158.969 137.459 158.969 136.844C158.969 136.248 158.49 135.828 157.797 135.828C157.094 135.828 156.615 136.238 156.615 136.844C156.615 137.459 157.104 137.889 157.797 137.889ZM163.744 134.324C165.082 134.324 166.078 135.154 166.088 136.316C166.078 137.488 165.082 138.309 163.744 138.309C162.396 138.309 161.4 137.488 161.4 136.316C161.4 135.154 162.396 134.324 163.744 134.324ZM163.744 135.223C163.002 135.223 162.455 135.643 162.455 136.316C162.455 137 163.002 137.43 163.744 137.43C164.486 137.43 165.033 137 165.033 136.316C165.033 135.643 164.486 135.223 163.744 135.223ZM168.598 134.041V138.504H167.504V134.041H168.598ZM168.598 138.885V141.189H163.822V141.902H168.861V142.762H162.758V140.389H167.514V139.734H162.738V138.885H168.598ZM179.584 134.441V135.311H177.025C177.123 136.141 178.202 136.932 179.906 137.137L179.496 137.996C177.914 137.806 176.747 137.107 176.273 136.15C175.8 137.103 174.643 137.806 173.061 137.996L172.66 137.137C174.364 136.932 175.429 136.141 175.531 135.311H172.992V134.441H179.584ZM180.316 138.484V139.363H176.908V140.975H175.834V139.363H172.25V138.484H180.316ZM179.428 141.814V142.693H173.227V140.164H174.311V141.814H179.428ZM184.877 139.559C186.791 139.568 188.002 140.174 188.012 141.219C188.002 142.244 186.791 142.859 184.877 142.859C182.973 142.859 181.752 142.244 181.752 141.219C181.752 140.174 182.973 139.568 184.877 139.559ZM184.877 140.379C183.607 140.379 182.836 140.682 182.846 141.219C182.836 141.736 183.607 142.02 184.877 142.02C186.156 142.02 186.928 141.736 186.938 141.219C186.928 140.682 186.156 140.379 184.877 140.379ZM187.953 134.461V135.193C187.953 135.887 187.953 136.629 187.709 137.537L186.635 137.439C186.854 136.58 186.869 135.96 186.869 135.32H181.84V134.461H187.953ZM188.93 138.045V138.924H180.922V138.045H184.027V136.443H185.102V138.045H188.93ZM192.836 135.301C192.836 136.463 193.559 137.557 194.965 137.996L194.428 138.855C193.407 138.514 192.68 137.845 192.289 136.98C191.884 137.908 191.146 138.646 190.102 139.002L189.555 138.152C190.98 137.664 191.713 136.502 191.713 135.301V134.461H192.836V135.301ZM196.898 139.725V142.869H195.805V140.594H190.873V139.725H196.898ZM196.898 134.041V139.324H195.805V134.041H196.898ZM202.201 134.178C204.213 134.178 205.375 134.715 205.385 135.691C205.375 136.678 204.213 137.205 202.201 137.215C200.189 137.205 199.018 136.678 199.018 135.691C199.018 134.715 200.189 134.178 202.201 134.178ZM202.201 134.979C200.854 134.979 200.15 135.232 200.16 135.691C200.15 136.18 200.854 136.404 202.201 136.404C203.568 136.404 204.262 136.18 204.262 135.691C204.262 135.232 203.568 134.979 202.201 134.979ZM206.234 137.684V138.553H198.188V137.684H206.234ZM205.229 139.148V141.307H200.209V141.961H205.473V142.791H199.145V140.535H204.164V139.949H199.135V139.148H205.229ZM216.781 134.041V142.869H215.736V138.338H214.789V142.459H213.773V134.275H214.789V137.459H215.736V134.041H216.781ZM213.021 135.154C213.021 137.537 212.27 139.588 209.76 141.023L209.135 140.271C211.015 139.183 211.811 137.786 211.967 136.023H209.545V135.154H213.021ZM221.322 138.768V140.193C222.089 140.154 222.86 140.086 223.588 139.979L223.676 140.779C221.693 141.141 219.574 141.16 218.021 141.16L217.885 140.281C218.573 140.276 219.384 140.271 220.238 140.242V138.768H221.322ZM223.227 135.125V136.004H221.342C221.391 136.946 222.138 137.796 223.471 138.133L222.973 138.982C221.928 138.699 221.181 138.089 220.785 137.303C220.395 138.133 219.657 138.768 218.607 139.051L218.09 138.23C219.423 137.864 220.155 136.995 220.219 136.004H218.354V135.125H220.238V134.119H221.322V135.125H223.227ZM225.199 134.041V142.879H224.115V134.041H225.199ZM234.037 134.051V139.49H233.002V137.254H232.162V139.383H231.146V134.178H232.162V136.365H233.002V134.051H234.037ZM230.834 134.949V135.809H226.439V134.949H228.109V134.09H229.184V134.949H230.834ZM228.646 136.141C229.77 136.15 230.561 136.756 230.57 137.674C230.561 138.582 229.77 139.207 228.646 139.207C227.543 139.207 226.742 138.582 226.752 137.674C226.742 136.756 227.543 136.15 228.646 136.141ZM228.646 136.932C228.1 136.932 227.719 137.195 227.719 137.674C227.719 138.133 228.09 138.416 228.646 138.416C229.203 138.416 229.584 138.133 229.584 137.674C229.584 137.195 229.203 136.932 228.646 136.932ZM229.779 139.979C229.779 140.662 230.106 141.365 230.844 141.805C231.591 141.336 231.938 140.594 231.947 139.979V139.764H233.021V139.979C233.021 140.818 233.578 141.629 234.73 141.941L234.223 142.762C233.358 142.488 232.782 141.941 232.475 141.258C232.196 141.932 231.679 142.532 230.863 142.84C230.033 142.547 229.511 141.98 229.232 141.307C228.91 141.951 228.334 142.483 227.514 142.762L227.006 141.941C228.139 141.6 228.705 140.77 228.705 139.979V139.764H229.779V139.979ZM239.145 134.539C241.01 134.539 242.436 135.525 242.436 137.029C242.436 138.553 241.01 139.539 239.145 139.539C237.289 139.539 235.863 138.553 235.873 137.029C235.863 135.525 237.289 134.539 239.145 134.539ZM239.145 135.418C237.865 135.408 236.918 136.053 236.918 137.029C236.918 138.025 237.865 138.65 239.145 138.65C240.434 138.65 241.371 138.025 241.371 137.029C241.371 136.053 240.434 135.408 239.145 135.418ZM243.197 140.867V141.756H235.131V140.867H243.197ZM248.266 134.861V136.082H250.102V134.041H251.176V142.879H250.102V139.354H248.266V140.691H244.105V134.861H248.266ZM245.189 135.711V139.832H247.201V135.711H245.189ZM248.266 138.484H250.102V136.961H248.266V138.484ZM254.135 141.307L253.314 144.041H252.387L252.895 141.307H254.135ZM53.0215 146.051V152.77H51.9375V151.031H50.6289V150.162H51.9375V149.176H50.6289V148.297H51.9375V146.051H53.0215ZM50.5801 147.027V147.896H45.6484V147.027H47.6211V146.041H48.7051V147.027H50.5801ZM48.1484 148.258C49.3496 148.258 50.209 148.961 50.2188 149.977C50.209 150.992 49.3496 151.695 48.1484 151.695C46.957 151.695 46.0977 150.992 46.1074 149.977C46.0977 148.961 46.957 148.258 48.1484 148.258ZM48.1484 149.107C47.543 149.117 47.1133 149.439 47.123 149.977C47.1133 150.533 47.543 150.855 48.1484 150.855C48.7539 150.855 49.1934 150.533 49.1934 149.977C49.1934 149.439 48.7539 149.117 48.1484 149.107ZM53.2168 153.814V154.693H47.2012V152.193H48.3047V153.814H53.2168ZM61.9277 146.041V154.869H60.8926V150.396H59.9844V154.439H58.959V146.197H59.9844V149.498H60.8926V146.041H61.9277ZM57.0156 148.297C57.0156 149.869 57.543 151.314 58.8516 151.988L58.2168 152.818C57.377 152.369 56.8252 151.593 56.5176 150.631C56.2148 151.729 55.6631 152.613 54.7891 153.131L54.125 152.301C55.4336 151.559 55.9609 150.016 55.9609 148.297V147.877H54.3887V147.008H58.4609V147.877H57.0156V148.297ZM69.9551 146.041V149.566H71.1758V150.465H69.9551V154.869H68.8613V146.041H69.9551ZM65.5605 146.969C65.5508 149.283 65.2285 151.236 63.6367 152.955L62.7871 152.34C64.0322 151.021 64.4375 149.625 64.5254 147.857H63.1387V146.969H65.5605ZM68.002 146.969C67.9922 149.342 67.748 151.607 66.1562 153.521L65.2871 152.926C66.5469 151.427 66.8984 149.771 66.9766 147.857H65.8535V146.969H68.002ZM74.8867 148.551C74.8867 149.996 75.7363 151.52 77.1621 152.115L76.5664 152.975C75.5215 152.525 74.7598 151.598 74.3594 150.475C73.9492 151.686 73.1777 152.701 72.1426 153.189L71.5176 152.34C72.9141 151.695 73.7832 150.055 73.7832 148.551V147.809H71.8398V146.91H76.8203V147.809H74.8867V148.551ZM78.9004 146.041V154.869H77.8066V146.041H78.9004ZM90.1699 146.041V154.869H89.1348V150.367H88.1387V154.42H87.1426V146.207H88.1387V149.498H89.1348V146.041H90.1699ZM86.1465 147.086V147.965H83.9395V151.891C84.9014 151.881 85.6924 151.832 86.5859 151.666L86.6641 152.555C85.5996 152.77 84.6719 152.799 83.4414 152.809H82.8457V147.086H86.1465ZM98.1777 146.051V148.824H99.4082V149.723H98.1777V152.643H97.0938V146.051H98.1777ZM96.459 147.027V147.896H91.2246V147.027H93.3047V146.041H94.3887V147.027H96.459ZM93.8418 148.258C95.1113 148.258 95.9902 148.932 96 149.947C95.9902 150.953 95.1113 151.617 93.8418 151.617C92.5625 151.617 91.6738 150.953 91.6738 149.947C91.6738 148.932 92.5625 148.258 93.8418 148.258ZM93.8418 149.098C93.168 149.098 92.7285 149.41 92.7285 149.947C92.7285 150.475 93.168 150.787 93.8418 150.777C94.5156 150.787 94.9648 150.475 94.9648 149.947C94.9648 149.41 94.5156 149.098 93.8418 149.098ZM98.5293 153.814V154.693H92.5234V152.125H93.6074V153.814H98.5293ZM104.564 146.773V150.973H100.307V146.773H104.564ZM101.381 147.643V150.104H103.49V147.643H101.381ZM107.211 146.051V152.35H106.117V146.051H107.211ZM107.455 153.756V154.635H101.371V151.754H102.465V153.756H107.455ZM115.58 146.441V147.115C115.58 147.774 115.58 148.531 115.395 149.518H116.566V150.396H113.061V151.773H115.6V154.869H114.516V152.643H109.32V151.773H111.977V150.396H108.5V149.518H114.301C114.477 148.614 114.496 147.926 114.496 147.311H109.496V146.441H115.58ZM120.004 146.656C121.4 146.646 122.426 147.535 122.436 148.785C122.426 150.045 121.4 150.924 120.004 150.924C118.617 150.924 117.582 150.045 117.582 148.785C117.582 147.535 118.617 146.646 120.004 146.656ZM120.004 147.594C119.232 147.594 118.656 148.053 118.656 148.785C118.656 149.527 119.232 149.977 120.004 149.977C120.785 149.977 121.371 149.527 121.371 148.785C121.371 148.053 120.785 147.594 120.004 147.594ZM124.496 146.041V154.879H123.412V146.041H124.496ZM117.182 152.145C118.773 152.145 120.98 152.125 122.885 151.852L122.973 152.643C120.99 153.023 118.871 153.033 117.318 153.033L117.182 152.145ZM135.561 146.051V152.73H134.467V151.959H132.738V151.197H134.467V146.051H135.561ZM135.766 153.814V154.693H129.291V152.086H130.375V153.814H135.766ZM128.119 150.016C129.75 150.006 131.938 149.986 133.812 149.752L133.871 150.533C133.144 150.655 132.392 150.738 131.645 150.787V152.486H130.561V150.846C129.735 150.88 128.949 150.885 128.256 150.885L128.119 150.016ZM131 146.373C132.289 146.373 133.188 147.008 133.197 147.936C133.188 148.883 132.289 149.488 131 149.488C129.691 149.488 128.793 148.883 128.793 147.936C128.793 147.008 129.691 146.373 131 146.373ZM131 147.174C130.297 147.174 129.818 147.457 129.818 147.936C129.818 148.414 130.297 148.697 131 148.697C131.674 148.697 132.152 148.414 132.162 147.936C132.152 147.457 131.674 147.174 131 147.174ZM139.965 148.551C139.965 149.918 140.775 151.471 142.172 152.115L141.566 152.975C140.57 152.506 139.833 151.559 139.438 150.455C139.037 151.666 138.266 152.701 137.25 153.189L136.615 152.34C138.021 151.676 138.871 150.016 138.881 148.551V147.809H136.957V146.91H141.811V147.809H139.965V148.551ZM143.715 146.041V149.479H145.072V150.387H143.715V154.869H142.631V146.041H143.715ZM149.662 146.568V149.225H146.879V150.309C148.295 150.313 149.11 150.27 150.043 150.094L150.15 150.973C149.096 151.148 148.178 151.178 146.449 151.178H145.805V148.414H148.578V147.428H145.785V146.568H149.662ZM152.836 146.051V151.48H151.752V150.025H150.189V149.156H151.752V148.17H150.189V147.301H151.752V146.051H152.836ZM152.836 151.9V154.869H151.752V152.77H146.801V151.9H152.836ZM159.613 148.16C159.604 149.732 160.395 151.334 161.762 151.988L161.098 152.857C160.141 152.374 159.452 151.441 159.076 150.318C158.69 151.52 157.968 152.516 156.957 153.023L156.293 152.154C157.709 151.48 158.52 149.791 158.529 148.16V146.754H159.613V148.16ZM163.373 146.041V149.498H164.73V150.426H163.373V154.869H162.289V146.041H163.373ZM173.148 150.289V151.158H165.102V150.289H166.977V149.166C166.312 148.888 165.932 148.443 165.932 147.867C165.932 146.812 167.172 146.188 169.115 146.188C171.059 146.188 172.289 146.812 172.299 147.867C172.294 148.448 171.913 148.893 171.244 149.166V150.289H173.148ZM169.115 151.695C171.02 151.686 172.162 152.252 172.172 153.268C172.162 154.293 171.02 154.85 169.115 154.85C167.191 154.85 166.039 154.293 166.039 153.268C166.039 152.252 167.191 151.686 169.115 151.695ZM169.115 152.516C167.826 152.516 167.133 152.77 167.143 153.268C167.133 153.766 167.826 154.029 169.115 154.029C170.375 154.029 171.078 153.766 171.088 153.268C171.078 152.77 170.375 152.516 169.115 152.516ZM169.115 147.027C167.807 147.027 167.055 147.32 167.064 147.867C167.055 148.404 167.807 148.688 169.115 148.688C170.414 148.688 171.176 148.404 171.176 147.867C171.176 147.32 170.414 147.027 169.115 147.027ZM168.07 150.289H170.16V149.449C169.843 149.493 169.491 149.518 169.115 149.518C168.739 149.518 168.388 149.493 168.07 149.449V150.289ZM181.361 146.041V154.869H180.316V146.041H181.361ZM179.545 146.197V154.439H178.51V150.24H177.67C177.567 151.959 176.83 153.023 175.736 153.014C174.584 153.023 173.832 151.803 173.832 149.859C173.832 147.916 174.584 146.715 175.736 146.715C176.806 146.715 177.533 147.711 177.66 149.361H178.51V146.197H179.545ZM175.736 147.74C175.18 147.73 174.828 148.482 174.838 149.859C174.828 151.236 175.18 151.988 175.736 151.979C176.322 151.988 176.674 151.236 176.674 149.859C176.674 148.482 176.322 147.73 175.736 147.74ZM192.807 150.094V150.973H189.311V151.705C190.893 151.812 191.82 152.359 191.83 153.277C191.82 154.293 190.678 154.859 188.773 154.859C186.85 154.859 185.697 154.293 185.697 153.277C185.697 152.359 186.635 151.808 188.236 151.705V150.973H184.76V150.094H192.807ZM188.773 152.525C187.484 152.535 186.791 152.789 186.801 153.277C186.791 153.766 187.484 154.029 188.773 154.029C190.033 154.029 190.736 153.766 190.746 153.277C190.736 152.789 190.033 152.535 188.773 152.525ZM192.084 146.432V147.301H189.545C189.716 148.028 190.771 148.683 192.426 148.834L192.045 149.693C190.443 149.532 189.252 148.893 188.773 147.994C188.295 148.888 187.123 149.532 185.521 149.693L185.15 148.834C186.771 148.683 187.826 148.019 188.012 147.301H185.492V146.432H192.084ZM201.469 152.906V153.795H193.402V152.906H195.268V150.67C194.564 150.27 194.14 149.64 194.145 148.854C194.135 147.447 195.521 146.52 197.416 146.52C199.32 146.52 200.707 147.447 200.707 148.854C200.707 149.625 200.297 150.245 199.613 150.65V152.906H201.469ZM197.416 147.379C196.098 147.379 195.199 147.936 195.209 148.854C195.199 149.762 196.098 150.328 197.416 150.328C198.734 150.328 199.643 149.762 199.643 148.854C199.643 147.936 198.734 147.379 197.416 147.379ZM196.342 152.906H198.51V151.061C198.173 151.139 197.807 151.178 197.416 151.178C197.035 151.178 196.674 151.139 196.342 151.07V152.906ZM209.008 146.051V148.824H210.238V149.723H209.008V152.643H207.924V146.051H209.008ZM207.289 147.027V147.896H202.055V147.027H204.135V146.041H205.219V147.027H207.289ZM204.672 148.258C205.941 148.258 206.82 148.932 206.83 149.947C206.82 150.953 205.941 151.617 204.672 151.617C203.393 151.617 202.504 150.953 202.504 149.947C202.504 148.932 203.393 148.258 204.672 148.258ZM204.672 149.098C203.998 149.098 203.559 149.41 203.559 149.947C203.559 150.475 203.998 150.787 204.672 150.777C205.346 150.787 205.795 150.475 205.795 149.947C205.795 149.41 205.346 149.098 204.672 149.098ZM209.359 153.814V154.693H203.354V152.125H204.438V153.814H209.359ZM220.453 151.676V154.869H219.369V152.535H214.438V151.676H220.453ZM220.453 146.041V151.256H219.369V150.084H217.299C216.879 150.553 216.244 150.836 215.512 150.836C214.184 150.836 213.178 149.938 213.178 148.668C213.178 147.418 214.184 146.52 215.512 146.529C216.239 146.524 216.874 146.798 217.289 147.262H219.369V146.041H220.453ZM215.512 147.447C214.75 147.447 214.213 147.936 214.213 148.668C214.213 149.43 214.75 149.908 215.512 149.918C216.234 149.908 216.781 149.43 216.791 148.668C216.781 147.936 216.234 147.447 215.512 147.447ZM217.758 149.205H219.369V148.15H217.768C217.802 148.316 217.826 148.487 217.826 148.668C217.826 148.854 217.802 149.034 217.758 149.205ZM228.666 146.021V148.014H229.906V148.893H228.666V150.836H227.582V146.021H228.666ZM228.666 151.227V153.355H223.979V153.98H228.939V154.791H222.904V152.604H227.582V152.018H222.895V151.227H228.666ZM226.947 146.754V147.584H221.713V146.754H223.793V145.973H224.877V146.754H226.947ZM224.33 147.857C225.639 147.867 226.479 148.424 226.488 149.303C226.479 150.211 225.639 150.748 224.33 150.748C223.021 150.748 222.162 150.211 222.162 149.303C222.162 148.424 223.021 147.867 224.33 147.857ZM224.33 148.639C223.646 148.639 223.217 148.883 223.217 149.303C223.217 149.732 223.646 149.967 224.33 149.967C225.014 149.967 225.453 149.732 225.453 149.303C225.453 148.883 225.014 148.639 224.33 148.639ZM234.359 146.178C236.371 146.178 237.533 146.715 237.543 147.691C237.533 148.678 236.371 149.205 234.359 149.215C232.348 149.205 231.176 148.678 231.176 147.691C231.176 146.715 232.348 146.178 234.359 146.178ZM234.359 146.979C233.012 146.979 232.309 147.232 232.318 147.691C232.309 148.18 233.012 148.404 234.359 148.404C235.727 148.404 236.42 148.18 236.42 147.691C236.42 147.232 235.727 146.979 234.359 146.979ZM238.393 149.684V150.553H230.346V149.684H238.393ZM237.387 151.148V153.307H232.367V153.961H237.631V154.791H231.303V152.535H236.322V151.949H231.293V151.148H237.387ZM248.529 150.055V150.914H245.912V152.936H249.428V153.824H241.361V152.936H244.838V150.914H242.338V146.695H248.461V147.564H243.422V150.055H248.529ZM254.486 146.637V150.357H250.307V146.637H254.486ZM251.371 147.525V149.498H253.422V147.525H251.371ZM256.967 146.041V147.955H258.197V148.844H256.967V150.758H255.883V146.041H256.967ZM257.016 151.168V151.949H252.348V152.564H256.928V153.326H252.348V153.98H257.201V154.762H251.273V151.168H257.016ZM265.854 146.852V147.701C265.844 148.795 265.844 150.025 265.502 151.871L264.408 151.754C264.75 150.035 264.75 148.78 264.76 147.721H259.486V146.852H265.854ZM266.693 152.838V153.727H258.646V152.838H261.615V149.771H262.689V152.838H266.693ZM272.797 151.783C272.797 152.516 273.134 153.287 273.891 153.766C274.657 153.253 275.014 152.452 275.023 151.783V151.422H276.088V151.783C276.078 152.711 276.625 153.57 277.787 153.941L277.26 154.732C276.4 154.444 275.829 153.883 275.521 153.18C275.238 153.873 274.716 154.493 273.92 154.811C273.08 154.508 272.553 153.912 272.279 153.209C271.962 153.888 271.4 154.439 270.58 154.732L270.043 153.941C271.186 153.541 271.732 152.643 271.742 151.783V151.422H272.797V151.783ZM277.016 146.051V151.051H275.922V146.051H277.016ZM272.201 146.52C273.559 146.52 274.574 147.379 274.574 148.619C274.574 149.85 273.559 150.709 272.201 150.709C270.834 150.709 269.818 149.85 269.818 148.619C269.818 147.379 270.834 146.52 272.201 146.52ZM272.201 147.438C271.43 147.438 270.873 147.896 270.883 148.619C270.873 149.342 271.43 149.811 272.201 149.811C272.963 149.811 273.51 149.342 273.51 148.619C273.51 147.896 272.963 147.438 272.201 147.438ZM280.346 151.334V152.174H284.232V151.334H285.316V154.762H279.271V151.334H280.346ZM280.346 153.902H284.232V153.004H280.346V153.902ZM286.352 149.947V150.836H278.305V149.947H286.352ZM282.885 146.471C282.885 147.418 284.096 148.414 285.922 148.629L285.541 149.488C284.062 149.288 282.895 148.634 282.328 147.74C281.757 148.639 280.585 149.288 279.115 149.488L278.715 148.629C280.561 148.404 281.762 147.447 281.771 146.471V146.139H282.885V146.471ZM294.311 146.041V154.869H293.236V146.041H294.311ZM288.529 146.9V151.725C289.77 151.705 291.088 151.593 292.445 151.324L292.582 152.232C291.029 152.555 289.584 152.652 288.217 152.652H287.455V146.9H288.529ZM302.504 146.041V149.391H303.861V150.279H302.504V154.879H301.42V146.041H302.504ZM300.082 146.881V147.76H297.035V151.812C298.407 151.812 299.491 151.744 300.707 151.529L300.834 152.447C299.467 152.682 298.275 152.721 296.684 152.721H295.951V146.881H300.082ZM305.307 154.078C304.887 154.078 304.545 153.736 304.545 153.316C304.545 152.906 304.887 152.564 305.307 152.564C305.707 152.564 306.059 152.906 306.059 153.316C306.059 153.736 305.707 154.078 305.307 154.078Z" fill="#121212"/>
</svg>
