<svg width="313" height="21" viewBox="0 0 313 21" fill="none" xmlns="http://www.w3.org/2000/svg">
<path d="M7.41016 0.109375V3.69336H8.86523V4.32812H7.41016V8.79102H6.64844V0.109375H7.41016ZM5.80859 1.50586V2.14062H0.642578V1.50586H2.87891V0.216797H3.64062V1.50586H5.80859ZM3.26953 2.86328C4.5 2.86328 5.38867 3.68359 5.39844 4.85547C5.38867 6.02734 4.5 6.84766 3.26953 6.84766C2.0293 6.84766 1.13086 6.02734 1.14062 4.85547C1.13086 3.68359 2.0293 2.86328 3.26953 2.86328ZM3.26953 3.50781C2.45898 3.50781 1.86328 4.07422 1.87305 4.85547C1.86328 5.64648 2.45898 6.20312 3.26953 6.19336C4.07031 6.20312 4.65625 5.64648 4.66602 4.85547C4.65625 4.07422 4.07031 3.50781 3.26953 3.50781ZM12.4395 2.77539C12.4395 4.25 13.5137 5.74414 14.793 6.30078L14.3633 6.90625C13.3477 6.44238 12.4688 5.44141 12.0684 4.24023C11.6582 5.51465 10.7842 6.62305 9.79297 7.12109L9.33398 6.51562C10.5742 5.91992 11.6582 4.2793 11.668 2.77539V1.64258H9.61719V1.00781H14.5098V1.64258H12.4395V2.77539ZM16.4922 0.109375V8.79102H15.7207V0.109375H16.4922ZM22.3613 0.900391V4.89453H18.3477V0.900391H22.3613ZM19.0996 1.52539V4.2793H21.6191V1.52539H19.0996ZM24.7637 0.109375V2.75586H26.0723V3.40039H24.7637V6.47656H24.002V0.109375H24.7637ZM25.1641 7.96094V8.60547H19.334V5.87109H20.0859V7.96094H25.1641ZM28.0449 7.3457L27.2832 10.002H26.5605L27.0977 7.3457H28.0449ZM35.6914 5.56836C37.4785 5.56836 38.5527 6.1543 38.5527 7.16992C38.5527 8.19531 37.4785 8.78125 35.6914 8.79102C33.9043 8.78125 32.8105 8.19531 32.8105 7.16992C32.8105 6.1543 33.9043 5.56836 35.6914 5.56836ZM35.6914 6.17383C34.3828 6.18359 33.5723 6.54492 33.582 7.16992C33.5723 7.79492 34.3828 8.16602 35.6914 8.16602C37.0098 8.16602 37.8105 7.79492 37.8105 7.16992C37.8105 6.54492 37.0098 6.18359 35.6914 6.17383ZM38.4746 0.109375V2.29688H39.7832V2.95117H38.4746V5.33398H37.7129V0.109375H38.4746ZM32.8105 0.65625V1.98438H35.3398V0.65625H36.1016V4.66016H32.0586V0.65625H32.8105ZM32.8105 4.03516H35.3398V2.58984H32.8105V4.03516ZM43.2402 2.44336C43.2402 3.97656 44.2559 5.54883 45.4863 6.1543L45.0176 6.76953C44.0605 6.2666 43.2598 5.24121 42.8789 4.03516C42.4883 5.31934 41.668 6.41309 40.6914 6.93555L40.2031 6.32031C41.4727 5.69531 42.4785 4.02539 42.4883 2.44336V0.861328H43.2402V2.44336ZM47.0488 0.109375V3.63477H48.5039V4.29883H47.0488V8.79102H46.2871V0.109375H47.0488ZM51.9609 1.47656C51.9512 2.7168 52.8301 3.81055 54.1094 4.24023L53.6797 4.83594C52.7227 4.47461 51.9707 3.77148 51.5996 2.85352C51.2236 3.89355 50.4277 4.7041 49.3828 5.09961L48.9629 4.47461C50.3008 4.00586 51.1895 2.85352 51.1992 1.50586V0.607422H51.9609V1.47656ZM56.1699 0.109375V5.25586H55.3984V2.60938H53.4648V1.97461H55.3984V0.109375H56.1699ZM53.2891 5.50977C55.0957 5.50977 56.1992 6.10547 56.1992 7.15039C56.1992 8.18555 55.0957 8.77148 53.2891 8.77148C51.4824 8.77148 50.3789 8.18555 50.3789 7.15039C50.3789 6.10547 51.4824 5.50977 53.2891 5.50977ZM53.2891 6.11523C51.9609 6.11523 51.1309 6.50586 51.1406 7.15039C51.1309 7.77539 51.9609 8.15625 53.2891 8.15625C54.6172 8.15625 55.4375 7.77539 55.4375 7.15039C55.4375 6.50586 54.6172 6.11523 53.2891 6.11523ZM65.0859 0.109375V8.79102H64.3438V0.109375H65.0859ZM63.3965 0.324219V8.33203H62.6738V5.06055H61.4922V4.42578H62.6738V3.22461H61.4922V2.58984H62.6738V0.324219H63.3965ZM61.6973 1.21289V1.85742H60.9648V5.90039C61.2871 5.88574 61.5996 5.85645 61.8828 5.82227L61.9414 6.39844C60.5742 6.62305 58.7578 6.66211 57.6152 6.67188L57.5176 6.00781L58.4355 5.99805V1.85742H57.7031V1.21289H61.6973ZM59.1387 5.98828C59.5049 5.97852 59.8857 5.96875 60.2617 5.94922V1.85742H59.1387V5.98828ZM73.4355 0.109375V8.79102H72.6641V0.109375H73.4355ZM70.8672 1.05664C70.8574 3.55664 69.6953 5.76367 66.7852 7.16016L66.3652 6.53516C68.7139 5.42188 69.9102 3.75684 70.0859 1.68164H66.7656V1.05664H70.8672ZM82.8105 3.78125V4.40625H79.2266V5.26562H81.7949V7.20898H76.6387V8.08789H82.0586V8.69336H75.877V6.63281H81.043V5.86133H75.8574V5.26562H78.4648V4.40625H74.9004V3.78125H82.8105ZM81.7852 0.402344V3.04883H75.9258V0.402344H81.7852ZM76.6875 1.01758V2.43359H81.0234V1.01758H76.6875ZM90.7402 0.109375V8.81055H89.9688V4.24023H88.0645V3.60547H89.9688V0.109375H90.7402ZM86.541 2.94141C86.541 4.37695 87.5176 5.7832 88.8066 6.35938L88.3672 6.95508C87.3809 6.50098 86.5605 5.55371 86.1797 4.40625C85.7988 5.61719 84.9883 6.63281 84.002 7.11133L83.5625 6.51562C84.832 5.91992 85.7891 4.43555 85.7891 2.94141V2.24805H83.7969V1.62305H85.7891V0.275391H86.5508V1.62305H88.5137V2.24805H86.541V2.94141ZM100.125 4.70898V5.33398H96.5898V7.0332H95.8281V5.33398H92.1758V4.70898H100.125ZM99.2363 7.96094V8.60547H93.1914V6.23242H93.9531V7.96094H99.2363ZM94.002 0.392578V1.50586H98.2988V0.392578H99.0605V3.85938H93.2402V0.392578H94.002ZM94.002 3.23438H98.2988V2.0918H94.002V3.23438ZM103.914 2.44336C103.904 4.02539 104.988 5.62695 106.268 6.20312L105.799 6.80859C104.812 6.3252 103.958 5.30469 103.543 4.06445C103.138 5.37793 102.283 6.47168 101.268 6.98438L100.779 6.33984C102.068 5.74414 103.143 4.09375 103.152 2.44336V0.861328H103.914V2.44336ZM107.986 0.109375V8.81055H107.215V0.109375H107.986ZM116.668 0.109375V4.60156H115.896V2.3457H113.963V1.71094H115.896V0.109375H116.668ZM116.668 5.04102V7.11133H111.814V8.05859H116.99V8.67383H111.062V6.52539H115.906V5.65625H111.043V5.04102H116.668ZM112.43 1.21289C112.42 2.35547 113.318 3.39062 114.588 3.81055L114.178 4.40625C113.216 4.06445 112.449 3.38086 112.068 2.50195C111.697 3.49316 110.911 4.25 109.881 4.62109L109.461 4.00586C110.77 3.57617 111.668 2.48242 111.678 1.21289V0.392578H112.43V1.21289ZM128.562 5.26562V5.89062H124.939V8.79102H124.188V5.89062H120.613V5.26562H128.562ZM122.391 0.470703V1.67188H126.766V0.470703H127.537V4.21094H121.629V0.470703H122.391ZM122.391 3.58594H126.766V2.29688H122.391V3.58594ZM132.371 2.77539C132.371 4.25 133.445 5.74414 134.725 6.30078L134.295 6.90625C133.279 6.44238 132.4 5.44141 132 4.24023C131.59 5.51465 130.716 6.62305 129.725 7.12109L129.266 6.51562C130.506 5.91992 131.59 4.2793 131.6 2.77539V1.64258H129.549V1.00781H134.441V1.64258H132.371V2.77539ZM136.424 0.109375V8.79102H135.652V0.109375H136.424ZM144.686 0.119141V2.74609H145.984V3.39062H144.686V5.93945H143.914V0.119141H144.686ZM137.869 5.05078C138.562 5.05078 139.373 5.05078 140.223 5.02148V4.38672C139.212 4.29883 138.562 3.8252 138.562 3.10742C138.562 2.31641 139.373 1.82812 140.594 1.82812C141.824 1.82812 142.625 2.31641 142.635 3.10742C142.625 3.82031 141.99 4.29395 140.984 4.38672V4.99219C141.795 4.95312 142.615 4.88965 143.377 4.77734L143.445 5.33398C141.561 5.66602 139.48 5.67578 137.957 5.67578L137.869 5.05078ZM144.686 6.36914V8.79102H143.914V6.98438H138.934V6.36914H144.686ZM143.113 0.910156V1.49609H138.084V0.910156H140.223V0.0410156H140.984V0.910156H143.113ZM140.594 2.375C139.793 2.36523 139.295 2.64844 139.295 3.10742C139.295 3.55664 139.793 3.86914 140.594 3.85938C141.395 3.86914 141.902 3.55664 141.902 3.10742C141.902 2.64844 141.395 2.36523 140.594 2.375ZM154.5 7.04297V7.67773H146.551V7.04297H150.125V5.16797H147.488V0.724609H148.26V2.29688H152.771V0.724609H153.523V5.16797H150.877V7.04297H154.5ZM148.26 4.54297H152.771V2.92188H148.26V4.54297ZM160.613 2.44336C160.613 3.97656 161.629 5.54883 162.859 6.1543L162.391 6.76953C161.434 6.2666 160.633 5.24121 160.252 4.03516C159.861 5.31934 159.041 6.41309 158.064 6.93555L157.576 6.32031C158.846 5.69531 159.852 4.02539 159.861 2.44336V0.861328H160.613V2.44336ZM164.422 0.109375V3.63477H165.877V4.29883H164.422V8.79102H163.66V0.109375H164.422ZM168.738 0.519531C169.905 0.509766 170.789 1.18848 170.955 2.18945H172.771V0.109375H173.543V4.76758H172.771V2.82422H170.965C170.809 3.84961 169.915 4.5332 168.738 4.5332C167.42 4.5332 166.482 3.71289 166.482 2.52148C166.482 1.33984 167.42 0.509766 168.738 0.519531ZM168.738 1.17383C167.85 1.16406 167.215 1.7207 167.215 2.52148C167.215 3.3125 167.85 3.88867 168.738 3.88867C169.617 3.88867 170.242 3.3125 170.242 2.52148C170.242 1.7207 169.617 1.16406 168.738 1.17383ZM168.719 5.20703V6.31055H172.771V5.20703H173.543V8.67383H167.947V5.20703H168.719ZM168.719 8.04883H172.771V6.92578H168.719V8.04883ZM182.898 4.68945V5.31445H174.988V4.68945H182.898ZM182.02 7.96094V8.60547H176.014V6.07617H176.785V7.96094H182.02ZM178.943 0.421875C180.809 0.412109 182.01 1.05664 182.01 2.14062C182.01 3.22461 180.809 3.86914 178.943 3.86914C177.059 3.86914 175.867 3.22461 175.867 2.14062C175.867 1.05664 177.059 0.412109 178.943 0.421875ZM178.943 1.03711C177.547 1.03711 176.648 1.45703 176.658 2.14062C176.648 2.82422 177.547 3.24414 178.943 3.24414C180.33 3.24414 181.229 2.82422 181.229 2.14062C181.229 1.45703 180.33 1.03711 178.943 1.03711ZM188.953 0.929688V8H188.064V1.84766H188.025L186.307 2.99023V2.10156L188.064 0.929688H188.953ZM193.27 0.832031C194.656 0.841797 196.023 1.66211 196.033 4.25C196.033 6.69141 194.93 8.09766 193.191 8.09766C191.824 8.09766 190.887 7.24805 190.73 6.07617H191.99C192.117 6.63281 192.547 6.99414 193.191 6.99414C194.217 6.99414 194.793 6.08594 194.803 4.57227H194.725C194.363 5.1875 193.689 5.54883 192.908 5.54883C191.648 5.54883 190.672 4.5918 190.662 3.25391C190.662 1.86719 191.697 0.822266 193.27 0.832031ZM193.279 1.85742C192.488 1.85742 191.893 2.47266 191.902 3.22461C191.902 3.98633 192.469 4.58203 193.26 4.58203C194.041 4.58203 194.656 3.94727 194.646 3.21484C194.646 2.49219 194.07 1.85742 193.279 1.85742ZM204.188 0.0507812V6.55469H203.104V3.61523H200.799V2.75586H203.104V1.95508H200.799V1.0957H203.104V0.0507812H204.188ZM204.412 7.81445V8.69336H198.387V5.97852H199.48V7.81445H204.412ZM198.377 0.636719V4.45508C199.5 4.44043 200.56 4.37207 201.746 4.16211L201.854 5.04102C200.496 5.29492 199.305 5.34375 197.996 5.35352H197.303V0.636719H198.377ZM212.4 0.0410156V2.58008H213.631V3.48828H212.4V6.4082H211.297V0.0410156H212.4ZM209.998 0.714844C209.998 3.05859 208.475 4.72852 205.857 5.49023L205.408 4.63086C207.425 4.0498 208.626 2.95117 208.816 1.60352H205.779V0.714844H209.998ZM212.732 7.81445V8.69336H206.727V5.75391H207.83V7.81445H212.732ZM219.256 0.832031C220.643 0.841797 222.01 1.66211 222.02 4.25C222.02 6.69141 220.916 8.09766 219.178 8.09766C217.811 8.09766 216.873 7.24805 216.717 6.07617H217.977C218.104 6.63281 218.533 6.99414 219.178 6.99414C220.203 6.99414 220.779 6.08594 220.789 4.57227H220.711C220.35 5.1875 219.676 5.54883 218.895 5.54883C217.635 5.54883 216.658 4.5918 216.648 3.25391C216.648 1.86719 217.684 0.822266 219.256 0.832031ZM219.266 1.85742C218.475 1.85742 217.879 2.47266 217.889 3.22461C217.889 3.98633 218.455 4.58203 219.246 4.58203C220.027 4.58203 220.643 3.94727 220.633 3.21484C220.633 2.49219 220.057 1.85742 219.266 1.85742ZM225.887 2.84375C225.887 4.15234 226.629 5.57812 227.986 6.22266L227.381 7.04297C226.429 6.59863 225.735 5.72461 225.369 4.68945C224.979 5.80273 224.251 6.74512 223.24 7.19922L222.645 6.35938C224.031 5.73438 224.812 4.23047 224.812 2.84375V2.38477H222.928V1.51562H224.812V0.226562H225.896V1.51562H227.752V2.38477H225.887V2.84375ZM229.695 0.0410156V3.53711H231.053V4.44531H229.695V8.86914H228.611V0.0410156H229.695ZM234.715 0.939453V4.21094H232.732V5.91016C233.519 5.90527 234.29 5.85156 235.193 5.70508L235.281 6.59375C234.178 6.7793 233.279 6.81836 232.264 6.81836H231.688V3.35156H233.66V1.81836H231.678V0.939453H234.715ZM239.021 0.0410156V8.86914H237.986V0.0410156H239.021ZM237.215 0.197266V8.41992H236.18V5.33398H235.154V4.44531H236.18V3.13672H235.154V2.26758H236.18V0.197266H237.215ZM249.773 0.0410156V4.54297H248.699V0.0410156H249.773ZM249.793 4.95312V7.24805H245.018V7.93164H250.057V8.79102H243.953V6.4375H248.709V5.79297H243.934V4.95312H249.793ZM245.73 0.939453C245.73 2.0625 246.473 3.11719 247.869 3.53711L247.342 4.37695C246.316 4.06445 245.584 3.40527 245.184 2.56055C244.783 3.47852 244.031 4.19629 242.977 4.5332L242.43 3.68359C243.855 3.22461 244.607 2.0918 244.607 0.939453V0.255859H245.73V0.939453ZM258.699 0.0410156V8.86914H257.654V4.38672H256.775V8.41992H255.75V0.207031H256.775V3.49805H257.654V0.0410156H258.699ZM255.242 1.08594V1.96484H254.607V5.76367C254.871 5.74414 255.12 5.71973 255.359 5.68555L255.418 6.47656C254.041 6.75977 252.225 6.78906 251.111 6.78906L250.984 5.89062L251.805 5.88086V1.96484H251.16V1.08594H255.242ZM252.781 5.86133L253.621 5.83203V1.96484H252.781V5.86133ZM267.781 4.04492V4.86523H259.715V4.04492H267.781ZM266.805 5.39258V7.4043H261.746V8.01953H267.068V8.77148H260.662V6.70117H265.73V6.1543H260.652V5.39258H266.805ZM266.785 0.236328V2.22852H261.814V2.80469H266.941V3.54688H260.74V1.52539H265.701V0.988281H260.711V0.236328H266.785ZM278.133 0.0410156V8.86914H277.049V4.37695H275.184V3.48828H277.049V0.0410156H278.133ZM275.223 0.978516C275.213 3.58594 274.285 5.77344 271.248 7.27734L270.682 6.42773C272.967 5.30957 273.948 3.81543 274.129 1.83789H271.092V0.978516H275.223ZM287.439 3.92773V4.80664H279.383V3.92773H287.439ZM286.541 2.3457V3.22461H280.369V0.285156H286.463V1.17383H281.453V2.3457H286.541ZM281.443 5.35352V6.16406H285.34V5.35352H286.434V8.73242H280.379V5.35352H281.443ZM281.443 7.85352H285.34V7.01367H281.443V7.85352ZM294.939 0.0410156V3.55664H296.297V4.45508H294.939V8.86914H293.865V0.0410156H294.939ZM293.182 1.39844V2.26758H287.977V1.39844H290.066V0.167969H291.15V1.39844H293.182ZM290.613 2.84375C291.883 2.84375 292.83 3.70312 292.83 4.92383C292.83 6.14453 291.883 6.99414 290.613 6.99414C289.324 6.99414 288.377 6.14453 288.387 4.92383C288.377 3.70312 289.324 2.84375 290.613 2.84375ZM290.613 3.73242C289.92 3.73242 289.422 4.20117 289.422 4.92383C289.422 5.64648 289.92 6.10547 290.613 6.0957C291.287 6.10547 291.785 5.64648 291.795 4.92383C291.785 4.20117 291.287 3.73242 290.613 3.73242ZM301.199 0.783203V1.48633H302.977V0.0507812H304.061V6.47656H302.977V4.25H301.199V5.01172H297.049V0.783203H301.199ZM298.133 1.64258V4.16211H300.125V1.64258H298.133ZM304.256 7.81445V8.69336H298.24V5.88086H299.344V7.81445H304.256ZM301.199 3.38086H302.977V2.375H301.199V3.38086ZM308.572 2.16016C308.572 3.80078 309.354 5.41211 310.76 6.02734L310.105 6.89648C309.104 6.4082 308.401 5.4707 308.025 4.31836C307.64 5.53418 306.922 6.54492 305.906 7.0625L305.223 6.18359C306.658 5.50977 307.459 3.81055 307.469 2.16016V0.753906H308.572V2.16016ZM312.713 0.0410156V8.87891H311.639V3.77148H309.783V2.89258H311.639V0.0410156H312.713ZM44.6855 14.4434C44.6855 15.9766 45.7012 17.5488 46.9316 18.1543L46.4629 18.7695C45.5059 18.2666 44.7051 17.2412 44.3242 16.0352C43.9336 17.3193 43.1133 18.4131 42.1367 18.9355L41.6484 18.3203C42.918 17.6953 43.9238 16.0254 43.9336 14.4434V12.8613H44.6855V14.4434ZM48.4941 12.1094V15.6348H49.9492V16.2988H48.4941V20.791H47.7324V12.1094H48.4941ZM52.8105 12.5195C53.9775 12.5098 54.8613 13.1885 55.0273 14.1895H56.8438V12.1094H57.6152V16.7676H56.8438V14.8242H55.0371C54.8809 15.8496 53.9873 16.5332 52.8105 16.5332C51.4922 16.5332 50.5547 15.7129 50.5547 14.5215C50.5547 13.3398 51.4922 12.5098 52.8105 12.5195ZM52.8105 13.1738C51.9219 13.1641 51.2871 13.7207 51.2871 14.5215C51.2871 15.3125 51.9219 15.8887 52.8105 15.8887C53.6895 15.8887 54.3145 15.3125 54.3145 14.5215C54.3145 13.7207 53.6895 13.1641 52.8105 13.1738ZM52.791 17.207V18.3105H56.8438V17.207H57.6152V20.6738H52.0195V17.207H52.791ZM52.791 20.0488H56.8438V18.9258H52.791V20.0488ZM62 14.7754C61.9902 16.1719 62.9961 17.7051 64.2559 18.3008L63.8164 18.9062C62.8398 18.4326 62.0146 17.3975 61.6289 16.2207C61.2285 17.5 60.3545 18.623 59.3828 19.1211L58.9141 18.5156C60.1641 17.9102 61.2383 16.2598 61.248 14.7754V13.6426H59.2266V13.0078H63.9531V13.6426H62V14.7754ZM65.7793 12.1094V15.625H67.2344V16.2793H65.7793V20.791H65.0176V12.1094H65.7793ZM70.2422 14.7852C70.2422 16.1816 70.9551 17.6074 72.1367 18.2422L71.6973 18.8184C70.833 18.3496 70.208 17.4512 69.8906 16.4062C69.5781 17.5195 68.958 18.4863 68.0938 19.0137L67.6348 18.4277C68.8164 17.7441 69.5098 16.2207 69.5195 14.7852V14.3555H67.8691V13.7207H69.5195V12.4316H70.252V13.7207H71.873V14.3555H70.2422V14.7852ZM75.125 12.1094V20.791H74.3926V12.1094H75.125ZM73.3672 12.3242V20.3418H72.6445V16.1914H71.2773V15.5371H72.6445V12.3242H73.3672ZM83.3574 16.1816V16.8066H80.6719V19.0527H84.2949V19.6973H76.3457V19.0527H79.9199V16.8066H77.3613V12.8223H83.2695V13.4473H78.1328V16.1816H83.3574ZM94.9297 12.1094V20.791H94.1973V12.1094H94.9297ZM93.1719 12.3438V20.3516H92.4395V17.3438H90.8281V16.709H92.4395V15.166H90.9746C90.5498 16.6357 89.5977 17.9346 87.957 18.916L87.4883 18.3594C89.3779 17.2412 90.3252 15.6738 90.4766 13.8574H87.8789V13.2227H91.2383C91.2383 13.667 91.1992 14.1064 91.1211 14.5312H92.4395V12.3438H93.1719ZM104.08 16.4746V17.1094H96.1406V16.4746H99.7148V15.1367H100.467V16.4746H104.08ZM100.477 12.6562C100.477 13.8086 102.039 14.7754 103.572 14.9902L103.26 15.6055C101.941 15.376 100.638 14.6777 100.096 13.6719C99.5488 14.6826 98.2402 15.376 96.9121 15.6055L96.6191 14.9902C98.1523 14.7754 99.7051 13.8086 99.7051 12.6562V12.2461H100.477V12.6562ZM103.074 17.959V20.791H102.303V18.5742H97.0195V17.959H103.074ZM107.801 13.7109C107.801 14.8438 108.67 15.918 109.939 16.3574L109.539 16.9629C108.558 16.6113 107.801 15.8838 107.43 14.9902C107.054 15.9912 106.253 16.792 105.223 17.168L104.822 16.5625C106.102 16.1035 107.029 14.9414 107.029 13.7207V13.3398H105.066V12.7148H109.744V13.3398H107.801V13.7109ZM111.98 17.7734V20.791H111.209V18.4082H106.141V17.7734H111.98ZM111.98 12.1094V17.3145H111.209V15.0293H109.471V14.3848H111.209V12.1094H111.98ZM117.381 12.6758C119.197 12.6758 120.555 13.623 120.555 15.0586C120.555 16.5039 119.197 17.4512 117.381 17.4414C115.564 17.4512 114.207 16.5039 114.207 15.0586C114.207 13.623 115.564 12.6758 117.381 12.6758ZM117.381 13.3008C115.984 13.291 114.93 14.0234 114.939 15.0586C114.93 16.1133 115.984 16.8164 117.381 16.8164C118.768 16.8164 119.812 16.1133 119.812 15.0586C119.812 14.0234 118.768 13.291 117.381 13.3008ZM121.375 18.9941V19.6387H113.426V18.9941H121.375ZM130.018 19.0723V19.7168H122.068V19.0723H125.643V17.4316H123.064V14.7559H128.26V13.3887H123.045V12.7539H129.012V15.3809H123.826V16.7969H129.217V17.4316H126.395V19.0723H130.018ZM139.939 12.1094V15.5273H141.395V16.1914H139.939V20.791H139.178V12.1094H139.939ZM134.344 12.8516V15.1465H136.883V12.8516H137.645V18.7109H133.582V12.8516H134.344ZM134.344 18.0664H136.883V15.7617H134.344V18.0664ZM149.08 12.1094V20.791H148.318V12.1094H149.08ZM141.785 16.25C142.322 16.2451 142.903 16.2402 143.504 16.2305C143.807 14.9756 143.836 14.0918 143.836 13.4668H142.381V12.8223H144.588V13.3008C144.588 13.9062 144.588 14.8877 144.275 16.2109C144.871 16.1963 145.486 16.1719 146.092 16.1328C146.375 14.9561 146.395 14.1113 146.395 13.4668H145.008V12.8223H147.156V13.3398C147.146 13.9844 147.146 14.873 146.883 16.0742C147.166 16.0547 147.444 16.0254 147.723 15.9961L147.771 16.582C146.932 16.6943 146.062 16.7627 145.203 16.8066V20.3418H144.422V16.8457C143.528 16.875 142.669 16.8848 141.902 16.8848L141.785 16.25ZM157.938 12.1094V20.791H157.205V12.1094H157.938ZM156.111 12.3438V20.3516H155.379V16.2988H153.543C153.011 17.3096 152.176 18.2031 150.965 18.916L150.516 18.3594C152.405 17.2412 153.353 15.6738 153.494 13.8574H150.887V13.2227H154.256C154.251 14.0771 154.114 14.9023 153.826 15.6738H155.379V12.3438H156.111ZM166.834 15.8594V16.4941H164.93V18.2031C165.779 18.1689 166.634 18.1104 167.439 18.0176L167.498 18.5938C165.574 18.877 163.475 18.9062 161.814 18.9062L161.707 18.2617C162.464 18.2617 163.304 18.2568 164.168 18.2324V16.4941H162.371V12.9395H166.795V13.5645H163.123V15.8594H166.834ZM168.777 12.1094V20.8105H168.016V12.1094H168.777ZM174.607 12.9785V14.1992H176.736V12.1094H177.498V20.8105H176.736V17.2266H174.607V18.5938H170.652V12.9785H174.607ZM171.414 13.584V17.9785H173.865V13.584H171.414ZM174.607 16.5918H176.736V14.834H174.607V16.5918ZM188.357 12.5391V13.1641C188.357 13.8135 188.357 14.5898 188.143 15.6348H189.402V16.2598H185.789V17.8613H188.416V20.791H187.645V18.4961H182.273V17.8613H185.027V16.2598H181.453V15.6348H187.371C187.596 14.5703 187.596 13.8135 187.596 13.1641H182.459V12.5391H188.357ZM196.814 12.1094V15.6445H198.221V16.2891H196.814V20.791H196.053V12.1094H196.814ZM194.568 13.0469C194.568 15.5078 193.416 17.7441 190.584 19.1406L190.154 18.5352C192.4 17.417 193.621 15.7471 193.797 13.6914H190.555V13.0469H194.568ZM201.756 13.7109C201.756 14.8438 202.625 15.918 203.895 16.3574L203.494 16.9629C202.513 16.6113 201.756 15.8838 201.385 14.9902C201.009 15.9912 200.208 16.792 199.178 17.168L198.777 16.5625C200.057 16.1035 200.984 14.9414 200.984 13.7207V13.3398H199.021V12.7148H203.699V13.3398H201.756V13.7109ZM205.936 17.7734V20.791H205.164V18.4082H200.096V17.7734H205.936ZM205.936 12.1094V17.3145H205.164V15.0293H203.426V14.3848H205.164V12.1094H205.936ZM214.549 12.1191V18.4668H213.787V12.1191H214.549ZM214.822 19.9609V20.6055H208.943V17.8223H209.705V19.9609H214.822ZM209.861 12.7246C211.16 12.7246 212.137 13.6035 212.137 14.8535C212.137 16.123 211.16 16.9922 209.861 16.9922C208.562 16.9922 207.586 16.123 207.586 14.8535C207.586 13.6035 208.562 12.7246 209.861 12.7246ZM209.861 13.3984C208.982 13.3984 208.328 14.0039 208.338 14.8535C208.328 15.7227 208.982 16.3184 209.861 16.3184C210.721 16.3184 211.385 15.7227 211.385 14.8535C211.385 14.0039 210.721 13.3984 209.861 13.3984ZM219.725 12.7441V16.1621C220.96 16.167 222.244 16.0889 223.66 15.791L223.748 16.4258C222.273 16.7383 220.955 16.8164 219.646 16.8164H218.953V12.7441H219.725ZM225.32 12.1191V14.6973H226.629V15.3613H225.32V18.3887H224.559V12.1191H225.32ZM225.633 19.9609V20.6055H219.92V17.7734H220.682V19.9609H225.633ZM234.598 12.1094V20.791H233.865V12.1094H234.598ZM232.84 12.3242V20.3418H232.117V15.8691H230.652V15.2441H232.117V12.3242H232.84ZM229.725 14.5898C229.725 16.0938 230.398 17.5879 231.6 18.2812L231.131 18.8477C230.276 18.335 229.671 17.3975 229.373 16.2891C229.056 17.4854 228.426 18.5059 227.557 19.0527L227.068 18.4766C228.279 17.7539 228.982 16.1719 228.982 14.5898V13.7695H227.312V13.1348H231.316V13.7695H229.725V14.5898ZM238.807 17.9395C238.807 18.7158 239.217 19.5361 240.047 20C240.877 19.4922 241.307 18.6084 241.307 17.9395V17.3438H242.059V17.9395C242.059 18.8281 242.703 19.7363 243.836 20.1074L243.436 20.6934C242.576 20.376 241.971 19.7705 241.678 19.043C241.404 19.751 240.872 20.4199 240.057 20.7617C239.222 20.4443 238.689 19.8047 238.426 19.0723C238.113 19.7754 237.518 20.376 236.688 20.6934L236.307 20.1074C237.41 19.7168 238.064 18.7793 238.074 17.9395V17.3438H238.807V17.9395ZM238.211 12.5879C238.938 12.5879 239.563 12.8662 239.969 13.3301H242.244V12.1094H243.016V17.0703H242.244V15.918H239.988C239.583 16.3965 238.953 16.6797 238.211 16.6797C236.912 16.6797 235.965 15.8398 235.965 14.6387C235.965 13.4375 236.912 12.5879 238.211 12.5879ZM238.211 13.2422C237.342 13.2422 236.697 13.8281 236.707 14.6387C236.697 15.459 237.342 16.0254 238.211 16.0352C239.061 16.0254 239.705 15.459 239.705 14.6387C239.705 13.8281 239.061 13.2422 238.211 13.2422ZM240.33 13.9551C240.403 14.165 240.447 14.3945 240.447 14.6387C240.447 14.8682 240.408 15.083 240.35 15.2832H242.244V13.9551H240.33ZM246.229 17.3242V18.3398H250.564V17.3242H251.336V20.6738H245.467V17.3242H246.229ZM246.229 20.0586H250.564V18.9453H246.229V20.0586ZM252.371 16.0742V16.709H244.461V16.0742H252.371ZM248.816 12.6172C248.816 13.6914 250.398 14.6484 251.922 14.8438L251.639 15.459C250.291 15.2588 248.973 14.5703 248.426 13.5938C247.869 14.5752 246.541 15.2588 245.203 15.459L244.91 14.8438C246.453 14.6387 248.025 13.7207 248.025 12.6172V12.207H248.816V12.6172ZM260.262 12.1094V20.791H259.5V12.1094H260.262ZM254.422 12.9688V17.8906C255.745 17.8857 257.117 17.7783 258.572 17.4707L258.68 18.125C257.137 18.4473 255.76 18.5547 254.373 18.5547H253.67V12.9688H254.422ZM268.465 12.1094V15.5469H269.92V16.1914H268.465V20.8105H267.703V12.1094H268.465ZM266.18 12.959V13.5938H262.889V17.9883C264.461 17.9883 265.574 17.915 266.863 17.6758L266.961 18.3398C265.604 18.584 264.461 18.6328 262.811 18.6328H262.127V12.959H266.18ZM271.307 20.0586C270.965 20.0586 270.672 19.7754 270.682 19.4238C270.672 19.082 270.965 18.7988 271.307 18.7988C271.648 18.7988 271.932 19.082 271.932 19.4238C271.932 19.7754 271.648 20.0586 271.307 20.0586Z" fill="#121212"/>
</svg>
