<svg width="263" height="23" viewBox="0 0 263 23" fill="none" xmlns="http://www.w3.org/2000/svg">
<path d="M17.1713 0.398597V3.45687H18.5517V4.29578H17.1713V7.51334H16.1625V0.398597H17.1713ZM15.3767 1.50297V2.32064H9.7061V1.50297H12.0423V0.387978H13.0511V1.50297H15.3767ZM12.5414 2.77726C13.9112 2.77726 14.8457 3.48873 14.8457 4.57187C14.8457 5.65501 13.9112 6.35586 12.5414 6.35586C11.1609 6.35586 10.2264 5.65501 10.2264 4.57187C10.2264 3.48873 11.1609 2.77726 12.5414 2.77726ZM12.5414 3.55244C11.7343 3.55244 11.1928 3.94535 11.2034 4.57187C11.1928 5.18777 11.7343 5.57006 12.5414 5.57006C13.3484 5.57006 13.89 5.18777 13.9006 4.57187C13.89 3.94535 13.3484 3.55244 12.5414 3.55244ZM17.5748 8.88319V9.70086H11.1397V6.95053H12.1485V8.88319H17.5748ZM26.6965 0.833976V1.54545C26.6965 2.24631 26.6965 3.08521 26.4841 4.18959H27.8009V5.00725H23.9356V6.63196H26.739V9.90262H25.7302V7.439H19.9853V6.63196H22.9268V5.00725H19.0933V4.18959H25.4647C25.6877 3.12768 25.6983 2.33126 25.6983 1.65164H20.1871V0.833976H26.6965ZM32.898 6.31339C34.8626 6.31339 36.0519 6.97177 36.0519 8.09738C36.0519 9.23362 34.8626 9.892 32.898 9.90262C30.9123 9.892 29.7017 9.23362 29.7017 8.09738C29.7017 6.97177 30.9123 6.31339 32.898 6.31339ZM32.898 7.10982C31.5176 7.10982 30.6999 7.46024 30.7105 8.09738C30.6999 8.73452 31.5176 9.09557 32.898 9.09557C34.2679 9.09557 35.0643 8.73452 35.0643 8.09738C35.0643 7.46024 34.2679 7.10982 32.898 7.10982ZM35.9669 0.387978V2.71354H37.3474V3.57368H35.9669V6.06915H34.9581V0.387978H35.9669ZM29.8504 0.982643V2.3525H32.3458V0.982643H33.344V5.40015H28.8628V0.982643H29.8504ZM29.8504 4.59311H32.3458V3.14892H29.8504V4.59311ZM41.1915 2.80911C41.1809 4.49754 42.1578 6.21782 43.5808 6.90805L42.9542 7.7151C41.9189 7.17884 41.1172 6.11163 40.703 4.83735C40.2729 6.19658 39.4393 7.33281 38.3562 7.89562L37.7297 7.07796C39.1951 6.3771 40.1827 4.55063 40.1827 2.80911V1.1844H41.1915V2.80911ZM45.301 0.387978V4.17897H46.8302V5.03911H45.301V9.90262H44.2922V0.387978H45.301ZM50.6636 1.81093C50.6636 3.14892 51.5238 4.33825 52.968 4.80549L52.4158 5.5913C51.3698 5.21432 50.5999 4.48161 50.1858 3.53121C49.7716 4.61966 48.9434 5.46387 47.7965 5.87801L47.2549 5.07096C48.7735 4.55063 49.6548 3.28697 49.6655 1.8534V0.918929H50.6636V1.81093ZM55.2192 0.387978V6.00544H54.2104V3.14892H52.2034V2.32064H54.2104V0.387978H55.2192ZM52.0335 6.27091C54.0299 6.27091 55.2511 6.92929 55.2511 8.08676C55.2511 9.23362 54.0299 9.892 52.0335 9.88138C50.0371 9.892 48.8053 9.23362 48.8159 8.08676C48.8053 6.92929 50.0371 6.27091 52.0335 6.27091ZM52.0335 7.05672C50.6424 7.05672 49.8141 7.42839 49.8141 8.08676C49.8141 8.72391 50.6424 9.08495 52.0335 9.08495C53.4246 9.08495 54.2529 8.72391 54.2529 8.08676C54.2529 7.42839 53.4246 7.05672 52.0335 7.05672ZM64.9144 0.387978V9.90262H63.948V0.387978H64.9144ZM63.0454 0.600358V9.41414H62.1003V5.87801H60.9216V5.04973H62.1003V3.90287H60.9216V3.07459H62.1003V0.600358H63.0454ZM61.1446 1.54545V2.37373H60.4119V6.67444C60.7358 6.6532 61.0437 6.62134 61.3251 6.58948L61.3995 7.34343C59.9234 7.59829 57.9483 7.63015 56.6952 7.64077L56.5784 6.79124L57.5129 6.78063V2.37373H56.7802V1.54545H61.1446ZM58.4261 6.77001L59.488 6.72753V2.37373H58.4261V6.77001ZM73.9936 0.387978V9.90262H72.9742V0.387978H73.9936ZM71.1583 1.4074C71.1583 4.18959 69.969 6.61072 66.709 8.17172L66.178 7.35405C68.7107 6.14879 69.9425 4.43382 70.1389 2.21445H66.6346V1.4074H71.1583ZM84.156 4.32763V5.13468H80.3119V5.96296H83.0623V8.19295H77.5191V9.03186H83.3277V9.80705H76.5316V7.46024H82.0641V6.73815H76.521V5.96296H79.3031V5.13468H75.4803V4.32763H84.156ZM83.041 0.695929V3.62678H76.5953V0.695929H83.041ZM77.5829 1.49236V2.83035H82.0322V1.49236H77.5829ZM90.177 1.11007V1.64102C90.1664 2.27816 90.1664 3.22326 89.9328 4.45506L88.9346 4.35949C89.1416 3.3029 89.1735 2.53833 89.1894 1.93835H85.3772V1.11007H90.177ZM87.7452 3.24449V5.20901C88.7647 5.17715 89.816 5.10282 90.7717 4.96477L90.8354 5.69749C88.8496 6.04791 86.5772 6.07977 84.8994 6.09039L84.8038 5.27273C85.3878 5.26742 86.0515 5.26211 86.7471 5.24087V3.24449H87.7452ZM92.407 0.387978V3.4144H93.7131V4.26392H92.407V7.53458H91.377V0.387978H92.407ZM92.7149 8.88319V9.70086H86.248V6.88682H87.2568V8.88319H92.7149ZM102.176 0.387978V9.92385H101.168V0.387978H102.176ZM99.2669 1.24812V4.72054H95.8476V6.80186C97.3873 6.79655 98.7359 6.72753 100.329 6.46206L100.424 7.29034C98.7359 7.57705 97.3024 7.64077 95.6246 7.64077H94.8175V3.91349H98.2368V2.06578H94.8069V1.24812H99.2669ZM107.964 6.36648C110.024 6.36648 111.319 7.01424 111.33 8.12924C111.319 9.23362 110.024 9.892 107.964 9.88138C105.925 9.892 104.619 9.23362 104.619 8.12924C104.619 7.01424 105.925 6.36648 107.964 6.36648ZM107.964 7.13105C106.52 7.13105 105.617 7.50272 105.628 8.12924C105.617 8.74514 106.52 9.10619 107.964 9.10619C109.419 9.10619 110.321 8.74514 110.332 8.12924C110.321 7.50272 109.419 7.13105 107.964 7.13105ZM111.256 0.855214V1.65164C111.256 2.41621 111.256 3.20202 110.99 4.17897L110.003 4.07278C110.258 3.10114 110.258 2.40028 110.258 1.66226H104.693V0.855214H111.256ZM112.339 4.76301V5.58068H103.684V4.76301H107.157V2.97902H108.144V4.76301H112.339ZM120.547 0.377359V3.1383H121.938V3.97721H120.547V7.2691H119.539V0.377359H120.547ZM117.744 1.19502V2.01269H114.495V4.78425C116.348 4.78956 117.394 4.73116 118.583 4.48692L118.7 5.30458C117.415 5.55944 116.289 5.62315 114.25 5.62315H113.496V1.19502H117.744ZM120.951 8.88319V9.70086H114.516V6.55763H115.525V8.88319H120.951ZM124.275 1.32245L123.425 4.2533H122.523L123.085 1.32245H124.275ZM133.216 0.387978V9.90262H132.25V0.387978H133.216ZM131.283 0.568501V9.43538H130.317V4.84796H129.244C129.159 6.70629 128.363 7.86377 127.184 7.85315C125.942 7.86377 125.135 6.55763 125.135 4.49754C125.135 2.43745 125.942 1.14193 127.184 1.15255C128.342 1.14193 129.128 2.241 129.244 4.0303H130.317V0.568501H131.283ZM127.184 2.09764C126.494 2.09764 126.069 2.97902 126.069 4.49754C126.069 6.01606 126.494 6.89743 127.184 6.89743C127.885 6.89743 128.321 6.01606 128.321 4.49754C128.321 2.97902 127.885 2.09764 127.184 2.09764ZM137.856 2.80911C137.856 4.55063 138.833 6.28153 140.288 6.93991L139.672 7.74696C138.589 7.20539 137.777 6.12756 137.357 4.82673C136.938 6.19658 136.104 7.35405 135.01 7.92748L134.373 7.10982C135.849 6.40896 136.837 4.57187 136.837 2.80911V1.1844H137.856V2.80911ZM142.359 0.387978V9.92385H141.361V4.37011H139.237V3.55244H141.361V0.387978H142.359ZM146.543 4.38073L147.488 1.31183H148.73L148.221 4.38073H146.543ZM157.162 0.281788V3.20202H158.425V4.44444H157.162V7.55581H155.633V0.281788H157.162ZM155.165 1.25874V2.44807H149.389V1.25874H151.512V0.271169H153.042V1.25874H155.165ZM152.277 2.72416C153.7 2.72416 154.698 3.49935 154.698 4.63558C154.698 5.7612 153.7 6.51515 152.277 6.51515C150.854 6.51515 149.835 5.7612 149.845 4.63558C149.835 3.49935 150.854 2.72416 152.277 2.72416ZM152.277 3.89225C151.714 3.89225 151.332 4.14711 151.332 4.63558C151.332 5.12406 151.714 5.35768 152.277 5.3683C152.85 5.35768 153.243 5.12406 153.243 4.63558C153.243 4.14711 152.85 3.89225 152.277 3.89225ZM157.48 8.63895V9.86014H150.769V6.99301H152.298V8.63895H157.48ZM166.687 0.68531V1.47112C166.687 2.18259 166.687 2.99495 166.506 4.00906H167.706V5.21963H164V6.48329H166.676V10.0194H165.147V7.68324H159.678V6.48329H162.461V5.21963H158.797V4.00906H164.967C165.121 3.17547 165.153 2.50647 165.158 1.89588H159.87V0.68531H166.687ZM176.52 0.281788V7.63015H174.98V6.92929H173.165V5.89925H174.98V0.281788H176.52ZM176.722 8.63895V9.86014H169.352V6.92929H170.69V5.69749C169.851 5.72934 169.05 5.73996 168.333 5.73996L168.163 4.54001C169.947 4.51878 172.336 4.49754 174.386 4.24268L174.471 5.32582C173.738 5.45325 172.979 5.54351 172.23 5.60191V7.42839H170.882V8.63895H176.722ZM171.317 0.589739C172.74 0.589739 173.759 1.32245 173.759 2.3525C173.759 3.40378 172.74 4.0834 171.317 4.0834C169.873 4.0834 168.864 3.40378 168.864 2.3525C168.864 1.32245 169.873 0.589739 171.317 0.589739ZM171.317 1.70474C170.712 1.70474 170.308 1.91712 170.308 2.3525C170.308 2.77726 170.712 2.98964 171.317 2.98964C171.89 2.98964 172.304 2.77726 172.315 2.3525C172.304 1.91712 171.89 1.70474 171.317 1.70474ZM181.288 2.81973C181.278 4.28516 181.957 5.99482 183.624 6.74877L182.775 7.94872C181.702 7.47086 180.97 6.53108 180.545 5.42139C180.115 6.6532 179.35 7.68324 178.23 8.20357L177.349 6.99301C179.037 6.2072 179.738 4.41258 179.738 2.81973V2.43745H177.752V1.19502H183.178V2.43745H181.288V2.81973ZM185.323 0.271169V3.92411H186.704V5.18777H185.323V10.0194H183.794V0.271169H185.323ZM191.684 0.833976V3.96659H188.87V4.85858C190.203 4.85327 191.031 4.80549 191.971 4.62497L192.109 5.84615C190.994 6.03729 189.964 6.06915 188.106 6.07977H187.362V2.85159H190.155V2.02331H187.352V0.833976H191.684ZM195.242 0.281788V6.29215H193.723V4.89044H192.215V3.69049H193.723V2.80911H192.215V1.59855H193.723V0.281788H195.242ZM195.242 6.68505V10.0194H193.723V7.90624H188.477V6.68505H195.242ZM204.236 0.271169V3.40378H205.415V4.65682H204.236V7.87438H202.707V0.271169H204.236ZM204.565 8.63895V9.86014H197.599V7.37529H199.139V8.63895H204.565ZM196.261 5.8143C196.941 5.8143 197.721 5.80899 198.544 5.78244V5.28334C197.514 5.11875 196.866 4.59842 196.866 3.84978C196.866 2.87283 197.833 2.32064 199.287 2.32064C200.742 2.32064 201.709 2.87283 201.709 3.84978C201.709 4.5878 201.077 5.10813 200.063 5.27273V5.7081C200.822 5.66563 201.586 5.59661 202.303 5.49572L202.409 6.53639C200.371 6.92929 198.087 6.95053 196.42 6.98239L196.261 5.8143ZM202.07 1.0145V2.09764H196.516V1.0145H198.544V0.239311H200.063V1.0145H202.07ZM199.287 3.32945C198.661 3.32945 198.332 3.47811 198.332 3.84978C198.332 4.15773 198.661 4.32763 199.287 4.32763C199.903 4.32763 200.243 4.15773 200.243 3.84978C200.243 3.47811 199.903 3.32945 199.287 3.32945ZM214.037 0.281788V5.82491H212.519V4.98601H210.459V3.76482H212.519V2.9684H210.554C209.954 4.49754 208.606 5.53289 206.445 6.10101L205.85 4.90106C208.048 4.34356 209.041 3.35068 209.237 2.1295H206.392V0.918929H210.905C210.905 1.21626 210.883 1.49766 210.851 1.76845H212.519V0.281788H214.037ZM210.777 5.94172C212.752 5.94172 214.112 6.72753 214.112 7.94872C214.112 9.18052 212.752 9.97695 210.777 9.96633C208.77 9.97695 207.422 9.18052 207.422 7.94872C207.422 6.72753 208.77 5.94172 210.777 5.94172ZM210.777 7.13105C209.62 7.12043 208.951 7.39653 208.951 7.94872C208.951 8.50091 209.62 8.76638 210.777 8.76638C211.913 8.76638 212.582 8.50091 212.582 7.94872C212.582 7.39653 211.913 7.12043 210.777 7.13105ZM219.57 6.31339C221.704 6.31339 223.053 6.99301 223.063 8.17172C223.053 9.32919 221.704 10.03 219.57 10.0194C217.446 10.03 216.076 9.32919 216.076 8.17172C216.076 6.99301 217.446 6.31339 219.57 6.31339ZM219.57 7.44962C218.295 7.439 217.595 7.68324 217.605 8.17172C217.595 8.64957 218.295 8.86195 219.57 8.87257C220.833 8.86195 221.545 8.64957 221.545 8.17172C221.545 7.68324 220.833 7.439 219.57 7.44962ZM223.021 0.695929V1.48174C223.021 2.24631 223.021 3.09583 222.745 4.09401L221.237 3.95597C221.444 3.12768 221.481 2.50647 221.492 1.88526H216.193V0.695929H223.021ZM224.051 4.56125V5.79306H215.216V4.56125H218.412V2.90468H219.92V4.56125H224.051ZM232.344 0.281788V2.86221H233.619V4.11525H232.344V7.3222H230.815V0.281788H232.344ZM229.339 1.03574V2.24631H226.461V4.52939C228.16 4.51347 229.084 4.44975 230.104 4.23206L230.263 5.45325C229.084 5.69749 227.969 5.75058 225.771 5.75058H224.932V1.03574H229.339ZM232.663 8.63895V9.86014H225.952V6.54701H227.481V8.63895H232.663ZM235.403 1.31183V4.30639H234.171V1.31183H235.403ZM240.553 0.727786C242.624 0.727786 244.259 1.86402 244.259 3.56306C244.259 5.29396 242.624 6.41958 240.553 6.41958C238.493 6.41958 236.868 5.29396 236.868 3.56306C236.868 1.86402 238.493 0.727786 240.553 0.727786ZM240.553 1.97021C239.268 1.95959 238.355 2.56488 238.355 3.56306C238.355 4.59311 239.268 5.16654 240.553 5.16654C241.827 5.16654 242.74 4.59311 242.74 3.56306C242.74 2.56488 241.827 1.95959 240.553 1.97021ZM245.023 7.64077V8.87257H236.114V7.64077H245.023ZM254.421 7.72572V8.96814H245.512V7.72572H249.197V6.36648H246.51V3.01087H251.915V2.09764H246.5V0.876452H253.423V4.2002H248.039V5.13468H253.646V6.36648H250.705V7.72572H254.421ZM4.08333 15.8091C4.07271 17.4975 5.04966 19.2178 6.47261 19.9081L5.84609 20.7151C4.81073 20.1788 4.009 19.1116 3.59486 17.8373C3.16479 19.1966 2.33119 20.3328 1.24805 20.8956L0.621532 20.078C2.08696 19.3771 3.07452 17.5506 3.07452 15.8091V14.1844H4.08333V15.8091ZM8.19289 13.388V17.179H9.72203V18.0391H8.19289V22.9026H7.18408V13.388H8.19289ZM18.1111 13.388V19.0054H17.1022V17.5931H15.0315V18.3683H10.614V14.0995H15.0315V14.8853H17.1022V13.388H18.1111ZM11.6122 14.9065V17.5613H14.044V14.9065H11.6122ZM14.9253 19.2709C16.9217 19.2709 18.1429 19.9293 18.1429 21.0868C18.1429 22.2336 16.9217 22.892 14.9253 22.8814C12.929 22.892 11.6972 22.2336 11.7078 21.0868C11.6972 19.9293 12.929 19.2709 14.9253 19.2709ZM14.9253 20.0461C13.5343 20.0567 12.706 20.4178 12.706 21.0868C12.706 21.7239 13.5343 22.1062 14.9253 22.1062C16.3164 22.1062 17.1447 21.7239 17.1447 21.0868C17.1447 20.4178 16.3164 20.0567 14.9253 20.0461ZM15.0315 16.7754H17.1022V15.6923H15.0315V16.7754ZM27.5089 13.3986V20.4284H26.5001V17.9542H24.4187V18.8462H20.0331V14.0251H21.0419V15.6392H23.4206V14.0251H24.4187V15.087H26.5001V13.3986H27.5089ZM27.7213 21.8832V22.7009H21.2968V19.7381H22.3162V21.8832H27.7213ZM21.0419 18.0285H23.4206V16.4144H21.0419V18.0285ZM24.4187 17.1365H26.5001V15.9153H24.4187V17.1365ZM36.9067 13.3986V19.0267H35.8979V17.8692H33.498V17.0409H35.8979V15.8834H33.5936C32.983 17.4126 31.5547 18.4904 29.4946 19.0798L29.0911 18.294C31.3423 17.6462 32.6591 16.4409 32.8396 14.9065H29.5796V14.0782H33.9334C33.9334 14.4286 33.8962 14.7684 33.8378 15.087H35.8979V13.3986H36.9067ZM33.7741 19.1329C35.6961 19.1329 36.9598 19.8337 36.9704 20.9912C36.9598 22.1487 35.6961 22.8601 33.7741 22.8601C31.8202 22.8601 30.5672 22.1487 30.5672 20.9912C30.5672 19.8337 31.8202 19.1329 33.7741 19.1329ZM33.7741 19.9293C32.4149 19.9293 31.5653 20.3116 31.5653 20.9912C31.5653 21.6602 32.4149 22.0531 33.7741 22.0531C35.1121 22.0531 35.951 21.6602 35.9616 20.9912C35.951 20.3116 35.1121 19.9293 33.7741 19.9293ZM46.2514 13.388V22.9239H45.2426V13.388H46.2514ZM41.1649 14.0995C42.5773 14.0995 43.6179 15.395 43.6179 17.4338C43.6179 19.4833 42.5773 20.7788 41.1649 20.7788C39.7314 20.7788 38.7013 19.4833 38.7013 17.4338C38.7013 15.395 39.7314 14.0995 41.1649 14.0995ZM41.1649 15.0021C40.2836 15.0021 39.6783 15.9365 39.6783 17.4338C39.6783 18.9417 40.2836 19.8762 41.1649 19.8762C42.0357 19.8762 42.641 18.9417 42.641 17.4338C42.641 15.9365 42.0357 15.0021 41.1649 15.0021ZM54.1095 18.4426V20.0886C54.9803 20.0408 55.8617 19.9665 56.6899 19.8443L56.7643 20.5877C54.6086 20.9806 52.3043 21.0018 50.6052 21.0018L50.4778 20.1735C51.2424 20.1682 52.145 20.1629 53.1007 20.1311V18.4426H54.1095ZM56.2439 14.5985V15.4162H54.1095C54.1626 16.5312 55.0652 17.4975 56.4882 17.8798L56.0209 18.6656C54.8847 18.3417 54.0352 17.6515 53.6104 16.7436C53.191 17.6993 52.3574 18.4214 51.2105 18.7506L50.7327 17.986C52.1503 17.5825 53.0423 16.5843 53.0901 15.4162H50.9875V14.5985H53.1007V13.4623H54.1095V14.5985H56.2439ZM58.2934 13.388V22.9239H57.2846V13.388H58.2934ZM64.6542 16.7754V18.0603H68.4983V18.8886H59.8225V18.0603H63.656V16.7754H64.6542ZM64.1551 19.5789C66.2152 19.5789 67.4364 20.1629 67.4364 21.2354C67.4364 22.2973 66.2152 22.892 64.1551 22.8814C62.0844 22.892 60.8526 22.2973 60.8526 21.2354C60.8526 20.1629 62.0844 19.5789 64.1551 19.5789ZM64.1551 20.3541C62.6897 20.3541 61.872 20.662 61.872 21.2354C61.872 21.8089 62.6897 22.1168 64.1551 22.1168C65.5993 22.1168 66.4276 21.8089 66.4276 21.2354C66.4276 20.662 65.5993 20.3541 64.1551 20.3541ZM67.7231 13.8234V14.6304H64.8347C64.9781 15.5383 66.3267 16.3082 68.0523 16.4781L67.6912 17.2745C66.0347 17.0834 64.6754 16.4038 64.1551 15.395C63.6348 16.4038 62.2755 17.0834 60.6296 17.2745L60.2685 16.4781C61.9835 16.3082 63.3321 15.5489 63.4755 14.6304H60.619V13.8234H67.7231ZM74.9759 14.0676C76.4838 14.057 77.5563 14.9914 77.5669 16.3294C77.5563 17.6674 76.4838 18.6019 74.9759 18.6019C73.4786 18.6019 72.3742 17.6674 72.3848 16.3294C72.3742 14.9914 73.4786 14.057 74.9759 14.0676ZM74.9759 14.9384C74.052 14.9384 73.3724 15.4905 73.383 16.3294C73.3724 17.1683 74.052 17.7205 74.9759 17.7205C75.8997 17.7205 76.5794 17.1683 76.5794 16.3294C76.5794 15.4905 75.8997 14.9384 74.9759 14.9384ZM79.7438 13.388V22.9239H78.735V13.388H79.7438ZM71.9282 20.0355C73.6591 20.0355 76.059 20.0142 78.1404 19.7169L78.2147 20.4496C76.059 20.8638 73.7547 20.8744 72.0557 20.8744L71.9282 20.0355ZM89.2054 13.388V18.2302H88.1966V17.317H85.786V16.5312H88.1966V15.5012H85.9028C85.3135 16.9772 83.8799 17.9488 81.7721 18.4426L81.4216 17.6143C83.7047 17.1099 84.9418 16.0534 85.1064 14.6516H81.9207V13.8234H86.2108C86.2108 14.1313 86.1843 14.4233 86.1365 14.7047H88.1966V13.388H89.2054ZM89.2054 18.6338V21.0443H84.002V22H89.4921V22.807H83.0039V20.2797H88.1966V19.4302H82.9826V18.6338H89.2054ZM96.3413 17.4126V18.2409H94.3343V20.0036C95.2157 19.9611 96.1024 19.9027 96.936 19.8125L97.0103 20.5558C94.9184 20.8744 92.6565 20.8956 90.8513 20.9062L90.7239 20.0673C91.5256 20.0673 92.4123 20.062 93.3255 20.0355V18.2409H91.4141V14.2694H96.2989V15.087H92.4123V17.4126H96.3413ZM98.5395 13.388V22.9239H97.5307V13.388H98.5395ZM107.767 16.1702V16.9772H101.215V13.7278H102.214V16.1702H107.767ZM108.766 18.1772V18.9842H100.058V18.1772H108.766ZM107.831 21.8513V22.6796H101.141V19.8868H102.15V21.8513H107.831ZM117.42 14.4074V14.9914C117.42 15.7879 117.42 17.0197 117.144 18.7187L116.146 18.6444C116.385 17.1206 116.411 16.0215 116.422 15.2251H112.557V14.4074H117.42ZM114.978 17.1259V19.9718C115.992 19.9399 117.022 19.8709 117.972 19.7488L118.025 20.5027C116.04 20.8213 113.831 20.8638 112.142 20.8531L112.026 20.0355C112.62 20.0302 113.284 20.0249 113.98 20.0036V17.1259H114.978ZM119.533 13.388V17.317H120.988V18.1772H119.533V22.9026H118.514V13.388H119.533ZM129.451 13.388V19.0479H128.443V16.6374H126.669V15.8091H128.443V13.388H129.451ZM126.266 19.3134C128.262 19.3134 129.483 19.9718 129.483 21.108C129.483 22.2442 128.262 22.892 126.266 22.9026C124.269 22.892 123.038 22.2442 123.048 21.108C123.038 19.9718 124.269 19.3134 126.266 19.3134ZM126.266 20.0992C124.875 20.0992 124.046 20.4602 124.046 21.108C124.046 21.7451 124.875 22.1168 126.266 22.1062C127.657 22.1168 128.485 21.7451 128.485 21.108C128.485 20.4602 127.657 20.0992 126.266 20.0992ZM124.928 15.0658C124.928 16.2764 125.788 17.4444 127.221 17.9329L126.701 18.7293C125.634 18.3577 124.848 17.5984 124.439 16.6586C124.02 17.7258 123.186 18.5807 122.05 18.9948L121.519 18.1878C122.995 17.6781 123.898 16.3932 123.898 15.0764V14.864H121.838V14.0464H126.967V14.864H124.928V15.0658ZM135.249 13.5473C137.394 13.5473 138.648 14.1207 138.648 15.1826C138.648 16.2445 137.394 16.8285 135.249 16.8285C133.104 16.8285 131.851 16.2445 131.851 15.1826C131.851 14.1207 133.104 13.5473 135.249 13.5473ZM135.249 14.2906C133.731 14.2906 132.892 14.6198 132.903 15.1826C132.892 15.7666 133.731 16.0746 135.249 16.0746C136.768 16.0746 137.607 15.7666 137.607 15.1826C137.607 14.6198 136.768 14.2906 135.249 14.2906ZM139.593 17.4126V18.2196H130.917V17.4126H139.593ZM138.499 18.9523V21.1823H132.956V22.0319H138.764V22.807H131.968V20.4496H137.501V19.7063H131.958V18.9523H138.499ZM150.891 13.388V22.9026H149.893V17.986H147.759V17.1577H149.893V13.388H150.891ZM147.79 14.4074C147.78 17.1683 146.707 19.5364 143.479 21.1399L142.948 20.3434C145.47 19.1116 146.591 17.3967 146.771 15.2144H143.373V14.4074H147.79ZM160.3 13.388V22.9239H159.301V19.1541H157.443V18.3364H159.301V17.179H157.443V16.3507H159.301V13.388H160.3ZM155.744 16.4463C155.744 17.9542 156.71 19.5152 158.176 20.1523L157.602 20.9275C156.519 20.4443 155.686 19.4461 155.266 18.2409C154.842 19.5098 154.008 20.5717 152.919 21.0761L152.367 20.301C153.811 19.6426 154.746 18.0179 154.746 16.4463V15.8197H152.633V15.0127H154.757V13.5791H155.765V15.0127H157.825V15.8197H155.744V16.4463ZM172.352 13.388V19.0054H171.343V17.5931H169.273V18.3683H164.855V14.0995H169.273V14.8853H171.343V13.388H172.352ZM165.853 14.9065V17.5613H168.285V14.9065H165.853ZM169.167 19.2709C171.163 19.2709 172.384 19.9293 172.384 21.0868C172.384 22.2336 171.163 22.892 169.167 22.8814C167.17 22.892 165.938 22.2336 165.949 21.0868C165.938 19.9293 167.17 19.2709 169.167 19.2709ZM169.167 20.0461C167.775 20.0567 166.947 20.4178 166.947 21.0868C166.947 21.7239 167.775 22.1062 169.167 22.1062C170.558 22.1062 171.386 21.7239 171.386 21.0868C171.386 20.4178 170.558 20.0567 169.167 20.0461ZM169.273 16.7754H171.343V15.6923H169.273V16.7754ZM177.354 15.3631C177.354 16.4993 178.288 17.5613 179.764 17.9648L179.286 18.7506C178.171 18.4426 177.322 17.7524 176.876 16.8498C176.451 17.8427 175.612 18.6232 174.465 18.9842L173.966 18.1878C175.432 17.7418 176.345 16.5949 176.345 15.3631V15.31H174.232V14.503H176.345V13.388H177.364V14.503H179.456V15.31H177.354V15.3631ZM181.708 13.3986V19.1966H180.699V13.3986H181.708ZM178.511 19.3771C180.508 19.3771 181.739 20.0249 181.739 21.1292C181.739 22.2442 180.508 22.892 178.511 22.8814C176.504 22.892 175.272 22.2442 175.272 21.1292C175.272 20.0249 176.504 19.3771 178.511 19.3771ZM178.511 20.1735C177.099 20.1735 176.292 20.524 176.292 21.1292C176.292 21.7558 177.099 22.1062 178.511 22.1062C179.924 22.1062 180.741 21.7558 180.741 21.1292C180.741 20.524 179.924 20.1735 178.511 20.1735ZM191.095 13.388V22.9239H190.086V13.388H191.095ZM186.008 14.0995C187.421 14.0995 188.461 15.395 188.461 17.4338C188.461 19.4833 187.421 20.7788 186.008 20.7788C184.575 20.7788 183.545 19.4833 183.545 17.4338C183.545 15.395 184.575 14.0995 186.008 14.0995ZM186.008 15.0021C185.127 15.0021 184.522 15.9365 184.522 17.4338C184.522 18.9417 185.127 19.8762 186.008 19.8762C186.879 19.8762 187.484 18.9417 187.484 17.4338C187.484 15.9365 186.879 15.0021 186.008 15.0021ZM203.2 13.3986V20.4284H202.192V17.9542H200.11V18.8462H195.725V14.0251H196.734V15.6392H199.112V14.0251H200.11V15.087H202.192V13.3986H203.2ZM203.413 21.8832V22.7009H196.988V19.7381H198.008V21.8832H203.413ZM196.734 18.0285H199.112V16.4144H196.734V18.0285ZM200.11 17.1365H202.192V15.9153H200.11V17.1365ZM212.598 13.3986V19.0267H211.59V17.8692H209.19V17.0409H211.59V15.8834H209.285C208.675 17.4126 207.246 18.4904 205.186 19.0798L204.783 18.294C207.034 17.6462 208.351 16.4409 208.531 14.9065H205.271V14.0782H209.625C209.625 14.4286 209.588 14.7684 209.529 15.087H211.59V13.3986H212.598ZM209.466 19.1329C211.388 19.1329 212.651 19.8337 212.662 20.9912C212.651 22.1487 211.388 22.8601 209.466 22.8601C207.512 22.8601 206.259 22.1487 206.259 20.9912C206.259 19.8337 207.512 19.1329 209.466 19.1329ZM209.466 19.9293C208.106 19.9293 207.257 20.3116 207.257 20.9912C207.257 21.6602 208.106 22.0531 209.466 22.0531C210.804 22.0531 211.643 21.6602 211.653 20.9912C211.643 20.3116 210.804 19.9293 209.466 19.9293ZM219.734 17.4126V18.2409H217.727V20.0036C218.609 19.9611 219.495 19.9027 220.329 19.8125L220.403 20.5558C218.311 20.8744 216.05 20.8956 214.244 20.9062L214.117 20.0673C214.919 20.0673 215.805 20.062 216.718 20.0355V18.2409H214.807V14.2694H219.692V15.087H215.805V17.4126H219.734ZM221.932 13.388V22.9239H220.924V13.388H221.932ZM226.838 19.6638C226.838 20.4868 227.242 21.3522 228.113 21.8832C228.983 21.3098 229.398 20.3859 229.398 19.6638V19.1541H230.385V19.6638C230.385 20.6514 231.033 21.6177 232.297 22.0212L231.776 22.7752C230.842 22.4407 230.205 21.8035 229.875 21.0124C229.578 21.7876 229.005 22.4938 228.123 22.8601C227.221 22.515 226.647 21.8407 226.35 21.0549C226.005 21.8089 225.378 22.4407 224.481 22.7752L223.993 22.0212C225.203 21.5965 225.861 20.5877 225.872 19.6638V19.1541H226.838V19.6638ZM226.095 13.9083C227.322 13.9083 228.304 14.6357 228.527 15.7135H230.385V13.388H231.394V18.7824H230.385V16.5418H228.537C228.341 17.6515 227.348 18.4002 226.095 18.4002C224.662 18.4002 223.61 17.4763 223.61 16.1595C223.61 14.8428 224.662 13.9083 226.095 13.9083ZM226.095 14.7578C225.214 14.7578 224.566 15.3206 224.577 16.1595C224.566 16.9772 225.214 17.5613 226.095 17.5613C226.955 17.5613 227.603 16.9772 227.603 16.1595C227.603 15.3206 226.955 14.7578 226.095 14.7578ZM234.93 19.0904V20.0992H239.401V19.0904H240.41V22.7858H233.932V19.0904H234.93ZM234.93 21.9788H239.401V20.885H234.93V21.9788ZM241.535 17.6568V18.4957H232.859V17.6568H241.535ZM237.712 13.8977C237.712 14.9914 239.231 16.0534 241.057 16.2764L240.696 17.0728C239.151 16.8551 237.808 16.1277 237.203 15.1189C236.581 16.133 235.233 16.8551 233.709 17.0728L233.327 16.2764C235.174 16.0427 236.682 15.0233 236.682 13.8977V13.4942H237.712V13.8977ZM250.158 13.388V22.9026H249.149V13.388H250.158ZM243.839 14.3118V19.6107C245.225 19.6001 246.685 19.4886 248.215 19.1753L248.353 20.0249C246.664 20.3647 245.135 20.4815 243.638 20.4815H242.841V14.3118H243.839ZM259.067 13.388V17.0728H260.596V17.9011H259.067V22.9239H258.058V13.388H259.067ZM256.508 14.3012V15.1189H253.067V19.7169C254.666 19.7116 255.866 19.6426 257.219 19.3983L257.347 20.2479C255.86 20.5133 254.597 20.5664 252.823 20.5558H252.059V14.3012H256.508ZM262.136 22.0743C261.722 22.0743 261.371 21.7345 261.382 21.3204C261.371 20.9062 261.722 20.5664 262.136 20.5664C262.54 20.5664 262.89 20.9062 262.89 21.3204C262.89 21.7345 262.54 22.0743 262.136 22.0743Z" fill="black"/>
</svg>
