<svg width="312" height="51" viewBox="0 0 312 51" fill="none" xmlns="http://www.w3.org/2000/svg">
<path d="M80.5461 0.300081V6.00671H79.6955V3.49795H77.7682V2.79808H79.6955V0.300081H80.5461ZM77.3698 6.30819C79.3618 6.30819 80.5785 6.95423 80.5785 8.08479C80.5785 9.21534 79.3618 9.86138 77.3698 9.87215C75.3779 9.86138 74.1612 9.21534 74.1612 8.08479C74.1612 6.95423 75.3779 6.30819 77.3698 6.30819ZM77.3698 6.96499C75.9055 6.96499 74.9903 7.38492 75.001 8.08479C74.9903 8.77389 75.9055 9.19381 77.3698 9.19381C78.8342 9.19381 79.7386 8.77389 79.7386 8.08479C79.7386 7.38492 78.8342 6.96499 77.3698 6.96499ZM75.9378 2.05514C75.9378 3.30414 76.8961 4.48853 78.2958 4.97306L77.8543 5.65139C76.7776 5.26377 75.9432 4.46161 75.5394 3.46565C75.1195 4.59082 74.2312 5.48988 73.0952 5.92057L72.6538 5.24224C74.075 4.72541 75.0872 3.43334 75.0872 2.06591V1.71059H72.923V0.99995H78.0805V1.71059H75.9378V2.05514ZM90.8935 5.98518V6.67428H86.8988V9.87215H86.0697V6.67428H82.1289V5.98518H90.8935ZM84.0886 0.698468V2.02284H88.9123V0.698468H89.7629V4.82232H83.2487V0.698468H84.0886ZM84.0886 4.13321H88.9123V2.71194H84.0886V4.13321ZM99.4103 3.20723V3.88557H92.8531V0.655399H93.6929V3.20723H99.4103ZM100.422 5.1884V5.8775H91.6579V5.1884H100.422ZM99.4642 8.9354V9.63527H92.7993V6.85732H93.6391V8.9354H99.4642ZM104.309 9L104.299 8.28936L106.958 5.48988C107.884 4.51007 108.326 3.98247 108.326 3.26107C108.326 2.46429 107.647 1.9367 106.775 1.9367C105.849 1.9367 105.257 2.5289 105.257 3.40104H104.342C104.331 2.02284 105.397 1.09686 106.807 1.09686C108.218 1.09686 109.23 2.04437 109.23 3.26107C109.23 4.13321 108.821 4.81155 107.443 6.23282L105.655 8.07402V8.13862H109.37V9H104.309ZM113.332 9.10767C111.599 9.10767 110.608 7.6541 110.608 5.10226C110.608 2.57197 111.62 1.09686 113.332 1.09686C115.044 1.09686 116.056 2.57197 116.056 5.10226C116.056 7.6541 115.055 9.10767 113.332 9.10767ZM113.332 8.24629C114.452 8.24629 115.109 7.11574 115.109 5.10226C115.109 3.08879 114.452 1.9367 113.332 1.9367C112.213 1.9367 111.545 3.08879 111.545 5.10226C111.545 7.11574 112.202 8.24629 113.332 8.24629ZM119.9 9.10767C118.167 9.10767 117.176 7.6541 117.176 5.10226C117.176 2.57197 118.188 1.09686 119.9 1.09686C121.612 1.09686 122.624 2.57197 122.624 5.10226C122.624 7.6541 121.623 9.10767 119.9 9.10767ZM119.9 8.24629C121.02 8.24629 121.677 7.11574 121.677 5.10226C121.677 3.08879 121.02 1.9367 119.9 1.9367C118.781 1.9367 118.113 3.08879 118.113 5.10226C118.113 7.11574 118.77 8.24629 119.9 8.24629ZM123.723 7.40645V6.60968L127.233 1.20453H128.428V6.55584H129.516V7.40645H128.428V9H127.502V7.40645H123.723ZM124.767 6.55584H127.502V2.43199H127.405L124.767 6.49124V6.55584ZM138.388 0.310848V7.39568H137.537V4.07938H134.781V3.40104H137.537V2.24895H134.781V1.57061H137.537V0.310848H138.388ZM138.646 8.95693V9.66757H132.218V6.79272H133.069V8.95693H138.646ZM131.874 0.99995V5.253C133.193 5.24762 134.463 5.17763 135.922 4.90845L136.008 5.60832C134.447 5.89904 133.144 5.96364 131.744 5.97441H131.023V0.99995H131.874ZM147.583 1.65675C147.572 2.93805 149.284 4.02554 150.953 4.27319L150.641 4.94076C149.144 4.68773 147.691 3.89095 147.109 2.73347C146.528 3.89095 145.069 4.68773 143.599 4.94076L143.265 4.27319C144.923 4.02554 146.635 2.93805 146.635 1.65675V1.59215H143.567V0.903045H150.641V1.59215H147.583V1.65675ZM151.47 5.75906V6.45893H147.508V9.87215H146.678V6.45893H142.748V5.75906H151.47ZM157.273 1.13992V5.57602H152.783V1.13992H157.273ZM153.613 1.83979V4.89769H156.444V1.83979H153.613ZM160.181 0.310848V7.19111H159.341V0.310848H160.181ZM160.482 8.84926V9.54913H154V6.52354H154.84V8.84926H160.482ZM170.56 6.10362V6.80349H166.576V9.87215H165.747V6.80349H161.796V6.10362H170.56ZM169.57 4.42393V5.11303H162.969V0.752304H169.462V1.44141H163.809V2.5612H169.236V3.23953H163.809V4.42393H169.57ZM180.1 7.99865V8.69852H171.335V7.99865H173.78V5.716H172.132V5.01613H173.629V1.89363H172.111V1.19376H179.26V1.89363H177.742V5.01613H179.239V5.716H177.591V7.99865H180.1ZM174.469 5.01613H176.913V1.89363H174.469V5.01613ZM174.63 7.99865H176.751V5.716H174.63V7.99865ZM189.047 0.300081V9.87215H188.24V0.300081H189.047ZM187.109 0.53696V9.37685H186.313V4.44546H184.698V3.75636H186.313V0.53696H187.109ZM183.675 3.03496C183.675 4.69311 184.418 6.34049 185.742 7.10497L185.225 7.72947C184.283 7.16419 183.615 6.13053 183.287 4.90845C182.937 6.22744 182.243 7.35261 181.284 7.95558L180.746 7.32031C182.081 6.52354 182.856 4.77925 182.856 3.03496V2.13051H181.015V1.43064H185.43V2.13051H183.675V3.03496ZM199.147 4.74695V5.41451H190.383V4.74695H199.147ZM198.049 6.17899V8.21399H192.299V9.12921H198.361V9.74294H191.449V7.63256H197.209V6.81425H191.438V6.17899H198.049ZM198.017 0.590796V2.57197H192.364V3.41181H198.189V4.02554H191.524V1.99054H197.166V1.20453H191.492V0.590796H198.017ZM210.42 4.79001V5.47912H207.459V7.95558H211.454V8.66622H202.69V7.95558H206.63V5.47912H203.809V1.08609H210.324V1.77519H204.66V4.79001H210.42ZM220.122 0.300081V5.43605H219.282V0.300081H220.122ZM214.76 5.92057V7.08343H219.282V5.92057H220.122V9.74294H213.92V5.92057H214.76ZM214.76 9.05384H219.282V7.76177H214.76V9.05384ZM214.953 0.773839C216.407 0.763071 217.462 1.65675 217.462 2.97035C217.462 4.27319 216.407 5.16687 214.953 5.16687C213.5 5.16687 212.445 4.27319 212.445 2.97035C212.445 1.65675 213.5 0.763071 214.953 0.773839ZM214.953 1.48448C213.974 1.47371 213.263 2.09821 213.274 2.97035C213.263 3.8425 213.974 4.467 214.953 4.467C215.922 4.467 216.633 3.8425 216.633 2.97035C216.633 2.09821 215.922 1.47371 214.953 1.48448ZM229.155 0.300081V4.25165H230.76V4.95152H229.155V9.87215H228.316V0.300081H229.155ZM227.39 1.83979V2.53966H221.694V1.83979H224.159V0.41852H224.999V1.83979H227.39ZM224.59 3.33644C225.947 3.33644 226.927 4.24089 226.937 5.53295C226.927 6.82502 225.947 7.72947 224.59 7.72947C223.223 7.72947 222.232 6.82502 222.243 5.53295C222.232 4.24089 223.223 3.33644 224.59 3.33644ZM224.59 4.04708C223.696 4.04708 223.04 4.67157 223.05 5.53295C223.04 6.4051 223.696 7.01883 224.59 7.00806C225.473 7.01883 226.119 6.4051 226.13 5.53295C226.119 4.67157 225.473 4.04708 224.59 4.04708ZM238.954 1.26913V2.22741C238.943 3.40104 238.943 4.71464 238.598 6.64198L237.737 6.54507C238.103 4.71464 238.103 3.36874 238.103 2.22741V1.969H232.203V1.26913H238.954ZM239.998 7.81561V8.51547H231.277V7.81561H234.701V4.39163H235.53V7.81561H239.998ZM9.80009 17.6931V18.6622H5.94542V19.4697C7.68971 19.5881 8.7126 20.1911 8.72336 21.2032C8.7126 22.323 7.45283 22.9475 5.35322 22.9475C3.23208 22.9475 1.96154 22.323 1.96154 21.2032C1.96154 20.1911 2.9952 19.5828 4.76102 19.4697V18.6622H0.92789V17.6931H9.80009ZM5.35322 20.3741C3.93195 20.3849 3.16747 20.6649 3.17824 21.2032C3.16747 21.7416 3.93195 22.0323 5.35322 22.0323C6.74219 22.0323 7.51743 21.7416 7.5282 21.2032C7.51743 20.6649 6.74219 20.3849 5.35322 20.3741ZM9.00331 13.6554V14.6137H6.20383C6.39226 15.4158 7.55512 16.1372 9.38016 16.3041L8.96024 17.2517C7.19442 17.074 5.88081 16.3687 5.35322 15.3782C4.82563 16.3634 3.53356 17.074 1.76773 17.2517L1.35858 16.3041C3.14594 16.1372 4.3088 15.4051 4.51338 14.6137H1.73543V13.6554H9.00331ZM18.6184 13.2247V22.9691H17.4233V17.65H15.5498V16.6702H17.4233V13.2247H18.6184ZM14.0316 15.8088C14.0316 17.4885 14.9361 19.2759 16.5081 19.9542L15.7974 20.9125C14.6669 20.3741 13.8593 19.292 13.4394 18.0054C13.0033 19.3782 12.1796 20.5357 11.0491 21.1063L10.3277 20.1696C11.8889 19.4374 12.8041 17.5854 12.8149 15.8088V15.1628H10.7261V14.183H16.1204V15.1628H14.0316V15.8088ZM28.0613 13.6662V14.6244H25.2403C25.348 15.5397 26.5377 16.4118 28.4166 16.6379L27.9644 17.5854C26.2201 17.3755 24.9334 16.6056 24.4112 15.5504C23.889 16.6002 22.6131 17.3755 20.8688 17.5854L20.4273 16.6379C22.3062 16.4118 23.4798 15.5397 23.5929 14.6244H20.7934V13.6662H28.0613ZM28.8688 18.1238V19.0928H25.1111V20.8694H23.9267V19.0928H19.9751V18.1238H28.8688ZM27.889 21.7954V22.7645H21.0518V19.9758H22.247V21.7954H27.889ZM32.6912 13.6554C34.1663 13.6446 35.243 14.4845 35.243 15.7012C35.243 16.8963 34.1663 17.7469 32.6912 17.7362C31.2269 17.7469 30.1609 16.8963 30.1609 15.7012C30.1609 14.4845 31.2269 13.6446 32.6912 13.6554ZM32.6912 14.6244C31.8944 14.6137 31.313 15.0336 31.3238 15.7012C31.313 16.358 31.8944 16.7564 32.6912 16.7564C33.5203 16.7564 34.1017 16.358 34.1017 15.7012C34.1017 15.0336 33.5203 14.6137 32.6912 14.6244ZM37.6549 13.2355V22.9475H36.4705V13.2355H37.6549ZM29.5256 18.4037C31.2807 18.4037 33.7356 18.3714 35.8352 18.0592L35.9214 18.9421C35.0815 19.1036 34.2094 19.2059 33.3588 19.2651V22.6568H32.1528V19.3405C31.2538 19.3782 30.4086 19.3836 29.6764 19.3943L29.5256 18.4037ZM43.5553 19.2328C45.5688 19.2328 46.807 19.9112 46.8178 21.0848C46.807 22.2692 45.5688 22.9583 43.5553 22.9583C41.5203 22.9583 40.2606 22.2692 40.2606 21.0848C40.2606 19.9112 41.5203 19.2328 43.5553 19.2328ZM43.5553 20.1696C42.2202 20.1696 41.4557 20.4818 41.4557 21.0848C41.4557 21.6878 42.2202 22.0108 43.5553 22.0108C44.8905 22.0108 45.6334 21.6878 45.6334 21.0848C45.6334 20.4818 44.8905 20.1696 43.5553 20.1696ZM46.7209 13.2247V15.5504H48.0776V16.5518H46.7209V18.9959H45.5257V13.2247H46.7209ZM40.5621 13.8384V15.152H42.8339V13.8384H44.0183V18.3822H39.3777V13.8384H40.5621ZM40.5621 17.4347H42.8339V16.0888H40.5621V17.4347ZM52.0507 15.5612C52.0399 17.2947 52.9121 19.0605 54.4195 19.782L53.6873 20.7402C52.6321 20.2073 51.873 19.179 51.4585 17.9408C51.0332 19.2651 50.2364 20.3634 49.122 20.9233L48.3898 19.965C49.9511 19.2221 50.8448 17.3593 50.8555 15.5612V14.0107H52.0507V15.5612ZM56.1961 13.2247V17.0363H57.6927V18.0592H56.1961V22.9583H55.0009V13.2247H56.1961ZM61.6658 14.6244C61.655 15.9488 62.4303 17.1547 63.9592 17.6393L63.3132 18.576C62.2526 18.2046 61.5097 17.4993 61.0952 16.5733C60.6645 17.6339 59.8515 18.4683 58.6725 18.8775L58.0373 17.9085C59.6523 17.3809 60.4599 16.078 60.4599 14.6783V13.7523H61.6658V14.6244ZM66.2527 13.2247V18.9529H65.0575V16.0888H63.1194V15.109H65.0575V13.2247H66.2527ZM62.9579 19.2113C65.0252 19.2113 66.285 19.9004 66.285 21.0848C66.285 22.2692 65.0252 22.9475 62.9579 22.9475C60.9013 22.9475 59.6416 22.2692 59.6523 21.0848C59.6416 19.9004 60.9013 19.2113 62.9579 19.2113ZM62.9579 20.1373C61.6012 20.1373 60.8367 20.4711 60.8367 21.0848C60.8367 21.677 61.6012 22.0108 62.9579 22.0108C64.3146 22.0108 65.0898 21.677 65.0898 21.0848C65.0898 20.4711 64.3146 20.1373 62.9579 20.1373ZM76.0831 13.2247V22.9583H74.9418V13.2247H76.0831ZM74.145 13.4293V22.4738H73.036V18.899H71.9485V17.9192H73.036V16.9286H71.9485V15.9381H73.036V13.4293H74.145ZM72.1746 14.3553V15.3351H71.4855V19.5881C71.787 19.572 72.0723 19.5451 72.3361 19.5128L72.4223 20.4065C70.9256 20.6649 68.9229 20.6972 67.6632 20.7079L67.5232 19.7173L68.4061 19.7066V15.3351H67.717V14.3553H72.1746ZM69.4828 19.685L70.4088 19.6527V15.3351H69.4828V19.685ZM85.2891 13.2247V22.9583H84.0832V13.2247H85.2891ZM82.382 14.2584C82.382 17.1547 81.2622 19.6204 77.849 21.2355L77.2245 20.2772C79.7709 19.0659 80.9553 17.4185 81.1653 15.2059H77.7198V14.2584H82.382ZM95.561 17.1763V18.1238H91.7064V18.856H94.452V21.2463H88.9177V21.9569H94.7212V22.8721H87.744V20.3849H93.2784V19.7604H87.7333V18.856H90.5112V18.1238H86.6888V17.1763H95.561ZM94.4197 13.5262V16.5626H87.8086V13.5262H94.4197ZM88.9823 14.4629V15.6258H93.2246V14.4629H88.9823ZM106.996 13.2247V22.9691H105.801V17.9946H103.916V17.0255H105.801V13.2247H106.996ZM102.387 16.3149C102.377 17.79 103.26 19.362 104.799 20.0404L104.153 20.9556C103.039 20.4818 102.231 19.5074 101.806 18.3391C101.375 19.5774 100.573 20.6164 99.4588 21.1171L98.8128 20.1911C100.331 19.502 101.192 17.8439 101.192 16.3149V15.8088H99.1035V14.8506H101.203V13.4293H102.398V14.8506H104.433V15.8088H102.387V16.3149ZM117.246 18.2638V19.2221H113.488V20.9017H112.304V19.2221H108.353V18.2638H117.246ZM116.266 21.7954V22.7645H109.429V20.0834H110.614V21.7954H116.266ZM110.7 13.537V14.6352H114.899V13.537H116.083V17.4993H109.515V13.537H110.7ZM110.7 16.5518H114.899V15.5289H110.7V16.5518ZM121.575 15.5612C121.564 17.3486 122.501 19.1359 124.083 19.8143L123.373 20.7725C122.253 20.2557 121.429 19.2221 120.982 17.9515C120.536 19.3243 119.701 20.4441 118.517 20.9986L117.785 19.9973C119.41 19.2974 120.358 17.4347 120.358 15.5612V14.0107H121.575V15.5612ZM125.989 13.2247V22.9691H124.783V13.2247H125.989ZM135.572 13.2247V18.2099H134.377V15.7442H132.439V14.786H134.377V13.2247H135.572ZM135.572 18.6299V21.1494H130.35V21.8923H135.884V22.8398H129.176V20.2557H134.388V19.5666H129.166V18.6299H135.572ZM130.953 14.323C130.953 15.5181 131.739 16.6595 133.246 17.1224L132.611 18.0484C131.556 17.6931 130.791 17.0094 130.371 16.1211C129.941 17.1171 129.144 17.8869 127.992 18.2638L127.367 17.3055C128.929 16.8317 129.747 15.6366 129.747 14.323V13.5477H130.953V14.323ZM148.45 18.6837V19.6527H146.285V22.9583H145.069V19.6527H142.915V22.9583H141.688V19.6527H139.556V18.6837H148.45ZM143.981 13.5693C146.049 13.58 147.491 14.4199 147.491 15.7442C147.491 17.0471 146.049 17.8762 143.981 17.8762C141.903 17.8762 140.482 17.0471 140.493 15.7442C140.482 14.4199 141.903 13.58 143.981 13.5693ZM143.981 14.5383C142.603 14.5383 141.709 14.9798 141.72 15.7442C141.709 16.4872 142.603 16.9286 143.981 16.9286C145.359 16.9286 146.253 16.4872 146.253 15.7442C146.253 14.9798 145.359 14.5383 143.981 14.5383ZM157.182 13.2247V22.9583H155.987V13.2247H157.182ZM152.832 16.3149C152.832 17.8008 153.736 19.3836 155.308 20.0404L154.652 20.9556C153.532 20.4872 152.697 19.5128 152.25 18.3391C151.814 19.5828 150.975 20.6218 149.839 21.1171L149.193 20.1911C150.743 19.502 151.637 17.8654 151.637 16.3149V15.8088H149.494V14.8506H151.637V13.4293H152.821V14.8506H154.921V15.8088H152.832V16.3149ZM162.296 15.9919C162.296 17.5854 163.233 19.2651 164.805 19.9219L164.148 20.8694C162.996 20.3741 162.156 19.3513 161.715 18.113C161.263 19.4482 160.412 20.568 159.271 21.1063L158.582 20.1696C160.121 19.4589 161.08 17.65 161.08 15.9919V15.1736H158.937V14.183H164.428V15.1736H162.296V15.9919ZM166.722 13.2247V22.9583H165.516V13.2247H166.722ZM176.304 19.4374V22.9583H175.109V20.3849H169.672V19.4374H176.304ZM176.304 13.2247V18.9744H175.109V17.6823H172.827C172.364 18.1992 171.664 18.5114 170.856 18.5114C169.392 18.5114 168.283 17.5208 168.283 16.1211C168.283 14.7429 169.392 13.7523 170.856 13.7631C171.658 13.7577 172.358 14.0592 172.816 14.5706H175.109V13.2247H176.304ZM170.856 14.7752C170.016 14.7752 169.424 15.3136 169.424 16.1211C169.424 16.9609 170.016 17.4885 170.856 17.4993C171.653 17.4885 172.256 16.9609 172.267 16.1211C172.256 15.3136 171.653 14.7752 170.856 14.7752ZM173.333 16.7133H175.109V15.5504H173.343C173.381 15.7335 173.408 15.9219 173.408 16.1211C173.408 16.3257 173.381 16.5249 173.333 16.7133ZM186.081 13.2247V22.9583H184.929V13.2247H186.081ZM184.078 13.397V22.4845H182.937V17.8546H182.011C181.898 19.7496 181.085 20.9233 179.879 20.9125C178.609 20.9233 177.78 19.5774 177.78 17.4347C177.78 15.292 178.609 13.9676 179.879 13.9676C181.058 13.9676 181.86 15.0659 182 16.8856H182.937V13.397H184.078ZM179.879 15.0982C179.265 15.0874 178.878 15.9165 178.889 17.4347C178.878 18.9529 179.265 19.782 179.879 19.7712C180.525 19.782 180.913 18.9529 180.913 17.4347C180.913 15.9165 180.525 15.0874 179.879 15.0982ZM195.266 13.9461V14.5275C195.255 15.1951 195.255 16.1534 195.029 17.3916L193.844 17.284C194.033 16.2772 194.07 15.5343 194.092 14.9367H190.302V13.9461H195.266ZM192.811 16.1642V18.1023C193.817 18.0646 194.851 17.9892 195.793 17.8546L195.858 18.716C193.834 19.0821 191.54 19.1144 189.828 19.1252L189.72 18.1669C190.296 18.1615 190.943 18.1561 191.626 18.1453V16.1642H192.811ZM197.591 13.2247V16.2611H198.851V17.2624H197.591V20.5141H196.364V13.2247H197.591ZM197.904 21.7954V22.7645H191.174V19.8681H192.38V21.7954H197.904ZM207.034 13.2355V16.2934H208.391V17.284H207.034V20.5034H205.839V13.2355H207.034ZM205.139 14.3122V15.2705H199.368V14.3122H201.661V13.2247H202.856V14.3122H205.139ZM202.253 15.6689C203.653 15.6689 204.622 16.4118 204.633 17.5316C204.622 18.6406 203.653 19.3728 202.253 19.3728C200.843 19.3728 199.863 18.6406 199.863 17.5316C199.863 16.4118 200.843 15.6689 202.253 15.6689ZM202.253 16.5949C201.511 16.5949 201.026 16.9394 201.026 17.5316C201.026 18.113 201.511 18.4576 202.253 18.4468C202.996 18.4576 203.492 18.113 203.492 17.5316C203.492 16.9394 202.996 16.5949 202.253 16.5949ZM207.422 21.7954V22.7645H200.8V19.9327H201.995V21.7954H207.422ZM220.375 18.3176V19.2544H211.481V18.3176H220.375ZM219.255 19.9973V22.9583H218.049V20.9556H212.482V19.9973H219.255ZM219.384 16.681V17.5962H212.622V13.4616H219.309V14.3983H213.817V15.0659H219.072V15.9596H213.817V16.681H219.384ZM229.182 13.2247V18.253H227.987V17.1978H226.028V17.9408H221.473V13.6554H222.668V14.8829H224.843V13.6554H226.028V14.5168H227.987V13.2247H229.182ZM229.182 18.6514V21.1494H223.971V21.8923H229.495V22.8398H222.776V20.2665H227.987V19.5881H222.765V18.6514H229.182ZM222.668 16.9932H224.843V15.7981H222.668V16.9932ZM226.028 16.2826H227.987V15.4212H226.028V16.2826ZM232.197 13.7308V15.0551H234.372V13.7308H235.557V15.5074H237.516V13.2247H238.711V18.5437H237.516V16.4979H235.557V18.2422H231.002V13.7308H232.197ZM232.197 17.2732H234.372V15.9811H232.197V17.2732ZM233.489 18.9744V19.965H237.516V18.9744H238.711V22.8183H232.294V18.9744H233.489ZM233.489 21.8493H237.516V20.891H233.489V21.8493ZM244.515 13.4724C246.647 13.4724 247.896 14.0538 247.896 15.1197C247.896 16.2072 246.647 16.7887 244.515 16.7994C242.383 16.7887 241.123 16.2072 241.123 15.1197C241.123 14.0538 242.383 13.4724 244.515 13.4724ZM244.515 14.1076C242.921 14.1076 241.995 14.4952 242.006 15.1197C241.995 15.7873 242.921 16.1534 244.515 16.1534C246.098 16.1534 247.034 15.7873 247.034 15.1197C247.034 14.4952 246.098 14.1076 244.515 14.1076ZM248.876 17.4455V18.1346H240.154V17.4455H248.876ZM247.756 18.9636V21.1063H242.071V22.0969H248.047V22.7645H241.231V20.4818H246.927V19.6097H241.209V18.9636H247.756ZM260.633 13.3001V22.8721H259.826V13.3001H260.633ZM258.695 13.537V22.3769H257.899V17.4455H256.283V16.7564H257.899V13.537H258.695ZM255.261 16.035C255.261 17.6931 256.003 19.3405 257.328 20.105L256.811 20.7295C255.869 20.1642 255.201 19.1305 254.873 17.9085C254.523 19.2274 253.829 20.3526 252.87 20.9556L252.332 20.3203C253.667 19.5235 254.442 17.7792 254.442 16.035V15.1305H252.601V14.4306H257.016V15.1305H255.261V16.035ZM269.915 13.3001V19.0067H269.064V16.4979H267.137V15.7981H269.064V13.3001H269.915ZM266.738 19.3082C268.73 19.3082 269.947 19.9542 269.947 21.0848C269.947 22.2153 268.73 22.8614 266.738 22.8721C264.746 22.8614 263.53 22.2153 263.53 21.0848C263.53 19.9542 264.746 19.3082 266.738 19.3082ZM266.738 19.965C265.274 19.965 264.359 20.3849 264.37 21.0848C264.359 21.7739 265.274 22.1938 266.738 22.1938C268.203 22.1938 269.107 21.7739 269.107 21.0848C269.107 20.3849 268.203 19.965 266.738 19.965ZM265.306 15.0551C265.306 16.3041 266.265 17.4885 267.664 17.9731L267.223 18.6514C266.146 18.2638 265.312 17.4616 264.908 16.4656C264.488 17.5908 263.6 18.4899 262.464 18.9206L262.022 18.2422C263.444 17.7254 264.456 16.4333 264.456 15.0659V14.7106H262.292V14H267.449V14.7106H265.306V15.0551ZM279.638 13.3108V19.2436H278.83V16.6487H277.581V19.0928H276.773V13.4616H277.581V15.9488H278.83V13.3108H279.638ZM276.364 14.3983V15.0982H271.454V14.3983H273.5V13.3431H274.34V14.3983H276.364ZM273.92 15.5827C275.137 15.5827 275.966 16.218 275.977 17.2194C275.966 18.1992 275.137 18.856 273.92 18.856C272.714 18.856 271.864 18.1992 271.874 17.2194C271.864 16.218 272.714 15.5827 273.92 15.5827ZM273.92 16.218C273.156 16.218 272.628 16.6056 272.628 17.2194C272.628 17.8223 273.156 18.2207 273.92 18.2207C274.685 18.2207 275.212 17.8223 275.212 17.2194C275.212 16.6056 274.685 16.218 273.92 16.218ZM274.9 19.8573C274.889 20.6756 275.336 21.5262 276.246 22.0108C277.15 21.4832 277.613 20.5572 277.624 19.8573V19.5128H278.453V19.8573C278.442 20.7941 279.175 21.7416 280.402 22.1184L280.004 22.7645C279.04 22.4307 278.362 21.7793 278.033 20.9986C277.737 21.7577 277.156 22.4845 276.257 22.8398C275.331 22.4953 274.749 21.817 274.469 21.0417C274.114 21.7847 273.446 22.4307 272.531 22.7645L272.122 22.1184C273.317 21.7093 274.071 20.7295 274.071 19.8573V19.5128H274.9V19.8573ZM282.986 19.0498V20.1696H287.767V19.0498H288.617V22.7429H282.146V19.0498H282.986ZM282.986 22.0646H287.767V20.8371H282.986V22.0646ZM289.759 17.6716V18.3714H281.037V17.6716H289.759ZM285.839 13.86C285.839 15.0444 287.584 16.0996 289.263 16.3149L288.951 16.9932C287.465 16.7725 286.012 16.0134 285.409 14.9367C284.795 16.0188 283.331 16.7725 281.856 16.9932L281.533 16.3149C283.234 16.0888 284.967 15.0767 284.967 13.86V13.4078H285.839V13.86ZM298.459 13.3001V22.8721H297.619V13.3001H298.459ZM292.02 14.2476V19.6743C293.479 19.6689 294.992 19.5505 296.596 19.2113L296.714 19.9327C295.013 20.288 293.495 20.4065 291.966 20.4065H291.191V14.2476H292.02ZM307.503 13.3001V17.0901H309.107V17.8008H307.503V22.8937H306.663V13.3001H307.503ZM304.984 14.2368V14.9367H301.355V19.782C303.089 19.782 304.316 19.7012 305.737 19.4374L305.845 20.1696C304.348 20.4388 303.089 20.4926 301.269 20.4926H300.515V14.2368H304.984ZM310.636 22.0646C310.26 22.0646 309.937 21.7524 309.947 21.3647C309.937 20.9879 310.26 20.6756 310.636 20.6756C311.013 20.6756 311.325 20.9879 311.325 21.3647C311.325 21.7524 311.013 22.0646 310.636 22.0646ZM52.8098 39.3108V45.0605H51.9592V43.7685H49.4181V43.0686H51.9592V41.7765H49.515C48.8851 43.3163 47.4046 44.4307 45.3589 45.039L45.0035 44.3714C47.3185 43.6823 48.7559 42.3903 48.9336 40.7321H45.4881V40.0215H49.8488C49.8488 40.3983 49.8057 40.759 49.7303 41.0982H51.9592V39.3108H52.8098ZM49.6765 45.1575C51.6146 45.1575 52.8636 45.8466 52.8636 46.9879C52.8636 48.14 51.6146 48.8291 49.6765 48.8291C47.7169 48.8291 46.4786 48.14 46.4786 46.9879C46.4786 45.8466 47.7169 45.1575 49.6765 45.1575ZM49.6765 45.8358C48.2337 45.825 47.3077 46.2665 47.3077 46.9879C47.3077 47.7093 48.2337 48.14 49.6765 48.14C51.0978 48.14 52.013 47.7093 52.0238 46.9879C52.013 46.2665 51.0978 45.825 49.6765 45.8358ZM59.2378 40.6568C59.227 41.9381 60.939 43.0255 62.608 43.2732L62.2957 43.9408C60.7991 43.6877 59.3455 42.891 58.7641 41.7335C58.1826 42.891 56.7237 43.6877 55.2539 43.9408L54.9202 43.2732C56.5783 43.0255 58.2903 41.9381 58.2903 40.6568V40.5921H55.2216V39.903H62.2957V40.5921H59.2378V40.6568ZM63.1248 44.7591V45.4589H59.1624V48.8721H58.3334V45.4589H54.4033V44.7591H63.1248ZM72.6861 43.7469V44.4145H63.9216V43.7469H72.6861ZM71.5878 45.179V47.214H65.8381V48.1292H71.9001V48.7429H64.9875V46.6326H70.748V45.8143H64.9767V45.179H71.5878ZM71.5555 39.5908V41.572H65.9027V42.4118H71.7278V43.0255H65.0629V40.9905H70.7049V40.2045H65.0306V39.5908H71.5555ZM84.993 46.9663V47.6878H76.2285V46.9663H80.1585V44.7591H77.0253V44.0807H78.5219V40.9367H77.0037V40.2368H84.1532V40.9367H82.635V44.0807H84.1316V44.7591H80.9876V46.9663H84.993ZM79.3618 44.0807H81.8059V40.9367H79.3618V44.0807ZM93.2407 39.3001V41.8519H94.6835V42.5733H93.2407V45.0713H92.4009V39.3001H93.2407ZM93.2407 45.6204V48.7429H87.2003V45.6204H93.2407ZM88.0294 46.2988V48.0538H92.4009V46.2988H88.0294ZM91.4857 40.323V41.0228H85.779V40.323H88.2124V39.2247H89.0523V40.323H91.4857ZM88.6323 41.4966C90.0105 41.4966 90.9258 42.1749 90.9365 43.1978C90.9258 44.2422 90.0105 44.9098 88.6323 44.9098C87.2434 44.9098 86.3174 44.2422 86.3282 43.1978C86.3174 42.1749 87.2434 41.4966 88.6323 41.4966ZM88.6323 42.1534C87.7279 42.1534 87.1249 42.5733 87.1357 43.1978C87.1249 43.8546 87.7279 44.253 88.6323 44.2638C89.526 44.253 90.129 43.8546 90.1398 43.1978C90.129 42.5733 89.526 42.1534 88.6323 42.1534ZM102.77 39.3108V42.4656H104.213V43.1763H102.77V46.4818H101.93V39.3108H102.77ZM101.015 40.4845V41.1736H95.308V40.4845H97.7414V39.3108H98.5813V40.4845H101.015ZM98.1613 41.7012C99.5288 41.7012 100.455 42.401 100.466 43.4885C100.455 44.5653 99.5288 45.2544 98.1613 45.2544C96.7831 45.2544 95.8464 44.5653 95.8571 43.4885C95.8464 42.401 96.7831 41.7012 98.1613 41.7012ZM98.1613 42.3687C97.2569 42.3687 96.6539 42.8102 96.6647 43.4885C96.6539 44.1669 97.2569 44.5976 98.1613 44.5868C99.055 44.5976 99.658 44.1669 99.6687 43.4885C99.658 42.8102 99.055 42.3687 98.1613 42.3687ZM103.211 47.9569V48.6676H96.7831V45.9112H97.6122V47.9569H103.211ZM116.304 44.2638V44.9636H107.583V44.2638H111.523V43.0686H112.353V44.2638H116.304ZM112.353 39.2785V40.2368H115.421V40.9259H112.406C112.476 41.9865 113.995 42.7187 115.787 42.8856L115.529 43.5424C113.941 43.3755 112.525 42.8048 111.943 41.8411C111.357 42.8048 109.935 43.3755 108.358 43.5424L108.089 42.8856C109.881 42.7187 111.4 41.9865 111.48 40.9259H108.487V40.2368H111.523V39.2785H112.353ZM111.943 45.685C114.021 45.685 115.227 46.2449 115.238 47.2678C115.227 48.3015 114.021 48.8506 111.943 48.8506C109.865 48.8506 108.638 48.3015 108.638 47.2678C108.638 46.2449 109.865 45.685 111.943 45.685ZM111.943 46.3203C110.393 46.3203 109.488 46.6649 109.499 47.2678C109.488 47.8708 110.393 48.2046 111.943 48.1938C113.472 48.2046 114.388 47.8708 114.388 47.2678C114.388 46.6649 113.472 46.3203 111.943 46.3203ZM120.03 46.4065V45.6097L123.54 40.2045H124.735V45.5558H125.822V46.4065H124.735V48H123.809V46.4065H120.03ZM121.074 45.5558H123.809V41.432H123.712L121.074 45.4912V45.5558ZM130.183 42.2395C130.183 43.8654 131.367 45.5128 132.778 46.1265L132.304 46.7941C131.184 46.2826 130.215 45.179 129.774 43.8546C129.322 45.2597 128.358 46.4818 127.265 47.0309L126.759 46.3634C128.127 45.7066 129.322 43.8977 129.332 42.2395V40.9905H127.071V40.2907H132.466V40.9905H130.183V42.2395ZM134.651 39.3001V48.8721H133.801V39.3001H134.651ZM144.224 45.4697V48.8721H143.373V46.148H137.785V45.4697H144.224ZM144.224 39.3001V44.9421H143.373V43.5639H140.907C140.46 44.1076 139.755 44.4307 138.926 44.4253C137.494 44.436 136.439 43.4885 136.439 42.1319C136.439 40.7967 137.494 39.8492 138.926 39.8492C139.75 39.8492 140.455 40.1722 140.907 40.7106H143.373V39.3001H144.224ZM138.926 40.5706C137.946 40.5706 137.246 41.2274 137.246 42.1319C137.246 43.0686 137.946 43.7146 138.926 43.7146C139.863 43.7146 140.584 43.0686 140.584 42.1319C140.584 41.2274 139.863 40.5706 138.926 40.5706ZM141.284 42.864H143.373V41.4105H141.284C141.359 41.6366 141.403 41.8734 141.403 42.1319C141.403 42.3903 141.359 42.6379 141.284 42.864ZM153.709 39.3001V48.8937H152.859V39.3001H153.709ZM148.617 40.043C150.038 40.0538 151.061 41.3459 151.061 43.3809C151.061 45.4159 150.038 46.7079 148.617 46.7079C147.185 46.7079 146.172 45.4159 146.172 43.3809C146.172 41.3459 147.185 40.0538 148.617 40.043ZM148.617 40.7967C147.658 40.8075 146.991 41.8196 146.991 43.3809C146.991 44.9421 147.658 45.9542 148.617 45.9542C149.575 45.9542 150.242 44.9421 150.242 43.3809C150.242 41.8196 149.575 40.8075 148.617 40.7967ZM166.867 44.7591V45.4589H164.552V48.8721H163.701V45.4589H161.247V48.8721H160.374V45.4589H158.102V44.7591H166.867ZM162.463 39.6877C164.477 39.6877 165.833 40.4952 165.833 41.7765C165.833 43.0471 164.477 43.8546 162.463 43.8439C160.45 43.8546 159.093 43.0471 159.093 41.7765C159.093 40.4952 160.45 39.6877 162.463 39.6877ZM162.463 40.3768C160.967 40.3768 159.954 40.9259 159.965 41.7765C159.954 42.6272 160.967 43.1655 162.463 43.1655C163.949 43.1655 164.972 42.6272 164.972 41.7765C164.972 40.9259 163.949 40.3768 162.463 40.3768ZM175.535 39.3001V48.8721H174.684V39.3001H175.535ZM171.174 42.4226C171.174 44.0269 172.294 45.5774 173.737 46.1911L173.263 46.8479C172.159 46.358 171.222 45.319 170.776 44.0484C170.345 45.3943 169.413 46.498 168.31 47.0202L167.836 46.3634C169.257 45.7173 170.345 44.1023 170.345 42.4226V41.6581H168.094V40.969H170.334V39.4831H171.174V40.969H173.403V41.6581H171.174V42.4226ZM185.074 39.3108V46.3311H184.235V39.3108H185.074ZM185.376 47.9569V48.6676H178.894V45.685H179.734V47.9569H185.376ZM180.563 40.8075C180.552 42.2611 181.554 43.5747 182.975 44.0915L182.533 44.7698C181.424 44.3445 180.563 43.4831 180.143 42.3795C179.718 43.5531 178.846 44.4953 177.731 44.9421L177.268 44.2853C178.722 43.7254 179.702 42.3149 179.702 40.8075V39.8492H180.563V40.8075ZM189.963 41.3566C189.963 42.5518 190.996 43.6177 192.407 44.0377L191.998 44.6945C190.889 44.3661 190 43.6393 189.575 42.6918C189.155 43.7416 188.283 44.5653 187.142 44.9421L186.733 44.2961C188.143 43.8223 189.134 42.6595 189.134 41.3566V41.152H186.969V40.4737H189.134V39.257H189.984V40.4737H192.127V41.152H189.963V41.3566ZM194.636 39.3001V45.1036H193.785V42.7456H191.825V42.0457H193.785V39.3001H194.636ZM191.459 45.362C193.451 45.362 194.668 45.9865 194.668 47.1063C194.668 48.2153 193.451 48.8506 191.459 48.8506C189.467 48.8506 188.251 48.2153 188.251 47.1063C188.251 45.9865 189.467 45.362 191.459 45.362ZM191.459 46.0188C189.995 46.0296 189.08 46.428 189.091 47.1063C189.08 47.7739 189.995 48.183 191.459 48.183C192.934 48.183 193.828 47.7739 193.828 47.1063C193.828 46.428 192.934 46.0296 191.459 46.0188ZM199.599 41.8734C199.599 43.607 200.708 45.3513 202.097 45.9865L201.591 46.6756C200.504 46.1157 199.605 44.969 199.179 43.607C198.754 45.039 197.855 46.2665 196.768 46.8479L196.218 46.1696C197.618 45.4805 198.738 43.6393 198.738 41.8734V40.1292H199.599V41.8734ZM204.165 39.3001V48.8937H203.325V43.2624H201.053V42.5733H203.325V39.3001H204.165ZM214.512 43.7469V44.4145H205.747V43.7469H214.512ZM213.414 45.179V47.214H207.664V48.1292H213.726V48.7429H206.813V46.6326H212.574V45.8143H206.803V45.179H213.414ZM213.381 39.5908V41.572H207.729V42.4118H213.554V43.0255H206.889V40.9905H212.531V40.2045H206.856V39.5908H213.381ZM226.237 39.3001V48.8721H225.43V39.3001H226.237ZM224.299 39.537V48.3769H223.503V43.4455H221.888V42.7564H223.503V39.537H224.299ZM220.865 42.035C220.865 43.6931 221.608 45.3405 222.932 46.105L222.415 46.7295C221.473 46.1642 220.805 45.1305 220.477 43.9085C220.127 45.2274 219.433 46.3526 218.474 46.9556L217.936 46.3203C219.271 45.5235 220.046 43.7792 220.046 42.035V41.1305H218.205V40.4306H222.62V41.1305H220.865V42.035ZM236.305 43.5639V44.2207H232.353V45.1144H235.185V47.1817H229.5V48.1184H235.476V48.7645H228.66V46.5787H234.356V45.7496H228.639V45.1144H231.524V44.2207H227.594V43.5639H236.305ZM232.353 39.2462V40.1399H235.422V40.8075H232.418C232.574 41.7604 234.071 42.3634 235.831 42.4764L235.573 43.1224C233.974 42.9879 232.531 42.4926 231.944 41.5827C231.357 42.4926 229.915 42.9879 228.305 43.1224L228.057 42.4764C229.807 42.3634 231.303 41.7604 231.47 40.8075H228.488V40.1399H231.524V39.2462H232.353ZM244.52 39.3001V43.2517H246.125V43.9515H244.52V48.8721H243.68V39.3001H244.52ZM242.754 40.8398V41.5397H237.059V40.8398H239.524V39.4185H240.364V40.8398H242.754ZM239.955 42.3364C241.312 42.3364 242.291 43.2409 242.302 44.533C242.291 45.825 241.312 46.7295 239.955 46.7295C238.588 46.7295 237.597 45.825 237.608 44.533C237.597 43.2409 238.588 42.3364 239.955 42.3364ZM239.955 43.0471C239.061 43.0471 238.404 43.6716 238.415 44.533C238.404 45.4051 239.061 46.0188 239.955 46.0081C240.838 46.0188 241.484 45.4051 241.495 44.533C241.484 43.6716 240.838 43.0471 239.955 43.0471ZM249.936 45.7281C249.936 46.5841 250.388 47.4886 251.304 48C252.219 47.4401 252.693 46.4657 252.693 45.7281V45.0713H253.522V45.7281C253.522 46.7079 254.232 47.7093 255.481 48.1184L255.04 48.7645C254.092 48.4145 253.425 47.747 253.102 46.9448C252.8 47.7254 252.213 48.463 251.314 48.8398C250.394 48.4899 249.807 47.7847 249.516 46.9771C249.172 47.7524 248.515 48.4145 247.6 48.7645L247.18 48.1184C248.396 47.6878 249.118 46.6541 249.129 45.7281V45.0713H249.936V45.7281ZM249.279 39.8277C250.082 39.8277 250.771 40.1345 251.217 40.646H253.726V39.3001H254.577V44.7698H253.726V43.4993H251.239C250.792 44.0269 250.098 44.3391 249.279 44.3391C247.847 44.3391 246.803 43.4132 246.803 42.0888C246.803 40.7644 247.847 39.8277 249.279 39.8277ZM249.279 40.5491C248.321 40.5491 247.61 41.1951 247.621 42.0888C247.61 42.9932 248.321 43.6177 249.279 43.6285C250.216 43.6177 250.927 42.9932 250.927 42.0888C250.927 41.1951 250.216 40.5491 249.279 40.5491ZM251.616 41.3351C251.697 41.5666 251.745 41.8196 251.745 42.0888C251.745 42.3418 251.702 42.5787 251.637 42.7994H253.726V41.3351H251.616ZM263.847 40.2691V41.2274C263.837 42.401 263.837 43.7146 263.492 45.642L262.631 45.5451C262.997 43.7146 262.997 42.3687 262.997 41.2274V40.969H257.096V40.2691H263.847ZM264.892 46.8156V47.5155H256.17V46.8156H259.594V43.3916H260.423V46.8156H264.892ZM267.271 47.2786L266.432 50.2073H265.635L266.227 47.2786H267.271Z" fill="#121212"/>
</svg>
