<svg width="397" height="534" viewBox="0 0 397 534" fill="none" xmlns="http://www.w3.org/2000/svg">
<rect width="397" height="534" fill="white"/>
<path d="M89.1107 255.587V256.637C89.1107 257.958 89.1107 259.457 88.7213 261.734L87.7773 261.64C88.2021 259.492 88.2021 257.923 88.2021 256.637V256.354H81.8772V255.587H89.1107ZM90.3969 262.643V263.41H80.8388V262.643H90.3969ZM99.9432 254.465V264.979H99.0228V254.465H99.9432ZM96.7572 255.445V259.174H92.8396V261.652C94.5801 261.652 96.1318 261.575 98.008 261.274L98.1024 262.053C96.1672 262.36 94.5742 262.431 92.7688 262.431H91.8955V258.419H95.825V256.212H91.8719V255.445H96.7572ZM110.139 255.528V256.578C110.127 257.864 110.127 259.304 109.749 261.416L108.805 261.31C109.206 259.304 109.206 257.829 109.206 256.578V256.295H102.74V255.528H110.139ZM111.283 262.702V263.469H101.725V262.702H105.477V258.95H106.386V262.702H111.283ZM120.475 255.528V262.289H115.637V255.528H120.475ZM116.534 256.271V261.534H119.555V256.271H116.534ZM123.319 254.465V258.655H125.078V259.457H123.319V264.956H122.399V254.465H123.319ZM129.455 256.601C129.455 257.935 130.6 259.115 132.169 259.563L131.733 260.295C130.494 259.923 129.497 259.115 129.019 258.065C128.547 259.215 127.556 260.106 126.305 260.519L125.856 259.799C127.414 259.292 128.535 258.029 128.535 256.601V256.46H126.116V255.716H128.535V254.418H129.467V255.716H131.863V256.46H129.455V256.601ZM134.305 254.477V260.696H133.385V254.477H134.305ZM134.305 261.227V264.814H127.485V261.227H134.305ZM128.393 261.982V264.059H133.397V261.982H128.393ZM145.043 254.465V264.956H144.135V259.528H142.624V264.413H141.751V254.701H142.624V258.737H144.135V254.465H145.043ZM137.538 255.752V261.416C138.583 261.404 139.692 261.333 140.972 261.074L141.09 261.9C139.627 262.159 138.423 262.242 137.267 262.242H136.618V255.752H137.538ZM149.94 264L149.929 263.221L152.843 260.153C153.858 259.079 154.342 258.501 154.342 257.711C154.342 256.837 153.598 256.259 152.643 256.259C151.628 256.259 150.979 256.908 150.979 257.864H149.976C149.964 256.354 151.132 255.339 152.678 255.339C154.224 255.339 155.333 256.377 155.333 257.711C155.333 258.666 154.885 259.41 153.374 260.967L151.415 262.985V263.056H155.486V264H149.94ZM159.829 264.118C157.929 264.118 156.843 262.525 156.843 259.728C156.843 256.955 157.953 255.339 159.829 255.339C161.705 255.339 162.814 256.955 162.814 259.728C162.814 262.525 161.717 264.118 159.829 264.118ZM159.829 263.174C161.056 263.174 161.776 261.935 161.776 259.728C161.776 257.522 161.056 256.259 159.829 256.259C158.602 256.259 157.87 257.522 157.87 259.728C157.87 261.935 158.59 263.174 159.829 263.174ZM167.027 264.118C165.127 264.118 164.042 262.525 164.042 259.728C164.042 256.955 165.151 255.339 167.027 255.339C168.903 255.339 170.012 256.955 170.012 259.728C170.012 262.525 168.915 264.118 167.027 264.118ZM167.027 263.174C168.254 263.174 168.974 261.935 168.974 259.728C168.974 257.522 168.254 256.259 167.027 256.259C165.8 256.259 165.068 257.522 165.068 259.728C165.068 261.935 165.788 263.174 167.027 263.174ZM174.213 264.118C172.667 264.118 171.499 263.162 171.44 261.852H172.467C172.549 262.619 173.293 263.186 174.213 263.186C175.322 263.186 176.125 262.372 176.125 261.298C176.125 260.189 175.287 259.374 174.142 259.363C173.423 259.351 172.868 259.575 172.549 260.13H171.523L172.125 255.457H176.75V256.401H173.01L172.691 258.902H172.774C173.151 258.607 173.729 258.407 174.331 258.407C175.96 258.407 177.163 259.61 177.163 261.274C177.163 262.926 175.912 264.118 174.213 264.118ZM186.957 254.477V262.242H186.025V258.607H183.004V257.864H186.025V256.601H183.004V255.858H186.025V254.477H186.957ZM187.241 263.953V264.732H180.196V261.581H181.128V263.953H187.241ZM179.818 255.233V259.894C181.264 259.888 182.656 259.811 184.255 259.516L184.35 260.283C182.639 260.602 181.211 260.672 179.677 260.684H178.886V255.233H179.818ZM195.135 255.457V264H194.061V256.566H194.014L191.937 257.947V256.873L194.061 255.457H195.135ZM200.433 255.457V264H199.359V256.566H199.312L197.235 257.947V256.873L199.359 255.457H200.433ZM210.982 254.477V260.661H210.05V260.082H207.926V259.469H210.05V254.477H210.982ZM202.298 258.43C204.327 258.442 206.923 258.419 209.189 258.171L209.248 258.773C208.221 258.92 207.153 259.009 206.109 259.056V260.696H205.2V259.091C204.209 259.127 203.259 259.132 202.404 259.127L202.298 258.43ZM210.982 261.038V263.209H204.858V264.153H211.325V264.838H203.95V262.56H210.062V261.711H203.902V261.038H210.982ZM205.72 254.678C207.277 254.678 208.316 255.292 208.327 256.259C208.316 257.239 207.277 257.829 205.72 257.829C204.138 257.829 203.112 257.239 203.112 256.259C203.112 255.292 204.138 254.678 205.72 254.678ZM205.72 255.327C204.658 255.327 203.973 255.693 203.985 256.259C203.973 256.814 204.658 257.191 205.72 257.191C206.77 257.191 207.454 256.814 207.454 256.259C207.454 255.693 206.77 255.327 205.72 255.327ZM216.186 264L216.175 263.221L219.089 260.153C220.104 259.079 220.588 258.501 220.588 257.711C220.588 256.837 219.844 256.259 218.889 256.259C217.874 256.259 217.225 256.908 217.225 257.864H216.222C216.21 256.354 217.378 255.339 218.924 255.339C220.47 255.339 221.579 256.377 221.579 257.711C221.579 258.666 221.131 259.41 219.62 260.967L217.661 262.985V263.056H221.732V264H216.186ZM225.874 254.855C227.444 254.867 228.588 255.811 228.588 257.18C228.588 258.548 227.444 259.492 225.874 259.492C224.281 259.492 223.148 258.548 223.148 257.18C223.148 255.811 224.281 254.867 225.874 254.855ZM225.874 255.634C224.824 255.634 224.045 256.271 224.057 257.18C224.045 258.1 224.824 258.737 225.874 258.737C226.913 258.737 227.691 258.1 227.691 257.18C227.691 256.271 226.913 255.634 225.874 255.634ZM231.562 254.465V259.858H230.641V254.465H231.562ZM231.562 260.366V262.891H225.674V264.071H231.94V264.814H224.765V262.195H230.641V261.109H224.741V260.366H231.562ZM241.675 255.952C241.663 257.357 243.539 258.548 245.368 258.82L245.026 259.551C243.386 259.274 241.793 258.401 241.155 257.132C240.518 258.401 238.919 259.274 237.309 259.551L236.943 258.82C238.76 258.548 240.636 257.357 240.636 255.952V255.882H237.273V255.126H245.026V255.882H241.675V255.952ZM245.934 260.448V261.215H241.592V264.956H240.683V261.215H236.376V260.448H245.934ZM252.295 255.386V260.248H247.374V255.386H252.295ZM248.283 256.153V259.504H251.386V256.153H248.283ZM255.481 254.477V262.018H254.56V254.477H255.481ZM255.811 263.835V264.602H248.707V261.286H249.628V263.835H255.811ZM266.856 260.826V261.593H262.49V264.956H261.581V261.593H257.251V260.826H266.856ZM265.77 258.985V259.74H258.537V254.961H265.652V255.716H259.457V256.944H265.405V257.687H259.457V258.985H265.77ZM277.311 262.903V263.67H267.706V262.903H270.384V260.401H268.579V259.634H270.219V256.212H268.555V255.445H276.391V256.212H274.727V259.634H276.367V260.401H274.562V262.903H277.311ZM271.14 259.634H273.818V256.212H271.14V259.634ZM271.317 262.903H273.641V260.401H271.317V262.903ZM287.742 259.339V260.071H278.137V259.339H287.742ZM286.539 260.908V263.139H280.237V264.142H286.881V264.814H279.305V262.501H285.618V261.605H279.293V260.908H286.539ZM286.503 254.784V256.955H280.308V257.876H286.692V258.548H279.388V256.318H285.571V255.457H279.352V254.784H286.503ZM301.183 260.035V260.79H291.613V260.035H295.932V258.997H292.887V254.772H299.991V255.528H293.819V256.507H299.708V257.215H293.819V258.253H300.05V258.997H296.852V260.035H301.183ZM296.404 261.581C298.705 261.569 300.003 262.159 300.014 263.257C300.003 264.354 298.705 264.932 296.404 264.932C294.079 264.932 292.781 264.354 292.781 263.257C292.781 262.159 294.079 261.569 296.404 261.581ZM296.404 262.277C294.669 262.277 293.701 262.631 293.713 263.257C293.701 263.894 294.669 264.224 296.404 264.212C298.115 264.224 299.082 263.894 299.082 263.257C299.082 262.631 298.115 262.277 296.404 262.277ZM307.307 256.283V257.038H302.044V256.283H304.227V254.784H305.148V256.283H307.307ZM304.676 257.746C305.997 257.746 306.941 258.737 306.953 260.13C306.941 261.534 305.997 262.537 304.676 262.537C303.366 262.537 302.422 261.534 302.422 260.13C302.422 258.737 303.366 257.746 304.676 257.746ZM304.676 258.525C303.849 258.537 303.248 259.209 303.248 260.13C303.248 261.062 303.849 261.734 304.676 261.723C305.513 261.734 306.127 261.062 306.127 260.13C306.127 259.209 305.513 258.537 304.676 258.525ZM311 254.465V264.956H310.115V259.658H308.723V264.437H307.85V254.725H308.723V258.891H310.115V254.465H311ZM91.1403 273.221V274.436H86.9867V275.227C88.857 275.369 89.9603 276.041 89.9721 277.15C89.9603 278.389 88.5561 279.086 86.2315 279.086C83.8714 279.086 82.4672 278.389 82.4672 277.15C82.4672 276.035 83.5823 275.363 85.4881 275.227V274.436H81.3462V273.221H91.1403ZM86.2315 276.336C84.7447 276.348 83.9895 276.608 84.0013 277.15C83.9895 277.67 84.7447 277.953 86.2315 277.953C87.6829 277.953 88.4499 277.67 88.4617 277.15C88.4499 276.608 87.6829 276.348 86.2315 276.336ZM90.2553 268.808V269.988H87.3407C87.5944 270.743 88.6859 271.469 90.7273 271.64L90.1963 272.82C88.1726 272.625 86.8038 271.858 86.2315 270.814C85.6651 271.858 84.3199 272.625 82.2784 272.82L81.7828 271.64C83.7711 271.469 84.8686 270.737 85.1459 269.988H82.243V268.808H90.2553ZM100.864 268.347V279.109H99.3532V273.315H97.4298V272.088H99.3532V268.347H100.864ZM95.8486 271.038C95.8486 272.926 96.71 274.897 98.5272 275.675L97.6422 276.867C96.3973 276.283 95.5536 275.156 95.0934 273.787C94.6273 275.251 93.7718 276.472 92.5209 277.091L91.6241 275.9C93.4296 275.074 94.3028 273.032 94.3028 271.038V270.59H92.0725V269.386H98.0788V270.59H95.8486V271.038ZM111.142 268.808V269.988H108.18C108.357 270.873 109.466 271.77 111.59 272.006L111.035 273.186C109.023 272.961 107.678 272.124 107.118 271.014C106.551 272.118 105.218 272.961 103.212 273.186L102.669 272.006C104.793 271.77 105.89 270.861 106.067 269.988H103.129V268.808H111.142ZM112.05 273.693V274.897H108.003V276.749H106.516V274.897H102.221V273.693H112.05ZM110.965 277.693V278.897H103.377V275.793H104.876V277.693H110.965ZM116.18 268.796C117.82 268.784 119.012 269.716 119.012 271.073C119.012 272.419 117.82 273.363 116.18 273.351C114.54 273.363 113.348 272.419 113.36 271.073C113.348 269.716 114.54 268.784 116.18 268.796ZM116.18 270C115.378 270 114.811 270.389 114.811 271.073C114.811 271.746 115.378 272.135 116.18 272.124C117.006 272.135 117.584 271.746 117.584 271.073C117.584 270.389 117.006 270 116.18 270ZM121.726 268.359V279.086H120.239V268.359H121.726ZM112.699 274.012C114.599 274.012 117.301 273.964 119.59 273.622L119.685 274.731C118.8 274.908 117.891 275.02 116.994 275.085V278.767H115.496V275.18C114.552 275.221 113.661 275.227 112.888 275.239L112.699 274.012ZM128.122 274.92C130.352 274.92 131.745 275.687 131.745 276.997C131.745 278.33 130.352 279.097 128.122 279.097C125.845 279.097 124.44 278.33 124.44 276.997C124.44 275.687 125.845 274.92 128.122 274.92ZM128.122 276.088C126.706 276.088 125.939 276.383 125.951 276.997C125.939 277.611 126.706 277.929 128.122 277.929C129.514 277.929 130.258 277.611 130.258 276.997C130.258 276.383 129.514 276.088 128.122 276.088ZM131.638 268.347V270.837H133.09V272.1H131.638V274.684H130.128V268.347H131.638ZM124.936 269.02V270.377H127.131V269.02H128.641V274.071H123.437V269.02H124.936ZM124.936 272.879H127.131V271.545H124.936V272.879ZM142.955 268.347V279.086H141.503V268.347H142.955ZM140.783 268.56V278.578H139.379V274.672H138.329V273.445H139.379V272.537H138.329V271.309H139.379V268.56H140.783ZM138.565 269.539V270.755H137.881V275.31C138.176 275.286 138.459 275.256 138.718 275.227L138.825 276.348C137.184 276.631 134.99 276.678 133.609 276.678L133.444 275.439L134.341 275.428V270.755H133.644V269.539H138.565ZM135.674 275.416L136.524 275.38V270.755H135.674V275.416ZM153.799 272.607V273.799H149.645V274.484H152.607V277.233H146.625V277.882H152.89V279.015H145.15V276.171H151.12V275.616H145.138V274.484H148.135V273.799H144.005V272.607H153.799ZM152.56 268.654V272.041H145.22V268.654H152.56ZM146.695 269.823V270.885H151.061V269.823H146.695ZM166.307 268.347V279.109H164.797V273.681H162.862V272.478H164.797V268.347H166.307ZM161.257 271.711C161.257 273.268 162.106 275.003 163.865 275.758L163.062 276.914C161.841 276.407 160.991 275.38 160.525 274.153C160.053 275.457 159.209 276.554 157.976 277.08L157.186 275.923C158.908 275.156 159.746 273.327 159.758 271.711V271.298H157.528V270.094H159.758V268.583H161.269V270.094H163.44V271.298H161.257V271.711ZM177.494 273.858V275.038H173.446V276.773H171.959V275.038H167.664V273.858H177.494ZM176.408 277.693V278.897H168.821V275.923H170.307V277.693H176.408ZM170.414 268.69V269.811H174.721V268.69H176.219V273.103H168.927V268.69H170.414ZM170.414 271.911H174.721V270.932H170.414V271.911ZM182.296 270.778C182.296 272.749 183.193 274.731 185.01 275.498L184.125 276.702C182.898 276.147 182.049 275.079 181.565 273.752C181.075 275.197 180.196 276.366 178.886 276.962L177.977 275.711C179.854 274.92 180.762 272.867 180.774 270.778V269.174H182.296V270.778ZM187.111 268.347V279.109H185.589V268.347H187.111ZM197.613 268.347V273.811H196.114V271.144H194.096V269.952H196.114V268.347H197.613ZM197.613 274.259V277.127H191.972V277.788H197.92V278.968H190.486V276.029H196.126V275.416H190.474V274.259H197.613ZM192.586 269.48C192.574 270.767 193.329 272.006 195.04 272.513L194.25 273.669C193.099 273.298 192.297 272.578 191.831 271.652C191.365 272.684 190.515 273.498 189.258 273.894L188.48 272.702C190.261 272.183 191.052 270.873 191.064 269.48V268.701H192.586V269.48ZM211.608 274.543V275.723H207.407V279.086H205.92V275.723H201.778V274.543H211.608ZM204.422 268.76V270H208.929V268.76H210.44V273.504H202.935V268.76H204.422ZM204.422 272.301H208.929V271.18H204.422V272.301ZM216.399 271.274C216.399 273.009 217.284 274.861 219.089 275.616L218.275 276.796C217.006 276.259 216.133 275.192 215.655 273.882C215.166 275.304 214.275 276.484 213.012 277.068L212.151 275.876C213.932 275.085 214.853 273.091 214.853 271.274V270.613H212.575V269.386H218.641V270.613H216.399V271.274ZM221.225 268.347V279.086H219.703V268.347H221.225ZM231.149 268.347V272.466H232.671V273.705H231.149V279.062H229.638V268.347H231.149ZM228.281 269.445C228.27 272.655 227.019 275.439 223.408 277.209L222.558 276.053C225.101 274.779 226.464 273.068 226.747 270.672H223.172V269.445H228.281ZM244.955 268.359V274.543H243.456V273.492H241.037V272.289H243.456V271.262H241.144C240.477 272.961 238.955 274.13 236.589 274.779L235.999 273.587C238.471 272.938 239.68 271.758 239.893 270.283H236.577V269.079H241.533C241.533 269.427 241.509 269.764 241.462 270.082H243.456V268.359H244.955ZM241.38 274.672C243.563 274.672 245.026 275.51 245.038 276.844C245.026 278.189 243.563 279.038 241.38 279.038C239.173 279.038 237.698 278.189 237.71 276.844C237.698 275.51 239.173 274.672 241.38 274.672ZM241.38 275.852C240.023 275.841 239.208 276.183 239.208 276.844C239.208 277.504 240.023 277.847 241.38 277.847C242.713 277.847 243.527 277.504 243.527 276.844C243.527 276.183 242.713 275.841 241.38 275.852ZM256.142 274.271V275.475H251.964V279.086H250.478V275.475H246.347V274.271H256.142ZM255.268 268.914V270.094H252.141C252.289 271.144 253.475 272.2 255.681 272.466L255.139 273.646C253.251 273.392 251.899 272.584 251.256 271.475C250.596 272.584 249.256 273.392 247.386 273.646L246.831 272.466C249.002 272.2 250.2 271.144 250.371 270.094H247.232V268.914H255.268ZM266.62 276.655V277.894H256.791V276.655H260.932V275.038H257.923V271.427H264V270.247H257.912V269.044H265.487V272.607H259.434V273.811H265.735V275.038H262.431V276.655H266.62ZM278.609 268.359V271.427H279.978V272.666H278.609V275.652H277.099V268.359H278.609ZM269.901 274.271C270.685 274.271 271.582 274.271 272.508 274.248V273.646C271.34 273.481 270.609 272.914 270.62 272.088C270.609 271.097 271.659 270.483 273.252 270.483C274.833 270.483 275.871 271.097 275.883 272.088C275.871 272.914 275.157 273.475 274.007 273.634V274.189C274.892 274.153 275.771 274.082 276.603 273.976L276.709 275.015C274.444 275.416 271.954 275.439 270.054 275.439L269.901 274.271ZM278.609 276.088V279.086H277.099V277.245H271.269V276.088H278.609ZM276.332 269.138V270.236H270.184V269.138H272.508V268.265H274.007V269.138H276.332ZM273.252 271.486C272.485 271.486 272.048 271.675 272.06 272.088C272.048 272.478 272.485 272.702 273.252 272.702C274.007 272.702 274.432 272.478 274.444 272.088C274.432 271.675 274.007 271.486 273.252 271.486ZM289.512 268.347V274.72H288.014V272.183H286.338V270.967H288.014V268.347H289.512ZM285.842 274.956C288.132 274.967 289.536 275.723 289.548 277.032C289.536 278.33 288.132 279.097 285.842 279.097C283.553 279.097 282.149 278.33 282.149 277.032C282.149 275.723 283.553 274.967 285.842 274.956ZM285.842 276.112C284.415 276.112 283.648 276.407 283.648 277.032C283.648 277.646 284.415 277.953 285.842 277.953C287.27 277.953 288.049 277.646 288.049 277.032C288.049 276.407 287.27 276.112 285.842 276.112ZM286.657 268.997V270.2H284.521C284.556 271.451 285.311 272.714 286.987 273.268L286.244 274.448C285.058 274.065 284.244 273.286 283.777 272.312C283.3 273.41 282.444 274.295 281.17 274.731L280.391 273.54C282.155 272.95 282.946 271.545 282.987 270.2H280.827V268.997H286.657ZM297.3 272.714V273.917H295.212V275.675C296.097 275.646 296.982 275.587 297.82 275.498L297.938 276.596C295.589 276.962 293.147 276.973 291.129 276.973L290.952 275.746C291.807 275.752 292.74 275.752 293.701 275.723V273.917H291.66V269.303H297.241V270.495H293.159V272.714H297.3ZM299.932 268.347V279.109H298.433V268.347H299.932ZM304.31 269.103C305.761 269.103 306.841 270.3 307.059 272.23H308.924V268.347H310.41V279.109H308.924V273.433H307.071C306.912 275.498 305.808 276.761 304.31 276.761C302.681 276.761 301.513 275.286 301.525 272.926C301.513 270.59 302.681 269.103 304.31 269.103ZM304.31 270.46C303.507 270.46 302.953 271.333 302.964 272.926C302.953 274.531 303.507 275.392 304.31 275.392C305.124 275.392 305.655 274.531 305.655 272.926C305.655 271.333 305.124 270.46 304.31 270.46Z" fill="#121212"/>
</svg>
