<svg width="223" height="97" viewBox="0 0 223 97" fill="none" xmlns="http://www.w3.org/2000/svg">
<path d="M49.4375 1.66992C49.4326 2.25098 50.209 2.74414 50.9658 2.85645L50.8242 3.15918C50.1455 3.04443 49.4863 2.68311 49.2227 2.1582C48.959 2.68311 48.2974 3.04443 47.6309 3.15918L47.4795 2.85645C48.2314 2.74414 49.0078 2.25098 49.0078 1.66992V1.64062H47.6162V1.32812H50.8242V1.64062H49.4375V1.66992ZM51.2002 3.53027V3.84766H49.4033V5.39551H49.0273V3.84766H47.2451V3.53027H51.2002ZM53.832 1.43555V3.44727H51.7959V1.43555H53.832ZM52.1719 1.75293V3.13965H53.4561V1.75293H52.1719ZM55.1504 1.05957V4.17969H54.7695V1.05957H55.1504ZM55.2871 4.93164V5.24902H52.3477V3.87695H52.7285V4.93164H55.2871ZM59.8574 3.68652V4.00391H58.0508V5.39551H57.6748V4.00391H55.8828V3.68652H59.8574ZM59.4082 2.9248V3.2373H56.415V1.25977H59.3594V1.57227H56.7959V2.08008H59.2568V2.3877H56.7959V2.9248H59.4082ZM64.1836 4.5459V4.86328H60.209V4.5459H61.3174V3.51074H60.5703V3.19336H61.249V1.77734H60.5605V1.45996H63.8027V1.77734H63.1143V3.19336H63.793V3.51074H63.0459V4.5459H64.1836ZM61.6299 3.19336H62.7383V1.77734H61.6299V3.19336ZM61.7031 4.5459H62.665V3.51074H61.7031V4.5459ZM68.5 3.07129V3.37402H64.5254V3.07129H68.5ZM68.002 3.7207V4.64355H65.3945V5.05859H68.1436V5.33691H65.0088V4.37988H67.6211V4.00879H65.0039V3.7207H68.002ZM67.9873 1.18652V2.08496H65.4238V2.46582H68.0654V2.74414H65.043V1.82129H67.6016V1.46484H65.0283V1.18652H67.9873ZM71.6494 2.22168C71.6445 3.0127 72.1865 3.81348 72.8262 4.10156L72.5918 4.4043C72.0986 4.1626 71.6714 3.65234 71.4639 3.03223C71.2612 3.68896 70.834 4.23584 70.3262 4.49219L70.082 4.16992C70.7266 3.87207 71.2637 3.04688 71.2686 2.22168V1.43066H71.6494V2.22168ZM73.6855 1.05469V5.40527H73.2998V1.05469H73.6855ZM78.1143 1.05469V3.80371H77.748V2.55859H77.167V3.64746H76.8057V1.14258H77.167V2.24121H77.748V1.05469H78.1143ZM76.6299 1.57715V1.88477H74.4033V1.57715H75.3311V1.08887H75.7119V1.57715H76.6299ZM75.5215 2.11914C76.0732 2.11914 76.4492 2.40723 76.4541 2.86133C76.4492 3.30566 76.0732 3.59863 75.5215 3.59863C74.9746 3.59863 74.5889 3.30566 74.5938 2.86133C74.5889 2.40723 74.9746 2.11914 75.5215 2.11914ZM75.5215 2.40234C75.1748 2.40234 74.9355 2.58789 74.9355 2.86133C74.9355 3.12988 75.1748 3.31055 75.5215 3.31055C75.8682 3.31055 76.1074 3.12988 76.1074 2.86133C76.1074 2.58789 75.8682 2.40234 75.5215 2.40234ZM76.6787 3.87695C77.5918 3.87695 78.1387 4.15039 78.1387 4.63867C78.1387 5.1123 77.5918 5.38574 76.6787 5.38574C75.7656 5.38574 75.2188 5.1123 75.2236 4.63867C75.2188 4.15039 75.7656 3.87695 76.6787 3.87695ZM76.6787 4.17969C76.0049 4.1748 75.5996 4.34082 75.6045 4.63867C75.5996 4.92188 76.0049 5.08789 76.6787 5.08789C77.3525 5.08789 77.7529 4.92188 77.7578 4.63867C77.7529 4.34082 77.3525 4.1748 76.6787 4.17969ZM82.1084 1.05469V2.84668H82.8359V3.16406H82.1084V5.39551H81.7275V1.05469H82.1084ZM81.3076 1.75293V2.07031H78.7246V1.75293H79.8428V1.1084H80.2236V1.75293H81.3076ZM80.0381 2.43164C80.6533 2.43164 81.0977 2.8418 81.1025 3.42773C81.0977 4.01367 80.6533 4.42383 80.0381 4.42383C79.418 4.42383 78.9688 4.01367 78.9736 3.42773C78.9688 2.8418 79.418 2.43164 80.0381 2.43164ZM80.0381 2.75391C79.6328 2.75391 79.335 3.03711 79.3398 3.42773C79.335 3.82324 79.6328 4.10156 80.0381 4.09668C80.4385 4.10156 80.7314 3.82324 80.7363 3.42773C80.7314 3.03711 80.4385 2.75391 80.0381 2.75391ZM84.2373 1.3916C84.6353 1.39404 84.9575 1.62598 85.1455 2.02637H86.2881V1.05469H86.6689V5.40527H86.2881V3.7207H85.1748C84.9917 4.16016 84.6572 4.41406 84.2373 4.41406C83.5977 4.41406 83.1484 3.82812 83.1484 2.90527C83.1484 1.98242 83.5977 1.39648 84.2373 1.3916ZM84.2373 1.7334C83.8076 1.73828 83.5146 2.19727 83.5146 2.90527C83.5146 3.61328 83.8076 4.07227 84.2373 4.07227C84.6621 4.07227 84.96 3.61328 84.96 2.90527C84.96 2.19727 84.6621 1.73828 84.2373 1.7334ZM85.2578 2.34863C85.2969 2.51709 85.3213 2.70264 85.3213 2.90527C85.3213 3.0835 85.3018 3.25195 85.2725 3.40332H86.2881V2.34863H85.2578ZM90.292 3.34473V4.14062C90.7095 4.12354 91.1367 4.08691 91.5371 4.02832L91.5664 4.31152C90.5752 4.49219 89.5059 4.49707 88.7246 4.49707L88.6709 4.17969C89.0347 4.17725 89.4644 4.1748 89.916 4.16016V3.34473H90.292ZM91.3125 1.62598V1.94336H90.292C90.3018 2.50488 90.7681 2.96143 91.4102 3.14453L91.2295 3.44727C90.707 3.29102 90.2993 2.95654 90.1064 2.51465C89.916 2.98096 89.5107 3.32764 88.9883 3.48633L88.8027 3.19336C89.4448 3.00537 89.8965 2.5293 89.9062 1.94336H88.9102V1.62598H89.916V1.08887H90.292V1.62598H91.3125ZM92.2061 1.05469V5.40527H91.8252V1.05469H92.2061ZM95.1309 2.59766V3.21777H96.9229V3.53516H92.9678V3.21777H94.7549V2.59766H95.1309ZM94.9453 3.8916C95.8779 3.8916 96.4346 4.15527 96.4395 4.63867C96.4346 5.12207 95.8779 5.38574 94.9453 5.38574C94.0029 5.38574 93.4463 5.12207 93.4463 4.63867C93.4463 4.15527 94.0029 3.8916 94.9453 3.8916ZM94.9453 4.19434C94.2422 4.19434 93.832 4.35547 93.8369 4.63867C93.832 4.92188 94.2422 5.08789 94.9453 5.08789C95.6387 5.08789 96.0537 4.92188 96.0537 4.63867C96.0537 4.35547 95.6387 4.19434 94.9453 4.19434ZM96.5713 1.25977V1.57227H95.1943C95.2188 2.05566 95.9463 2.4292 96.7031 2.50977L96.5615 2.8125C95.8511 2.72705 95.1846 2.41699 94.9453 1.93359C94.7085 2.41699 94.0444 2.72705 93.3291 2.8125L93.1875 2.50977C93.9443 2.4292 94.667 2.06055 94.6963 1.57227H93.3291V1.25977H96.5713ZM98.7979 1.85547C98.7979 2.42188 99.2324 2.95898 99.8672 3.17871L99.667 3.48145C99.1763 3.30566 98.7979 2.94189 98.6123 2.49512C98.4243 2.99561 98.0239 3.396 97.5088 3.58398L97.3086 3.28125C97.9482 3.05176 98.4121 2.4707 98.4121 1.86035V1.66992H97.4307V1.35742H99.7695V1.66992H98.7979V1.85547ZM100.888 3.88672V5.39551H100.502V4.2041H97.9678V3.88672H100.888ZM100.888 1.05469V3.65723H100.502V2.51465H99.6328V2.19238H100.502V1.05469H100.888ZM103.588 1.33789C104.496 1.33789 105.175 1.81152 105.175 2.5293C105.175 3.25195 104.496 3.72559 103.588 3.7207C102.68 3.72559 102.001 3.25195 102.001 2.5293C102.001 1.81152 102.68 1.33789 103.588 1.33789ZM103.588 1.65039C102.89 1.64551 102.362 2.01172 102.367 2.5293C102.362 3.05664 102.89 3.4082 103.588 3.4082C104.281 3.4082 104.804 3.05664 104.804 2.5293C104.804 2.01172 104.281 1.64551 103.588 1.65039ZM105.585 4.49707V4.81934H101.61V4.49707H105.585ZM109.906 4.53613V4.8584H105.932V4.53613H107.719V3.71582H106.43V2.37793H109.027V1.69434H106.42V1.37695H109.403V2.69043H106.811V3.39844H109.506V3.71582H108.095V4.53613H109.906ZM115.106 1.05957V3.66699H114.721V3.08105H113.568V2.76367H114.721V2.17773H113.612C113.327 2.87598 112.655 3.38135 111.728 3.65723L111.566 3.35449C112.616 3.04199 113.268 2.45605 113.349 1.7041H111.786V1.38184H113.764C113.764 1.55273 113.744 1.71631 113.71 1.87012H114.721V1.05957H115.106ZM113.686 3.71094C114.564 3.71094 115.131 4.02344 115.131 4.54102C115.131 5.06348 114.564 5.37598 113.686 5.37598C112.797 5.37598 112.235 5.06348 112.235 4.54102C112.235 4.02344 112.797 3.71094 113.686 3.71094ZM113.686 4.01855C113.031 4.01367 112.611 4.21387 112.611 4.54102C112.611 4.86816 113.031 5.06348 113.686 5.06348C114.33 5.06348 114.745 4.86816 114.75 4.54102C114.745 4.21387 114.33 4.01367 113.686 4.01855ZM118.021 1.66992C118.017 2.25098 118.793 2.74414 119.55 2.85645L119.408 3.15918C118.729 3.04443 118.07 2.68311 117.807 2.1582C117.543 2.68311 116.881 3.04443 116.215 3.15918L116.063 2.85645C116.815 2.74414 117.592 2.25098 117.592 1.66992V1.64062H116.2V1.32812H119.408V1.64062H118.021V1.66992ZM119.784 3.53027V3.84766H117.987V5.39551H117.611V3.84766H115.829V3.53027H119.784ZM124.125 4.53613V4.8584H120.15V4.53613H121.938V3.71582H120.648V2.37793H123.246V1.69434H120.639V1.37695H123.622V2.69043H121.029V3.39844H123.725V3.71582H122.313V4.53613H124.125ZM129.696 3.53027V3.84766H128.646V5.39551H128.261V3.84766H127.147V5.39551H126.752V3.84766H125.722V3.53027H129.696ZM127.699 1.23047C128.612 1.23047 129.228 1.59668 129.228 2.17773C129.228 2.75391 128.612 3.12012 127.699 3.11523C126.786 3.12012 126.171 2.75391 126.171 2.17773C126.171 1.59668 126.786 1.23047 127.699 1.23047ZM127.699 1.54297C127.021 1.54297 126.562 1.79199 126.566 2.17773C126.562 2.56348 127.021 2.80762 127.699 2.80762C128.373 2.80762 128.837 2.56348 128.837 2.17773C128.837 1.79199 128.373 1.54297 127.699 1.54297ZM133.627 1.05469V5.39551H133.241V1.05469H133.627ZM131.649 2.4707C131.649 3.19824 132.157 3.90137 132.812 4.17969L132.597 4.47754C132.096 4.25537 131.671 3.78418 131.469 3.20801C131.273 3.81836 130.851 4.31885 130.351 4.55566L130.136 4.25781C130.78 3.96484 131.273 3.23242 131.273 2.4707V2.12402H130.253V1.81152H131.269V1.1377H131.649V1.81152H132.66V2.12402H131.649V2.4707ZM135.922 2.3877C135.922 3.125 136.459 3.87207 137.099 4.15039L136.884 4.45312C136.376 4.22119 135.937 3.7207 135.736 3.12012C135.531 3.75732 135.094 4.31152 134.599 4.56055L134.369 4.25781C134.989 3.95996 135.531 3.13965 135.536 2.3877V1.82129H134.511V1.50391H136.957V1.82129H135.922V2.3877ZM137.948 1.05469V5.39551H137.562V1.05469H137.948ZM142.289 3.85254V5.39551H141.903V4.16016H139.369V3.85254H142.289ZM142.289 1.05469V3.61328H141.903V2.98828H140.785C140.583 3.23486 140.263 3.38135 139.887 3.37891C139.237 3.38379 138.759 2.9541 138.759 2.33887C138.759 1.7334 139.237 1.30371 139.887 1.30371C140.26 1.30371 140.58 1.4502 140.785 1.69434H141.903V1.05469H142.289ZM139.887 1.63086C139.442 1.63086 139.125 1.92871 139.125 2.33887C139.125 2.76367 139.442 3.05664 139.887 3.05664C140.312 3.05664 140.639 2.76367 140.639 2.33887C140.639 1.92871 140.312 1.63086 139.887 1.63086ZM140.956 2.6709H141.903V2.01172H140.956C140.99 2.11426 141.01 2.22168 141.01 2.33887C141.01 2.45605 140.99 2.56836 140.956 2.6709ZM146.591 1.05469V5.40527H146.205V1.05469H146.591ZM144.281 1.3916C144.926 1.39648 145.39 1.98242 145.39 2.90527C145.39 3.82812 144.926 4.41406 144.281 4.41406C143.632 4.41406 143.173 3.82812 143.173 2.90527C143.173 1.98242 143.632 1.39648 144.281 1.3916ZM144.281 1.7334C143.847 1.73828 143.544 2.19727 143.544 2.90527C143.544 3.61328 143.847 4.07227 144.281 4.07227C144.716 4.07227 145.019 3.61328 145.019 2.90527C145.019 2.19727 144.716 1.73828 144.281 1.7334ZM151.977 1.05957V2.37305H152.626V2.69531H151.977V3.96973H151.591V1.05957H151.977ZM148.568 3.52539C148.915 3.52539 149.32 3.52539 149.745 3.51074V3.19336C149.24 3.14941 148.915 2.9126 148.915 2.55371C148.915 2.1582 149.32 1.91406 149.931 1.91406C150.546 1.91406 150.946 2.1582 150.951 2.55371C150.946 2.91016 150.629 3.14697 150.126 3.19336V3.49609C150.531 3.47656 150.941 3.44482 151.322 3.38867L151.356 3.66699C150.414 3.83301 149.374 3.83789 148.612 3.83789L148.568 3.52539ZM151.977 4.18457V5.39551H151.591V4.49219H149.101V4.18457H151.977ZM151.19 1.45508V1.74805H148.676V1.45508H149.745V1.02051H150.126V1.45508H151.19ZM149.931 2.1875C149.53 2.18262 149.281 2.32422 149.281 2.55371C149.281 2.77832 149.53 2.93457 149.931 2.92969C150.331 2.93457 150.585 2.77832 150.585 2.55371C150.585 2.32422 150.331 2.18262 149.931 2.1875ZM156.508 1.05469V3.64258H156.122V2.50488H155.248V2.1875H156.122V1.05469H156.508ZM155.067 3.7793C155.971 3.7793 156.522 4.07227 156.522 4.58496C156.522 5.09766 155.971 5.39062 155.067 5.39551C154.164 5.39062 153.612 5.09766 153.612 4.58496C153.612 4.07227 154.164 3.7793 155.067 3.7793ZM155.067 4.07715C154.403 4.07715 153.988 4.26758 153.993 4.58496C153.988 4.89746 154.403 5.08789 155.067 5.08789C155.731 5.08789 156.142 4.89746 156.142 4.58496C156.142 4.26758 155.731 4.07715 155.067 4.07715ZM154.418 1.85059C154.418 2.41699 154.853 2.9541 155.487 3.17383L155.287 3.48145C154.799 3.30566 154.42 2.94189 154.237 2.49023C154.047 3.00049 153.644 3.4082 153.129 3.60352L152.929 3.2959C153.573 3.06152 154.032 2.47559 154.032 1.85547V1.69434H153.051V1.37207H155.39V1.69434H154.418V1.85059ZM159.818 2.92969V3.24707H158.866V4.10156C159.291 4.08447 159.718 4.05518 160.121 4.00879L160.15 4.29688C159.188 4.43848 158.139 4.45312 157.309 4.45312L157.255 4.13086C157.633 4.13086 158.053 4.12842 158.485 4.11621V3.24707H157.587V1.46973H159.799V1.78223H157.963V2.92969H159.818ZM160.79 1.05469V5.40527H160.409V1.05469H160.79ZM163.046 3.96484C163.046 4.35303 163.251 4.76318 163.666 5C164.081 4.74121 164.296 4.29932 164.296 3.96484V3.70117H164.672V3.96484C164.672 4.41406 164.994 4.86328 165.561 5.05371L165.36 5.3418C164.928 5.18555 164.625 4.88037 164.481 4.51172C164.342 4.86816 164.076 5.20264 163.671 5.37598C163.253 5.21729 162.987 4.89502 162.855 4.53125C162.699 4.88037 162.401 5.18311 161.986 5.3418L161.796 5.05371C162.348 4.85352 162.675 4.38477 162.68 3.96484V3.70117H163.046V3.96484ZM162.748 1.30371C163.319 1.30371 163.766 1.64551 163.852 2.14844H164.765V1.05469H165.15V3.53516H164.765V2.46582H163.856C163.781 2.98584 163.329 3.33496 162.748 3.33496C162.099 3.33496 161.625 2.91992 161.625 2.31934C161.625 1.72363 162.099 1.30371 162.748 1.30371ZM162.748 1.63086C162.313 1.62598 161.991 1.91406 161.996 2.31934C161.991 2.71973 162.313 3.0127 162.748 3.01758C163.173 3.0127 163.495 2.71973 163.495 2.31934C163.495 1.91406 163.173 1.62598 162.748 1.63086ZM166.757 3.66211V4.16992H168.925V3.66211H169.311V5.33691H166.376V3.66211H166.757ZM166.757 5.0293H168.925V4.47266H166.757V5.0293ZM169.828 3.03711V3.35449H165.873V3.03711H169.828ZM168.051 1.30859C168.051 1.8457 168.842 2.32422 169.604 2.42188L169.462 2.72949C168.788 2.62939 168.129 2.28516 167.855 1.79688C167.577 2.2876 166.913 2.62939 166.244 2.72949L166.098 2.42188C166.869 2.31934 167.655 1.86035 167.655 1.30859V1.10352H168.051V1.30859ZM173.773 1.05469V5.39551H173.393V1.05469H173.773ZM170.854 1.48438V3.94531C171.515 3.94287 172.201 3.88916 172.929 3.73535L172.982 4.0625C172.211 4.22363 171.522 4.27734 170.829 4.27734H170.478V1.48438H170.854ZM177.875 1.05469V2.77344H178.603V3.0957H177.875V5.40527H177.494V1.05469H177.875ZM176.732 1.47949V1.79688H175.087V3.99414C175.873 3.99414 176.43 3.95752 177.074 3.83789L177.123 4.16992C176.444 4.29199 175.873 4.31641 175.048 4.31641H174.706V1.47949H176.732ZM179.296 5.0293C179.125 5.0293 178.979 4.8877 178.983 4.71191C178.979 4.54102 179.125 4.39941 179.296 4.39941C179.467 4.39941 179.608 4.54102 179.608 4.71191C179.608 4.8877 179.467 5.0293 179.296 5.0293Z" fill="black"/>
<path d="M7.8941 83.3241V87.5208H6.5978V86.9618H5.12326V85.9329H6.5978V85.4144H5.19618C4.74248 86.5851 3.72974 87.3628 2.06076 87.7963L1.55845 86.7755C3.21123 86.3744 3.89583 85.6777 4.04572 84.8229H1.97164V83.794H5.46354C5.46354 84.0046 5.45139 84.2072 5.43113 84.4016H6.5978V83.3241H7.8941ZM5.36632 87.6181C6.89757 87.6262 7.95081 88.2338 7.95891 89.1898C7.95081 90.1458 6.89757 90.7697 5.36632 90.7697C3.83507 90.7697 2.77373 90.1458 2.78183 89.1898C2.77373 88.2338 3.83507 87.6262 5.36632 87.6181ZM5.36632 88.6227C4.53993 88.6146 4.07812 88.7928 4.07812 89.1898C4.07812 89.5787 4.53993 89.7488 5.36632 89.7488C6.18461 89.7488 6.65451 89.5787 6.65451 89.1898C6.65451 88.7928 6.18461 88.6146 5.36632 88.6227ZM15.526 87.3588V88.3877H12.7228V90.8102H11.4346V88.3877H8.68808V87.3588H15.526ZM14.9346 83.6644V84.6609H12.9091C13.0428 85.2361 13.6505 85.864 15.2506 86.0382L14.7807 87.0509C13.4155 86.8929 12.5527 86.3825 12.1071 85.6898C11.6655 86.3825 10.8108 86.8929 9.44965 87.0509L8.97974 86.0382C10.5596 85.864 11.1672 85.2361 11.3212 84.6609H9.28761V83.6644H14.9346ZM18.0862 87.7639C18.0862 86.2407 18.5966 84.9769 19.3825 83.8831H20.8814C20.3142 84.6933 19.6823 86.3056 19.6823 87.7639C19.6823 89.2222 20.3142 90.8345 20.8814 91.6528H19.3825C18.5966 90.5509 18.0862 89.287 18.0862 87.7639ZM23.7737 90.081C22.364 90.081 21.327 89.36 21.327 88.412C21.327 87.6829 21.9265 87.0995 22.68 86.9861V86.9375C22.0237 86.8241 21.5457 86.2975 21.5457 85.6412C21.5457 84.7257 22.4936 84.0532 23.7737 84.0532C25.0538 84.0532 25.9936 84.7257 25.9936 85.6412C25.9936 86.2975 25.5075 86.8241 24.8594 86.9375V86.9861C25.6047 87.0995 26.2124 87.6829 26.2124 88.412C26.2124 89.36 25.1834 90.081 23.7737 90.081ZM23.7737 88.963C24.2436 88.963 24.5839 88.6551 24.5839 88.2338C24.5839 87.8125 24.2436 87.5127 23.7737 87.5127C23.3038 87.5127 22.9635 87.8125 22.9635 88.2338C22.9635 88.6551 23.3038 88.963 23.7737 88.963ZM23.7737 86.4838C24.1869 86.4838 24.4867 86.2002 24.4867 85.8194C24.4867 85.4468 24.1869 85.1713 23.7737 85.1713C23.3605 85.1713 23.0608 85.4387 23.0608 85.8194C23.0608 86.2002 23.3605 86.4838 23.7737 86.4838ZM29.2182 84.0532C30.5631 84.0532 31.7297 84.8553 31.7378 86.9699C31.7378 88.8981 30.7332 90.081 29.202 90.081C27.9138 90.081 27.055 89.2627 26.9497 88.2419H28.4728C28.5538 88.6065 28.8455 88.7685 29.202 88.7685C29.8825 88.7685 30.1985 88.1285 30.2066 87.1238H30.1661C29.9392 87.6667 29.3397 87.9826 28.6672 87.9826C27.6059 87.9826 26.8929 87.2049 26.8848 86.1354C26.8767 84.8877 27.8328 84.0532 29.2182 84.0532ZM29.2263 85.228C28.7321 85.228 28.3756 85.5926 28.3837 86.0787C28.3918 86.5648 28.7321 86.9294 29.2263 86.9294C29.7043 86.9294 30.077 86.5567 30.0689 86.0787C30.0608 85.5926 29.7043 85.228 29.2263 85.228ZM33.0341 90.0891C32.5966 90.0891 32.2402 89.7407 32.2483 89.3032C32.2402 88.8738 32.5966 88.5255 33.0341 88.5255C33.4473 88.5255 33.82 88.8738 33.82 89.3032C33.82 89.7407 33.4473 90.0891 33.0341 90.0891ZM36.9959 90.081C35.6591 90.081 34.7031 89.3113 34.695 88.2338H36.1939C36.2101 88.647 36.5666 88.9062 36.9959 88.9062C37.4983 88.9062 37.8547 88.5579 37.8466 88.0394C37.8547 87.5046 37.4983 87.1644 36.9959 87.1644C36.5909 87.1562 36.3397 87.3345 36.1939 87.6262H34.8247L35.0758 84.1343H38.9728V85.3657H36.3478L36.2263 86.6863H36.2587C36.445 86.338 36.923 86.0868 37.5064 86.0868C38.5596 86.0868 39.3374 86.8727 39.3374 87.9907C39.3374 89.2141 38.4138 90.081 36.9959 90.081ZM41.776 87.2049C40.8281 87.2049 40.3177 86.5162 40.3177 85.5359C40.3177 84.5475 40.8524 83.8588 41.776 83.8588C42.7402 83.8588 43.2506 84.5475 43.2587 85.5359C43.2506 86.5324 42.7321 87.2049 41.776 87.2049ZM41.776 86.338C42.1082 86.338 42.2703 86.022 42.2703 85.5359C42.2703 85.0579 42.1163 84.7257 41.776 84.7257C41.4682 84.7257 41.3061 85.0741 41.3061 85.5359C41.3061 86.022 41.4844 86.338 41.776 86.338ZM45.9971 90.2674C45.0492 90.2674 44.5388 89.5787 44.5388 88.5984C44.5388 87.61 45.0735 86.9213 45.9971 86.9213C46.9612 86.9213 47.4716 87.61 47.4716 88.5984C47.4716 89.5949 46.945 90.2674 45.9971 90.2674ZM45.9971 89.4005C46.3212 89.4005 46.4832 89.0845 46.4913 88.5984C46.4832 88.1204 46.3374 87.7882 45.9971 87.7963C45.6892 87.7882 45.5191 88.1366 45.5191 88.5984C45.5191 89.0845 45.6973 89.4005 45.9971 89.4005ZM41.3304 90L45.3652 84.1343H46.4427L42.408 90H41.3304ZM51.0608 87.7639C51.0608 89.287 50.5503 90.5509 49.7645 91.6528H48.2656C48.8328 90.8345 49.4647 89.2222 49.4647 87.7639C49.4647 86.3056 48.8328 84.6933 48.2656 83.8831H49.7645C50.5503 84.9769 51.0608 86.2407 51.0608 87.7639Z" fill="#121212"/>
<path d="M10.2068 62.7502V63.3416C10.2068 63.9493 10.2068 64.6339 10.0367 65.5453H11.0494V66.1611H8.14083V67.8463H7.37116V66.1611H4.40588V65.5453H9.25079C9.44118 64.646 9.44523 63.9736 9.44523 63.374H5.24037V62.7502H10.2068ZM10.3526 68.859V69.4828H5.22417V67.19H5.99384V68.859H10.3526ZM14.0957 63.7062C14.0957 64.6784 14.7763 65.594 15.8781 65.9666L15.4811 66.5743C14.6669 66.2867 14.0633 65.7074 13.7392 64.9782C13.4232 65.7924 12.7994 66.4284 11.9487 66.7444L11.5193 66.1368C12.6698 65.7398 13.3341 64.7676 13.3341 63.6819V62.8231H14.0957V63.7062ZM17.2797 62.3694V64.5569H18.333V65.2132H17.2797V67.7247H16.51V62.3694H17.2797ZM17.5957 68.859V69.4828H12.686V67.2062H13.4719V68.859H17.5957ZM21.2091 66.712C21.2172 65.1889 21.6466 63.9169 22.4082 62.8312H23.2022C22.6432 63.6333 22.1084 65.2699 22.1084 66.712C22.1084 68.1622 22.6432 69.7907 23.2022 70.6009H22.4082C21.6466 69.5152 21.2172 68.2433 21.2091 66.712ZM26.0378 69.0291C24.7658 69.0291 23.8746 68.3405 23.8827 67.3845C23.8746 66.631 24.4175 66.0152 25.1061 65.9099V65.8775C24.5066 65.7398 24.1015 65.2051 24.1015 64.565C24.1015 63.6657 24.9198 63.0014 26.0378 63.0014C27.1478 63.0014 27.958 63.6657 27.9661 64.565C27.958 65.2051 27.5529 65.7398 26.9614 65.8775V65.9099C27.642 66.0152 28.1848 66.631 28.1929 67.3845C28.1848 68.3405 27.2936 69.0291 26.0378 69.0291ZM26.0378 68.2919C26.7994 68.2919 27.2855 67.8949 27.2855 67.3196C27.2855 66.712 26.7589 66.2745 26.0378 66.2745C25.3087 66.2745 24.7739 66.712 24.7901 67.3196C24.7739 67.8949 25.26 68.2919 26.0378 68.2919ZM26.0378 65.5696C26.6536 65.5696 27.0911 65.197 27.0911 64.646C27.0911 64.1032 26.6617 63.7305 26.0378 63.7305C25.3897 63.7305 24.9684 64.0951 24.9684 64.646C24.9684 65.197 25.414 65.5696 26.0378 65.5696ZM28.9869 67.8058V67.0847L31.5795 63.0824H32.6813V67.0523H33.4834V67.8058H32.6813V68.9481H31.8388V67.8058H28.9869ZM29.9267 67.0523H31.8388V64.1437H31.7739L29.9267 67.0037V67.0523ZM34.7392 69.0048C34.4232 69.0048 34.1559 68.7456 34.164 68.4296C34.1559 68.1136 34.4232 67.8544 34.7392 67.8544C35.0471 67.8544 35.3144 68.1136 35.3144 68.4296C35.3144 68.7456 35.0471 69.0048 34.7392 69.0048ZM36.2219 67.8058V67.0847L38.8144 63.0824H39.9163V67.0523H40.7184V67.8058H39.9163V68.9481H39.0737V67.8058H36.2219ZM37.1617 67.0523H39.0737V64.1437H39.0089L37.1617 67.0037V67.0523ZM42.9626 65.8694C42.1605 65.8775 41.723 65.278 41.7311 64.4111C41.723 63.5523 42.1767 62.9609 42.9626 62.9609C43.7647 62.9609 44.1941 63.5523 44.1941 64.4111C44.1941 65.2861 43.7485 65.8775 42.9626 65.8694ZM42.9626 65.3023C43.3434 65.3023 43.5216 64.9458 43.5216 64.4111C43.5216 63.8845 43.3515 63.528 42.9626 63.528C42.5899 63.5361 42.3955 63.8845 42.3955 64.4111C42.3955 64.9458 42.5818 65.3023 42.9626 65.3023ZM46.6651 69.0696C45.8631 69.0696 45.4256 68.4782 45.4337 67.6113C45.4256 66.7444 45.8874 66.153 46.6651 66.153C47.4672 66.153 47.8966 66.7444 47.8966 67.6113C47.8966 68.4782 47.451 69.0696 46.6651 69.0696ZM46.6651 68.4944C47.0459 68.4944 47.2242 68.1379 47.2242 67.6113C47.2242 67.0766 47.054 66.7201 46.6651 66.7201C46.2925 66.7282 46.098 67.0847 46.098 67.6113C46.098 68.1379 46.2925 68.4944 46.6651 68.4944ZM42.3955 68.9481L46.4221 63.0824H47.1594L43.1327 68.9481H42.3955ZM50.7809 66.712C50.7728 68.2433 50.3434 69.5152 49.5818 70.6009H48.7878C49.3469 69.7907 49.8816 68.1622 49.8816 66.712C49.8816 65.2699 49.3469 63.6333 48.7878 62.8312H49.5818C50.3434 63.9169 50.7728 65.1889 50.7809 66.712Z" fill="#121212"/>
<path d="M6.8972 42.0581C7.50079 42.054 8.01526 42.2809 8.35553 42.6576H10.1703V41.6368H10.94V45.9227H10.1703V44.9424H8.34743C8.01121 45.315 7.49674 45.5378 6.8972 45.5338C5.80345 45.5419 4.99327 44.8127 4.99327 43.8C4.99327 42.7792 5.80345 42.05 6.8972 42.0581ZM6.8972 42.7224C6.21665 42.7143 5.73053 43.1518 5.73053 43.8C5.73053 44.4319 6.21665 44.8856 6.8972 44.8775C7.56155 44.8856 8.04766 44.4319 8.04766 43.8C8.04766 43.1518 7.56155 42.7143 6.8972 42.7224ZM8.50947 46.0847C10.0164 46.0847 10.9643 46.5951 10.9643 47.4863C10.9643 48.3694 10.0164 48.888 8.50947 48.8799C6.99442 48.888 6.04651 48.3694 6.05461 47.4863C6.04651 46.5951 6.99442 46.0847 8.50947 46.0847ZM8.50947 46.6761C7.44813 46.6761 6.79998 46.9678 6.80808 47.4863C6.79998 47.9886 7.44813 48.2722 8.50947 48.2722C9.57891 48.2722 10.2109 47.9886 10.2109 47.4863C10.2109 46.9678 9.57891 46.6761 8.50947 46.6761ZM8.70391 43.2734C8.75658 43.4354 8.78493 43.6136 8.78493 43.8C8.78493 43.9782 8.75658 44.1524 8.71202 44.3104H10.1703V43.2734H8.70391ZM15.7768 42.131V42.763H13.2166V45.0558C14.521 45.0517 15.2867 45.0072 16.1576 44.8289L16.2305 45.4447C15.2907 45.6472 14.4805 45.6877 13.006 45.6796H12.4551V42.131H15.7768ZM18.1102 46.344V48.8961H17.3405V46.9597H13.1923V46.344H18.1102ZM18.1102 41.6368V45.9875H17.3405V44.116H15.3717V43.4921H17.3405V41.6368H18.1102ZM21.6912 45.9713C21.6993 44.4481 22.1287 43.1761 22.8903 42.0905H23.6842C23.1252 42.8926 22.5905 44.5292 22.5905 45.9713C22.5905 47.4215 23.1252 49.05 23.6842 49.8602H22.8903C22.1287 48.7745 21.6993 47.5025 21.6912 45.9713ZM24.6727 48.2074L27.2896 43.1518V43.1032H24.2676V42.3417H28.2132V43.1356L25.6044 48.2074H24.6727ZM31.0488 42.2606C32.1264 42.2687 33.2606 42.9169 33.2606 45.0639C33.2606 47.1217 32.3775 48.2884 30.9678 48.2884C29.8903 48.2884 29.1287 47.6241 28.991 46.668H29.8741C29.9956 47.1623 30.3764 47.5106 30.9678 47.5106C31.8752 47.5106 32.4018 46.7167 32.4099 45.3799H32.337C32.021 45.8741 31.4701 46.1738 30.8382 46.1738C29.7849 46.1738 28.9423 45.3717 28.9423 44.2456C28.9423 43.1275 29.7768 42.2525 31.0488 42.2606ZM31.0488 43.006C30.3359 43.006 29.8092 43.5569 29.8092 44.2294C29.8092 44.9099 30.3197 45.4447 31.0326 45.4447C31.7375 45.4447 32.2884 44.8694 32.2884 44.2213C32.2884 43.5893 31.7699 43.006 31.0488 43.006ZM34.5569 48.2641C34.241 48.2641 33.9736 48.0049 33.9817 47.6889C33.9736 47.3729 34.241 47.1136 34.5569 47.1136C34.8648 47.1136 35.1322 47.3729 35.1322 47.6889C35.1322 48.0049 34.8648 48.2641 34.5569 48.2641ZM38.0407 48.2884C36.8254 48.2884 35.9585 47.6322 35.9261 46.6761H36.8335C36.866 47.1947 37.3764 47.5187 38.0326 47.5187C38.7375 47.5187 39.256 47.1299 39.256 46.5627C39.256 45.9875 38.7699 45.5662 37.9354 45.5662H37.4331V44.837H37.9354C38.5998 44.837 39.0697 44.4643 39.0697 43.9053C39.0697 43.3706 38.6727 43.006 38.0488 43.006C37.4574 43.006 36.9389 43.3301 36.9146 43.8648H36.0558C36.0801 42.9088 36.9632 42.2606 38.0569 42.2606C39.2074 42.2606 39.9366 42.9898 39.9285 43.8567C39.9366 44.5211 39.5234 45.0072 38.8914 45.1611V45.2016C39.6935 45.315 40.1553 45.8498 40.1553 46.5951C40.1553 47.5755 39.256 48.2884 38.0407 48.2884ZM42.4805 45.1287C41.6785 45.1368 41.241 44.5373 41.2491 43.6704C41.241 42.8116 41.6947 42.2201 42.4805 42.2201C43.2826 42.2201 43.712 42.8116 43.712 43.6704C43.712 44.5454 43.2664 45.1368 42.4805 45.1287ZM42.4805 44.5616C42.8613 44.5616 43.0396 44.2051 43.0396 43.6704C43.0396 43.1437 42.8694 42.7873 42.4805 42.7873C42.1079 42.7954 41.9134 43.1437 41.9134 43.6704C41.9134 44.2051 42.0998 44.5616 42.4805 44.5616ZM46.1831 48.3289C45.381 48.3289 44.9435 47.7375 44.9516 46.8706C44.9435 46.0037 45.4053 45.4123 46.1831 45.4123C46.9852 45.4123 47.4146 46.0037 47.4146 46.8706C47.4146 47.7375 46.969 48.3289 46.1831 48.3289ZM46.1831 47.7537C46.5639 47.7537 46.7421 47.3972 46.7421 46.8706C46.7421 46.3359 46.572 45.9794 46.1831 45.9794C45.8104 45.9875 45.616 46.344 45.616 46.8706C45.616 47.3972 45.8104 47.7537 46.1831 47.7537ZM41.9134 48.2074L45.94 42.3417H46.6773L42.6507 48.2074H41.9134ZM50.2988 45.9713C50.2907 47.5025 49.8613 48.7745 49.0997 49.8602H48.3058C48.8648 49.05 49.3995 47.4215 49.3995 45.9713C49.3995 44.5292 48.8648 42.8926 48.3058 42.0905H49.0997C49.8613 43.1761 50.2907 44.4481 50.2988 45.9713Z" fill="#121212"/>
<path d="M11.9041 26.6322V27.2884H5.26063V26.6322H8.17729V25.0847H5.84396V24.4771H6.92961V22.1924H5.82776V21.5685H11.2965V22.1924H10.1866V24.4771H11.2722V25.0847H8.93887V26.6322H11.9041ZM7.69118 24.4771H9.43308V22.1924H7.69118V24.4771ZM18.1345 20.8961V22.8648H19.1877V23.513H18.1345V25.5546H17.3648V20.8961H18.1345ZM15.8173 25.6114C17.3 25.6114 18.2155 26.0813 18.2155 26.8833C18.2155 27.6692 17.3 28.1472 15.8173 28.1391C14.3185 28.1472 13.403 27.6692 13.4111 26.8833C13.403 26.0813 14.3185 25.6114 15.8173 25.6114ZM15.8173 26.2028C14.7722 26.2028 14.1646 26.4377 14.1727 26.8833C14.1646 27.3046 14.7722 27.5558 15.8173 27.5558C16.8463 27.5558 17.4539 27.3046 17.4539 26.8833C17.4539 26.4377 16.8463 26.2028 15.8173 26.2028ZM16.7653 21.6739V22.2815H12.4389V21.6739H14.2213V20.8394H14.991V21.6739H16.7653ZM14.6021 22.6137C15.6472 22.6137 16.3602 23.1322 16.3602 23.91C16.3602 24.6877 15.6472 25.1982 14.6021 25.1901C13.5407 25.1982 12.8359 24.6877 12.8359 23.91C12.8359 23.1322 13.5407 22.6137 14.6021 22.6137ZM14.6021 23.1889C13.9863 23.1889 13.5731 23.4644 13.5812 23.91C13.5731 24.3394 13.9863 24.6067 14.6021 24.6067C15.2178 24.6067 15.631 24.3394 15.6391 23.91C15.631 23.4644 15.2178 23.1889 14.6021 23.1889ZM22.0639 25.2306C22.072 23.7074 22.5014 22.4354 23.2629 21.3498H24.0569C23.4979 22.1519 22.9632 23.7884 22.9632 25.2306C22.9632 26.6808 23.4979 28.3093 24.0569 29.1195H23.2629C22.5014 28.0338 22.072 26.7618 22.0639 25.2306ZM26.9655 27.5477C25.8798 27.5396 24.7456 26.8995 24.7456 24.7282C24.7456 22.6866 25.6287 21.5199 27.0384 21.5199C28.116 21.5199 28.8694 22.1924 29.0072 23.1241H28.1241C28.0106 22.6461 27.6298 22.2977 27.0384 22.2977C26.131 22.2977 25.6044 23.0917 25.6044 24.4123H25.6692C25.9852 23.9181 26.5361 23.6183 27.1761 23.6183C28.2213 23.6183 29.0639 24.4204 29.0639 25.5465C29.0639 26.6808 28.2294 27.5558 26.9655 27.5477ZM26.9574 26.8023C27.6704 26.8023 28.197 26.2514 28.197 25.5627C28.197 24.8903 27.6866 24.3475 26.9817 24.3475C26.2606 24.3475 25.7178 24.9146 25.7097 25.5708C25.7178 26.219 26.2363 26.8023 26.9574 26.8023ZM30.2143 27.4667L32.8312 22.4111V22.3625H29.8092V21.6009H33.7548V22.3949L31.146 27.4667H30.2143ZM34.2166 27.5234C33.9007 27.5234 33.6333 27.2641 33.6414 26.9482C33.6333 26.6322 33.9007 26.3729 34.2166 26.3729C34.5245 26.3729 34.7919 26.6322 34.7919 26.9482C34.7919 27.2641 34.5245 27.5234 34.2166 27.5234ZM37.7248 27.5477C36.6148 27.5477 35.7803 26.8671 35.7398 25.9354H36.6067C36.6553 26.4377 37.1333 26.8023 37.7248 26.8023C38.4377 26.8023 38.9481 26.2838 38.9481 25.587C38.9481 24.8741 38.4215 24.3556 37.6842 24.3475C37.2143 24.3475 36.8579 24.5014 36.6553 24.866H35.8127L36.1935 21.6009H39.5153V22.3625H36.9308L36.7363 24.0072H36.793C37.0361 23.7722 37.4493 23.6102 37.8949 23.6102C38.9967 23.6102 39.815 24.4285 39.815 25.5627C39.815 26.7213 38.9481 27.5477 37.7248 27.5477ZM42.1078 24.388C41.3058 24.3961 40.8683 23.7965 40.8764 22.9296C40.8683 22.0708 41.322 21.4794 42.1078 21.4794C42.9099 21.4794 43.3393 22.0708 43.3393 22.9296C43.3393 23.8046 42.8937 24.3961 42.1078 24.388ZM42.1078 23.8208C42.4886 23.8208 42.6669 23.4644 42.6669 22.9296C42.6669 22.403 42.4967 22.0465 42.1078 22.0465C41.7352 22.0546 41.5407 22.403 41.5407 22.9296C41.5407 23.4644 41.7271 23.8208 42.1078 23.8208ZM45.8104 27.5882C45.0083 27.5882 44.5708 26.9968 44.5789 26.1299C44.5708 25.263 45.0326 24.6715 45.8104 24.6715C46.6125 24.6715 47.0419 25.263 47.0419 26.1299C47.0419 26.9968 46.5963 27.5882 45.8104 27.5882ZM45.8104 27.013C46.1912 27.013 46.3694 26.6565 46.3694 26.1299C46.3694 25.5951 46.1993 25.2387 45.8104 25.2387C45.4377 25.2468 45.2433 25.6032 45.2433 26.1299C45.2433 26.6565 45.4377 27.013 45.8104 27.013ZM41.5407 27.4667L45.5673 21.6009H46.3046L42.278 27.4667H41.5407ZM49.9261 25.2306C49.918 26.7618 49.4886 28.0338 48.7271 29.1195H47.9331C48.4921 28.3093 49.0268 26.6808 49.0268 25.2306C49.0268 23.7884 48.4921 22.1519 47.9331 21.3498H48.7271C49.4886 22.4354 49.918 23.7074 49.9261 25.2306Z" fill="#121212"/>
<path d="M59.5 12L59.5 96.4519" stroke="black"/>
<path d="M60 14H168C172.418 14 176 17.5817 176 22C176 26.4183 172.418 30 168 30H60V14Z" fill="url(#paint0_linear_591_236)" fill-opacity="0.5"/>
<path d="M60 36H177C181.418 36 185 39.5817 185 44C185 48.4183 181.418 52 177 52H60V36Z" fill="url(#paint1_linear_591_236)" fill-opacity="0.5"/>
<path d="M60 58H199C203.418 58 207 61.5817 207 66C207 70.4183 203.418 74 199 74H60V58Z" fill="url(#paint2_linear_591_236)" fill-opacity="0.5"/>
<path d="M60 80H215C219.418 80 223 83.5817 223 88C223 92.4183 219.418 96 215 96H60V80Z" fill="url(#paint3_linear_591_236)"/>
<defs>
<linearGradient id="paint0_linear_591_236" x1="60" y1="22" x2="176" y2="22" gradientUnits="userSpaceOnUse">
<stop stop-color="#2C5016"/>
<stop offset="1" stop-color="#77B353"/>
</linearGradient>
<linearGradient id="paint1_linear_591_236" x1="60" y1="44" x2="185" y2="44" gradientUnits="userSpaceOnUse">
<stop stop-color="#2C5016"/>
<stop offset="1" stop-color="#77B353"/>
</linearGradient>
<linearGradient id="paint2_linear_591_236" x1="60" y1="66" x2="207" y2="66" gradientUnits="userSpaceOnUse">
<stop stop-color="#2C5016"/>
<stop offset="1" stop-color="#77B353"/>
</linearGradient>
<linearGradient id="paint3_linear_591_236" x1="60" y1="88" x2="223" y2="88" gradientUnits="userSpaceOnUse">
<stop stop-color="#2C5016"/>
<stop offset="1" stop-color="#77B353"/>
</linearGradient>
</defs>
</svg>
