<svg width="271" height="23" viewBox="0 0 271 23" fill="none" xmlns="http://www.w3.org/2000/svg">
<path d="M0.797779 4.24268L1.6473 1.31183H2.54992L1.98711 4.24268H0.797779ZM7.71076 6.31339C9.67528 6.31339 10.8646 6.97177 10.8646 8.09738C10.8646 9.23362 9.67528 9.892 7.71076 9.90262C5.725 9.892 4.51443 9.23362 4.51443 8.09738C4.51443 6.97177 5.725 6.31339 7.71076 6.31339ZM7.71076 7.10982C6.33029 7.10982 5.51262 7.46024 5.52324 8.09738C5.51262 8.73452 6.33029 9.09557 7.71076 9.09557C9.08061 9.09557 9.87704 8.73452 9.87704 8.09738C9.87704 7.46024 9.08061 7.10982 7.71076 7.10982ZM10.7797 0.387978V2.71354H12.1601V3.57368H10.7797V6.06915H9.77085V0.387978H10.7797ZM4.6631 0.982643V2.3525H7.15857V0.982643H8.15676V5.40015H3.67553V0.982643H4.6631ZM4.6631 4.59311H7.15857V3.14892H4.6631V4.59311ZM16.0042 2.80911C15.9936 4.49754 16.9705 6.21782 18.3935 6.90805L17.767 7.7151C16.7316 7.17884 15.9299 6.11163 15.5157 4.83735C15.0857 6.19658 14.2521 7.33281 13.1689 7.89562L12.5424 7.07796C14.0078 6.3771 14.9954 4.55063 14.9954 2.80911V1.1844H16.0042V2.80911ZM20.1138 0.387978V4.17897H21.6429V5.03911H20.1138V9.90262H19.105V0.387978H20.1138ZM25.4764 1.81093C25.4764 3.14892 26.3365 4.33825 27.7807 4.80549L27.2285 5.5913C26.1825 5.21432 25.4127 4.48161 24.9985 3.53121C24.5844 4.61966 23.7561 5.46387 22.6092 5.87801L22.0677 5.07096C23.5862 4.55063 24.4676 3.28697 24.4782 1.8534V0.918929H25.4764V1.81093ZM30.0319 0.387978V6.00544H29.0231V3.14892H27.0161V2.32064H29.0231V0.387978H30.0319ZM26.8462 6.27091C28.8426 6.27091 30.0638 6.92929 30.0638 8.08676C30.0638 9.23362 28.8426 9.892 26.8462 9.88138C24.8499 9.892 23.618 9.23362 23.6287 8.08676C23.618 6.92929 24.8499 6.27091 26.8462 6.27091ZM26.8462 7.05672C25.4551 7.05672 24.6269 7.42839 24.6269 8.08676C24.6269 8.72391 25.4551 9.08495 26.8462 9.08495C28.2373 9.08495 29.0656 8.72391 29.0656 8.08676C29.0656 7.42839 28.2373 7.05672 26.8462 7.05672ZM33.3026 1.32245L32.4531 4.2533H31.5504L32.1133 1.32245H33.3026ZM39.3554 1.4074V1.99145C39.3554 2.78788 39.3554 4.01968 39.0793 5.71872L38.0811 5.64439C38.3201 4.12056 38.3466 3.02149 38.3572 2.22507H34.4919V1.4074H39.3554ZM36.9131 4.12587V6.97177C37.9272 6.93991 38.9572 6.87089 39.9076 6.74877L39.9607 7.50272C37.975 7.82129 35.7662 7.86377 34.0778 7.85315L33.961 7.03548C34.5556 7.03017 35.2193 7.02486 35.9149 7.00362V4.12587H36.9131ZM41.4686 0.387978V4.31701H42.9234V5.17715H41.4686V9.90262H40.4492V0.387978H41.4686ZM46.1622 4.24268L47.0117 1.31183H47.9144L47.3515 4.24268H46.1622ZM56.898 0.387978V9.90262H55.9317V0.387978H56.898ZM55.0291 0.600358V9.41414H54.084V5.87801H52.9053V5.04973H54.084V3.90287H52.9053V3.07459H54.084V0.600358H55.0291ZM53.1283 1.54545V2.37373H52.3956V6.67444C52.7195 6.6532 53.0274 6.62134 53.3088 6.58948L53.3831 7.34343C51.9071 7.59829 49.932 7.63015 48.6789 7.64077L48.5621 6.79124L49.4966 6.78063V2.37373H48.7639V1.54545H53.1283ZM50.4098 6.77001L51.4717 6.72753V2.37373H50.4098V6.77001ZM65.9773 0.387978V9.90262H64.9579V0.387978H65.9773ZM63.142 1.4074C63.142 4.18959 61.9527 6.61072 58.6927 8.17172L58.1617 7.35405C60.6943 6.14879 61.9261 4.43382 62.1226 2.21445H58.6183V1.4074H63.142ZM76.1397 4.32763V5.13468H72.2956V5.96296H75.0459V8.19295H69.5028V9.03186H75.3114V9.80705H68.5152V7.46024H74.0478V6.73815H68.5046V5.96296H71.2868V5.13468H67.464V4.32763H76.1397ZM75.0247 0.695929V3.62678H68.579V0.695929H75.0247ZM69.5665 1.49236V2.83035H74.0159V1.49236H69.5665ZM78.667 1.32245L77.8175 4.2533H76.9149L77.4777 1.32245H78.667ZM87.3003 0.387978V9.92385H86.2915V0.387978H87.3003ZM82.2138 1.09945C83.6261 1.09945 84.6668 2.39497 84.6668 4.43382C84.6668 6.48329 83.6261 7.77881 82.2138 7.77881C80.7802 7.77881 79.7502 6.48329 79.7502 4.43382C79.7502 2.39497 80.7802 1.09945 82.2138 1.09945ZM82.2138 2.00207C81.3324 2.00207 80.7271 2.93654 80.7271 4.43382C80.7271 5.94172 81.3324 6.8762 82.2138 6.8762C83.0845 6.8762 83.6898 5.94172 83.6898 4.43382C83.6898 2.93654 83.0845 2.00207 82.2138 2.00207ZM96.2309 0.387978V4.10463H97.76V4.95415H96.2309V9.92385H95.2327V0.387978H96.2309ZM93.5443 1.24812V4.74177H90.2099V6.80186C91.8452 6.79655 93.0558 6.73815 94.4469 6.48329L94.5425 7.30096C93.0558 7.57705 91.7709 7.64077 89.9869 7.65138H89.2117V3.92411H92.5461V2.06578H89.1905V1.24812H93.5443ZM105.915 3.17016V3.97721H99.3635V0.727786H100.362V3.17016H105.915ZM106.914 5.17715V5.9842H98.206V5.17715H106.914ZM105.979 8.85133V9.67962H99.2892V6.88682H100.298V8.85133H105.979ZM117.745 0.377359V3.1383H119.136V3.97721H117.745V7.2691H116.736V0.377359H117.745ZM114.942 1.19502V2.01269H111.692V4.78425C113.545 4.78956 114.591 4.73116 115.78 4.48692L115.897 5.30458C114.612 5.55944 113.487 5.62315 111.448 5.62315H110.694V1.19502H114.942ZM118.149 8.88319V9.70086H111.713V6.55763H112.722V8.88319H118.149ZM122.247 1.09945C123.538 1.09945 124.483 2.19321 124.637 3.95597H126.601V0.387978H127.599V9.92385H126.601V4.77363H124.647C124.536 6.62665 123.57 7.77881 122.247 7.77881C120.825 7.77881 119.826 6.48329 119.837 4.43382C119.826 2.39497 120.825 1.09945 122.247 1.09945ZM122.247 2.00207C121.387 2.00207 120.793 2.93654 120.793 4.43382C120.793 5.94172 121.387 6.8762 122.247 6.8762C123.108 6.8762 123.702 5.94172 123.702 4.43382C123.702 2.93654 123.108 2.00207 122.247 2.00207ZM136.477 0.387978V4.17897H137.953V5.01787H136.477V9.892H135.468V0.387978H136.477ZM133.992 1.38617C133.981 4.13649 132.771 6.58948 129.638 8.13986L129.075 7.35405C131.459 6.16472 132.755 4.44444 132.962 2.22507H129.553V1.38617H133.992ZM149.793 5.75058V6.56825H145.928V9.892H144.94V6.56825H141.117V5.75058H149.793ZM148.976 0.950786V1.75783H146.034C146.05 2.93654 147.515 3.98782 149.315 4.23206L148.944 5.02849C147.383 4.78425 146.034 4.01437 145.461 2.92592C144.871 4.01437 143.528 4.78425 141.988 5.02849L141.606 4.23206C143.385 3.98782 144.85 2.93654 144.887 1.75783H141.925V0.950786H148.976ZM158.214 3.17016V3.97721H151.662V0.727786H152.66V3.17016H158.214ZM159.212 5.17715V5.9842H150.505V5.17715H159.212ZM158.278 8.85133V9.67962H151.588V6.88682H152.597V8.85133H158.278ZM171.339 5.88863V6.95053H167.559V9.97695H166.221V6.95053H162.494V5.88863H171.339ZM164.872 0.68531V1.80031H168.929V0.68531H170.288V4.95415H163.534V0.68531H164.872ZM164.872 3.87102H168.929V2.86221H164.872V3.87102ZM180.047 0.313645V6.04791H178.698V3.76482H177.19V2.67107H178.698V0.313645H180.047ZM176.744 6.26029C178.804 6.27091 180.068 6.95053 180.079 8.12924C180.068 9.29733 178.804 9.98757 176.744 9.98757C174.684 9.98757 173.42 9.29733 173.42 8.12924C173.42 6.95053 174.684 6.27091 176.744 6.26029ZM176.744 7.30096C175.459 7.30096 174.769 7.56643 174.769 8.12924C174.769 8.68143 175.459 8.95752 176.744 8.95752C178.029 8.95752 178.73 8.68143 178.73 8.12924C178.73 7.56643 178.029 7.30096 176.744 7.30096ZM177.477 0.897691V1.98083H175.555C175.587 3.10645 176.266 4.24268 177.774 4.74177L177.105 5.80368C176.038 5.45856 175.305 4.7577 174.886 3.88163C174.456 4.8692 173.686 5.66563 172.539 6.05853L171.838 4.98601C173.426 4.45506 174.137 3.1914 174.174 1.98083H172.231V0.897691H177.477ZM186.875 0.855214V1.92774H184.953C184.963 3.06928 185.643 4.23737 187.172 4.74177L186.503 5.78244C185.431 5.44263 184.698 4.74177 184.284 3.87102C183.848 4.83735 183.078 5.61784 181.937 5.9842L181.247 4.91168C182.834 4.40197 183.556 3.13299 183.572 1.92774H181.629V0.855214H186.875ZM189.445 6.49391V9.97695H188.096V7.57705H182.808V6.49391H189.445ZM189.445 0.313645V6.06915H188.096V3.74359H186.599V2.63921H188.096V0.313645H189.445ZM201.295 0.313645V9.99819H199.926V0.313645H201.295ZM196.05 0.993262C197.504 0.993262 198.588 2.33126 198.588 4.43382C198.588 6.55763 197.504 7.885 196.05 7.885C194.563 7.885 193.48 6.55763 193.49 4.43382C193.48 2.33126 194.563 0.993262 196.05 0.993262ZM196.05 2.21445C195.296 2.21445 194.797 3.00026 194.797 4.43382C194.797 5.87801 195.296 6.6532 196.05 6.6532C196.782 6.6532 197.281 5.87801 197.281 4.43382C197.281 3.00026 196.782 2.21445 196.05 2.21445ZM207.752 1.1844V7.67262H203.079V1.1844H207.752ZM204.439 2.24631V6.6001H206.435V2.24631H204.439ZM210.693 0.313645V9.99819H209.323V0.313645H210.693ZM215.748 2.94716C215.748 4.50816 216.544 6.17534 218.169 6.85496L217.436 7.91686C216.295 7.4337 215.509 6.47267 215.079 5.29396C214.638 6.57355 213.836 7.63546 212.7 8.1611L211.925 7.08858C213.529 6.3771 214.357 4.58249 214.357 2.94716V2.3525H212.307V1.24812H217.766V2.3525H215.748V2.94716ZM220.091 0.313645V9.97695H218.721V0.313645H220.091ZM230.232 4.6462V5.65501H221.387V4.6462H230.232ZM229.17 6.13287V8.41595H223.755V8.96814H229.457V9.892H222.406V7.55581H227.832V7.06734H222.395V6.13287H229.17ZM229.16 0.483549V2.75602H223.84V3.27635H229.33V4.18959H222.491V1.89588H227.8V1.4074H222.47V0.483549H229.16ZM237.963 1.78969V2.86221H233.291V1.78969H234.968V0.57912H236.306V1.78969H237.963ZM235.648 3.29759C236.88 3.29759 237.761 4.2533 237.772 5.5913C237.761 6.93991 236.88 7.89562 235.648 7.89562C234.416 7.89562 233.514 6.93991 233.514 5.5913C233.514 4.2533 234.416 3.29759 235.648 3.29759ZM235.648 4.4232C235.085 4.4232 234.703 4.85858 234.703 5.5913C234.703 6.32401 235.085 6.74877 235.648 6.74877C236.19 6.74877 236.572 6.32401 236.582 5.5913C236.572 4.85858 236.19 4.4232 235.648 4.4232ZM241.658 0.313645V9.97695H240.373V5.32582H239.588V9.56281H238.324V0.504787H239.588V4.24268H240.373V0.313645H241.658ZM251.545 7.73634V8.81948H242.699V7.73634H246.394V5.54882H247.743V7.73634H251.545ZM247.785 1.55607C247.785 2.93654 249.028 4.39135 251.237 4.73116L250.663 5.85677C248.964 5.54882 247.701 4.64089 247.063 3.43564C246.426 4.63558 245.173 5.55413 243.485 5.85677L242.911 4.73116C245.099 4.39135 246.331 2.92592 246.341 1.55607V0.865833H247.785V1.55607ZM259.721 0.313645V4.09401H261.144V5.20901H259.721V9.97695H258.383V0.313645H259.721ZM257.725 1.75783V2.84097H252.044V1.75783H254.231V0.462311H255.59V1.75783H257.725ZM254.911 3.38254C256.323 3.38254 257.374 4.33825 257.374 5.68687C257.374 7.03548 256.323 7.99119 254.911 7.99119C253.488 7.99119 252.437 7.03548 252.437 5.68687C252.437 4.33825 253.488 3.38254 254.911 3.38254ZM254.911 4.4763C254.231 4.48692 253.732 4.94354 253.732 5.68687C253.732 6.44082 254.231 6.88682 254.911 6.8762C255.59 6.88682 256.079 6.44082 256.079 5.68687C256.079 4.94354 255.59 4.48692 254.911 4.4763ZM269.459 1.15255V2.06578C269.459 3.27635 269.459 4.63558 269.066 6.68505L267.707 6.54701C268.073 4.72054 268.089 3.3613 268.1 2.22507H262.408V1.15255H269.459ZM270.308 7.69386V8.79824H261.495V7.69386H264.648V4.37011H265.997V7.69386H270.308ZM26.8728 19.3134C28.8373 19.3134 30.0266 19.9718 30.0266 21.0974C30.0266 22.2336 28.8373 22.892 26.8728 22.9026C24.887 22.892 23.6765 22.2336 23.6765 21.0974C23.6765 19.9718 24.887 19.3134 26.8728 19.3134ZM26.8728 20.1098C25.4923 20.1098 24.6746 20.4602 24.6853 21.0974C24.6746 21.7345 25.4923 22.0956 26.8728 22.0956C28.2426 22.0956 29.0391 21.7345 29.0391 21.0974C29.0391 20.4602 28.2426 20.1098 26.8728 20.1098ZM29.9417 13.388V15.7135H31.3221V16.5737H29.9417V19.0692H28.9329V13.388H29.9417ZM23.8251 13.9826V15.3525H26.3206V13.9826H27.3188V18.4002H22.8375V13.9826H23.8251ZM23.8251 17.5931H26.3206V16.1489H23.8251V17.5931ZM35.1662 15.8091C35.1556 17.4975 36.1326 19.2178 37.5555 19.9081L36.929 20.7151C35.8936 20.1788 35.0919 19.1116 34.6778 17.8373C34.2477 19.1966 33.4141 20.3328 32.3309 20.8956L31.7044 20.078C33.1699 19.3771 34.1574 17.5506 34.1574 15.8091V14.1844H35.1662V15.8091ZM39.2758 13.388V17.179H40.8049V18.0391H39.2758V22.9026H38.267V13.388H39.2758ZM44.6384 14.8109C44.6384 16.1489 45.4985 17.3383 46.9427 17.8055L46.3905 18.5913C45.3446 18.2143 44.5747 17.4816 44.1605 16.5312C43.7464 17.6197 42.9181 18.4639 41.7713 18.878L41.2297 18.071C42.7482 17.5506 43.6296 16.287 43.6402 14.8534V13.9189H44.6384V14.8109ZM49.1939 13.388V19.0054H48.1851V16.1489H46.1781V15.3206H48.1851V13.388H49.1939ZM46.0082 19.2709C48.0046 19.2709 49.2258 19.9293 49.2258 21.0868C49.2258 22.2336 48.0046 22.892 46.0082 22.8814C44.0119 22.892 42.7801 22.2336 42.7907 21.0868C42.7801 19.9293 44.0119 19.2709 46.0082 19.2709ZM46.0082 20.0567C44.6172 20.0567 43.7889 20.4284 43.7889 21.0868C43.7889 21.7239 44.6172 22.085 46.0082 22.085C47.3993 22.085 48.2276 21.7239 48.2276 21.0868C48.2276 20.4284 47.3993 20.0567 46.0082 20.0567ZM58.8891 13.388V22.9026H57.9228V13.388H58.8891ZM57.0202 13.6004V22.4141H56.0751V18.878H54.8964V18.0497H56.0751V16.9029H54.8964V16.0746H56.0751V13.6004H57.0202ZM55.1194 14.5455V15.3737H54.3866V19.6744C54.7105 19.6532 55.0185 19.6213 55.2999 19.5895L55.3742 20.3434C53.8982 20.5983 51.923 20.6301 50.67 20.6408L50.5532 19.7912L51.4877 19.7806V15.3737H50.7549V14.5455H55.1194ZM52.4009 19.77L53.4628 19.7275V15.3737H52.4009V19.77ZM67.9684 13.388V22.9026H66.9489V13.388H67.9684ZM65.1331 14.4074C65.1331 17.1896 63.9438 19.6107 60.6837 21.1717L60.1528 20.3541C62.6854 19.1488 63.9172 17.4338 64.1137 15.2144H60.6094V14.4074H65.1331ZM78.1308 17.3276V18.1347H74.2867V18.963H77.037V21.193H71.4939V22.0319H77.3025V22.807H70.5063V20.4602H76.0388V19.7381H70.4957V18.963H73.2779V18.1347H69.455V17.3276H78.1308ZM77.0158 13.6959V16.6268H70.57V13.6959H77.0158ZM71.5576 14.4924V15.8304H76.007V14.4924H71.5576ZM86.7959 13.388V22.9239H85.7871V17.9754H83.8226V17.1577H85.7871V13.388H86.7959ZM82.2297 16.4463C82.2297 17.9542 83.196 19.4939 84.6615 20.1417L84.0986 20.9169C83.0102 20.4337 82.1713 19.4408 81.7518 18.2409C81.3324 19.5098 80.4988 20.5717 79.405 21.0761L78.8529 20.301C80.297 19.6426 81.2315 18.0179 81.2315 16.4463V15.8197H79.1183V15.0127H81.2421V13.5791H82.2509V15.0127H84.311V15.8197H82.2297V16.4463ZM96.1512 13.388V22.9239H95.1424V13.388H96.1512ZM93.2416 14.2481V17.7205H89.8223V19.8019C91.3621 19.7966 92.7107 19.7275 94.3035 19.4621L94.3991 20.2903C92.7107 20.5771 91.2771 20.6408 89.5993 20.6408H88.7923V16.9135H92.2116V15.0658H88.7816V14.2481H93.2416ZM100.972 15.1401C100.972 16.3507 101.811 17.4551 103.255 17.9117L102.778 18.6975C101.694 18.3524 100.903 17.6356 100.484 16.733C100.07 17.7736 99.2361 18.5966 98.0945 18.9948L97.5742 18.1878C99.0608 17.6993 99.9528 16.4675 99.9635 15.1507V14.8853H97.8715V14.0676H103.022V14.8853H100.972V15.1401ZM105.124 13.388V15.7454H106.505V16.5737H105.124V19.101H104.115V13.388H105.124ZM102.055 19.3346C104.02 19.3346 105.209 19.9824 105.209 21.0974C105.209 22.223 104.02 22.892 102.055 22.8814C100.07 22.892 98.8591 22.223 98.8591 21.0974C98.8591 19.9824 100.07 19.3346 102.055 19.3346ZM102.055 20.1311C100.675 20.1311 99.8573 20.4815 99.8679 21.0974C99.8573 21.7345 100.675 22.085 102.055 22.085C103.425 22.085 104.222 21.7345 104.222 21.0974C104.222 20.4815 103.425 20.1311 102.055 20.1311ZM111.379 13.5473C113.524 13.5473 114.777 14.1207 114.777 15.1826C114.777 16.2445 113.524 16.8285 111.379 16.8285C109.234 16.8285 107.981 16.2445 107.981 15.1826C107.981 14.1207 109.234 13.5473 111.379 13.5473ZM111.379 14.2906C109.86 14.2906 109.021 14.6198 109.032 15.1826C109.021 15.7666 109.86 16.0746 111.379 16.0746C112.897 16.0746 113.736 15.7666 113.736 15.1826C113.736 14.6198 112.897 14.2906 111.379 14.2906ZM115.722 17.4126V18.2196H107.046V17.4126H115.722ZM114.628 18.9523V21.1823H109.085V22.0319H114.894V22.807H108.098V20.4496H113.63V19.7063H108.087V18.9523H114.628ZM127.796 18.7612V19.5895H125.587V22.9026H124.568V19.5895H122.295V22.9026H121.255V19.5895H119.088V18.7612H127.796ZM123.421 13.749C125.428 13.749 126.808 14.5667 126.808 15.8516C126.808 17.1153 125.428 17.9223 123.421 17.9117C121.403 17.9223 120.033 17.1153 120.033 15.8516C120.033 14.5667 121.403 13.749 123.421 13.749ZM123.421 14.5561C122.009 14.5667 121.063 15.0552 121.074 15.8516C121.063 16.6268 122.009 17.1153 123.421 17.1153C124.833 17.1153 125.778 16.6268 125.778 15.8516C125.778 15.0552 124.833 14.5667 123.421 14.5561ZM136.376 13.388V22.9026H135.367V13.388H136.376ZM132.075 16.4463C132.075 17.9648 133.084 19.5152 134.56 20.1417L134.008 20.9169C132.914 20.439 132.038 19.4514 131.598 18.2515C131.167 19.5205 130.307 20.5771 129.198 21.0761L128.635 20.301C130.111 19.6426 131.088 18.0391 131.088 16.4463V15.8197H128.922V15.0127H131.077V13.5791H132.075V15.0127H134.21V15.8197H132.075V16.4463ZM145.37 13.3986V16.4569H146.751V17.2958H145.37V20.5133H144.362V13.3986H145.37ZM143.576 14.503V15.3206H137.905V14.503H140.241V13.388H141.25V14.503H143.576ZM140.74 15.7773C142.11 15.7773 143.045 16.4887 143.045 17.5719C143.045 18.655 142.11 19.3559 140.74 19.3559C139.36 19.3559 138.426 18.655 138.426 17.5719C138.426 16.4887 139.36 15.7773 140.74 15.7773ZM140.74 16.5524C139.933 16.5524 139.392 16.9453 139.402 17.5719C139.392 18.1878 139.933 18.5701 140.74 18.5701C141.548 18.5701 142.089 18.1878 142.1 17.5719C142.089 16.9453 141.548 16.5524 140.74 16.5524ZM145.774 21.8832V22.7009H139.339V19.9505H140.348V21.8832H145.774ZM157.88 13.3986V19.0267H156.871V17.8692H154.471V17.0409H156.871V15.8834H154.566C153.956 17.4126 152.528 18.4904 150.468 19.0798L150.064 18.294C152.315 17.6462 153.632 16.4409 153.812 14.9065H150.552V14.0782H154.906C154.906 14.4286 154.869 14.7684 154.811 15.087H156.871V13.3986H157.88ZM154.747 19.1329C156.669 19.1329 157.933 19.8337 157.943 20.9912C157.933 22.1487 156.669 22.8601 154.747 22.8601C152.793 22.8601 151.54 22.1487 151.54 20.9912C151.54 19.8337 152.793 19.1329 154.747 19.1329ZM154.747 19.9293C153.388 19.9293 152.538 20.3116 152.538 20.9912C152.538 21.6602 153.388 22.0531 154.747 22.0531C156.085 22.0531 156.924 21.6602 156.934 20.9912C156.924 20.3116 156.085 19.9293 154.747 19.9293ZM168.021 18.7506V19.5682H164.155V22.892H163.168V19.5682H159.345V18.7506H168.021ZM167.203 13.9508V14.7578H164.262C164.278 15.9365 165.743 16.9878 167.543 17.2321L167.171 18.0285C165.61 17.7843 164.262 17.0144 163.688 15.9259C163.099 17.0144 161.756 17.7843 160.216 18.0285L159.833 17.2321C161.612 16.9878 163.078 15.9365 163.115 14.7578H160.152V13.9508H167.203ZM172.236 15.8091C172.226 17.5506 173.277 19.2922 174.753 19.9505L174.148 20.747C173.054 20.2266 172.189 19.1594 171.748 17.8586C171.302 19.2497 170.426 20.4018 169.284 20.9593L168.668 20.1098C170.166 19.4408 171.217 17.625 171.217 15.8091V14.1844H172.236V15.8091ZM176.622 13.388V22.9239H175.613V13.388H176.622ZM183.163 14.195V18.6656H178.64V14.195H183.163ZM179.627 15.0127V17.8586H182.165V15.0127H179.627ZM186.031 13.3986V20.216H185.022V13.3986H186.031ZM186.317 21.7876V22.6159H179.808V19.5576H180.827V21.7876H186.317ZM190.639 14.0676C192.147 14.057 193.22 14.9914 193.23 16.3294C193.22 17.6674 192.147 18.6019 190.639 18.6019C189.142 18.6019 188.038 17.6674 188.048 16.3294C188.038 14.9914 189.142 14.057 190.639 14.0676ZM190.639 14.9384C189.715 14.9384 189.036 15.4905 189.046 16.3294C189.036 17.1683 189.715 17.7205 190.639 17.7205C191.563 17.7205 192.243 17.1683 192.243 16.3294C192.243 15.4905 191.563 14.9384 190.639 14.9384ZM195.407 13.388V22.9239H194.398V13.388H195.407ZM187.592 20.0355C189.322 20.0355 191.722 20.0142 193.804 19.7169L193.878 20.4496C191.722 20.8638 189.418 20.8744 187.719 20.8744L187.592 20.0355ZM208.299 20.8744V21.7133H199.591V20.8744H201.672V18.3895C200.892 17.9595 200.419 17.2745 200.419 16.425C200.419 14.9277 201.885 13.9402 203.924 13.9402C205.973 13.9402 207.439 14.9277 207.439 16.425C207.439 17.2639 206.982 17.9382 206.217 18.3683V20.8744H208.299ZM203.924 14.7472C202.426 14.7472 201.396 15.395 201.396 16.425C201.396 17.4444 202.426 18.1134 203.924 18.1134C205.41 18.1134 206.462 17.4444 206.462 16.425C206.462 15.395 205.41 14.7472 203.924 14.7472ZM202.671 20.8744H205.198V18.7506C204.81 18.8515 204.38 18.8992 203.924 18.8992C203.478 18.8992 203.053 18.8515 202.671 18.7612V20.8744ZM216.56 13.9826V14.8215C216.56 15.7242 216.56 16.7011 216.295 18.0603H217.665V18.8886H213.81V22.9132H212.79V18.8886H208.989V18.0603H215.275C215.562 16.7064 215.562 15.7082 215.562 14.8215V14.8109H210.051V13.9826H216.56ZM226.574 13.388V22.9026H225.608V13.388H226.574ZM224.641 13.5685V22.4354H223.675V17.848H222.602C222.518 19.7063 221.721 20.8638 220.542 20.8531C219.3 20.8638 218.493 19.5576 218.493 17.4975C218.493 15.4374 219.3 14.1419 220.542 14.1525C221.7 14.1419 222.486 15.241 222.602 17.0303H223.675V13.5685H224.641ZM220.542 15.0976C219.852 15.0976 219.427 15.979 219.427 17.4975C219.427 19.0161 219.852 19.8974 220.542 19.8974C221.243 19.8974 221.679 19.0161 221.679 17.4975C221.679 15.979 221.243 15.0976 220.542 15.0976ZM238.021 13.3667V17.0622H239.327V17.9117H238.021V22.9026H237.012V13.3667H238.021ZM233.137 14.3649V15.1932H231.703V19.6107C232.16 19.5948 232.664 19.547 233.221 19.4302L233.306 20.2691C232.446 20.439 231.767 20.4602 231.13 20.4602H230.694V14.3649H233.137ZM236.205 14.3649V15.1932H234.655V19.6107C235.351 19.6054 235.876 19.5576 236.46 19.409L236.545 20.2479C235.781 20.439 235.154 20.4602 234.135 20.4602H233.667V14.3649H236.205ZM247.249 13.388V17.1046H248.778V17.9542H247.249V22.9239H246.251V13.388H247.249ZM244.563 14.2481V17.7418H241.228V19.8019C242.864 19.7966 244.074 19.7381 245.465 19.4833L245.561 20.301C244.074 20.5771 242.789 20.6408 241.005 20.6514H240.23V16.9241H243.564V15.0658H240.209V14.2481H244.563Z" fill="black"/>
</svg>
