<svg width="349" height="23" viewBox="0 0 349 23" fill="none" xmlns="http://www.w3.org/2000/svg">
<path d="M4.1763 6.31339C6.14081 6.31339 7.33014 6.97177 7.33014 8.09738C7.33014 9.23362 6.14081 9.892 4.1763 9.90262C2.19054 9.892 0.979971 9.23362 0.979971 8.09738C0.979971 6.97177 2.19054 6.31339 4.1763 6.31339ZM4.1763 7.10982C2.79582 7.10982 1.97816 7.46024 1.98878 8.09738C1.97816 8.73452 2.79582 9.09557 4.1763 9.09557C5.54615 9.09557 6.34257 8.73452 6.34257 8.09738C6.34257 7.46024 5.54615 7.10982 4.1763 7.10982ZM7.24519 0.387978V2.71354H8.62566V3.57368H7.24519V6.06915H6.23638V0.387978H7.24519ZM1.12864 0.982643V2.3525H3.62411V0.982643H4.62229V5.40015H0.141069V0.982643H1.12864ZM1.12864 4.59311H3.62411V3.14892H1.12864V4.59311ZM12.4697 2.80911C12.4591 4.49754 13.4361 6.21782 14.859 6.90805L14.2325 7.7151C13.1971 7.17884 12.3954 6.11163 11.9813 4.83735C11.5512 6.19658 10.7176 7.33281 9.63447 7.89562L9.00795 7.07796C10.4734 6.3771 11.4609 4.55063 11.4609 2.80911V1.1844H12.4697V2.80911ZM16.5793 0.387978V4.17897H18.1084V5.03911H16.5793V9.90262H15.5705V0.387978H16.5793ZM21.9419 1.81093C21.9419 3.14892 22.802 4.33825 24.2462 4.80549L23.694 5.5913C22.6481 5.21432 21.8782 4.48161 21.4641 3.53121C21.0499 4.61966 20.2216 5.46387 19.0748 5.87801L18.5332 5.07096C20.0517 4.55063 20.9331 3.28697 20.9437 1.8534V0.918929H21.9419V1.81093ZM26.4975 0.387978V6.00544H25.4887V3.14892H23.4817V2.32064H25.4887V0.387978H26.4975ZM23.3118 6.27091C25.3081 6.27091 26.5293 6.92929 26.5293 8.08676C26.5293 9.23362 25.3081 9.892 23.3118 9.88138C21.3154 9.892 20.0836 9.23362 20.0942 8.08676C20.0836 6.92929 21.3154 6.27091 23.3118 6.27091ZM23.3118 7.05672C21.9207 7.05672 21.0924 7.42839 21.0924 8.08676C21.0924 8.72391 21.9207 9.08495 23.3118 9.08495C24.7029 9.08495 25.5311 8.72391 25.5311 8.08676C25.5311 7.42839 24.7029 7.05672 23.3118 7.05672ZM36.1926 0.387978V9.90262H35.2263V0.387978H36.1926ZM34.3237 0.600358V9.41414H33.3786V5.87801H32.1999V5.04973H33.3786V3.90287H32.1999V3.07459H33.3786V0.600358H34.3237ZM32.4229 1.54545V2.37373H31.6902V6.67444C32.014 6.6532 32.322 6.62134 32.6034 6.58948L32.6777 7.34343C31.2017 7.59829 29.2266 7.63015 27.9735 7.64077L27.8567 6.79124L28.7912 6.78063V2.37373H28.0585V1.54545H32.4229ZM29.7044 6.77001L30.7663 6.72753V2.37373H29.7044V6.77001ZM45.2719 0.387978V9.90262H44.2525V0.387978H45.2719ZM42.4366 1.4074C42.4366 4.18959 41.2473 6.61072 37.9872 8.17172L37.4563 7.35405C39.9889 6.14879 41.2207 4.43382 41.4172 2.21445H37.9129V1.4074H42.4366ZM55.4343 4.32763V5.13468H51.5902V5.96296H54.3405V8.19295H48.7974V9.03186H54.606V9.80705H47.8098V7.46024H53.3423V6.73815H47.7992V5.96296H50.5814V5.13468H46.7585V4.32763H55.4343ZM54.3193 0.695929V3.62678H47.8735V0.695929H54.3193ZM48.8611 1.49236V2.83035H53.3105V1.49236H48.8611ZM64.864 7.91686V8.76638H56.1564V7.91686H59.9898V6.24967H57.2183V3.22326H62.8039V1.88526H57.197V1.05698H63.8021V4.0303H58.2165V5.42139H64.0251V6.24967H60.988V7.91686H64.864ZM76.0989 0.398597V7.31158H75.0901V0.398597H76.0989ZM76.3856 8.88319V9.70086H69.8761V6.61072H70.8956V8.88319H76.3856ZM70.9381 1.03574C72.3716 1.03574 73.4654 2.01269 73.4654 3.39316C73.4654 4.79487 72.3716 5.7612 70.9381 5.7612C69.5045 5.7612 68.4001 4.79487 68.4001 3.39316C68.4001 2.01269 69.5045 1.03574 70.9381 1.03574ZM70.9381 1.91712C70.0461 1.91712 69.3877 2.5224 69.3877 3.39316C69.3877 4.28516 70.0461 4.87982 70.9381 4.87982C71.8088 4.87982 72.4778 4.28516 72.4778 3.39316C72.4778 2.5224 71.8088 1.91712 70.9381 1.91712ZM85.0826 0.398597V3.45687H86.4631V4.29578H85.0826V7.51334H84.0738V0.398597H85.0826ZM83.288 1.50297V2.32064H77.6174V1.50297H79.9536V0.387978H80.9624V1.50297H83.288ZM80.4527 2.77726C81.8225 2.77726 82.757 3.48873 82.757 4.57187C82.757 5.65501 81.8225 6.35586 80.4527 6.35586C79.0722 6.35586 78.1377 5.65501 78.1377 4.57187C78.1377 3.48873 79.0722 2.77726 80.4527 2.77726ZM80.4527 3.55244C79.6456 3.55244 79.1041 3.94535 79.1147 4.57187C79.1041 5.18777 79.6456 5.57006 80.4527 5.57006C81.2597 5.57006 81.8013 5.18777 81.8119 4.57187C81.8013 3.94535 81.2597 3.55244 80.4527 3.55244ZM85.4861 8.88319V9.70086H79.051V6.95053H80.0598V8.88319H85.4861ZM92.7814 0.823357C94.2149 0.823357 95.2556 1.61978 95.2556 2.79849C95.2556 3.96659 94.2149 4.77363 92.7814 4.76301C91.3478 4.77363 90.3284 3.96659 90.3284 2.79849C90.3284 1.61978 91.3478 0.823357 92.7814 0.823357ZM92.7814 1.64102C91.9212 1.64102 91.2947 2.09764 91.3053 2.79849C91.2947 3.48873 91.9212 3.94535 92.7814 3.93473C93.6627 3.94535 94.2893 3.48873 94.2893 2.79849C94.2893 2.09764 93.6627 1.64102 92.7814 1.64102ZM97.5705 0.398597V9.90262H96.5724V0.398597H97.5705ZM89.6488 5.50634C91.4009 5.50634 93.8326 5.46387 95.914 5.15592L95.9883 5.90987C95.1229 6.07446 94.2202 6.17534 93.3442 6.23906V9.60528H92.3354V6.29215C91.4115 6.33463 90.5408 6.33994 89.7868 6.34525L89.6488 5.50634ZM103.761 1.95959V2.77726H99.036V1.95959H100.905V0.664072H101.903V1.95959H103.761ZM101.404 3.35068C102.615 3.35068 103.464 4.2533 103.475 5.5382C103.464 6.83372 102.615 7.74696 101.404 7.74696C100.215 7.74696 99.3333 6.83372 99.3439 5.5382C99.3333 4.2533 100.215 3.35068 101.404 3.35068ZM101.404 4.18959C100.714 4.18959 100.236 4.75239 100.236 5.5382C100.236 6.34525 100.714 6.88682 101.404 6.88682C102.084 6.88682 102.583 6.34525 102.583 5.5382C102.583 4.75239 102.084 4.18959 101.404 4.18959ZM107.202 0.387978V9.90262H106.246V5.17715H105.153V9.45662H104.197V0.600358H105.153V4.34887H106.246V0.387978H107.202ZM117.152 4.75239V5.52758H108.444V4.75239H117.152ZM116.079 6.19658V8.28853H110.494V9.07433H116.377V9.78581H109.485V7.61953H115.081V6.91867H109.474V6.19658H116.079ZM116.058 0.632215V2.6923H110.558V3.4144H116.218V4.12587H109.559V2.02331H115.049V1.34369H109.538V0.632215H116.058ZM124.915 6.31339C126.879 6.31339 128.068 6.97177 128.068 8.09738C128.068 9.23362 126.879 9.892 124.915 9.90262C122.929 9.892 121.718 9.23362 121.718 8.09738C121.718 6.97177 122.929 6.31339 124.915 6.31339ZM124.915 7.10982C123.534 7.10982 122.716 7.46024 122.727 8.09738C122.716 8.73452 123.534 9.09557 124.915 9.09557C126.284 9.09557 127.081 8.73452 127.081 8.09738C127.081 7.46024 126.284 7.10982 124.915 7.10982ZM127.983 0.387978V2.71354H129.364V3.57368H127.983V6.06915H126.975V0.387978H127.983ZM121.867 0.982643V2.3525H124.362V0.982643H125.361V5.40015H120.879V0.982643H121.867ZM121.867 4.59311H124.362V3.14892H121.867V4.59311ZM133.41 3.1914C133.41 4.78425 134.45 6.4302 135.916 7.05672L135.364 7.84253C134.243 7.34874 133.351 6.30277 132.911 5.02849C132.47 6.38772 131.573 7.54519 130.468 8.08676L129.884 7.29034C131.318 6.62134 132.38 4.82673 132.39 3.1914V2.18259H130.213V1.34369H135.576V2.18259H133.41V3.1914ZM137.785 0.387978V9.90262H136.776V0.387978H137.785ZM146.715 0.387978V4.24268H148.244V5.08158H146.715V9.90262H145.717V0.387978H146.715ZM144.889 1.87464V2.70292H139.25V1.87464H141.597V0.515406H142.606V1.87464H144.889ZM142.107 3.40378C143.466 3.40378 144.464 4.31701 144.475 5.61253C144.464 6.91867 143.466 7.82129 142.107 7.83191C140.737 7.82129 139.739 6.91867 139.739 5.61253C139.739 4.31701 140.737 3.40378 142.107 3.40378ZM142.107 4.23206C141.3 4.23206 140.694 4.79487 140.705 5.61253C140.694 6.44082 141.3 6.99301 142.107 6.98239C142.914 6.99301 143.508 6.44082 143.508 5.61253C143.508 4.79487 142.914 4.23206 142.107 4.23206ZM156.4 1.30121V2.23569C156.4 3.4144 156.4 4.73116 156.039 6.67444L155.019 6.56825C155.391 4.73116 155.391 3.38254 155.391 2.23569V2.11888H149.614V1.30121H156.4ZM157.377 7.77881V8.61772H148.701V7.77881H152.004V4.4232H153.002V7.77881H157.377ZM165.044 6.36648C167.104 6.36648 168.399 7.01424 168.41 8.12924C168.399 9.23362 167.104 9.892 165.044 9.88138C163.005 9.892 161.699 9.23362 161.699 8.12924C161.699 7.01424 163.005 6.36648 165.044 6.36648ZM165.044 7.13105C163.6 7.13105 162.697 7.50272 162.708 8.12924C162.697 8.74514 163.6 9.10619 165.044 9.10619C166.499 9.10619 167.401 8.74514 167.412 8.12924C167.401 7.50272 166.499 7.13105 165.044 7.13105ZM168.336 0.855214V1.65164C168.336 2.41621 168.336 3.20202 168.07 4.17897L167.083 4.07278C167.337 3.10114 167.337 2.40028 167.337 1.66226H161.773V0.855214H168.336ZM169.419 4.76301V5.58068H160.764V4.76301H164.237V2.97902H165.224V4.76301H169.419ZM174.442 6.36648C176.502 6.36648 177.797 7.01424 177.808 8.12924C177.797 9.23362 176.502 9.892 174.442 9.88138C172.403 9.892 171.097 9.23362 171.097 8.12924C171.097 7.01424 172.403 6.36648 174.442 6.36648ZM174.442 7.13105C172.997 7.13105 172.095 7.50272 172.105 8.12924C172.095 8.74514 172.997 9.10619 174.442 9.10619C175.896 9.10619 176.799 8.74514 176.81 8.12924C176.799 7.50272 175.896 7.13105 174.442 7.13105ZM177.733 0.855214V1.65164C177.733 2.41621 177.733 3.20202 177.468 4.17897L176.48 4.07278C176.735 3.10114 176.735 2.40028 176.735 1.66226H171.171V0.855214H177.733ZM178.817 4.76301V5.58068H170.162V4.76301H173.635V2.97902H174.622V4.76301H178.817ZM182.65 1.06759C184.158 1.05698 185.231 1.99145 185.241 3.32945C185.231 4.66744 184.158 5.60191 182.65 5.60191C181.153 5.60191 180.048 4.66744 180.059 3.32945C180.048 1.99145 181.153 1.05698 182.65 1.06759ZM182.65 1.93835C181.726 1.93835 181.047 2.49054 181.057 3.32945C181.047 4.16835 181.726 4.72054 182.65 4.72054C183.574 4.72054 184.254 4.16835 184.254 3.32945C184.254 2.49054 183.574 1.93835 182.65 1.93835ZM187.418 0.387978V9.92385H186.409V0.387978H187.418ZM179.602 7.03548C181.333 7.03548 183.733 7.01424 185.815 6.71691L185.889 7.44962C183.733 7.86377 181.429 7.87438 179.73 7.87438L179.602 7.03548ZM199.078 0.377359V3.22326H200.458V4.07278H199.078V7.37529H198.069V0.377359H199.078ZM199.481 8.88319V9.70086H193.046V6.64258H194.055V8.88319H199.481ZM194.278 1.03574C195.711 1.03574 196.805 2.01269 196.816 3.40378C196.805 4.78425 195.711 5.77182 194.278 5.77182C192.844 5.77182 191.74 4.78425 191.751 3.40378C191.74 2.01269 192.844 1.03574 194.278 1.03574ZM194.278 1.91712C193.407 1.91712 192.728 2.5224 192.738 3.40378C192.728 4.28516 193.407 4.89044 194.278 4.89044C195.159 4.89044 195.828 4.28516 195.828 3.40378C195.828 2.5224 195.159 1.91712 194.278 1.91712ZM208.932 0.398597V7.36467H207.923V3.78606H206.107V2.9684H207.923V0.398597H208.932ZM209.187 8.88319V9.70086H202.752V6.73815H203.761V8.88319H209.187ZM204.408 2.32064C204.408 3.50997 205.269 4.6993 206.702 5.17715L206.182 5.9842C205.115 5.60722 204.324 4.84266 203.909 3.90287C203.495 4.94885 202.662 5.79306 201.531 6.19658L201.01 5.37892C202.476 4.87982 203.378 3.62678 203.378 2.32064V1.94897H201.318V1.12069H206.447V1.94897H204.408V2.32064ZM215.696 1.4074V1.99145C215.696 2.78788 215.696 4.01968 215.42 5.71872L214.422 5.64439C214.661 4.12056 214.688 3.02149 214.698 2.22507H210.833V1.4074H215.696ZM213.254 4.12587V6.97177C214.268 6.93991 215.298 6.87089 216.249 6.74877L216.302 7.50272C214.316 7.82129 212.107 7.86377 210.419 7.85315L210.302 7.03548C210.897 7.03017 211.56 7.02486 212.256 7.00362V4.12587H213.254ZM217.81 0.387978V4.31701H219.264V5.17715H217.81V9.90262H216.79V0.387978H217.81ZM229.937 0.387978V3.64802H231.296V4.48692H229.937V7.82129H228.928V0.387978H229.937ZM230.276 8.88319V9.70086H223.788V7.3222H224.797V8.88319H230.276ZM222.386 5.97358C223.119 5.97358 223.974 5.96827 224.871 5.9311V5.27273C223.788 5.15592 223.098 4.63027 223.109 3.84978C223.098 2.92592 224.001 2.37373 225.37 2.38435C226.73 2.37373 227.632 2.92592 227.632 3.84978C227.632 4.62497 226.953 5.15061 225.88 5.27273V5.88863C226.73 5.84084 227.59 5.76651 228.386 5.64439L228.471 6.35586C226.443 6.73815 224.149 6.77001 222.493 6.78063L222.386 5.97358ZM228.121 1.26936V2.01269H222.631V1.26936H224.871V0.356121H225.88V1.26936H228.121ZM225.37 3.07459C224.553 3.07459 224.064 3.3613 224.064 3.84978C224.064 4.31701 224.553 4.60373 225.37 4.60373C226.177 4.60373 226.666 4.31701 226.666 3.84978C226.666 3.3613 226.177 3.07459 225.37 3.07459ZM239.78 0.398597V6.02668H238.772V4.8692H236.372V4.04092H238.772V2.88345H236.467C235.857 4.41258 234.428 5.49042 232.368 6.07977L231.965 5.29396C234.216 4.6462 235.533 3.44094 235.713 1.9065H232.453V1.07821H236.807C236.807 1.42864 236.77 1.76845 236.712 2.08702H238.772V0.398597H239.78ZM236.648 6.13287C238.57 6.13287 239.834 6.83372 239.844 7.99119C239.834 9.14867 238.57 9.86014 236.648 9.86014C234.694 9.86014 233.441 9.14867 233.441 7.99119C233.441 6.83372 234.694 6.13287 236.648 6.13287ZM236.648 6.92929C235.289 6.92929 234.439 7.31158 234.439 7.99119C234.439 8.66019 235.289 9.0531 236.648 9.0531C237.986 9.0531 238.825 8.66019 238.835 7.99119C238.825 7.31158 237.986 6.92929 236.648 6.92929ZM249.953 7.885V8.72391H241.246V7.885H245.079V5.9311H242.244V1.03574H243.253V2.67107H247.925V1.03574H248.923V5.9311H246.077V7.885H249.953ZM243.253 5.11344H247.925V3.48873H243.253V5.11344ZM258.576 0.398597V7.36467H257.567V3.78606H255.751V2.9684H257.567V0.398597H258.576ZM258.831 8.88319V9.70086H252.396V6.73815H253.405V8.88319H258.831ZM254.052 2.32064C254.052 3.50997 254.913 4.6993 256.346 5.17715L255.826 5.9842C254.759 5.60722 253.967 4.84266 253.553 3.90287C253.139 4.94885 252.306 5.79306 251.175 6.19658L250.654 5.37892C252.12 4.87982 253.022 3.62678 253.022 2.32064V1.94897H250.962V1.12069H256.091V1.94897H254.052V2.32064ZM268.229 0.387978V9.90262H267.262V0.387978H268.229ZM266.296 0.568501V9.43538H265.33V4.84796H264.257C264.172 6.70629 263.376 7.86377 262.197 7.85315C260.955 7.86377 260.148 6.55763 260.148 4.49754C260.148 2.43745 260.955 1.14193 262.197 1.15255C263.355 1.14193 264.14 2.241 264.257 4.0303H265.33V0.568501H266.296ZM262.197 2.09764C261.507 2.09764 261.082 2.97902 261.082 4.49754C261.082 6.01606 261.507 6.89743 262.197 6.89743C262.898 6.89743 263.333 6.01606 263.333 4.49754C263.333 2.97902 262.898 2.09764 262.197 2.09764ZM279.973 0.387978V9.92385H278.965V0.387978H279.973ZM274.887 1.09945C276.299 1.09945 277.34 2.39497 277.34 4.43382C277.34 6.48329 276.299 7.77881 274.887 7.77881C273.453 7.77881 272.423 6.48329 272.423 4.43382C272.423 2.39497 273.453 1.09945 274.887 1.09945ZM274.887 2.00207C274.006 2.00207 273.4 2.93654 273.4 4.43382C273.4 5.94172 274.006 6.8762 274.887 6.8762C275.758 6.8762 276.363 5.94172 276.363 4.43382C276.363 2.93654 275.758 2.00207 274.887 2.00207ZM288.904 0.387978V4.07278H290.433V4.9223H288.904V9.90262H287.895V0.387978H288.904ZM282.851 1.1844V3.62678H285.368V1.1844H286.366V7.64077H281.853V1.1844H282.851ZM282.851 6.81248H285.368V4.4232H282.851V6.81248ZM294.394 3.1914C294.394 4.78425 295.435 6.4302 296.9 7.05672L296.348 7.84253C295.228 7.34874 294.336 6.30277 293.895 5.02849C293.454 6.38772 292.557 7.54519 291.453 8.08676L290.868 7.29034C292.302 6.62134 293.364 4.82673 293.375 3.1914V2.18259H291.198V1.34369H296.56V2.18259H294.394V3.1914ZM298.769 0.387978V9.90262H297.76V0.387978H298.769ZM307.7 0.387978V4.24268H309.229V5.08158H307.7V9.90262H306.701V0.387978H307.7ZM305.873 1.87464V2.70292H300.234V1.87464H302.581V0.515406H303.59V1.87464H305.873ZM303.091 3.40378C304.45 3.40378 305.448 4.31701 305.459 5.61253C305.448 6.91867 304.45 7.82129 303.091 7.83191C301.721 7.82129 300.723 6.91867 300.723 5.61253C300.723 4.31701 301.721 3.40378 303.091 3.40378ZM303.091 4.23206C302.284 4.23206 301.679 4.79487 301.689 5.61253C301.679 6.44082 302.284 6.99301 303.091 6.98239C303.898 6.99301 304.493 6.44082 304.493 5.61253C304.493 4.79487 303.898 4.23206 303.091 4.23206ZM317.597 0.387978V9.90262H316.577V0.387978H317.597ZM314.761 1.4074C314.761 4.18959 313.572 6.61072 310.312 8.17172L309.781 7.35405C312.314 6.14879 313.545 4.43382 313.742 2.21445H310.238V1.4074H314.761ZM324.86 0.823357C326.294 0.823357 327.334 1.61978 327.334 2.79849C327.334 3.96659 326.294 4.77363 324.86 4.76301C323.426 4.77363 322.407 3.96659 322.407 2.79849C322.407 1.61978 323.426 0.823357 324.86 0.823357ZM324.86 1.64102C324 1.64102 323.373 2.09764 323.384 2.79849C323.373 3.48873 324 3.94535 324.86 3.93473C325.741 3.94535 326.368 3.48873 326.368 2.79849C326.368 2.09764 325.741 1.64102 324.86 1.64102ZM329.649 0.398597V9.90262H328.651V0.398597H329.649ZM321.727 5.50634C323.479 5.50634 325.911 5.46387 327.993 5.15592L328.067 5.90987C327.201 6.07446 326.299 6.17534 325.423 6.23906V9.60528H324.414V6.29215C323.49 6.33463 322.619 6.33994 321.865 6.34525L321.727 5.50634ZM338.548 0.387978V4.24268H340.077V5.08158H338.548V9.90262H337.55V0.387978H338.548ZM336.721 1.87464V2.70292H331.083V1.87464H333.43V0.515406H334.438V1.87464H336.721ZM333.939 3.40378C335.298 3.40378 336.297 4.31701 336.307 5.61253C336.297 6.91867 335.298 7.82129 333.939 7.83191C332.569 7.82129 331.571 6.91867 331.571 5.61253C331.571 4.31701 332.569 3.40378 333.939 3.40378ZM333.939 4.23206C333.132 4.23206 332.527 4.79487 332.538 5.61253C332.527 6.44082 333.132 6.99301 333.939 6.98239C334.746 6.99301 335.341 6.44082 335.341 5.61253C335.341 4.79487 334.746 4.23206 333.939 4.23206ZM343.114 1.09945C343.979 1.09945 344.696 1.59855 345.121 2.45869H347.468V0.387978H348.466V9.92385H347.468V6.27091H345.185C344.776 7.22662 344.027 7.77881 343.114 7.77881C341.691 7.77881 340.693 6.48329 340.704 4.43382C340.693 2.39497 341.691 1.09945 343.114 1.09945ZM343.114 2.00207C342.254 2.00207 341.659 2.93654 341.659 4.43382C341.659 5.94172 342.254 6.8762 343.114 6.8762C343.974 6.8762 344.569 5.94172 344.569 4.43382C344.569 2.93654 343.974 2.00207 343.114 2.00207ZM345.408 3.28697C345.477 3.6374 345.525 4.01968 345.525 4.43382C345.525 4.79487 345.493 5.12937 345.429 5.44263H347.468V3.28697H345.408ZM23.2905 13.388V18.2833H22.2817V15.841H20.2747V15.0233H22.2817V13.388H23.2905ZM23.2905 18.7293V21.0974H18.0766V21.9788H23.6197V22.7858H17.089V20.3328H22.2923V19.5258H17.0678V18.7293H23.2905ZM18.7031 14.5242C18.7031 15.7348 19.5739 16.8604 21.0074 17.317L20.4765 18.1028C19.4305 17.7418 18.6394 17.025 18.2253 16.1171C17.8058 17.1365 16.9881 17.9382 15.8678 18.3258L15.3263 17.5188C16.8129 17.0409 17.6943 15.8622 17.7049 14.5242V13.6959H18.7031V14.5242ZM32.6459 13.3986V18.6444H31.6371V13.3986H32.6459ZM29.6088 13.8446V16.4993H26.2426V17.625C27.9045 17.6143 29.131 17.5719 30.5752 17.3383L30.7026 18.1559C29.1522 18.4108 27.8461 18.4532 26.0515 18.4639H25.255V15.7135H28.6106V14.6623H25.2338V13.8446H29.6088ZM27.4107 19.0904V20.1204H31.6477V19.0904H32.6459V22.7858H26.4019V19.0904H27.4107ZM27.4107 21.9681H31.6477V20.9169H27.4107V21.9681ZM39.6969 16.4356V17.2533H37.8386V18.4532C38.6828 18.4161 39.5217 18.3577 40.3022 18.2727L40.3765 19.0161C38.3483 19.2922 36.1183 19.3452 34.3343 19.3452L34.1963 18.5382C35.0086 18.5329 35.9165 18.5223 36.8404 18.4957V17.2533H35.0458V13.9933H39.612V14.8109H36.0546V16.4356H39.6969ZM42.0437 13.388V20.524H41.0349V13.388H42.0437ZM42.341 21.8832V22.7009H35.7679V20.0142H36.7767V21.8832H42.341ZM54.4998 13.3136V22.9769H53.2149V18.1241H52.2804V22.5097H51.038V13.4729H52.2804V17.0409H53.2149V13.3136H54.4998ZM50.0186 14.4286V15.5224H47.778V19.6426C48.7124 19.6373 49.5407 19.5895 50.4752 19.4196L50.5708 20.524C49.3921 20.747 48.362 20.7788 47.0877 20.7894H46.4187V14.4286H50.0186ZM63.2074 13.3243V16.287H64.5135V17.3913H63.2074V20.5346H61.8482V13.3243H63.2074ZM61.2747 14.3331V15.4056H55.5405V14.3331H57.7386V13.303H59.0872V14.3331H61.2747ZM58.4076 15.7454C59.8093 15.7454 60.7863 16.4993 60.7863 17.6143C60.7863 18.7293 59.8093 19.4621 58.4076 19.4621C56.9953 19.4621 56.0077 18.7293 56.0077 17.6143C56.0077 16.4993 56.9953 15.7454 58.4076 15.7454ZM58.4076 16.7754C57.7598 16.7861 57.3245 17.0834 57.3351 17.6143C57.3245 18.1453 57.7598 18.432 58.4076 18.432C59.0554 18.432 59.5014 18.1453 59.5014 17.6143C59.5014 17.0834 59.0554 16.7861 58.4076 16.7754ZM63.5578 21.7239V22.807H56.9422V19.9824H58.2908V21.7239H63.5578ZM70.1522 14.0888V18.7506H65.4268V14.0888H70.1522ZM66.7648 15.1614V17.6781H68.8036V15.1614H66.7648ZM73.03 13.3243V20.1948H71.6708V13.3243H73.03ZM73.2848 21.6708V22.7646H66.5524V19.5576H67.9222V21.6708H73.2848ZM82.1305 13.7384V14.4924C82.1305 15.2038 82.1305 16.0215 81.9394 17.0622H83.1818V18.1453H79.4226V19.5364H82.1411V22.9769H80.7819V20.5983H75.2281V19.5364H78.0634V18.1453H74.3361V17.0622H80.5695C80.75 16.1595 80.7766 15.4481 80.7819 14.8109H75.4193V13.7384H82.1305ZM89.808 14.9702C89.7974 16.202 90.4983 17.402 92.0699 17.9117L91.3584 18.9736C90.3018 18.6178 89.5744 17.9223 89.1603 17.0409C88.7249 18.0126 87.955 18.7718 86.8347 19.1541L86.0808 18.0816C87.7267 17.5719 88.4382 16.2764 88.4488 14.9596V13.9083H89.808V14.9702ZM93.907 13.3136V16.1064H95.2131V17.2533H93.907V20.3965H92.5477V13.3136H93.907ZM94.268 21.7239V22.807H87.6311V19.6957H89.0116V21.7239H94.268ZM98.3351 13.7278C99.5722 13.7172 100.554 14.4233 100.82 15.4587H102.434V13.3136H103.783V18.5063H102.434V16.5418H100.831C100.576 17.6037 99.5828 18.3258 98.3351 18.3258C96.8484 18.3258 95.7547 17.3595 95.7653 16.0109C95.7547 14.6835 96.8484 13.7172 98.3351 13.7278ZM98.3351 14.8534C97.5812 14.8428 97.0396 15.2888 97.0502 16.0109C97.0396 16.733 97.5812 17.1896 98.3351 17.1896C99.0678 17.1896 99.5988 16.733 99.5988 16.0109C99.5988 15.2888 99.0678 14.8428 98.3351 14.8534ZM98.6749 18.9311V19.8656H102.434V18.9311H103.783V22.8708H97.3369V18.9311H98.6749ZM98.6749 21.777H102.434V20.9062H98.6749V21.777ZM113.849 18.294V19.3559H105.014V18.294H108.752V17.6993H106.119V13.5473H112.819V14.5879H107.478V15.1295H112.596V16.1064H107.478V16.6586H112.904V17.6993H110.112V18.294H113.849ZM109.432 19.8019C111.566 19.7912 112.788 20.3647 112.798 21.3841C112.788 22.4248 111.566 22.9769 109.432 22.9769C107.266 22.9769 106.045 22.4248 106.045 21.3841C106.045 20.3647 107.266 19.7912 109.432 19.8019ZM109.432 20.8001C108.041 20.8001 107.393 20.9806 107.404 21.3841C107.393 21.7982 108.041 21.9788 109.432 21.9788C110.791 21.9788 111.428 21.7982 111.439 21.3841C111.428 20.9806 110.791 20.8001 109.432 20.8001ZM117.959 14.8322C117.959 16.0003 118.639 17.1259 120.168 17.6037L119.446 18.655C118.421 18.3152 117.704 17.6568 117.29 16.8073C116.871 17.7843 116.122 18.5488 115.018 18.9205L114.285 17.8586C115.899 17.317 116.589 16.0321 116.6 14.7047V13.8234H117.959V14.8322ZM122.1 13.3136V15.5755H123.407V16.7011H122.1V19.0479H120.741V13.3136H122.1ZM118.936 19.2391C120.932 19.2391 122.196 19.9293 122.196 21.108C122.196 22.2973 120.932 22.9769 118.936 22.9769C116.897 22.9769 115.623 22.2973 115.623 21.108C115.623 19.9293 116.897 19.2391 118.936 19.2391ZM118.936 20.301C117.662 20.301 116.971 20.5771 116.982 21.108C116.971 21.6602 117.662 21.915 118.936 21.915C120.189 21.915 120.858 21.6602 120.858 21.108C120.858 20.5771 120.189 20.301 118.936 20.301ZM127.399 15.9472C127.389 17.4232 128.175 19.1222 129.767 19.855L129.013 20.9169C127.936 20.4231 127.166 19.4355 126.741 18.2727C126.306 19.5523 125.514 20.6355 124.394 21.1611L123.608 20.0886C125.222 19.3346 126.03 17.54 126.04 15.9472V15.3525H123.991V14.2481H129.343V15.3525H127.399V15.9472ZM131.456 13.3136V16.9984H132.879V18.1347H131.456V22.9769H130.097V13.3136H131.456ZM141.416 13.3243V20.6195H140.057V19.855H138.21V18.9311H140.057V13.3243H141.416ZM141.629 21.7239V22.807H134.429V19.9187H135.778V18.6338C134.912 18.6709 134.089 18.6762 133.357 18.6762L133.197 17.6037C134.971 17.5931 137.36 17.5719 139.399 17.317L139.473 18.2833C138.709 18.4108 137.917 18.501 137.137 18.5594V20.3965H135.778V21.7239H141.629ZM136.341 13.6535C137.742 13.6428 138.751 14.3543 138.751 15.3844C138.751 16.4144 137.742 17.0834 136.341 17.0834C134.907 17.0834 133.909 16.4144 133.909 15.3844C133.909 14.3543 134.896 13.6428 136.341 13.6535ZM136.341 14.641C135.65 14.641 135.183 14.9065 135.194 15.3844C135.183 15.8516 135.65 16.1064 136.341 16.1064C136.988 16.1064 137.456 15.8516 137.466 15.3844C137.456 14.9065 136.988 14.641 136.341 14.641ZM151.462 18.8886V19.9505H147.682V22.9769H146.344V19.9505H142.616V18.8886H151.462ZM144.995 13.6853V14.8003H149.052V13.6853H150.411V17.9542H143.657V13.6853H144.995ZM144.995 16.871H149.052V15.8622H144.995V16.871ZM158.099 14.9702C158.088 16.202 158.789 17.402 160.361 17.9117L159.649 18.9736C158.593 18.6178 157.865 17.9223 157.451 17.0409C157.016 18.0126 156.246 18.7718 155.126 19.1541L154.372 18.0816C156.018 17.5719 156.729 16.2764 156.74 14.9596V13.9083H158.099V14.9702ZM162.198 13.3136V16.1064H163.504V17.2533H162.198V20.3965H160.839V13.3136H162.198ZM162.559 21.7239V22.807H155.922V19.6957H157.303V21.7239H162.559ZM171.553 13.3136V17.094H172.976V18.209H171.553V22.9769H170.215V13.3136H171.553ZM169.557 14.7578V15.841H163.876V14.7578H166.063V13.4623H167.422V14.7578H169.557ZM166.743 16.3825C168.155 16.3825 169.206 17.3383 169.206 18.6869C169.206 20.0355 168.155 20.9912 166.743 20.9912C165.32 20.9912 164.269 20.0355 164.269 18.6869C164.269 17.3383 165.32 16.3825 166.743 16.3825ZM166.743 17.4763C166.063 17.4869 165.564 17.9435 165.564 18.6869C165.564 19.4408 166.063 19.8868 166.743 19.8762C167.422 19.8868 167.911 19.4408 167.911 18.6869C167.911 17.9435 167.422 17.4869 166.743 17.4763ZM178.987 13.7172C180.463 13.7065 181.535 14.5455 181.535 15.7666C181.535 16.9772 180.463 17.8267 178.987 17.8161C177.51 17.8267 176.438 16.9772 176.449 15.7666C176.438 14.5455 177.51 13.7065 178.987 13.7172ZM178.987 14.8003C178.264 14.8003 177.755 15.1507 177.755 15.7666C177.755 16.3719 178.264 16.7223 178.987 16.7117C179.73 16.7223 180.25 16.3719 180.25 15.7666C180.25 15.1507 179.73 14.8003 178.987 14.8003ZM183.977 13.3243V22.9769H182.639V13.3243H183.977ZM175.854 18.4108C177.564 18.4108 179.995 18.3683 182.055 18.0603L182.14 19.0585C181.344 19.2178 180.526 19.3187 179.719 19.3771V22.6902H178.371V19.4621C177.521 19.4992 176.719 19.5045 176.024 19.5152L175.854 18.4108ZM190.158 13.9508V15.0233H186.961V15.8304H189.956V16.871H186.961V17.7099C188.533 17.6993 189.542 17.6462 190.678 17.4444L190.827 18.5063C189.521 18.74 188.353 18.7824 186.399 18.7824H185.592V13.9508H190.158ZM192.897 13.3136V15.6711H194.204V16.7967H192.897V19.1541H191.538V13.3136H192.897ZM192.897 19.5576V22.9769H191.538V20.6301H186.388V19.5576H192.897ZM200.341 13.8446V14.9277H198.409C198.472 15.9472 199.2 16.9666 200.713 17.3807L200.033 18.432C198.929 18.1187 198.154 17.4551 197.718 16.6055C197.278 17.5241 196.487 18.2515 195.34 18.6019L194.66 17.54C196.2 17.094 196.949 16.0215 197.018 14.9277H195.032V13.8446H200.341ZM202.72 13.3136V18.5594H201.361V13.3136H202.72ZM197.591 18.963V19.8656H201.371V18.963H202.72V22.8708H196.253V18.963H197.591ZM197.591 21.7876H201.371V20.9169H197.591V21.7876ZM212.33 13.3136V19.3771H211.045V16.8073H210.27V19.0585H209.006V13.4942H210.27V15.7029H211.045V13.3136H212.33ZM208.72 14.3118V15.3631H203.973V14.3118H205.683V13.3986H207.031V14.3118H208.72ZM206.362 15.6817C207.594 15.6817 208.465 16.3613 208.476 17.3701C208.465 18.3683 207.594 19.0479 206.362 19.0479C205.152 19.0479 204.27 18.3683 204.27 17.3701C204.27 16.3613 205.152 15.6817 206.362 15.6817ZM206.362 16.6586C205.831 16.6586 205.481 16.9241 205.481 17.3701C205.481 17.8161 205.831 18.0922 206.362 18.0816C206.893 18.0922 207.244 17.8161 207.254 17.3701C207.244 16.9241 206.893 16.6586 206.362 16.6586ZM209.028 19.4621C211.12 19.4621 212.373 20.0992 212.383 21.2248C212.373 22.3398 211.12 22.9769 209.028 22.9769C206.946 22.9769 205.683 22.3398 205.683 21.2248C205.683 20.0992 206.946 19.4621 209.028 19.4621ZM209.028 20.4815C207.722 20.4815 207.031 20.7151 207.042 21.2248C207.031 21.7133 207.722 21.9575 209.028 21.9575C210.344 21.9575 211.013 21.7133 211.013 21.2248C211.013 20.7151 210.344 20.4815 209.028 20.4815ZM218.818 14.2056V15.2782H213.445V14.2056H215.527V13.2287H216.875V14.2056H218.818ZM216.185 15.5967C217.512 15.6074 218.468 16.3401 218.479 17.4126C218.468 18.4957 217.512 19.2178 216.185 19.2072C214.847 19.2178 213.912 18.4957 213.923 17.4126C213.912 16.3401 214.847 15.6074 216.185 15.5967ZM216.185 16.6055C215.569 16.6055 215.176 16.8923 215.187 17.4126C215.176 17.9329 215.569 18.209 216.185 18.209C216.79 18.209 217.215 17.9329 217.215 17.4126C217.215 16.8923 216.79 16.6055 216.185 16.6055ZM221.569 13.3136V19.4727H220.22V18.4532H218.903V17.3701H220.22V16.5206H218.925V15.4374H220.22V13.3136H221.569ZM218.288 19.5895C220.337 19.5895 221.622 20.216 221.622 21.2885C221.622 22.3398 220.337 22.9769 218.288 22.9769C216.227 22.9769 214.953 22.3398 214.953 21.2885C214.953 20.216 216.227 19.5895 218.288 19.5895ZM218.288 20.6089C217.056 20.6195 216.376 20.8319 216.376 21.2885C216.376 21.7239 217.056 21.9575 218.288 21.9575C219.498 21.9575 220.167 21.7239 220.167 21.2885C220.167 20.8319 219.498 20.6195 218.288 20.6089ZM233.345 13.7278V14.7897H230.68C230.839 15.5861 231.837 16.3932 233.749 16.6055L233.25 17.6674C231.439 17.4657 230.229 16.7117 229.724 15.7135C229.214 16.7064 228.015 17.4657 226.209 17.6674L225.721 16.6055C227.632 16.3932 228.62 15.5755 228.779 14.7897H226.135V13.7278H233.345ZM234.163 18.1241V19.2072H230.521V20.8744H229.183V19.2072H225.317V18.1241H234.163ZM233.186 21.7239V22.807H226.358V20.0142H227.707V21.7239H233.186ZM242.871 13.3136V19.0479H241.522V16.7648H240.014V15.6711H241.522V13.3136H242.871ZM239.568 19.2603C241.628 19.2709 242.892 19.9505 242.902 21.1292C242.892 22.2973 241.628 22.9876 239.568 22.9876C237.508 22.9876 236.244 22.2973 236.244 21.1292C236.244 19.9505 237.508 19.2709 239.568 19.2603ZM239.568 20.301C238.283 20.301 237.593 20.5664 237.593 21.1292C237.593 21.6814 238.283 21.9575 239.568 21.9575C240.853 21.9575 241.554 21.6814 241.554 21.1292C241.554 20.5664 240.853 20.301 239.568 20.301ZM240.301 13.8977V14.9808H238.379C238.411 16.1064 239.09 17.2427 240.598 17.7418L239.929 18.8037C238.862 18.4586 238.129 17.7577 237.71 16.8816C237.28 17.8692 236.51 18.6656 235.363 19.0585L234.662 17.986C236.25 17.4551 236.961 16.1914 236.998 14.9808H235.055V13.8977H240.301ZM252.959 18.8886V19.9505H249.178V22.9769H247.84V19.9505H244.113V18.8886H252.959ZM246.492 13.6853V14.8003H250.548V13.6853H251.907V17.9542H245.154V13.6853H246.492ZM246.492 16.871H250.548V15.8622H246.492V16.871ZM261.645 13.3136V22.9769H260.275V13.3136H261.645ZM258.746 14.3225C258.746 17.2533 257.716 19.6851 254.265 21.3204L253.553 20.2372C256.049 19.0585 257.148 17.5294 257.365 15.3844H254.074V14.3225H258.746ZM268.335 14.0145V14.6198C268.335 15.2888 268.335 16.2551 268.112 17.4551L266.785 17.3276C266.954 16.3985 266.997 15.6976 267.008 15.1189H263.365V14.0145H268.335ZM265.935 16.2445V18.0922C266.896 18.055 267.884 17.9807 268.792 17.848L268.866 18.8249C266.859 19.1966 264.586 19.2284 262.909 19.2391L262.792 18.1559C263.333 18.1559 263.944 18.1559 264.586 18.1347V16.2445H265.935ZM270.703 13.3136V16.2551H271.871V17.3913H270.703V20.5452H269.312V13.3136H270.703ZM271 21.7239V22.807H264.215V19.8974H265.574V21.7239H271ZM276.724 13.4517C278.943 13.4517 280.228 14.0357 280.239 15.0976C280.228 16.1702 278.943 16.7542 276.724 16.7542C274.494 16.7542 273.198 16.1702 273.198 15.0976C273.198 14.0357 274.494 13.4517 276.724 13.4517ZM276.724 14.4393C275.301 14.4393 274.611 14.6729 274.621 15.0976C274.611 15.5755 275.301 15.756 276.724 15.756C278.158 15.756 278.837 15.5755 278.837 15.0976C278.837 14.6729 278.158 14.4393 276.724 14.4393ZM281.131 17.2108V18.2833H272.317V17.2108H281.131ZM280.058 18.8462V21.3098H274.675V21.8938H280.313V22.9132H273.347V20.3647H278.72V19.8337H273.337V18.8462H280.058ZM287.354 13.9614C288.883 13.9508 290.03 14.949 290.03 16.3294C290.03 17.7205 288.883 18.7081 287.354 18.7081C285.824 18.7081 284.667 17.7205 284.667 16.3294C284.667 14.949 285.824 13.9508 287.354 13.9614ZM287.354 15.1295C286.589 15.1295 286.005 15.5755 286.016 16.3294C286.005 17.094 286.589 17.5294 287.354 17.5294C288.118 17.5294 288.702 17.094 288.713 16.3294C288.702 15.5755 288.129 15.1295 287.354 15.1295ZM292.345 13.3136V22.9982H290.996V13.3136H292.345ZM284.263 19.9187C285.984 19.9293 288.373 19.8974 290.444 19.6107L290.55 20.5877C288.405 21.0018 286.111 21.0231 284.423 21.0231L284.263 19.9187ZM298.769 14.1844V20.6726H294.097V14.1844H298.769ZM295.456 15.2463V19.6001H297.452V15.2463H295.456ZM301.71 13.3136V22.9982H300.341V13.3136H301.71ZM310.684 13.3136V15.6392H311.99V16.7648H310.684V18.9736H309.324V13.3136H310.684ZM305.703 19.3452V20.078H309.324V19.3452H310.684V22.8708H304.355V19.3452H305.703ZM305.703 21.8089H309.324V21.1186H305.703V21.8089ZM308.751 14.1632V15.2251H303.017V14.1632H305.215V13.2499H306.563V14.1632H308.751ZM305.884 15.5012C307.285 15.5012 308.262 16.1808 308.262 17.2108C308.262 18.2409 307.285 18.9205 305.884 18.9205C304.461 18.9205 303.484 18.2409 303.484 17.2108C303.484 16.1808 304.461 15.5012 305.884 15.5012ZM305.884 16.4993C305.236 16.4887 304.801 16.7542 304.811 17.2108C304.801 17.6781 305.236 17.9329 305.884 17.9329C306.532 17.9329 306.978 17.6781 306.978 17.2108C306.978 16.7542 306.532 16.4887 305.884 16.4993ZM320.538 13.3136V22.9769H319.189V13.3136H320.538ZM314.273 14.2375V19.4302C315.579 19.4143 316.981 19.2922 318.404 19.0161L318.573 20.1311C316.874 20.4815 315.282 20.5983 313.784 20.5877H312.935V14.2375H314.273ZM329.437 13.3136V16.9029H330.86V18.0072H329.437V22.9982H328.078V13.3136H329.437ZM326.729 14.2056V15.2994H323.543V19.5364C324.945 19.5205 326.102 19.4567 327.387 19.2284L327.536 20.3647C326.039 20.6195 324.722 20.662 323.012 20.6514H322.195V14.2056H326.729ZM332.463 22.0956C331.964 22.0956 331.561 21.692 331.571 21.2036C331.561 20.7151 331.964 20.3222 332.463 20.3222C332.93 20.3222 333.345 20.7151 333.345 21.2036C333.345 21.692 332.93 22.0956 332.463 22.0956Z" fill="black"/>
</svg>
