<svg width="236" height="56" viewBox="0 0 236 56" fill="none" xmlns="http://www.w3.org/2000/svg">
<rect width="236" height="41" rx="15" transform="matrix(-1 0 0 1 236 0)" fill="white"/>
<path d="M7.7404 50.2905C24.706 51.7658 34.3602 42.9921 37.0667 38.4209L19.4203 37.4107C22.8563 43.6289 13.0654 48.5881 7.7404 50.2905Z" fill="white"/>
<path d="M28.3886 21.2267V22.4724H26.0303V26.1126H24.4581V22.4724H22.2087V26.1126H20.6244V22.4724H18.3144V21.2267H28.3886ZM23.3213 15.47C25.6796 15.47 27.3365 16.4496 27.3365 17.9614C27.3365 19.4489 25.6796 20.3801 23.3213 20.3801C20.963 20.3801 19.3182 19.4489 19.3303 17.9614C19.3182 16.4496 20.963 15.47 23.3213 15.47ZM23.3213 16.7036C21.8458 16.7036 20.9025 17.1511 20.9146 17.9614C20.9025 18.7354 21.8458 19.1708 23.3213 19.1708C24.8088 19.1708 25.7401 18.7354 25.7401 17.9614C25.7401 17.1511 24.8088 16.7036 23.3213 16.7036ZM38.3056 15.1072V21.5533H36.7697V20.1504H34.7137V20.9486H29.4892V15.9175H34.7137V16.7157H36.7697V15.1072H38.3056ZM31.0251 17.139V19.7271H33.202V17.139H31.0251ZM34.5444 21.8435C36.8906 21.8435 38.3298 22.6296 38.3419 23.9841C38.3298 25.3386 36.8906 26.1126 34.5444 26.1126C32.1982 26.1126 30.759 25.3386 30.759 23.9841C30.759 22.6296 32.1982 21.8435 34.5444 21.8435ZM34.5444 23.0166C33.081 23.0166 32.2949 23.331 32.2949 23.9841C32.2949 24.613 33.081 24.9395 34.5444 24.9395C36.0077 24.9395 36.8059 24.613 36.8059 23.9841C36.8059 23.331 36.0077 23.0166 34.5444 23.0166ZM34.7137 18.9047H36.7697V17.9372H34.7137V18.9047ZM48.4644 15.1193V18.4935H49.952V19.7513H48.4644V23.331H46.9164V15.1193H48.4644ZM46.2633 16.2682V17.4897H39.7327V16.2682H42.2361V15.0951H43.772V16.2682H46.2633ZM42.998 17.8767C44.5944 17.8767 45.707 18.7354 45.707 20.0052C45.707 21.2751 44.5944 22.1096 42.998 22.1096C41.3895 22.1096 40.2648 21.2751 40.2648 20.0052C40.2648 18.7354 41.3895 17.8767 42.998 17.8767ZM42.998 19.0498C42.2603 19.0619 41.7644 19.4005 41.7765 20.0052C41.7644 20.6099 42.2603 20.9365 42.998 20.9365C43.7357 20.9365 44.2437 20.6099 44.2437 20.0052C44.2437 19.4005 43.7357 19.0619 42.998 19.0498ZM48.8635 24.6856V25.9191H41.329V22.7022H42.865V24.6856H48.8635ZM62.1184 15.6152V16.4738C62.1184 17.3083 62.1184 18.2637 61.8523 19.4852L60.3164 19.3401C60.5341 18.3 60.5643 17.5381 60.5825 16.8246H54.4388V15.6152H62.1184ZM63.3036 20.0778V21.2993H53.3141V20.0778H57.0631V18.0339H58.587V20.0778H63.3036ZM59.0344 22.3031C59.0344 23.4399 60.1834 24.5888 62.6384 24.8791L62.0821 26.0643C60.2559 25.8284 58.9498 25.1088 58.2604 24.1051C57.5711 25.1088 56.265 25.8284 54.4509 26.0643L53.9066 24.8791C56.3254 24.5888 57.4743 23.4399 57.4743 22.3031V21.9644H59.0344V22.3031ZM74.055 21.4565V22.6659H69.7496V26.1126H68.2258V22.6659H63.9808V21.4565H74.055ZM66.6899 15.5305V16.8004H71.3097V15.5305H72.8577V20.3922H65.166V15.5305H66.6899ZM66.6899 19.1587H71.3097V18.0098H66.6899V19.1587ZM83.9841 15.1072V26.1368H82.4602V20.235H80.5252V18.9894H82.4602V15.1072H83.9841ZM80.3438 16.0264V17.272H76.7398V19.0982H79.9447V20.3076H76.7398V22.3877C78.2637 22.3756 79.4851 22.3212 80.8518 22.1096L81.009 23.3431C79.4005 23.585 77.9613 23.6455 76.0747 23.6455H75.2039V16.0264H80.3438ZM87.7211 24.1051L86.681 27.5518H85.399L86.0037 24.1051H87.7211ZM100.25 22.2426V25.9917H92.5707V22.2426H95.6425V21.2388H91.4097V19.9931H101.448V21.2388H97.1905V22.2426H100.25ZM94.0945 23.4641V24.7581H98.7386V23.4641H94.0945ZM97.2268 15.5789C97.2268 16.7157 98.4967 17.9735 100.952 18.2516L100.408 19.4489C98.5088 19.207 97.1361 18.4209 96.4286 17.3446C95.7211 18.4209 94.3424 19.207 92.4619 19.4489L91.9055 18.2516C94.3606 17.9614 95.6304 16.7399 95.6425 15.5789V15.2161H97.2268V15.5789ZM112.151 20.7309V21.9644H102.113V20.7309H112.151ZM111.014 24.6856V25.9191H103.322V22.7022H104.87V24.6856H111.014ZM107.132 15.4459C109.538 15.4338 111.123 16.2924 111.135 17.6953C111.123 19.0982 109.538 19.969 107.132 19.969C104.701 19.969 103.117 19.0982 103.117 17.6953C103.117 16.2924 104.701 15.4338 107.132 15.4459ZM107.132 16.6552C105.608 16.6673 104.713 17.0302 104.725 17.6953C104.713 18.3847 105.608 18.7233 107.132 18.7233C108.656 18.7233 109.538 18.3847 109.538 17.6953C109.538 17.0302 108.656 16.6673 107.132 16.6552ZM121.838 15.9054V16.5948C121.838 17.3567 121.838 18.4572 121.584 19.8238L120.072 19.6787C120.266 18.6205 120.314 17.8223 120.326 17.1632H116.178V15.9054H121.838ZM119.105 18.4451V20.5495C120.199 20.5071 121.324 20.4225 122.358 20.2713L122.443 21.3839C120.157 21.8072 117.569 21.8435 115.658 21.8556L115.525 20.622C116.142 20.622 116.837 20.622 117.569 20.5978V18.4451H119.105ZM124.535 15.1072V18.4572H125.865V19.7513H124.535V23.3431H122.95V15.1072H124.535ZM124.873 24.6856V25.9191H117.145V22.6054H118.693V24.6856H124.873ZM132.565 15.7119V16.4255C132.553 17.139 132.553 18.1186 132.299 19.3159L130.787 19.207C130.963 18.2819 131.005 17.5623 131.017 16.9455H126.881V15.7119H132.565ZM129.808 18.167V20.0657C130.908 20.0294 132.027 19.9569 133.061 19.8359L133.146 20.9123C130.86 21.3114 128.344 21.3718 126.361 21.3718L126.228 20.1383C126.857 20.1322 127.546 20.1322 128.272 20.1141V18.167H129.808ZM135.238 15.1072V17.8163H136.58V19.0982H135.238V21.8193H133.654V15.1072H135.238ZM131.489 21.9523C133.847 21.9523 135.31 22.7384 135.31 23.9962C135.31 25.3265 133.847 26.0884 131.489 26.0884C129.13 26.0884 127.655 25.3265 127.655 23.9962C127.655 22.7384 129.13 21.9523 131.489 21.9523ZM131.489 23.1375C130.037 23.1375 129.227 23.4399 129.227 23.9962C129.227 24.6251 130.037 24.8912 131.489 24.8912C132.928 24.8912 133.726 24.6251 133.726 23.9962C133.726 23.4399 132.928 23.1375 131.489 23.1375ZM141.345 18.1065C141.345 19.8843 142.252 21.783 144.103 22.557L143.268 23.7664C141.968 23.2162 141.073 22.1217 140.583 20.7792C140.081 22.2366 139.168 23.4459 137.874 24.0446L136.991 22.8231C138.818 22.0128 139.761 19.969 139.761 18.1065V17.4292H137.427V16.1715H143.643V17.4292H141.345V18.1065ZM146.292 15.1072V26.1126H144.731V15.1072H146.292ZM156.596 15.1072V19.4247H158.059V20.6946H156.596V26.1126H155.048V15.1072H156.596ZM151.069 16.232C151.057 19.2554 150.742 21.6137 148.771 23.7785L147.561 22.9199C149.061 21.2993 149.496 19.6848 149.593 17.4897H148.045V16.232H151.069ZM154.116 16.232C154.116 19.3764 153.838 22.0975 151.891 24.4921L150.67 23.6334C152.163 21.7951 152.568 19.9085 152.665 17.4897H151.431V16.232H154.116ZM162.751 18.1065C162.751 19.8843 163.658 21.783 165.509 22.557L164.674 23.7664C163.374 23.2162 162.479 22.1217 161.989 20.7792C161.488 22.2366 160.574 23.4459 159.28 24.0446L158.398 22.8231C160.224 22.0128 161.167 19.969 161.167 18.1065V17.4292H158.833V16.1715H165.049V17.4292H162.751V18.1065ZM167.698 15.1072V26.1126H166.138V15.1072H167.698ZM180.771 15.1072V17.2357H182.259V18.5056H180.771V20.6099H179.223V15.1072H180.771ZM180.771 21.0453V24.0446H175.002V24.7823H181.086V25.9917H173.491V22.932H179.235V22.2305H173.466V21.0453H180.771ZM175.075 15.4338C176.768 15.4459 178.026 16.4617 178.026 17.9251C178.026 19.3764 176.768 20.4164 175.075 20.4164C173.382 20.4164 172.112 19.3764 172.112 17.9251C172.112 16.4617 173.382 15.4459 175.075 15.4338ZM175.075 16.6915C174.228 16.6915 173.612 17.1511 173.624 17.9251C173.612 18.7112 174.228 19.195 175.075 19.195C175.922 19.195 176.526 18.7112 176.526 17.9251C176.526 17.1511 175.922 16.6915 175.075 16.6915ZM192.018 15.1072V26.1368H190.483V21.6984H188.596V20.4285H190.483V18.6991H188.632V17.4413H190.483V15.1072H192.018ZM188.052 16.0264V20.2592H184.665V22.3998C186.026 22.3938 187.235 22.3273 188.62 22.1217L188.741 23.3794C187.096 23.6455 185.693 23.6697 184 23.6697H183.129V19.0619H186.54V17.2478H183.105V16.0264H188.052ZM203.483 19.4852V20.6946H199.226V21.4081H202.262V24.226H196.13V24.8791H202.552V26.0401H194.619V23.1496H200.738V22.557H194.607V21.4081H197.69V20.6946H193.446V19.4852H203.483ZM202.576 15.4217V16.6069H199.492C199.855 17.272 201.01 17.8828 203.048 18.0218L202.564 19.1829C200.526 19.0317 199.118 18.3907 198.452 17.4655C197.793 18.3847 196.396 19.0317 194.377 19.1829L193.893 18.0218C195.919 17.8828 197.062 17.2781 197.424 16.6069H194.365V15.4217H202.576ZM213.691 15.1072V26.1126H212.239V15.1072H213.691ZM211.344 15.3491V25.6289H209.905V20.5736H208.103C207.474 21.8314 206.452 22.9199 204.886 23.8269L204.016 22.7384C206.235 21.4202 207.214 19.8178 207.426 17.659H204.62V16.4134H208.962C208.956 17.4595 208.847 18.4451 208.587 19.3522H209.905V15.3491H211.344Z" fill="#494948"/>
</svg>
