<svg width="226" height="66" viewBox="0 0 226 66" fill="none" xmlns="http://www.w3.org/2000/svg">
<path d="M41.8868 37.1613C44.2133 37.147 46.1687 38.3745 47.4247 40.5297H52.4773V35.3915H57.0161V61.8819H52.4773V52.2334H47.7673C46.5255 54.7883 44.4274 56.2584 41.8868 56.2584C37.8048 56.2584 34.8646 52.576 34.8646 46.667C34.8646 40.8437 37.8048 37.1328 41.8868 37.1613ZM41.8868 41.3004C40.3168 41.2719 39.2321 43.0132 39.2606 46.667C39.2321 50.378 40.3168 52.0622 41.8868 52.0622C43.4854 52.0622 44.513 50.378 44.513 46.667C44.513 43.0132 43.4854 41.2719 41.8868 41.3004ZM48.6807 44.1836C48.8092 44.9543 48.8805 45.7964 48.8805 46.667C48.8805 47.3379 48.8377 47.9944 48.7664 48.6081H52.4773V44.1836H48.6807ZM82.593 35.3915V51.8623H78.254V45.2397H77.0551V51.0345H72.7733V35.8768H77.0551V41.5288H78.254V35.3915H82.593ZM72.2024 37.8464V41.3575H59.6137V37.8464H63.6387V35.6769H68.1774V37.8464H72.2024ZM65.9509 41.8999C69.3192 41.8999 71.7742 43.8125 71.8027 46.5814C71.7742 49.3218 69.3192 51.2058 65.9509 51.2058C62.6681 51.2058 60.2132 49.3218 60.2132 46.5814C60.2132 43.8125 62.6681 41.8999 65.9509 41.8999ZM65.9509 45.1541C64.9518 45.1541 64.2667 45.6108 64.2667 46.5814C64.2667 47.5234 64.9518 48.0087 65.9509 48.0087C66.9785 48.0087 67.635 47.5234 67.6636 46.5814C67.635 45.6108 66.9785 45.1541 65.9509 45.1541ZM73.3727 51.9765C79.196 51.9765 82.7072 53.7749 82.7357 56.9149C82.7072 60.055 79.196 61.8533 73.3727 61.8533C67.635 61.8533 64.0668 60.055 64.0954 56.9149C64.0668 53.7749 67.635 51.9765 73.3727 51.9765ZM73.3727 55.3735C70.1471 55.3735 68.6627 55.7731 68.6627 56.9149C68.6627 57.9997 70.1471 58.4278 73.3727 58.4278C76.6555 58.4278 78.0828 57.9997 78.1113 56.9149C78.0828 55.7731 76.6555 55.3735 73.3727 55.3735ZM93.4974 37.0757C97.7222 37.0471 100.948 39.8732 100.948 43.7268C100.948 47.609 97.7222 50.4065 93.4974 50.378C89.3583 50.4065 86.047 47.609 86.047 43.7268C86.047 39.8732 89.3583 37.0471 93.4974 37.0757ZM93.4974 41.015C91.8989 41.015 90.6143 41.9284 90.6143 43.7268C90.6143 45.5823 91.8989 46.4387 93.4974 46.4387C95.1816 46.4387 96.4947 45.5823 96.4947 43.7268C96.4947 41.9284 95.1816 41.015 93.4974 41.015ZM107.513 35.3915V61.8819H102.975V35.3915H107.513ZM85.105 53.0898C89.7009 53.0898 96.1236 53.0042 101.633 52.262L101.975 55.5447C96.2664 56.6866 90.129 56.7437 85.6188 56.7437L85.105 53.0898ZM138.914 35.3915V48.5796H134.318V35.3915H138.914ZM130.835 36.1908C130.835 43.7268 127.267 47.4949 118.561 49.0934L116.991 45.4396C123.385 44.4405 125.426 42.2995 125.783 39.8161H118.475V36.1908H130.835ZM138.914 49.4645V57.1147H125.554V58.0282H139.485V61.5393H120.93V53.832H134.289V52.9756H120.873V49.4645H138.914ZM156.926 36.676V40.3013H152.159C152.459 42.6849 154.029 45.1113 158.039 46.1818L155.87 49.6929C152.944 48.9221 150.988 47.3236 149.789 45.2968C148.619 47.5662 146.621 49.3646 143.509 50.2352L141.226 46.6099C145.393 45.4967 147.049 42.8419 147.363 40.3013H142.453V36.676H156.926ZM163.035 35.3915V40.7295H166.317V44.4405H163.035V50.0069H158.439V35.3915H163.035ZM149.875 50.9203V52.8329H158.439V50.9203H163.035V61.5679H145.308V50.9203H149.875ZM149.875 57.914H158.439V56.3155H149.875V57.914ZM189.468 35.3915V61.8819H184.844V35.3915H189.468ZM174.967 37.1613C178.992 37.1328 182.018 40.8437 182.018 46.667C182.018 52.576 178.992 56.2584 174.967 56.2584C170.856 56.2584 167.802 52.576 167.802 46.667C167.802 40.8437 170.856 37.1328 174.967 37.1613ZM174.967 41.3004C173.283 41.2719 172.226 43.0132 172.226 46.667C172.226 50.378 173.283 52.0622 174.967 52.0622C176.537 52.0622 177.622 50.378 177.622 46.667C177.622 43.0132 176.537 41.2719 174.967 41.3004Z" fill="#41652B"/>
<path d="M52.7163 17.43C52.5363 15.87 52.8963 10.83 53.1663 9.33C53.4663 7.65 53.7063 6.51 54.0663 4.83C54.1563 4.38 54.4563 4.29 54.4563 4.29C55.0263 4.23 55.9563 4.5 55.7763 5.25C55.4463 7.02 54.6363 10.23 54.6063 12.06C55.0563 11.88 56.2863 11.67 56.7663 11.58C57.6063 11.4 58.3863 11.34 59.3763 11.31C60.1863 11.28 60.9363 11.43 60.9363 11.94C60.9363 12.33 60.1863 12.51 59.9463 12.54C58.7463 12.66 57.9063 12.81 56.7663 13.14C55.9863 13.38 54.6663 13.65 54.4863 14.52C54.3363 15.6 54.3363 17.07 54.3063 18.09C54.3063 18.36 54.1263 18.54 53.7063 18.57C52.8963 18.66 52.8063 18.03 52.7163 17.43ZM41.8863 13.98C41.8263 12.69 42.8163 10.86 43.5063 9.66C43.9263 8.97 44.3163 8.28 44.6763 7.77C45.0063 7.29 45.7563 7.29 46.1163 7.71C46.2363 7.83 46.3563 8.28 46.0863 8.79C45.9963 8.94 45.9363 9.06 45.8163 9.33C46.2063 9.48 47.0163 10.14 46.9263 11.46C46.8963 12.06 46.6863 12.96 45.8163 14.01C45.0663 14.91 44.2863 15.24 43.3563 15.3C42.8463 15.33 41.9463 15.03 41.8863 13.98ZM45.1863 10.32C44.7963 10.56 43.6563 12.81 43.5963 13.68C44.4663 13.68 45.4863 12.6 45.6063 11.25C45.6363 10.95 45.5163 10.41 45.1863 10.32ZM46.6863 22.62C46.6863 21.75 46.9263 21.06 47.2863 20.22C47.5863 19.62 48.6363 17.04 49.3263 16.98C49.7163 16.95 50.4363 17.13 50.4663 17.55C50.4963 17.94 49.9863 18.48 49.7163 18.96C49.1463 19.89 48.8163 20.49 48.6063 21.63C48.5763 21.78 48.5463 22.02 48.6963 22.14C48.9663 22.41 49.8063 22.05 49.9563 21.99C51.5163 21.33 53.4663 20.73 55.5963 20.4C56.1663 20.28 56.5563 20.34 56.9463 20.49C57.1563 20.55 57.2463 21.51 56.7663 21.6C56.5263 21.66 55.5963 21.81 55.0563 21.93C53.8863 22.26 52.4763 22.65 51.0363 23.25C50.1663 23.61 49.2963 24.18 47.7963 24C47.1663 23.94 46.6863 23.25 46.6863 22.62ZM70.5466 20.52C70.5466 19.14 71.6266 17.1 72.5266 15.99C72.6466 15.84 72.7966 15.78 73.0666 15.78C73.5466 15.78 73.9366 16.05 73.9366 16.56C73.9366 17.07 73.2466 17.67 72.9166 18.27C72.5866 18.93 72.2866 19.56 72.2866 20.31C72.2866 20.73 72.4366 20.88 72.7366 20.85C74.8066 20.55 76.3966 19.74 78.6166 19.74H79.0366C79.3966 19.74 79.4866 20.37 79.2766 20.49C78.4966 20.88 77.8066 21.09 76.7266 21.42C75.3166 21.84 73.9066 22.47 72.4066 22.47C71.9266 22.47 71.2366 22.38 70.8766 21.96C70.6366 21.69 70.5466 21.27 70.5466 20.52ZM75.3166 16.2C75.0766 15.54 75.2566 14.25 75.2566 13.35C75.2566 12.99 75.4066 11.61 75.4366 11.34C75.4666 11.07 75.5266 10.74 75.5266 10.53C75.2266 10.71 74.5066 11.22 74.0266 11.55C72.7066 12.45 70.9666 13.44 69.2566 13.44C68.7766 13.44 68.5066 12.99 68.5066 12.69C68.5066 12.36 68.5966 11.91 68.9866 11.85C69.4666 11.76 70.1866 11.7 70.6366 11.55C72.5266 10.86 74.0566 9.72 75.7066 8.37C76.4566 7.77 76.1866 6.75 77.2066 6.75C77.7166 6.75 77.9566 7.05 77.9566 7.53C77.9566 8.13 77.7466 8.4 77.5366 8.91C77.0566 9.99 76.8466 11.4 76.7566 12.54C76.6966 13.38 76.6366 14.13 76.6366 15C76.6366 15.69 76.4866 16.35 75.8866 16.44C75.6766 16.47 75.3766 16.38 75.3166 16.2ZM61.3666 18.72C61.2166 18.33 61.4566 17.85 61.5466 17.61C61.8466 16.92 62.5666 16.05 62.8366 15.54C63.4966 14.34 64.3966 13.14 64.8166 12.21C65.2966 11.16 66.4666 9.24 66.4666 8.13C65.7766 8.13 64.7266 8.7 63.9466 9.21C63.6766 9.39 63.3466 9.72 62.6266 9.96C61.9366 10.2 61.5166 9.39 61.7566 8.85C61.9366 8.43 62.4766 8.01 62.8366 7.8C63.7666 7.26 65.3266 6.51 66.3766 6.51C67.0966 6.51 68.2966 6.63 68.2966 7.62C68.2966 9.51 67.0966 11.61 66.2566 13.23C66.0766 13.59 65.6266 14.31 65.2966 15.06C65.7766 15.3 66.8266 15.63 67.0966 15.69C67.6666 15.84 68.8366 16.05 69.1366 16.08C69.5566 16.14 69.7966 16.26 69.7966 16.74C69.7966 17.46 69.0166 17.49 68.4466 17.43C67.0066 17.28 65.9866 17.07 64.3066 16.59C64.3066 16.59 63.7066 17.58 63.5566 17.79C63.2566 18.27 62.8366 19.08 62.2366 19.14C61.8466 19.17 61.4866 19.05 61.3666 18.72ZM82.8304 13.71C82.5904 14.07 81.8404 15.42 81.5704 15.99C81.2704 16.62 80.9404 16.83 80.4904 16.83C80.1904 16.83 79.8304 16.8 79.8304 16.05C79.8304 15.42 81.0004 13.65 81.3304 13.02C82.4104 11.1 84.7204 8.01 86.1004 6.33C86.3404 5.97 86.8504 5.88 87.0904 5.88C87.4804 5.88 87.9304 6.21 87.9304 6.63C87.9304 6.93 87.8104 7.17 87.6004 7.35C87.3904 7.56 86.4004 8.64 86.2204 8.82C85.6504 9.48 84.6004 11.19 84.2404 11.94C84.3604 12.84 84.7804 14.01 85.0804 14.82C85.4704 15.87 86.0404 16.89 86.4604 17.94C86.6104 18.36 86.6104 18.63 86.3404 18.9C86.1904 19.05 85.9204 19.05 85.7704 19.02C85.0504 18.84 83.7904 16.14 83.2204 14.73C83.0104 14.22 82.9504 14.07 82.8304 13.71ZM93.8404 16.5C93.6004 15.84 93.7804 14.55 93.7804 13.65C93.7804 13.29 93.9304 11.91 93.9604 11.64C93.9904 11.37 94.0504 11.04 94.0504 10.83C93.7504 11.01 93.0304 11.52 92.5504 11.85C91.2304 12.75 89.1904 13.74 87.4804 13.74C87.0004 13.74 86.7304 13.29 86.7304 12.99C86.7304 12.66 86.8204 12.21 87.2104 12.15C87.6904 12.06 88.4104 12 88.8604 11.85C90.7504 11.16 92.5804 10.02 94.2304 8.67C94.9804 8.07 94.7104 7.05 95.7304 7.05C96.2404 7.05 96.4804 7.35 96.4804 7.83C96.4804 8.43 96.2704 8.7 96.0604 9.21C95.5804 10.29 95.3704 11.7 95.2804 12.84C95.2204 13.68 95.1604 14.43 95.1604 15.3C95.1604 15.99 95.0104 16.65 94.4104 16.74C94.2004 16.77 93.9004 16.68 93.8404 16.5ZM88.4404 25.26C88.2304 23.1 90.1504 19.89 91.0504 18.3C91.5304 17.46 91.7404 17.31 92.2504 17.31C92.6704 17.31 92.8804 17.58 92.8204 17.97C92.7604 18.36 92.6704 18.63 92.5204 19.08C92.9404 19.53 93.2704 20.28 93.2404 21.27C93.1504 23.91 91.3204 26.46 89.8504 26.61C89.0404 26.7 88.5304 26.22 88.4404 25.26ZM90.0304 24.33C90.0004 24.42 89.9404 25.02 90.1204 24.96C90.6604 24.78 91.8304 23.13 92.0104 21.39C92.0404 21.03 92.0104 20.64 91.8904 20.37C91.3504 20.79 90.2704 23.04 90.0304 24.33ZM119.456 16.14C119.306 14.61 119.726 11.85 119.966 10.32C120.236 8.61 120.326 8.19 120.656 6.51C120.746 6.03 121.076 5.94 121.076 5.94C121.676 5.88 122.486 6.15 122.336 6.93C122.036 8.7 121.616 10.44 121.406 12.09C121.856 11.97 122.936 11.79 123.416 11.73C124.316 11.61 124.646 11.52 125.276 11.49C126.086 11.46 126.836 11.61 126.836 12.15C126.836 12.54 126.086 12.66 125.816 12.72C124.976 12.87 124.556 12.96 123.416 13.32C122.666 13.53 121.316 13.8 121.136 14.7C120.986 15.78 120.986 16.11 120.956 17.16C120.956 17.43 120.776 17.61 120.386 17.64C119.546 17.73 119.516 16.8 119.456 16.14ZM119.156 28.44C119.156 27.63 119.276 27 119.456 26.16C119.696 25.2 119.786 24.93 120.146 24.03C120.536 23.04 120.686 22.59 120.956 21.81C121.076 21.48 120.866 21.06 120.236 21.09C119.096 21.12 118.646 21.24 117.386 21.84C117.026 22.02 116.606 22.5 116.126 22.47C115.736 22.44 115.496 21.87 115.526 21.42C115.586 20.61 118.136 19.8 118.946 19.65C119.996 19.47 120.596 19.38 121.646 19.5C122.366 19.59 122.816 20.04 122.756 20.76C122.696 21.63 122.516 22.29 122.006 23.76C121.736 24.54 121.046 26.1 120.896 26.73C120.806 27.18 120.536 28.35 120.536 28.44C120.506 28.74 120.356 29.55 120.026 29.55C119.456 29.55 119.156 28.95 119.156 28.44ZM108.536 19.86C108.446 19.32 108.806 18.93 109.496 18.12C110.096 17.4 110.846 16.17 111.266 15.27C111.476 14.82 111.566 14.25 112.016 14.22C112.766 14.16 112.916 14.79 112.856 15.15C112.706 16.2 111.596 17.79 110.846 18.63C111.776 18.3 113.486 17.79 113.966 17.67C114.746 17.46 116.366 17.22 117.116 17.22C117.416 17.22 117.806 17.22 117.866 17.55C117.956 18.12 117.506 18.21 117.176 18.33C116.606 18.54 114.686 18.99 114.116 19.14C113.636 19.29 113.156 19.44 112.646 19.59C111.506 19.92 109.376 20.67 109.736 20.58C109.286 20.7 108.656 20.58 108.536 19.86ZM106.166 9.24C106.166 9.06 106.256 8.76 106.466 8.61C108.056 7.29 111.206 6.36 113.276 6.36C114.296 6.36 116.336 6.51 116.756 6.93C116.876 7.05 116.876 7.59 116.666 7.59C115.016 7.59 112.766 7.59 111.206 8.04C110.606 8.22 109.646 8.52 108.836 8.85C108.326 9.06 107.306 10.05 106.856 10.05C106.526 10.05 106.166 9.57 106.166 9.24ZM109.766 13.23C109.526 13.02 109.406 12.69 109.406 12.51C109.346 11.22 110.096 9.72 111.206 9.27C112.466 8.76 113.546 9.39 113.486 10.71C113.486 11.04 113.456 11.25 113.366 11.52C113.186 12.15 112.736 12.87 112.226 13.23C111.746 13.56 111.326 13.62 110.966 13.62C110.546 13.62 110.006 13.44 109.766 13.23ZM110.036 5.91C109.916 4.71 110.126 3.57 110.606 1.74C110.756 1.17 110.876 0.569999 111.416 0.449999C111.746 0.389998 112.376 0.629999 112.436 0.96C112.526 1.47 112.106 2.07 111.926 2.55C111.596 3.51 111.476 4.41 111.176 5.85C111.116 6.15 110.786 6.27 110.636 6.3C110.306 6.36 110.036 6.03 110.036 5.91ZM112.256 10.2C112.016 10.29 111.686 10.65 111.386 11.13C111.236 11.37 111.086 11.88 111.146 12.24C111.446 12.12 111.746 11.82 112.016 11.25C112.226 10.8 112.316 10.47 112.256 10.2ZM133.704 22.56C133.704 21.69 133.944 21 134.304 20.16C134.604 19.56 135.654 16.98 136.344 16.92C136.734 16.89 137.454 17.07 137.484 17.49C137.514 17.88 137.004 18.42 136.734 18.9C136.164 19.83 135.834 20.43 135.624 21.57C135.594 21.72 135.564 21.96 135.714 22.08C135.984 22.35 136.824 21.99 136.974 21.93C138.534 21.27 140.784 20.64 142.914 20.31C143.484 20.19 143.874 20.25 144.264 20.4C144.474 20.46 144.564 21.42 144.084 21.51C143.844 21.57 142.914 21.72 142.374 21.84C141.204 22.17 139.494 22.59 138.054 23.19C137.184 23.55 136.314 24.12 134.814 23.94C134.184 23.88 133.704 23.19 133.704 22.56ZM138.834 15.45C138.864 14.61 138.924 13.74 139.044 12.87C139.224 11.31 139.404 9.36 139.914 7.74C140.154 7.08 140.304 6.48 140.544 6.09C140.724 5.79 141.474 5.76 141.774 5.97C141.924 6.09 142.104 6.3 142.104 6.45C142.134 7.02 141.804 7.41 141.654 7.89C141.144 9.72 140.844 12.18 140.484 14.25C140.394 14.88 140.244 15.57 140.184 16.11C140.154 16.5 139.884 17.07 139.554 17.01C138.834 16.86 138.804 15.9 138.834 15.45ZM128.004 14.28C127.944 12.99 128.934 11.16 129.624 9.96C130.044 9.27 130.434 8.58 130.794 8.07C131.124 7.59 131.874 7.59 132.234 8.01C132.354 8.13 132.474 8.58 132.204 9.09C132.114 9.24 132.054 9.36 131.934 9.63C132.324 9.78 133.134 10.44 133.044 11.76C133.014 12.36 132.804 13.26 131.934 14.31C131.184 15.21 130.404 15.54 129.474 15.6C128.964 15.63 128.064 15.33 128.004 14.28ZM131.304 10.62C130.914 10.86 129.774 13.11 129.714 13.98C130.584 13.98 131.604 12.9 131.724 11.55C131.754 11.25 131.634 10.71 131.304 10.62ZM152.122 19.14C152.062 18.69 152.302 18.51 152.752 18.21C152.872 18.15 153.442 17.7 153.532 17.61C153.772 17.37 154.252 16.83 154.372 16.62C154.642 16.17 154.882 15.87 155.032 15.45C155.302 14.76 155.602 13.8 155.692 13.2C155.752 12.72 156.022 12.09 156.532 12.06C157.342 12.03 157.432 12.63 157.372 12.99C157.282 13.62 157.102 14.58 156.802 15.36C156.532 16.05 156.082 16.89 155.572 17.34C156.502 17.01 158.692 16.41 159.172 16.29C159.952 16.08 160.702 15.99 161.452 15.99C161.752 15.99 162.142 15.99 162.202 16.32C162.292 16.89 161.842 16.98 161.512 17.1C160.942 17.31 159.892 17.61 159.322 17.76C158.842 17.91 158.362 18.06 157.852 18.21C156.382 18.63 155.752 18.99 154.372 19.56C153.922 19.74 153.832 19.8 153.352 19.95C152.902 20.1 152.212 19.86 152.122 19.14ZM164.902 16.92C164.752 15.39 165.172 11.73 165.412 10.2C165.682 8.49 165.772 8.07 166.102 6.39C166.192 5.91 166.522 5.82 166.522 5.82C167.122 5.76 167.932 6.03 167.782 6.81C167.482 8.58 167.062 10.32 166.852 11.97C167.302 11.85 168.382 11.73 168.862 11.61C169.762 11.43 170.092 11.4 170.722 11.37C171.532 11.34 172.282 11.49 172.282 12.03C172.282 12.42 171.532 12.54 171.262 12.6C170.422 12.75 170.002 12.84 168.862 13.2C168.112 13.41 166.762 13.68 166.582 14.58C166.432 15.66 166.432 16.89 166.402 17.94C166.402 18.21 166.222 18.39 165.832 18.42C164.992 18.51 164.962 17.58 164.902 16.92ZM154.222 9.87C154.222 8.07 155.632 6.33 156.472 5.58C156.712 5.37 156.922 5.46 157.222 5.34C157.372 5.28 157.462 5.13 157.822 5.13C158.662 5.13 159.262 6.15 159.262 7.05C159.262 8.91 157.912 11.01 155.662 11.1C154.882 11.13 154.222 10.68 154.222 9.87ZM157.792 6.48C157.102 6.9 155.992 8.52 155.992 9.66C156.892 9.66 158.002 8.19 158.002 7.05C158.002 6.81 157.912 6.63 157.792 6.48ZM159.802 22.71C159.802 21.84 160.042 21.15 160.402 20.31C160.702 19.71 161.242 17.94 161.932 17.88C162.322 17.85 163.042 18.03 163.072 18.45C163.102 18.84 162.892 19.08 162.622 19.56C162.052 20.49 161.932 20.58 161.722 21.72C161.692 21.87 161.662 22.11 161.812 22.23C162.082 22.5 162.922 22.14 163.072 22.08C164.632 21.42 166.582 20.82 168.712 20.49C169.282 20.37 169.672 20.43 170.062 20.58C170.272 20.64 170.362 21.6 169.882 21.69C169.642 21.75 168.712 21.9 168.172 22.02C167.002 22.35 165.592 22.74 164.152 23.34C163.282 23.7 162.412 24.27 160.912 24.09C160.282 24.03 159.802 23.34 159.802 22.71ZM173.796 14.16C173.886 13.8 174.096 13.41 174.306 13.05C175.116 11.67 175.866 11.13 176.886 9.81C177.096 9.57 177.276 9.36 177.396 9.12C177.006 9.03 176.736 9 176.286 8.88C175.356 8.58 174.546 8.13 175.026 6.87C175.356 6 175.866 5.37 176.586 4.35C176.736 4.14 176.886 3.96 177.036 3.72C177.246 3.45 177.126 3.18 176.856 3.18C176.586 3.15 176.106 3.15 175.716 3.24C175.326 3.33 174.636 3.42 174.186 3.33C173.826 3.18 173.676 2.88 173.766 2.55C173.856 2.13 174.396 1.89 174.966 1.77C175.686 1.62 177.126 1.71 177.606 1.83C178.776 2.13 178.926 2.64 178.566 3.78C178.356 4.38 177.936 4.92 177.606 5.43C177.096 6.15 176.886 6.42 176.496 7.2C176.406 7.35 176.376 7.65 176.796 7.74C177.246 7.86 177.696 7.95 178.146 8.13C178.626 8.31 179.136 8.58 179.016 9.15C178.926 9.45 178.716 9.81 178.506 10.08C177.636 11.13 177.126 11.7 176.286 12.87C175.866 13.44 175.746 13.68 175.596 14.01C175.566 14.1 175.566 14.34 175.686 14.34C176.166 14.37 176.496 14.34 176.946 14.22C177.216 14.16 178.776 13.71 179.196 13.59C180.006 13.35 180.276 13.29 180.666 13.32C181.116 13.32 180.966 14.13 180.636 14.37C179.886 14.88 176.376 16.11 174.906 15.87C173.766 15.69 173.526 15.06 173.796 14.16ZM174.396 26.55C174.456 26.28 174.936 26.01 175.176 25.83C176.586 24.6 177.186 23.58 178.026 21.93C178.656 20.7 179.046 19.5 179.466 17.94C179.556 17.55 179.586 16.89 180.006 16.77C180.366 16.68 181.086 16.83 181.086 17.37C181.086 17.88 180.996 18.27 180.846 18.78C180.486 20.07 180.126 21.12 179.526 22.41C179.106 23.31 178.356 24.33 177.936 24.84C178.596 24.6 179.286 24.45 179.946 24.3C181.266 24.03 182.616 23.79 183.996 23.79C184.206 23.79 184.866 23.79 184.896 24.06C184.956 24.69 184.746 25.02 183.636 25.2C183.426 25.23 180.906 25.68 180.696 25.74C179.946 25.89 179.226 26.13 178.536 26.34C177.816 26.55 177.036 26.76 176.406 27.12C176.106 27.3 175.776 27.63 175.296 27.69C174.576 27.78 174.246 27.12 174.396 26.55ZM175.596 21.12C175.476 20.28 175.536 19.35 175.656 18.42C175.716 18.09 175.716 17.28 176.106 17.16C176.496 17.01 177.336 17.31 177.336 18.09C177.336 18.42 177.156 18.84 177.096 19.14C176.976 19.68 176.946 20.1 176.946 20.73C176.946 21.18 177.036 21.51 177.096 22.2C177.126 22.38 176.526 22.44 176.346 22.38C175.806 22.2 175.656 21.51 175.596 21.12Z" fill="#41652B"/>
</svg>
