<svg width="225" height="56" viewBox="0 0 225 56" fill="none" xmlns="http://www.w3.org/2000/svg">
<rect width="225" height="41" rx="15" fill="#648252"/>
<path d="M218.735 50.2905C205.004 51.7658 197.19 42.9921 195 38.4209L209.282 37.4107C206.501 43.6289 214.425 48.5881 218.735 50.2905Z" fill="#648252"/>
<path d="M25.5421 15.1072V26.1368H23.9819V15.1072H25.5421ZM19.5677 15.8812C21.2245 15.8812 22.4581 17.4051 22.4581 19.7996C22.4581 22.2184 21.2245 23.7301 19.5677 23.7301C17.8745 23.7301 16.641 22.2184 16.6531 19.7996C16.641 17.4051 17.8745 15.8812 19.5677 15.8812ZM19.5677 17.272C18.709 17.272 18.1406 18.167 18.1406 19.7996C18.1406 21.4444 18.709 22.3273 19.5677 22.3273C20.4022 22.3273 20.9706 21.4444 20.9706 19.7996C20.9706 18.167 20.4022 17.272 19.5677 17.272ZM36.3056 15.1193V23.2343H34.7697V19.2675H32.7379V21.4928H27.5013V15.8329H29.0493V17.526H31.2141V15.8329H32.7379V18.0339H34.7697V15.1193H36.3056ZM36.5354 24.6856V25.9191H28.9767V22.424H30.5368V24.6856H36.5354ZM29.0493 20.2834H31.2141V18.6991H29.0493V20.2834ZM47.2747 15.1072V26.1126H45.7993V15.1072H47.2747ZM44.9769 15.2644V25.6047H43.5256V20.4043H42.6428C42.4976 22.5691 41.5785 23.8753 40.224 23.8753C38.7727 23.8753 37.8294 22.3514 37.8294 19.8722C37.8294 17.4051 38.7727 15.8933 40.224 15.8933C41.5483 15.8933 42.4553 17.1269 42.6307 19.1829H43.5256V15.2644H44.9769ZM40.224 17.3446C39.6072 17.3446 39.2444 18.1912 39.2565 19.8722C39.2444 21.5653 39.6072 22.3998 40.224 22.3877C40.8529 22.3998 41.2278 21.5653 41.2278 19.8722C41.2278 18.1912 40.8529 17.3446 40.224 17.3446ZM60.5658 15.1193V21.4565H59.0299V20.3801H56.5507V19.1466H59.0299V18.0944H56.6595C55.9762 19.8359 54.4161 21.0332 51.9913 21.6984L51.3866 20.4769C53.9203 19.8117 55.1599 18.6024 55.3776 17.0906H51.9792V15.857H57.0586C57.0586 16.2138 57.0344 16.5585 56.9861 16.885H59.0299V15.1193H60.5658ZM56.9014 21.5895C59.1388 21.5895 60.6384 22.4482 60.6505 23.8148C60.6384 25.1935 59.1388 26.0643 56.9014 26.0643C54.6399 26.0643 53.1281 25.1935 53.1402 23.8148C53.1281 22.4482 54.6399 21.5895 56.9014 21.5895ZM56.9014 22.7989C55.5106 22.7868 54.6761 23.1375 54.6761 23.8148C54.6761 24.4921 55.5106 24.8428 56.9014 24.8428C58.268 24.8428 59.1025 24.4921 59.1025 23.8148C59.1025 23.1375 58.268 22.7868 56.9014 22.7989ZM72.0308 21.1783V22.4119H67.7496V26.1126H66.2258V22.4119H61.9929V21.1783H72.0308ZM71.1359 15.6877V16.8971H67.931C68.0822 17.9735 69.2976 19.0559 71.5592 19.328L71.0028 20.5374C69.0678 20.2774 67.6831 19.4489 67.024 18.3121C66.3467 19.4489 64.9741 20.2774 63.0572 20.5374L62.4888 19.328C64.714 19.0559 65.9416 17.9735 66.1169 16.8971H62.9V15.6877H71.1359ZM84.2819 15.0951V17.5744H85.7694V18.82H84.2819V21.2146H82.7339V15.0951H84.2819ZM81.2101 15.724C81.2221 18.6628 79.3476 20.6946 76.046 21.5412L75.4534 20.2955C77.9205 19.6666 79.2811 18.433 79.5169 16.9455H76.0097V15.724H81.2101ZM79.4202 22.1821C79.4081 23.0771 79.7769 24.0023 80.6779 24.6372C81.591 23.972 81.9599 23.0045 81.972 22.1821V21.6379H83.4837V22.1821C83.4837 23.3552 84.0884 24.4195 85.5517 24.8912L84.8019 26.0038C83.7437 25.641 83.0725 24.9698 82.7097 24.1051C82.3469 24.9698 81.7059 25.7196 80.7021 26.1126C79.6741 25.7377 79.0332 25.0181 78.6824 24.1534C78.2954 24.9879 77.6363 25.6531 76.6507 26.0038L75.8646 24.8912C77.3037 24.3832 77.9326 23.2706 77.9326 22.1821V21.6379H79.4202V22.1821ZM94.9366 15.1072V19.195H96.5572V20.4527H94.9366V26.1368H93.3886V15.1072H94.9366ZM91.8526 16.1231V17.3688H88.2245V22.1942C89.8209 22.1761 91.1391 22.1035 92.6025 21.8435L92.7718 23.1375C91.0665 23.4278 89.5669 23.4762 87.6198 23.4641H86.6886V16.1231H91.8526ZM102.64 16.0868V17.5986H104.721V15.1072H106.244V26.1368H104.721V21.8072H102.64V23.4278H97.3674V16.0868H102.64ZM98.9034 17.2841V22.2305H101.129V17.2841H98.9034ZM102.64 20.5857H104.721V18.8442H102.64V20.5857ZM109.981 24.1051L108.941 27.5518H107.659L108.264 24.1051H109.981ZM119.838 15.9054V16.5948C119.838 17.3567 119.838 18.4572 119.584 19.8238L118.072 19.6787C118.266 18.6205 118.314 17.8223 118.326 17.1632H114.178V15.9054H119.838ZM117.105 18.4451V20.5495C118.199 20.5071 119.324 20.4225 120.358 20.2713L120.443 21.3839C118.157 21.8072 115.569 21.8435 113.658 21.8556L113.525 20.622C114.142 20.622 114.837 20.622 115.569 20.5978V18.4451H117.105ZM122.535 15.1072V18.4572H123.865V19.7513H122.535V23.3431H120.95V15.1072H122.535ZM122.873 24.6856V25.9191H115.145V22.6054H116.693V24.6856H122.873ZM130.565 15.7119V16.4255C130.553 17.139 130.553 18.1186 130.299 19.3159L128.787 19.207C128.963 18.2819 129.005 17.5623 129.017 16.9455H124.881V15.7119H130.565ZM127.808 18.167V20.0657C128.908 20.0294 130.027 19.9569 131.061 19.8359L131.146 20.9123C128.86 21.3114 126.344 21.3718 124.361 21.3718L124.228 20.1383C124.857 20.1322 125.546 20.1322 126.272 20.1141V18.167H127.808ZM133.238 15.1072V17.8163H134.58V19.0982H133.238V21.8193H131.654V15.1072H133.238ZM129.489 21.9523C131.847 21.9523 133.31 22.7384 133.31 23.9962C133.31 25.3265 131.847 26.0884 129.489 26.0884C127.13 26.0884 125.655 25.3265 125.655 23.9962C125.655 22.7384 127.13 21.9523 129.489 21.9523ZM129.489 23.1375C128.037 23.1375 127.227 23.4399 127.227 23.9962C127.227 24.6251 128.037 24.8912 129.489 24.8912C130.928 24.8912 131.726 24.6251 131.726 23.9962C131.726 23.4399 130.928 23.1375 129.489 23.1375ZM139.345 18.1065C139.345 19.8843 140.252 21.783 142.103 22.557L141.268 23.7664C139.968 23.2162 139.073 22.1217 138.583 20.7792C138.081 22.2366 137.168 23.4459 135.874 24.0446L134.991 22.8231C136.818 22.0128 137.761 19.969 137.761 18.1065V17.4292H135.427V16.1715H141.643V17.4292H139.345V18.1065ZM144.292 15.1072V26.1126H142.731V15.1072H144.292ZM158.671 21.6984V22.9561H154.402V26.1247H152.878V22.9561H148.633V21.6984H158.671ZM157.752 16.3771V17.5865H154.45C154.626 18.554 155.865 19.6424 158.139 19.8964L157.583 21.1058C155.72 20.8941 154.372 20.1322 153.652 19.1224C152.939 20.1443 151.578 20.8941 149.698 21.1058L149.141 19.8964C151.415 19.6424 152.667 18.56 152.854 17.5865H149.54V16.3771H152.878V15.1193H154.402V16.3771H157.752ZM163.388 17.6953C163.388 18.9289 164.198 20.1987 165.988 20.743L165.25 21.9403C164.017 21.5895 163.146 20.8337 162.65 19.8722C162.16 20.9123 161.283 21.7286 160.014 22.1217L159.264 20.9123C161.054 20.3801 161.852 19.0377 161.852 17.6953V17.6107H159.639V16.4013H161.852V15.1798H163.412V16.4013H165.613V17.6107H163.388V17.6953ZM168.612 15.1193V23.2827H167.076V19.5699H165.25V18.3242H167.076V15.1193H168.612ZM168.878 24.6856V25.9191H161.308V22.5812H162.856V24.6856H168.878ZM175.349 16.7883V18.0098H170.027V16.7883H171.938V15.4096H173.462V16.7883H175.349ZM172.712 18.5056C174.115 18.5056 175.119 19.594 175.131 21.1179C175.119 22.6538 174.115 23.7422 172.712 23.7422C171.309 23.7422 170.281 22.6538 170.281 21.1179C170.281 19.594 171.309 18.5056 172.712 18.5056ZM172.712 19.7875C172.071 19.7875 171.636 20.2834 171.636 21.1179C171.636 21.9523 172.071 22.4361 172.712 22.4361C173.329 22.4361 173.764 21.9523 173.776 21.1179C173.764 20.2834 173.329 19.7875 172.712 19.7875ZM179.557 15.1072V26.1126H178.094V20.8155H177.199V25.641H175.76V15.3249H177.199V19.582H178.094V15.1072H179.557ZM187.249 15.8087V17.0181H185.096C185.12 17.8283 185.931 18.5963 187.612 18.8321L186.995 20.0173C185.719 19.8057 184.824 19.2675 184.322 18.5419C183.82 19.328 182.889 19.9024 181.516 20.1383L180.9 18.9652C182.665 18.6931 183.488 17.8888 183.512 17.0181H181.359V15.8087H187.249ZM190.139 15.1193V26.1126H188.567V23.7422H186.33V22.5812H188.567V15.1193H190.139ZM180.694 20.7913C182.714 20.7913 185.459 20.7672 187.842 20.4406L187.926 21.5774C186.965 21.7468 185.979 21.8616 185.012 21.9282V25.7861H183.451V22.0128C182.532 22.0431 181.662 22.0491 180.888 22.0491L180.694 20.7913ZM193.949 16.2441L193.792 22.3756H192.244L192.086 16.2441H193.949ZM193.03 25.1088C192.461 25.1088 192.002 24.6493 192.014 24.093C192.002 23.5366 192.461 23.0892 193.03 23.0892C193.562 23.0892 194.034 23.5366 194.034 24.093C194.034 24.6493 193.562 25.1088 193.03 25.1088Z" fill="white"/>
</svg>
