<svg width="393" height="83" viewBox="0 0 393 83" fill="none" xmlns="http://www.w3.org/2000/svg">
<path d="M39.1348 0.445312V16H35.0527V0.445312H39.1348ZM54.625 0.445312V16H51.209L45.4297 7.59961H45.3223V16H41.2402V0.445312H44.7207L50.4141 8.80273H50.543V0.445312H54.625ZM56.7305 16V0.445312H67.5801V3.75391H60.8125V6.56836H66.8926V9.87695H60.8125V16H56.7305ZM84.166 8.22266C84.166 13.4004 80.8574 16.2148 76.6465 16.2148C72.3926 16.2148 69.1055 13.3789 69.1055 8.22266C69.1055 3.04492 72.3926 0.230469 76.6465 0.230469C80.8574 0.230469 84.166 3.04492 84.166 8.22266ZM79.9551 8.22266C79.9551 5.36523 78.7734 3.79688 76.6465 3.79688C74.498 3.79688 73.3164 5.36523 73.3164 8.22266C73.3164 11.0801 74.498 12.6484 76.6465 12.6484C78.7734 12.6484 79.9551 11.0801 79.9551 8.22266ZM86.1641 16V0.445312H92.7812C96.2617 0.445312 98.5391 2.42188 98.5391 5.70898C98.5391 7.85742 97.5508 9.38281 95.875 10.1777L99.0547 16H94.6074L91.8574 10.8223H90.2461V16H86.1641ZM90.2461 7.62109H91.8359C93.3828 7.62109 94.2637 7.0625 94.2637 5.70898C94.2637 4.33398 93.3828 3.71094 91.8359 3.71094H90.2461V7.62109ZM100.387 0.445312H105.479L109.174 9.49023H109.367L113.062 0.445312H118.154V16H114.158V6.84766H114.029L110.484 15.8926H108.035L104.512 6.7832H104.383V16H100.387V0.445312ZM124.105 16H119.68L124.857 0.445312H130.422L135.578 16H131.174L130.25 12.9492H125.029L124.105 16ZM125.975 9.85547H129.305L127.693 4.63477H127.564L125.975 9.85547ZM134.697 3.75391V0.445312H148.104V3.75391H143.42V16H139.381V3.75391H134.697ZM153.84 0.445312V16H149.758V0.445312H153.84ZM170.898 8.22266C170.898 13.4004 167.59 16.2148 163.379 16.2148C159.125 16.2148 155.838 13.3789 155.838 8.22266C155.838 3.04492 159.125 0.230469 163.379 0.230469C167.59 0.230469 170.898 3.04492 170.898 8.22266ZM166.688 8.22266C166.688 5.36523 165.506 3.79688 163.379 3.79688C161.23 3.79688 160.049 5.36523 160.049 8.22266C160.049 11.0801 161.23 12.6484 163.379 12.6484C165.506 12.6484 166.688 11.0801 166.688 8.22266ZM186.281 0.445312V16H182.865L177.086 7.59961H176.979V16H172.896V0.445312H176.377L182.07 8.80273H182.199V0.445312H186.281Z" fill="#121212"/>
<path d="M334.351 46V46C338.979 46 342.211 50.5843 340.655 54.9431L334.661 71.7417C332.877 76.7415 336.583 82 341.892 82V82H393" stroke="black" stroke-width="0.8"/>
<path d="M0 46L337 46" stroke="black" stroke-width="0.8"/>
<circle cx="97" cy="25" r="9" fill="#79BD4E"/>
<circle cx="97" cy="25" r="4" fill="white"/>
<circle cx="275" cy="25" r="9" fill="#79BD4E"/>
<circle cx="275" cy="25" r="4" fill="white"/>
</svg>
