<svg width="390" height="83" viewBox="0 0 390 83" fill="none" xmlns="http://www.w3.org/2000/svg">
<path d="M38.875 0.445312V16H34.793V0.445312H38.875ZM54.3652 0.445312V16H50.9492L45.1699 7.59961H45.0625V16H40.9805V0.445312H44.4609L50.1543 8.80273H50.2832V0.445312H54.3652ZM56.4707 16V0.445312H67.3203V3.75391H60.5527V6.56836H66.6328V9.87695H60.5527V16H56.4707ZM83.9062 8.22266C83.9062 13.4004 80.5977 16.2148 76.3867 16.2148C72.1328 16.2148 68.8457 13.3789 68.8457 8.22266C68.8457 3.04492 72.1328 0.230469 76.3867 0.230469C80.5977 0.230469 83.9062 3.04492 83.9062 8.22266ZM79.6953 8.22266C79.6953 5.36523 78.5137 3.79688 76.3867 3.79688C74.2383 3.79688 73.0566 5.36523 73.0566 8.22266C73.0566 11.0801 74.2383 12.6484 76.3867 12.6484C78.5137 12.6484 79.6953 11.0801 79.6953 8.22266ZM85.9043 16V0.445312H92.5215C96.002 0.445312 98.2793 2.42188 98.2793 5.70898C98.2793 7.85742 97.291 9.38281 95.6152 10.1777L98.7949 16H94.3477L91.5977 10.8223H89.9863V16H85.9043ZM89.9863 7.62109H91.5762C93.123 7.62109 94.0039 7.0625 94.0039 5.70898C94.0039 4.33398 93.123 3.71094 91.5762 3.71094H89.9863V7.62109ZM100.127 0.445312H105.219L108.914 9.49023H109.107L112.803 0.445312H117.895V16H113.898V6.84766H113.77L110.225 15.8926H107.775L104.252 6.7832H104.123V16H100.127V0.445312ZM123.846 16H119.42L124.598 0.445312H130.162L135.318 16H130.914L129.99 12.9492H124.77L123.846 16ZM125.715 9.85547H129.045L127.434 4.63477H127.305L125.715 9.85547ZM134.438 3.75391V0.445312H147.844V3.75391H143.16V16H139.121V3.75391H134.438ZM153.58 0.445312V16H149.498V0.445312H153.58ZM170.639 8.22266C170.639 13.4004 167.33 16.2148 163.119 16.2148C158.865 16.2148 155.578 13.3789 155.578 8.22266C155.578 3.04492 158.865 0.230469 163.119 0.230469C167.33 0.230469 170.639 3.04492 170.639 8.22266ZM166.428 8.22266C166.428 5.36523 165.246 3.79688 163.119 3.79688C160.971 3.79688 159.789 5.36523 159.789 8.22266C159.789 11.0801 160.971 12.6484 163.119 12.6484C165.246 12.6484 166.428 11.0801 166.428 8.22266ZM186.021 0.445312V16H182.605L176.826 7.59961H176.719V16H172.637V0.445312H176.117L181.811 8.80273H181.939V0.445312H186.021Z" fill="#121212"/>
<path d="M330.86 46V46C335.522 46 338.772 50.6236 337.193 55.0094L331.2 71.6657C329.389 76.6965 333.117 82 338.464 82V82H390" stroke="black" stroke-width="0.8"/>
<path d="M0 46L331 46" stroke="black" stroke-width="0.8"/>
<circle cx="96.3281" cy="46" r="9" fill="#79BD4E"/>
<circle cx="96.3281" cy="46" r="4" fill="white"/>
<circle cx="272.969" cy="46" r="9" fill="#79BD4E"/>
<circle cx="272.969" cy="46" r="4" fill="white"/>
</svg>
