<svg width="11" height="12" viewBox="0 0 11 12" fill="none" xmlns="http://www.w3.org/2000/svg">
<path d="M6.34648 11.4854L6.33948 11.4866L6.29806 11.507L6.28639 11.5093L6.27823 11.507L6.23681 11.486C6.23059 11.4844 6.22592 11.4856 6.22281 11.4895L6.22048 11.4953L6.21056 11.745L6.21348 11.7566L6.21931 11.7642L6.27998 11.8074L6.28873 11.8097L6.29573 11.8074L6.35639 11.7642L6.36339 11.7549L6.36573 11.745L6.35581 11.4959C6.35426 11.4897 6.35114 11.4862 6.34648 11.4854ZM6.50048 11.4195L6.49231 11.4206L6.38498 11.4749L6.37914 11.4807L6.37739 11.4871L6.38789 11.738L6.39081 11.745L6.39548 11.7496L6.51273 11.8033C6.52012 11.8052 6.52576 11.8037 6.52964 11.7986L6.53198 11.7905L6.51214 11.4323C6.5102 11.4249 6.50631 11.4206 6.50048 11.4195ZM6.08339 11.4206C6.08082 11.4191 6.07775 11.4186 6.07482 11.4192C6.07188 11.4199 6.06931 11.4216 6.06764 11.4241L6.06414 11.4323L6.04431 11.7905C6.0447 11.7975 6.04801 11.8021 6.05423 11.8045L6.06298 11.8033L6.18023 11.7491L6.18606 11.7444L6.18781 11.738L6.19831 11.4871L6.19656 11.4801L6.19073 11.4743L6.08339 11.4206Z" fill="#121212"/>
<path d="M10.8037 1.23514C11.0557 0.538056 10.3802 -0.137444 9.68315 0.11514L1.16357 3.19631C0.464151 3.44947 0.379567 4.40381 1.02298 4.77656L3.74248 6.35097L6.1709 3.92256C6.28092 3.8163 6.42827 3.7575 6.58122 3.75883C6.73417 3.76016 6.88047 3.82151 6.98863 3.92966C7.09678 4.03782 7.15813 4.18412 7.15946 4.33707C7.16079 4.49002 7.10199 4.63737 6.99573 4.74739L4.56732 7.17581L6.14232 9.89531C6.51448 10.5387 7.46882 10.4536 7.72198 9.75472L10.8037 1.23514Z" fill="#121212"/>
</svg>
