<svg width="20" height="20" viewBox="0 0 20 20" fill="none" xmlns="http://www.w3.org/2000/svg">
<path d="M13.7221 12.5786H12.8549L12.5475 12.2699C13.6605 10.9251 14.2722 9.20834 14.271 7.43282C14.271 5.96275 13.8525 4.52569 13.0685 3.30337C12.2844 2.08105 11.17 1.12837 9.86615 0.565793C8.56231 0.00322052 7.12759 -0.143974 5.74344 0.142823C4.35929 0.42962 3.08786 1.13753 2.08994 2.17703C1.09203 3.21652 0.412435 4.54092 0.13711 5.98275C-0.138215 7.42458 0.0030917 8.91907 0.543161 10.2772C1.08323 11.6354 1.99781 12.7963 3.17123 13.613C4.34466 14.4297 5.72424 14.8656 7.13551 14.8656C8.90292 14.8656 10.5276 14.191 11.7791 13.0703L12.0755 13.3905V14.2939L17.5643 20L19.2 18.2962L13.7221 12.5786ZM7.13551 12.5786C4.40206 12.5786 2.19554 10.2802 2.19554 7.43282C2.19554 4.58548 4.40206 2.28702 7.13551 2.28702C9.86896 2.28702 12.0755 4.58548 12.0755 7.43282C12.0755 10.2802 9.86896 12.5786 7.13551 12.5786Z" fill="white"/>
</svg>
