<svg width="273" height="80" viewBox="0 0 273 80" fill="none" xmlns="http://www.w3.org/2000/svg">
<path d="M4.425 13.1C4.3 13.375 4.125 13.7 3.725 14.525C3.6 14.775 3.225 14.875 2.9 14.725C2.825 14.725 2.575 14.575 2.575 14.25C2.575 14 2.675 13.725 2.775 13.5C2.825 13.325 3.4 12.175 3.5 11.95C3.8 11.225 4.325 10.4 4.75 9.55C5.2 8.725 5.6 7.525 5.75 6.725C5.275 6.625 4.575 6.9 4.15 7.2C3.9 7.4 3.325 7.8 2.8 8.35C2.625 8.55 2.45 8.8 2.2 8.8C1.85 8.8 1.625 8.35 1.625 8.075C1.625 7.725 1.925 7.475 2.125 7.225C2.4 6.925 2.725 6.6 3.025 6.4C3.9 5.825 4.675 5.475 5.575 5.475C5.8 5.475 6.125 5.475 6.3 5.5C6.925 5.55 7.275 6.175 7.175 6.85C7.05 7.725 6.8 8.35 6.575 8.825C6.35 9.3 6.225 9.575 5.9 10.225C5.725 10.575 5.55 10.95 5.475 11.3C5.55 11.7 6.25 12.975 6.9 13.6C6.975 13.675 7.65 14.275 7.725 14.325C8.125 14.725 8.175 14.95 7.975 15.325C7.875 15.525 7.65 15.625 7.375 15.525C7.175 15.475 6.8 15.2 6.675 15.125C6.125 14.65 5.5 13.95 5.075 13.35C4.85 13.025 4.65 12.675 4.625 12.625C4.6 12.65 4.55 12.85 4.425 13.1ZM10.775 14.825C10.7 14.55 10.7 13.575 10.675 13.375C10.65 13.175 10.55 13.025 10.575 12.8C10.875 10.175 11.275 7.65 11.85 5C11.925 4.7 12 4.325 12.425 4.325C12.9 4.325 13.2 4.625 13.2 5.1C13.2 5.675 12.925 6.175 12.825 6.65C12.475 8.2 12.2 9.875 12.1 11.525C12.9 11.15 14.775 10.6 15.9 10.55C15.9 10.55 16.325 10.525 16.5 10.575C16.675 10.625 16.75 10.725 16.7 10.975C16.65 11.2 16.325 11.4 15.825 11.55C14.975 11.8 13.4 12.35 12.825 12.675C12.3 12.975 12.025 13.4 12.025 14.05C12.025 14.75 12.25 15.425 12.25 16.1C12.25 16.375 11.925 16.5 11.75 16.5C10.975 16.5 10.9 15.325 10.775 14.825ZM17.7336 11.775C17.6836 10.7 18.2586 9.775 18.8336 8.775C19.1836 8.2 19.5586 7.55 19.8586 7.125C20.2336 6.625 20.7086 6.575 21.1336 6.95C21.2336 7.05 21.2836 7.35 21.0336 7.975C20.9586 8.1 20.8586 8.275 20.7586 8.5C21.0836 8.625 21.7586 9.025 21.6836 10.125C21.6586 10.625 21.2586 11.45 20.7586 11.95C20.3336 12.375 19.7336 12.825 18.9586 12.875C18.5336 12.9 17.7836 12.65 17.7336 11.775ZM20.2336 9.325C19.9086 9.525 19.2086 10.8 19.1586 11.525C19.5836 11.6 20.6836 10.975 20.6586 9.95C20.6586 9.7 20.4336 9.4 20.2336 9.325ZM22.9086 12.425C22.9336 12.3 23.0836 12 23.7836 11.85C25.3586 11.5 27.6836 10.575 29.0836 9.85C30.3086 9.225 31.1586 8.7 32.0836 7.65C32.3836 7.425 32.6586 5.8 32.7836 5.2C32.9336 4.5 33.1086 4.425 33.5586 4.425C34.0336 4.425 34.3336 4.7 34.3336 5.2C34.3336 5.7 34.1336 5.975 34.0086 6.475C33.9336 6.75 33.5586 8.225 33.4586 8.6C33.3586 9 33.3336 10.425 33.3336 10.825C33.3336 11.4 33.3836 13.25 33.3836 13.8C33.3836 14.125 33.0836 14.3 32.7836 14.3C32.3836 14.3 32.1336 13.9 32.0586 13.525C31.8586 12.575 31.9086 10.65 31.9586 9.675C31.4086 10.125 30.5336 10.6 29.3586 11.3C28.3836 11.875 25.4836 13.1 23.4836 13.375C23.0836 13.425 22.8086 12.95 22.9086 12.425ZM22.6336 8.675C22.5086 8.4 22.4836 8 22.7586 7.7C23.8836 6.475 25.8586 5.95 27.6586 5.7C28.3586 5.6 28.9086 5.575 29.4336 5.575C29.8586 5.575 30.0586 5.775 30.1086 6C30.1586 6.25 30.0336 6.575 29.8586 6.6C28.3086 6.8 26.9336 6.975 25.5836 7.55C25.2086 7.7 24.6086 8.05 24.2336 8.35C24.0086 8.525 23.6836 8.825 23.3086 8.9C23.0836 8.95 22.7336 8.875 22.6336 8.675ZM27.1336 17.275C27.1836 16.625 27.3836 16.15 27.7086 15.45C27.9336 14.95 28.3586 14.05 28.8836 13.825C29.3086 13.65 29.8086 13.825 29.8336 14.3C29.8586 14.625 29.6336 14.825 29.3836 15.225C29.1336 15.625 28.8836 16.075 28.7336 16.45C28.6836 16.575 28.6836 16.775 28.8086 16.875C29.0336 17.1 29.7336 16.8 29.8586 16.75C31.1586 16.2 33.4586 15.65 35.3586 15.325C35.8336 15.25 36.1586 15.275 36.4836 15.4C36.6586 15.45 36.7336 16.25 36.3336 16.325C36.1336 16.375 35.3586 16.525 34.9086 16.6C33.8086 16.775 32.3086 17.175 30.7586 17.8C30.0336 18.1 29.3086 18.575 28.0586 18.425C27.5336 18.375 27.0836 17.8 27.1336 17.275ZM49.252 17.05C49.127 15.775 49.477 12.925 49.677 11.65C49.902 10.225 50.402 7.75 50.677 6.35C50.752 5.95 51.027 5.875 51.027 5.875C51.527 5.825 52.202 6.05 52.077 6.7C51.827 8.175 50.952 12 50.777 13.375C51.152 13.275 52.052 13.175 52.452 13.075C53.202 12.925 53.727 12.9 54.252 12.875C54.927 12.85 55.552 12.975 55.552 13.425C55.552 13.75 54.927 13.85 54.702 13.9C54.002 14.025 53.402 14.1 52.452 14.4C51.827 14.575 50.702 14.8 50.552 15.55C50.427 16.45 50.527 17.025 50.502 17.9C50.502 18.125 50.352 18.275 50.027 18.3C49.327 18.375 49.302 17.6 49.252 17.05ZM37.627 17.175C37.802 16.9 38.277 16.45 38.577 16C38.852 15.575 39.052 15.175 39.152 14.975C39.752 13.725 40.102 11.75 40.202 10.95C40.277 10.4 40.427 9.65 41.102 9.65C41.477 9.65 41.752 9.85 41.802 10.175C41.877 10.6 41.652 11.025 41.577 11.425C41.402 12.375 41.077 14.325 40.177 15.875C41.052 15.575 41.852 15.375 42.427 15.25C43.277 15.075 45.927 14.575 47.277 14.6C47.477 14.6 47.552 14.8 47.552 14.925C47.552 15.125 47.502 15.325 47.427 15.35C47.052 15.5 46.602 15.525 46.002 15.65C44.127 16.05 42.327 16.55 40.402 17.175C40.102 17.3 39.102 17.65 38.477 17.975C37.902 18.275 37.352 17.6 37.627 17.175ZM43.852 12.4C43.627 12.4 43.127 12.225 43.302 11.825C43.727 10.825 44.202 9.375 44.552 8.425C44.777 7.775 44.427 7.275 43.702 7.275C43.227 7.275 42.502 7.3 41.952 7.375C41.602 7.425 41.177 7.5 40.527 7.5C40.177 7.5 39.952 7.3 39.952 6.925C39.952 6.4 40.527 6.225 41.002 6.125C41.377 6.05 42.377 5.975 42.577 5.975H43.952C45.502 6 46.502 7.1 45.852 8.9C45.652 9.425 44.902 11.475 44.702 11.825C44.552 12.1 44.252 12.4 43.852 12.4ZM65.5898 5.225C65.6148 6.15 64.4148 6.275 64.3648 5.55C64.3148 5 64.3898 4.225 64.4898 3.55C64.6648 2.45 64.9648 1.625 65.3148 0.975C65.5648 0.474999 66.0898 0.324999 66.5398 0.549999C66.7898 0.674999 66.8398 0.824999 66.7898 1.15C66.7398 1.425 66.5898 1.625 66.4648 1.9C66.1648 2.6 65.8898 3.275 65.7148 4.025C65.6398 4.35 65.5898 4.875 65.5898 5.225ZM72.0898 7.175C72.2898 5.825 72.5398 5 72.6898 4.025C72.7398 3.675 72.8898 3.025 73.0398 2.625C73.1148 2.45 73.4398 2.4 73.5648 2.4C73.9898 2.4 74.2898 2.675 74.2898 3.075C74.2898 3.375 74.2148 3.7 74.1648 3.975C74.0398 4.675 73.7148 6.525 73.4898 7.625C74.2898 7.35 75.7148 6.925 76.1898 6.85C76.7398 6.7 77.4398 6.6 78.2898 6.675C78.5648 6.7 78.6398 7 78.5648 7.2C78.5148 7.3 78.4648 7.35 78.3898 7.4C77.9148 7.55 77.5398 7.625 76.9898 7.775C75.7398 8.15 74.5898 8.5 73.3648 9.125C73.2898 9.775 73.2648 10.4 73.3398 10.95C73.3648 11.175 73.4398 11.525 73.4648 11.725V11.8C73.4648 12.125 72.9898 12.25 72.8648 12.25C72.5898 12.275 72.3648 12 72.2398 11.675C72.1398 11.45 72.0648 11.15 72.0148 10.75C71.8898 9.625 71.9398 8.375 72.0898 7.175ZM63.8148 7.25C64.8148 7 66.3648 6.65 67.6648 6.7C68.1898 6.725 68.5648 6.8 69.0398 6.95C69.4398 7.075 69.5648 7.3 69.5398 7.625C69.5148 7.85 69.2898 7.9 68.9148 7.875C66.8148 7.75 64.7148 8.2 62.9648 9.075C62.3148 9.4 61.9398 9.15 61.8898 8.725C61.8398 8.4 62.0398 8.1 62.2648 7.925C62.6898 7.625 63.3648 7.375 63.8148 7.25ZM63.5398 14.175C63.4148 13.95 63.3148 13.65 63.4148 12.925C63.4648 12.525 63.6898 11.975 63.9898 11.4C64.3898 10.65 65.1648 9.375 65.7148 9.3C66.1398 9.25 66.6148 9.475 66.5898 9.875C66.5648 10.15 66.4648 10.25 66.2898 10.525C66.6148 10.675 66.9648 11.025 67.0898 11.525C67.2148 12.075 67.1648 12.4 66.9898 12.875C66.7398 13.525 66.2398 14.1 65.6398 14.425C65.3648 14.575 64.8898 14.7 64.5148 14.7C64.1898 14.7 63.7148 14.5 63.5398 14.175ZM65.8648 11.4C65.5148 11.575 65.2648 11.9 65.0148 12.425C64.8648 12.75 64.7648 13.05 64.7648 13.375C65.2398 13.275 65.7148 12.975 65.9148 12.375C66.0398 12 65.9648 11.65 65.8648 11.4ZM70.9898 20.225C71.0898 19.725 71.9648 19.5 72.3648 19.2C72.4648 19.125 72.5898 18.975 72.6398 18.9C73.0898 18.1 73.4148 17.175 73.4148 16.225C73.4148 15.875 73.3148 15.55 72.9148 15.55C72.3898 15.55 71.8148 15.7 71.3148 15.975C70.4148 16.475 70.0648 16.85 69.8398 17.375C69.6398 17.8 69.4898 18.5 69.4898 19.475C69.4898 19.725 69.2398 19.9 68.8148 19.9C68.0398 19.9 68.2398 18.9 68.2398 18.4C68.2398 17.875 68.3898 16.45 68.5398 15.775C68.6898 15.2 68.8148 14.55 68.9648 13.95C69.1398 13.3 69.4898 13.075 70.0898 13.075C70.3148 13.075 70.6898 13.275 70.6148 13.575C70.4648 14.175 70.3398 14.675 70.2148 15.2C70.5898 15.025 70.9398 14.85 71.1648 14.75C71.8398 14.475 72.2648 14.325 72.8148 14.3C73.6898 14.25 74.2898 14.425 74.6148 15.075C74.8648 15.55 74.8898 16.5 74.6648 17.275C74.6148 17.45 74.3148 18.325 74.0148 18.7C74.6148 18.525 75.4898 18.375 75.9148 18.3C76.5898 18.175 77.5648 18.125 78.1398 18.175C78.5398 18.2 78.5148 19.05 78.0648 19.025C77.0648 19.125 75.4148 19.5 74.3898 19.875C74.0398 20 73.3398 20.25 73.0398 20.4C72.5648 20.65 72.0398 21.05 71.4898 21C71.1148 20.975 70.9148 20.525 70.9898 20.225ZM84.5303 15.025C84.6053 14.425 84.7303 13.95 84.8803 13.375C85.0303 12.8 85.1803 12.325 85.2803 11.725C85.4303 10.8 85.7053 9.575 85.7053 8.475C85.7053 8.25 85.6053 8.15 85.3803 8.15C85.1553 8.15 84.9053 8.275 84.6803 8.4C84.4053 8.55 84.1803 8.7 83.8053 8.7C83.6553 8.7 83.4303 8.65 83.2553 8.375C83.1553 8.2 83.2053 8.025 83.2303 7.925C83.3553 7.275 84.4803 6.825 85.7053 6.8C86.7553 6.775 87.1803 7.325 87.1803 8.475C87.1803 9.375 87.0303 10.35 86.7803 11.425C87.6053 11.075 88.7053 10.375 89.3553 9.875C90.2553 9.15 90.6803 8.6 90.8303 8.425C91.2053 8.025 91.3553 7.7 91.5303 7.4C91.7803 6.925 91.5553 6.45 91.8803 5.9C91.9553 5.75 92.3053 5.725 92.4303 5.725C92.8803 5.725 93.1803 6.05 93.1803 6.475C93.1803 7.225 92.8803 7.875 92.8053 8.575C92.8053 8.725 92.7303 9.25 92.7303 9.375C92.7303 10.3 92.7053 11.25 92.7053 12.15C92.7053 13.025 92.7803 13.875 92.9803 14.85C93.0803 15.35 93.2553 15.875 93.2803 16.4C93.3053 16.675 93.1303 16.975 92.7553 17C92.6803 17 92.5553 16.975 92.4553 16.9C92.0803 16.575 91.9303 16.075 91.7803 15.625C91.6053 15.1 91.4053 14.5 91.3553 13.925C91.2553 12.975 91.2803 11.775 91.2303 10C90.9553 10.25 90.6803 10.5 90.2803 10.825C90.1053 10.975 89.7803 11.225 89.6053 11.35C89.0303 11.8 87.5303 12.625 86.7553 12.625H86.5053C86.3053 13.35 86.1053 14.1 85.9053 14.875C85.8053 15.225 85.5803 15.6 85.1553 15.6C84.8553 15.6 84.5303 15.4 84.5303 15.1V15.025ZM80.2553 15.8C80.3303 15.2 80.4803 14.725 80.6553 14.15C80.8303 13.575 81.0053 13.1 81.2053 12.5C81.5053 11.6 81.6803 10.9 81.6803 9.8C81.6803 9.575 81.5803 9.45 81.3553 9.475C80.9803 9.525 80.8803 9.55 80.4303 9.825C80.1553 10 79.9303 10.125 79.5553 10.125C79.4053 10.125 79.1803 10.075 79.0053 9.8C78.9053 9.625 78.9553 9.45 78.9803 9.35C79.1053 8.7 80.4803 8.15 81.7053 8.125C82.7553 8.1 83.1553 8.7 83.1553 9.85C83.1553 11.875 82.3303 13.3 81.6303 15.65C81.5303 16 81.3053 16.375 80.8803 16.375C80.5803 16.375 80.2553 16.175 80.2553 15.875V15.8ZM95.1553 14.825C95.0803 14.025 94.9803 13.375 95.0053 12.4C95.0553 10.75 95.4053 9.15 95.5553 7.575C95.6303 6.825 95.7053 6.2 95.7303 5.475C95.8053 5.1 96.1303 4.975 96.4553 4.975C96.9553 4.975 97.2303 5.275 97.2303 5.75C97.2303 6.6 97.0303 7.45 96.9303 8.375C96.8803 8.925 96.5303 11.4 96.4803 11.95C96.4553 12.15 96.3553 14.05 96.3553 14.275C96.3303 14.825 96.2053 15.275 95.7053 15.275C95.4803 15.275 95.1803 15.075 95.1553 14.825ZM110.064 12.85C110.064 12.4 110.089 11.15 110.089 11.075C110.089 10.425 110.264 7.85 110.364 7.2C110.539 6.075 110.739 4.875 111.114 3.8C111.164 3.65 111.439 3.6 111.764 3.6C112.164 3.6 112.439 3.85 112.439 4.25C112.439 4.5 112.364 4.825 112.314 5.1C111.989 6.425 111.764 7.725 111.664 9.075C111.564 10.125 111.539 10.375 111.464 11.425V12.275C112.214 11.95 112.714 11.775 113.164 11.65C113.689 11.5 114.664 11.175 115.589 11.1C116.164 11.05 116.189 11.425 116.039 11.675C115.989 11.775 115.839 11.85 115.764 11.9C115.339 12.1 115.014 12.25 114.539 12.45C113.539 12.875 112.314 13.35 111.464 13.95C111.464 14.1 111.414 14.825 111.414 14.975V15.625C111.414 15.825 111.439 16.675 111.464 16.775C111.514 17.175 111.764 17.825 111.239 17.9C110.964 17.95 110.564 17.9 110.389 17.45C110.314 17.25 110.239 16.95 110.189 16.6C110.139 16.15 110.089 15.675 110.089 15.15C110.089 15.025 110.064 13.425 110.064 12.85ZM102.164 15.55C102.189 14.975 102.339 14.5 102.539 13.925C102.714 13.45 103.164 12.525 103.339 12.25C103.539 11.925 103.914 11.175 104.339 11.025C104.489 10.975 104.689 11 104.764 11.025C105.114 11.1 105.414 11.275 105.239 11.725C105.139 12 105.039 12.25 104.914 12.625C105.039 12.7 105.139 12.825 105.239 12.925C105.639 13.375 105.764 13.8 105.714 14.4C105.614 15.6 105.239 16.45 104.239 17.075C103.989 17.225 103.414 17.325 103.114 17.2C102.389 16.925 102.139 16.15 102.164 15.55ZM99.6387 11.475C99.4137 11.25 99.4137 10.825 99.5887 10.575C99.7137 10.375 100.389 9.85 100.539 9.725C101.214 9.3 101.839 9.075 102.489 8.85C103.414 8.525 104.239 8.35 105.139 8.225C105.789 8.2 107.014 8.075 107.789 8.225C108.264 8.275 108.414 9.075 107.564 9.175C106.864 9.25 105.214 9.35 104.314 9.6C103.464 9.775 103.039 10.025 102.089 10.475C101.764 10.625 101.364 10.825 101.089 11.075C100.689 11.425 100.539 11.675 100.039 11.625C99.8887 11.625 99.7387 11.55 99.6387 11.475ZM102.139 5.45C102.139 3.975 102.564 2.65 103.014 1.35C103.139 0.999999 103.414 0.874999 103.814 0.874999C103.939 0.874999 104.364 0.975 104.364 1.275C104.364 1.675 104.339 1.925 104.189 2.35C104.089 2.7 103.989 3.1 103.814 3.475C103.439 4.325 103.389 5.275 103.339 6.2C103.289 7 103.314 7.7 102.814 7.7C102.639 7.7 102.414 7.4 102.339 7.175C102.189 6.625 102.139 6 102.139 5.45ZM103.589 15.5C103.589 15.575 103.564 15.85 103.614 15.975C103.739 15.975 103.939 15.9 104.039 15.775C104.489 15.275 104.564 15 104.664 14.3C104.714 13.925 104.639 13.675 104.514 13.45C104.114 13.85 103.664 14.8 103.589 15.5ZM121.175 17.3C121.175 15.775 121.925 14.675 122.625 13.375C122.675 13.275 122.875 13.1 123.05 13.075C123.325 13 123.95 13 124.05 13.3C124.175 13.625 123.8 14.075 123.65 14.325C123.55 14.475 123.4 14.625 123.275 14.925C123.15 15.225 122.925 15.6 122.75 16.05C122.65 16.325 122.55 16.575 122.55 16.875C122.55 17.275 122.85 17.325 123.275 17.25C124.925 16.925 126.25 16.225 127.875 16.025C128.425 15.95 128.45 16.95 127.825 17.075C127.2 17.2 123.825 18.5 123.2 18.625C123.075 18.65 122.7 18.725 122.5 18.725H122.375C121.575 18.725 121.175 18.025 121.175 17.3ZM118.175 7.625C118.175 6.975 118.4 6.15 118.55 5.625C118.675 5.2 119.375 3.55 119.6 3.175C119.75 2.9 120.125 2.9 120.35 2.9C120.775 2.9 120.95 3.15 120.95 3.4C120.95 3.525 120.85 3.8 120.85 3.8C120.25 4.975 119.625 6.375 119.525 7.35C119.95 7.3 120.475 7.175 120.925 7.075C121.8 6.875 122.45 6.675 123.15 6.525C123.65 6.425 123.925 6.7 123.975 6.95C124.05 7.3 123.85 7.425 123.675 7.525C123.425 7.65 122.575 7.975 122.175 8.1C121.175 8.4 120 8.8 119.225 8.8C118.3 8.8 118.175 8.3 118.175 7.625ZM116.55 12.175C116.55 11.9 116.825 11.7 116.95 11.65C119.25 10.675 121.95 10.45 124.55 10.45H125.875C126.975 10.45 127.825 10.575 128.45 10.725C129.025 10.85 129.65 11.125 129.425 11.675C129.375 11.8 129.175 11.8 129.025 11.8C128.625 11.8 127.725 11.7 127.05 11.625C126.575 11.575 126.1 11.55 125.625 11.55C123.7 11.55 120.925 11.725 119.125 12.275C118.6 12.425 117.725 12.925 117.275 12.975C116.75 13.025 116.55 12.575 116.55 12.175ZM8.89483 29.8785V30.5619H5.0362V31.5608C6.80255 31.6344 7.84343 32.2126 7.85395 33.2009C7.84343 34.2418 6.64484 34.8306 4.63667 34.8306C2.60747 34.8306 1.40887 34.2418 1.40887 33.2009C1.40887 32.2126 2.4445 31.6344 4.22662 31.5608V30.5619H0.378504V29.8785H8.89483ZM4.63667 32.1916C3.13317 32.2021 2.23948 32.5701 2.24999 33.2009C2.23948 33.8213 3.13317 34.1893 4.63667 34.1893C6.11914 34.1893 7.02334 33.8213 7.02334 33.2009C7.02334 32.5701 6.11914 32.2021 4.63667 32.1916ZM8.13783 25.9463V26.6192H5.17288C5.22545 27.6706 6.77101 28.4854 8.4217 28.6589L8.1168 29.3108C6.58701 29.1268 5.15185 28.4434 4.63667 27.3972C4.12674 28.4434 2.69684 29.1268 1.15654 29.3108L0.862147 28.6589C2.4813 28.4854 4.03737 27.6706 4.10046 26.6192H1.15654V25.9463H8.13783ZM17.4322 25.5047V34.8727H16.6016V29.5946H14.5514V28.9112H16.6016V25.5047H17.4322ZM12.9217 28.2804C12.9217 29.8365 14.0362 31.5292 15.403 32.1495L14.9088 32.8119C13.8417 32.2915 12.9427 31.1612 12.5222 29.8575C12.0911 31.2401 11.1711 32.4387 10.1039 33.0012L9.59927 32.3598C10.9556 31.6974 12.0806 29.9416 12.0911 28.2804V27.1554H9.95675V26.472H15.0665V27.1554H12.9217V28.2804ZM23.7826 26.6718C23.7721 27.8178 25.3492 28.7535 26.9999 28.9848L26.674 29.6367C25.1652 29.4212 23.7564 28.6642 23.2464 27.5654C22.7418 28.6642 21.3381 29.4212 19.8189 29.6367L19.514 28.9848C21.1647 28.7535 22.7102 27.8178 22.7102 26.6718V26.6507H19.7663V25.9778H26.7476V26.6507H23.7826V26.6718ZM27.5361 30.3201V31.0035H23.7301V32.9171H22.91V31.0035H18.9777V30.3201H27.5361ZM26.5794 33.9579V34.6519H20.0712V31.9813H20.9018V33.9579H26.5794ZM31.3737 25.9673C32.7721 25.9568 33.7709 26.7243 33.7709 27.8703C33.7709 29.0059 32.7721 29.7944 31.3737 29.7839C29.9754 29.7944 28.9766 29.0059 28.9766 27.8703C28.9766 26.7243 29.9754 25.9568 31.3737 25.9673ZM31.3737 26.6402C30.438 26.6297 29.7756 27.1449 29.7861 27.8703C29.7756 28.6063 30.438 29.111 31.3737 29.1005C32.32 29.111 32.9824 28.6063 32.9824 27.8703C32.9824 27.1449 32.32 26.6297 31.3737 26.6402ZM35.9999 25.5152V34.8621H35.1903V25.5152H35.9999ZM28.2721 30.583C30.0279 30.583 32.4251 30.5514 34.5069 30.2465L34.5595 30.8668C33.6658 31.0298 32.7353 31.1297 31.8364 31.1823V34.5678H31.0163V31.2348C30.0647 31.2769 29.1658 31.2821 28.3878 31.2874L28.2721 30.583ZM44.6109 31.382C46.5349 31.382 47.6914 32.0129 47.6914 33.1063C47.6914 34.2103 46.5349 34.8411 44.6109 34.8516C42.6868 34.8411 41.5092 34.2103 41.5092 33.1063C41.5092 32.0129 42.6868 31.382 44.6109 31.382ZM44.6109 32.0339C43.202 32.0444 42.3293 32.4334 42.3398 33.1063C42.3293 33.7792 43.202 34.1787 44.6109 34.1787C46.0302 34.1787 46.8924 33.7792 46.8924 33.1063C46.8924 32.4334 46.0302 32.0444 44.6109 32.0339ZM47.6073 25.5047V27.8598H49.0162V28.5643H47.6073V31.1297H46.7872V25.5047H47.6073ZM41.5092 26.0935V27.5234H44.2323V26.0935H45.0524V30.4042H40.6996V26.0935H41.5092ZM41.5092 29.7313H44.2323V28.1753H41.5092V29.7313ZM52.7382 28.0175C52.7382 29.6682 53.8316 31.361 55.1564 32.0129L54.6517 32.6752C53.6213 32.1338 52.7592 31.0298 52.3491 29.7313C51.9286 31.1139 51.0454 32.2915 49.994 32.854L49.4683 32.1916C50.8351 31.5187 51.9181 29.7208 51.9286 28.0175V26.3143H52.7382V28.0175ZM56.8386 25.5047V29.3002H58.4052V30.0152H56.8386V34.8516H56.0185V25.5047H56.8386ZM62.1272 26.9767C62.1166 28.3119 63.0629 29.4895 64.4402 29.9521L63.9776 30.5935C62.9472 30.2045 62.1377 29.4474 61.7381 28.4591C61.3333 29.5789 60.4765 30.4515 59.3515 30.8773L58.8994 30.2045C60.3398 29.6998 61.2965 28.4591 61.3071 27.0082V26.0409H62.1272V26.9767ZM66.6587 25.5047V31.0456H65.8281V28.1963H63.7463V27.5129H65.8281V25.5047H66.6587ZM63.5571 31.3189C65.5021 31.3189 66.6902 31.9603 66.6902 33.0853C66.6902 34.1998 65.5021 34.8306 63.5571 34.8306C61.612 34.8306 60.4239 34.1998 60.4239 33.0853C60.4239 31.9603 61.612 31.3189 63.5571 31.3189ZM63.5571 31.9708C62.1272 31.9708 61.2335 32.3914 61.244 33.0853C61.2335 33.7582 62.1272 34.1682 63.5571 34.1682C64.987 34.1682 65.8701 33.7582 65.8701 33.0853C65.8701 32.3914 64.987 31.9708 63.5571 31.9708ZM76.258 25.5047V34.8516H75.4589V25.5047H76.258ZM74.439 25.736V34.3575H73.661V30.8353H72.3888V30.1519H73.661V28.8587H72.3888V28.1753H73.661V25.736H74.439ZM72.6096 26.6928V27.3867H71.8211V31.7395C72.168 31.7237 72.5045 31.6922 72.8094 31.6554L72.8725 32.2757C71.4005 32.5175 69.4449 32.5596 68.2148 32.5701L68.1096 31.8551L69.0979 31.8446V27.3867H68.3094V26.6928H72.6096ZM69.8549 31.8341C70.2492 31.8236 70.6593 31.8131 71.064 31.7921V27.3867H69.8549V31.8341ZM85.2474 25.5047V34.8516H84.4168V25.5047H85.2474ZM82.4822 26.5246C82.4717 29.2161 81.2206 31.5923 78.0874 33.0958L77.6353 32.4229C80.1639 31.2243 81.4519 29.4317 81.6411 27.1975H78.0664V26.5246H82.4822ZM95.3408 29.458V30.1309H91.4822V31.0561H94.2474V33.1484H88.696V34.0946H94.5313V34.7465H87.8759V32.528H93.4378V31.6974H87.8549V31.0561H90.6621V30.1309H86.8245V29.458H95.3408ZM94.2369 25.8201V28.6694H87.9285V25.8201H94.2369ZM88.7486 26.4825V28.007H93.4168V26.4825H88.7486ZM106.58 25.5047V34.8727H105.75V29.9521H103.699V29.2687H105.75V25.5047H106.58ZM102.059 28.5538C102.059 30.0993 103.111 31.6133 104.499 32.2337L104.025 32.875C102.963 32.3861 102.08 31.3662 101.67 30.1309C101.26 31.4346 100.388 32.528 99.3256 33.0432L98.8525 32.4019C100.219 31.7605 101.25 30.1624 101.25 28.5538V27.8073H99.1048V27.1344H101.25V25.6834H102.07V27.1344H104.183V27.8073H102.059V28.5538ZM116.684 30.4568V31.1297H112.878V32.9591H112.058V31.1297H108.126V30.4568H116.684ZM115.727 33.9579V34.6519H109.219V32.097H110.039V33.9579H115.727ZM110.092 25.8096V27.0082H114.718V25.8096H115.538V29.5421H109.272V25.8096H110.092ZM110.092 28.8692H114.718V27.639H110.092V28.8692ZM120.764 28.0175C120.753 29.7208 121.92 31.4451 123.298 32.0654L122.793 32.7173C121.731 32.1969 120.811 31.0981 120.364 29.7629C119.928 31.177 119.008 32.3546 117.914 32.9065L117.389 32.2126C118.777 31.5713 119.933 29.7944 119.944 28.0175V26.3143H120.764V28.0175ZM125.148 25.5047V34.8727H124.317V25.5047H125.148ZM134.495 25.5047V30.3411H133.664V27.9124H131.583V27.229H133.664V25.5047H134.495ZM134.495 30.8143V33.0432H129.269V34.0631H134.842V34.7255H128.46V32.4124H133.675V31.4766H128.439V30.8143H134.495ZM129.932 26.6928C129.921 27.9229 130.889 29.0374 132.255 29.4895L131.814 30.1309C130.778 29.7629 129.953 29.0269 129.543 28.0806C129.143 29.1478 128.297 29.9626 127.188 30.3622L126.736 29.6998C128.144 29.2372 129.112 28.0596 129.122 26.6928V25.8096H129.932V26.6928ZM139.111 26.1881C140.583 26.1881 141.623 27.0818 141.623 28.3855C141.623 29.6893 140.583 30.583 139.111 30.583C137.639 30.583 136.577 29.6893 136.587 28.3855C136.577 27.0818 137.639 26.1881 139.111 26.1881ZM139.111 26.9136C138.112 26.9136 137.386 27.5129 137.397 28.3855C137.386 29.2582 138.112 29.8575 139.111 29.8575C140.099 29.8575 140.814 29.2582 140.814 28.3855C140.814 27.5129 140.099 26.9136 139.111 26.9136ZM143.716 25.5047V34.8727H142.896V25.5047H143.716ZM136.104 32.1075C137.828 32.1075 140.204 32.097 142.275 31.7921L142.338 32.4019C140.204 32.8014 137.901 32.8119 136.219 32.8119L136.104 32.1075ZM155.365 25.5047V28.354H156.774V29.0479H155.365V32.4019H154.545V25.5047H155.365ZM155.796 33.9579V34.6519H149.519V31.6869H150.329V33.9579H155.796ZM150.686 26.1671C152.085 26.1671 153.136 27.1133 153.147 28.4696C153.136 29.8259 152.085 30.7722 150.686 30.7722C149.288 30.7722 148.226 29.8259 148.237 28.4696C148.226 27.1133 149.288 26.1671 150.686 26.1671ZM150.686 26.8925C149.761 26.8925 149.036 27.5444 149.046 28.4696C149.036 29.3949 149.761 30.0467 150.686 30.0467C151.633 30.0467 152.337 29.3949 152.337 28.4696C152.337 27.5444 151.633 26.8925 150.686 26.8925ZM165.112 25.5152V32.3703H164.281V28.7851H162.357V28.1017H164.281V25.5152H165.112ZM165.375 33.9579V34.6519H159.108V31.75H159.939V33.9579H165.375ZM160.612 27.4393C160.612 28.6484 161.547 29.8259 162.914 30.2886L162.483 30.9509C161.427 30.5724 160.612 29.7839 160.212 28.8166C159.807 29.8943 158.945 30.7564 157.836 31.1717L157.405 30.4988C158.782 30.0152 159.781 28.7851 159.781 27.4393V26.9556H157.668V26.2722H162.704V26.9556H160.612V27.4393ZM175.226 32.9696V33.653H166.668V32.9696H170.516V30.9509H167.677V26.1671H168.508V27.8598H173.365V26.1671H174.175V30.9509H171.325V32.9696H175.226ZM168.508 30.278H173.365V28.5327H168.508V30.278ZM184.047 26.8925V27.576H176.393V26.8925H179.821V25.6624H180.63V26.8925H184.047ZM184.531 33.0748V33.7582H175.973V33.0748H179.821V31.7605C178.16 31.6712 177.15 31.0245 177.161 29.9731C177.15 28.8587 178.328 28.2068 180.231 28.2173C182.113 28.2068 183.301 28.8587 183.301 29.9731C183.301 31.0245 182.281 31.6712 180.63 31.7605V33.0748H184.531ZM180.231 28.8692C178.832 28.8692 177.981 29.2792 177.991 29.9731C177.981 30.6881 178.832 31.0876 180.231 31.0981C181.608 31.0876 182.46 30.6881 182.46 29.9731C182.46 29.2792 181.608 28.8692 180.231 28.8692Z" fill="#121212"/>
<path d="M20.4588 53.2807C19.7039 50.7139 17.6278 49.1285 14.6458 49.1285C10.4182 49.1285 7.54939 52.3748 7.54939 58.1123C7.54939 63.8876 10.3427 67.1716 14.6836 67.1716C18.5904 67.1716 20.9118 64.9634 20.9873 61.5095H15.061V57.2441H26.4606V60.6414C26.4606 67.8133 21.5535 72.1919 14.6458 72.1919C6.98318 72.1919 1.77411 66.8319 1.77411 58.1878C1.77411 49.3173 7.32291 44.1082 14.5326 44.1082C20.6853 44.1082 25.4414 47.8829 26.1964 53.2807H20.4588ZM33.7835 79.5148C32.6889 79.5148 31.6697 79.4771 30.9525 79.4016V75.0607C31.6697 75.0984 32.5001 75.1362 33.2173 75.1362C34.312 75.1362 35.2179 75.0229 35.8973 73.2488L36.2371 72.3807L28.8764 51.3179H34.7272L39.0303 66.4166H39.2568L43.5977 51.3179H49.524L41.5216 74.0793C40.3515 77.3633 38.1244 79.5148 33.7835 79.5148ZM60.8481 72.2297C54.5821 72.2297 50.7319 68.153 50.7319 61.6605C50.7319 55.319 54.6198 51.0536 60.6216 51.0536C66.0194 51.0536 70.2471 54.4509 70.2471 61.434V63.0194H56.2429C56.2429 66.1147 58.0925 68.0398 60.9613 68.0398C62.8487 68.0398 64.2075 67.2093 64.7737 65.9637H70.0961C69.3034 69.7384 65.9062 72.2297 60.8481 72.2297ZM56.2429 59.509H64.9625C64.9625 57.0177 63.2261 55.2435 60.7348 55.2435C58.168 55.2435 56.3373 57.1498 56.2429 59.509ZM82.9678 72.2297C76.7773 72.2297 72.9271 67.9643 72.9271 61.6228C72.9271 55.2813 76.7773 51.0536 82.9678 51.0536C89.1583 51.0536 93.0462 55.2813 93.0462 61.6228C93.0462 67.9643 89.1583 72.2297 82.9678 72.2297ZM83.0055 67.8888C85.8743 67.8888 87.3464 65.2087 87.3464 61.6228C87.3464 57.9991 85.8743 55.319 83.0055 55.319C80.099 55.319 78.5891 57.9991 78.5891 61.6228C78.5891 65.2087 80.099 67.8888 83.0055 67.8888ZM102.143 59.9619V71.8145H96.5567V51.3179H101.879V54.9038H102.105C103.049 52.5258 105.238 51.0536 108.258 51.0536C112.524 51.0536 115.355 53.9602 115.317 58.754V71.8145H109.768V59.7354C109.768 57.2064 108.371 55.6965 106.069 55.6965C103.729 55.6965 102.143 57.2441 102.143 59.9619ZM128.868 79.93C123.206 79.93 119.733 77.401 119.394 73.5131H124.905C125.207 75.1362 126.754 75.8911 128.981 75.8911C131.586 75.8911 133.322 74.7965 133.322 71.9277V68.1907H133.058C132.303 69.8516 130.491 71.5125 127.207 71.5125C122.564 71.5125 118.865 68.2662 118.865 61.434C118.865 54.4886 122.678 51.0536 127.207 51.0536C130.642 51.0536 132.303 53.092 133.058 54.7528H133.284V51.3179H138.833V72.0409C138.833 77.25 134.681 79.93 128.868 79.93ZM128.944 67.3226C131.737 67.3226 133.322 65.1332 133.322 61.5095C133.322 57.8481 131.737 55.5078 128.944 55.5078C126.113 55.5078 124.603 57.9613 124.603 61.5095C124.603 65.0578 126.113 67.3226 128.944 67.3226ZM143.552 51.3179H149.138V72.8336C149.138 77.552 146.232 79.5148 141.438 79.5148L140.305 79.4771V75.0984C140.607 75.0984 140.796 75.1362 141.06 75.1362C142.872 75.1362 143.552 74.3058 143.552 72.7581V51.3179ZM146.307 48.6378C144.609 48.6378 143.25 47.3544 143.25 45.8068C143.25 44.2214 144.609 42.938 146.307 42.938C147.968 42.938 149.327 44.2214 149.327 45.8068C149.327 47.3544 147.968 48.6378 146.307 48.6378ZM166.615 63.0949V51.3179H172.202V71.8145H166.841V68.1153H166.615C165.671 70.4933 163.482 72.0787 160.387 72.0787C156.272 72.0787 153.479 69.1722 153.479 64.3783V51.3179H159.066V63.3969C159.066 65.8127 160.462 67.3603 162.652 67.3603C164.69 67.3603 166.615 65.8882 166.615 63.0949Z" fill="#121212"/>
</svg>
