<svg width="216" height="39" viewBox="0 0 216 39" fill="none" xmlns="http://www.w3.org/2000/svg">
<path d="M0.555905 5.68336V2.62588H12.9446V5.68336H8.61653V17H4.88402V5.68336H0.555905ZM14.4734 17V2.62588H18.2456V8.2842H23.5465V2.62588H27.3386V17H23.5465V11.3417H18.2456V17H14.4734ZM29.2644 17V2.62588H39.5288V5.68336H33.0366V8.2842H38.9928V11.3417H33.0366V13.9425H39.509V17H29.2644ZM41.5142 2.62588H46.2195L49.6344 10.9843H49.8131L53.2279 2.62588H57.9332V17H54.2404V8.5423H54.1213L50.8455 16.9007H48.5821L45.3261 8.48274H45.207V17H41.5142V2.62588ZM59.8789 17V2.62588H70.1433V5.68336H63.6511V8.2842H69.6072V11.3417H63.6511V13.9425H70.1234V17H59.8789ZM84.299 7.07312C84.2196 6.10029 83.5843 5.54439 82.2938 5.54439C81.043 5.54439 80.4871 6.02088 80.4673 6.6959C80.4474 7.43049 81.1224 7.84742 82.4526 8.12537L83.6439 8.40333C86.741 9.0585 88.1109 10.5674 88.1308 12.7712C88.1109 15.5904 85.9469 17.1787 82.3137 17.1787C78.601 17.1787 76.1987 15.5507 76.159 12.0167H79.7724C79.8319 13.3469 80.7651 14.0616 82.2541 14.0616C83.5446 14.0616 84.2395 13.5256 84.2593 12.7712C84.2395 12.0763 83.6637 11.6792 82.0556 11.3218L80.6062 11.0042C78.0848 10.4483 76.5362 9.19748 76.5362 6.97386C76.5164 4.25389 78.9187 2.42735 82.2938 2.42735C85.7483 2.42735 87.9124 4.27375 87.9323 7.07312H84.299ZM89.2625 5.68336V2.62588H101.651V5.68336H97.3231V17H93.5906V5.68336H89.2625ZM116.323 9.81294C116.323 14.5977 113.266 17.1985 109.374 17.1985C105.443 17.1985 102.406 14.5778 102.406 9.81294C102.406 5.02819 105.443 2.42735 109.374 2.42735C113.266 2.42735 116.323 5.02819 116.323 9.81294ZM112.432 9.81294C112.432 7.17239 111.34 5.72307 109.374 5.72307C107.389 5.72307 106.297 7.17239 106.297 9.81294C106.297 12.4535 107.389 13.9028 109.374 13.9028C111.34 13.9028 112.432 12.4535 112.432 9.81294ZM118.17 17V2.62588H124.284C127.501 2.62588 129.605 4.45243 129.605 7.49005C129.605 9.47543 128.692 10.885 127.143 11.6196L130.082 17H125.972L123.431 12.2152H121.942V17H118.17ZM121.942 9.25704H123.411C124.84 9.25704 125.654 8.74084 125.654 7.49005C125.654 6.21941 124.84 5.64365 123.411 5.64365H121.942V9.25704ZM130.022 2.62588H134.251L137.11 8.50259H137.229L140.108 2.62588H144.337L139.056 12.3939V17H135.303V12.3939L130.022 2.62588Z" fill="#46762A"/>
<path d="M8.95382 30.9208V31.828H1.61404V27.9637H2.73327V30.9208H8.95382ZM10.0495 33.2889V34.2078H5.72573V38.0014H4.61829V34.2078H0.388784V33.2889H10.0495ZM19.2154 28.1051V29.0358C19.2154 30.0372 19.2154 31.1211 18.9208 32.6291H20.4406V33.5481H16.164V38.0132H15.033V33.5481H10.8153V32.6291H17.7898C18.1079 31.127 18.1079 30.0196 18.1079 29.0358V29.024H11.9934V28.1051H19.2154ZM31.1028 31.5924V32.5113H29.4651V37.9896H28.3459V27.4453H29.4651V31.5924H31.1028ZM22.7498 28.4703V34.4081C24.2224 34.4081 25.7599 34.2844 27.4388 33.9369L27.5683 34.8794C25.7658 35.2446 24.0929 35.3388 22.5142 35.3388H21.6423V28.4703H22.7498ZM44.239 31.8751V32.7705H34.6136V31.8751H44.239ZM43.0255 33.6188V36.1046H36.8756V37.0353H43.32V37.8954H35.7799V35.2917H41.918V34.4552H35.7682V33.6188H43.0255ZM43.3789 27.8341V28.7295H40.0919C40.2922 29.6602 41.8061 30.4142 43.7559 30.5556L43.3907 31.4274C41.5705 31.2566 40.0566 30.6027 39.4204 29.6013C38.7783 30.6027 37.2703 31.2566 35.4618 31.4274L35.1084 30.5556C37.0347 30.4142 38.5486 29.6484 38.7488 28.7295H35.4972V27.8341H43.3789ZM53.7936 27.4453V32.8176H52.6744V27.4453H53.7936ZM50.6244 27.9166C50.6127 30.6852 48.8101 32.3228 45.6174 33.0297L45.205 32.1225C47.8499 31.5688 49.2284 30.3848 49.3992 28.8355H45.7587V27.9166H50.6244ZM53.7936 33.2889V35.9397H47.9972V37.0118H54.1471V37.8954H46.8898V35.1032H52.6744V34.1725H46.8544V33.2889H53.7936ZM63.8196 28.3761C63.8078 29.778 65.5278 31.0975 67.6014 31.3685L67.1655 32.2875C65.4395 32.0106 63.9197 31.1152 63.2423 29.8723C62.5472 31.1211 61.0333 32.0106 59.3191 32.2875L58.8714 31.3685C60.9449 31.0975 62.6414 29.7898 62.6532 28.3761V27.7988H63.8196V28.3761ZM68.0373 33.3242V34.2432H63.7489V38.0014H62.6532V34.2432H58.4119V33.3242H68.0373ZM75.4477 34.4199C75.4477 35.327 75.8954 36.2872 76.8497 36.8586C77.8217 36.2401 78.2988 35.2269 78.2988 34.4199V33.9133H79.3945V34.4199C79.3945 35.5156 80.1131 36.5759 81.4916 37.0236L80.9378 37.8483C79.8952 37.4889 79.1883 36.7879 78.8172 35.9161C78.4814 36.7703 77.8511 37.5419 76.8851 37.9425C75.8719 37.5596 75.2298 36.8115 74.9058 35.9515C74.5229 36.782 73.8278 37.483 72.8323 37.8483L72.2668 37.0236C73.6216 36.5405 74.3521 35.4449 74.3639 34.4199V33.9133H75.4477V34.4199ZM80.5373 27.4571V33.4656H79.418V27.4571H80.5373ZM74.8115 28.0344C76.4256 28.0344 77.6155 29.0594 77.6155 30.532C77.6155 31.9929 76.4256 33.0061 74.8115 33.0061C73.1975 33.0061 71.9958 31.9929 71.9958 30.532C71.9958 29.0594 73.1975 28.0344 74.8115 28.0344ZM74.8115 28.9887C73.8101 28.9769 73.0915 29.6013 73.0915 30.532C73.0915 31.451 73.8101 32.0754 74.8115 32.0754C75.8012 32.0754 76.5198 31.451 76.5198 30.532C76.5198 29.6013 75.8012 28.9769 74.8115 28.9887ZM90.7517 28.4585V29.4953C90.7517 30.803 90.7517 32.2639 90.3511 34.4199L89.2201 34.3021C89.6325 32.2639 89.6325 30.7677 89.6325 29.4953V29.3657H83.2234V28.4585H90.7517ZM91.8356 35.6451V36.5759H82.2102V35.6451H85.8742V31.9222H86.9817V35.6451H91.8356ZM103.876 27.4453V29.6484H105.408V30.5792H103.876V32.7823H102.757V27.4453H103.876ZM103.876 33.2653V35.9397H98.174V36.9764H104.241V37.8718H97.0783V35.1032H102.769V34.1371H97.0547V33.2653H103.876ZM98.5156 27.8106C100.118 27.8106 101.284 28.7766 101.284 30.1668C101.284 31.557 100.118 32.5231 98.5156 32.5231C96.9134 32.5231 95.7352 31.557 95.747 30.1668C95.7352 28.7766 96.9134 27.8106 98.5156 27.8106ZM98.5156 28.7295C97.5378 28.7295 96.8309 29.3068 96.8309 30.1668C96.8309 31.0269 97.5378 31.6277 98.5156 31.6277C99.4817 31.6277 100.2 31.0269 100.2 30.1668C100.2 29.3068 99.4817 28.7295 98.5156 28.7295ZM108.836 28.2347C110.415 28.2347 111.534 29.672 111.546 31.934C111.534 34.2078 110.415 35.6451 108.836 35.6451C107.257 35.6451 106.126 34.2078 106.138 31.934C106.126 29.672 107.257 28.2347 108.836 28.2347ZM108.836 29.2361C107.87 29.2361 107.21 30.2729 107.21 31.934C107.21 33.607 107.87 34.6437 108.836 34.6437C109.814 34.6437 110.474 33.607 110.474 31.934C110.474 30.2729 109.814 29.2361 108.836 29.2361ZM114.232 27.4453V31.5806H115.928V32.5231H114.232V38.0014H113.113V27.4453H114.232ZM124.729 27.4453V29.7309H126.261V30.6616H124.729V32.7823H123.61V27.4453H124.729ZM121.854 27.9166C121.854 30.6263 119.969 32.3581 116.847 33.065L116.423 32.1343C119.015 31.5806 120.452 30.3494 120.617 28.8355H116.918V27.9166H121.854ZM124.729 33.2418V35.9515H119.027V37H125.094V37.8954H117.931V35.0914H123.622V34.1371H117.908V33.2418H124.729ZM135.214 28.3761C135.203 29.778 136.923 31.0975 138.996 31.3685L138.56 32.2875C136.834 32.0106 135.315 31.1152 134.637 29.8723C133.942 31.1211 132.428 32.0106 130.714 32.2875L130.266 31.3685C132.34 31.0975 134.036 29.7898 134.048 28.3761V27.7988H135.214V28.3761ZM139.432 33.3242V34.2432H135.144V38.0014H134.048V34.2432H129.807V33.3242H139.432ZM146.843 34.4199C146.843 35.327 147.29 36.2872 148.245 36.8586C149.217 36.2401 149.694 35.2269 149.694 34.4199V33.9133H150.789V34.4199C150.789 35.5156 151.508 36.5759 152.887 37.0236L152.333 37.8483C151.29 37.4889 150.583 36.7879 150.212 35.9161C149.876 36.7703 149.246 37.5419 148.28 37.9425C147.267 37.5596 146.625 36.8115 146.301 35.9515C145.918 36.782 145.223 37.483 144.227 37.8483L143.662 37.0236C145.017 36.5405 145.747 35.4449 145.759 34.4199V33.9133H146.843V34.4199ZM151.932 27.4571V33.4656H150.813V27.4571H151.932ZM146.206 28.0344C147.821 28.0344 149.01 29.0594 149.01 30.532C149.01 31.9929 147.821 33.0061 146.206 33.0061C144.592 33.0061 143.391 31.9929 143.391 30.532C143.391 29.0594 144.592 28.0344 146.206 28.0344ZM146.206 28.9887C145.205 28.9769 144.486 29.6013 144.486 30.532C144.486 31.451 145.205 32.0754 146.206 32.0754C147.196 32.0754 147.915 31.451 147.915 30.532C147.915 29.6013 147.196 28.9769 146.206 28.9887ZM162.147 30.532V31.4274H154.878V27.8223H155.985V30.532H162.147ZM163.254 32.7587V33.6541H153.593V32.7587H163.254ZM162.217 36.8351V37.754H154.795V34.6555H155.914V36.8351H162.217ZM172.856 28.2465V28.8355C172.844 29.5424 172.844 30.5909 172.585 31.9576L171.477 31.8516C171.707 30.6793 171.743 29.8311 171.76 29.1654H167.531V28.2465H172.856ZM170.158 30.6145V32.7941C171.289 32.7587 172.455 32.6762 173.516 32.5231L173.586 33.336C171.383 33.7248 168.862 33.7601 167.001 33.7719L166.895 32.8647C167.543 32.8589 168.279 32.853 169.051 32.8294V30.6145H170.158ZM175.33 27.4453V30.803H176.779V31.7455H175.33V35.3742H174.187V27.4453H175.33ZM175.672 36.8704V37.7776H168.497V34.6555H169.616V36.8704H175.672ZM183.282 28.0815V28.6824C183.282 29.3539 183.282 30.3082 183.011 31.5217L181.904 31.4274C182.122 30.3966 182.157 29.6249 182.175 29.0005H177.957V28.0815H183.282ZM180.584 30.3907V32.3817C181.721 32.3405 182.882 32.2698 183.942 32.1343L184.013 32.9237C181.81 33.3007 179.324 33.3596 177.427 33.3596L177.321 32.4288C177.975 32.4288 178.711 32.4288 179.477 32.4053V30.3907H180.584ZM185.756 27.4453V30.2375H187.217V31.1682H185.756V33.984H184.614V27.4453H185.756ZM182.269 34.1136C184.484 34.1136 185.839 34.8322 185.839 36.0221C185.839 37.2592 184.484 37.9661 182.269 37.9661C180.066 37.9661 178.699 37.2592 178.699 36.0221C178.699 34.8322 180.066 34.1136 182.269 34.1136ZM182.269 34.9854C180.749 34.9854 179.819 35.3742 179.83 36.0221C179.819 36.7172 180.749 37.0825 182.269 37.0825C183.789 37.0825 184.696 36.7172 184.708 36.0221C184.696 35.3742 183.789 34.9854 182.269 34.9854ZM191.718 30.5556C191.718 32.3228 192.872 34.1489 194.498 34.844L193.886 35.7158C192.643 35.168 191.653 34.0075 191.164 32.5938C190.675 34.1018 189.68 35.386 188.454 35.9868L187.806 35.1032C189.397 34.361 190.575 32.3699 190.587 30.5556V29.4364H188.172V28.5056H194.121V29.4364H191.718V30.5556ZM196.572 27.4453V38.0014H195.453V27.4453H196.572Z" fill="#46762A"/>
</svg>
