<svg width="211" height="36" viewBox="0 0 211 36" fill="none" xmlns="http://www.w3.org/2000/svg">
<line x1="1.5" y1="3" x2="1.5" y2="34" stroke="#41652B" stroke-width="3"/>
<path d="M14.5006 5.28493V2.49658H25.7989V5.28493H21.8517V15.6055H18.4478V5.28493H14.5006ZM27.1931 15.6055V2.49658H30.6333V7.65684H35.4676V2.49658H38.9259V15.6055H35.4676V10.4452H30.6333V15.6055H27.1931ZM40.6822 15.6055V2.49658H50.0431V5.28493H44.1224V7.65684H49.5542V10.4452H44.1224V12.8171H50.025V15.6055H40.6822ZM51.8537 2.49658H56.1449L59.2592 10.1193H59.4221L62.5364 2.49658H66.8276V15.6055H63.4598V7.89223H63.3512L60.3636 15.5149H58.2995L55.3301 7.83791H55.2215V15.6055H51.8537V2.49658ZM68.602 15.6055V2.49658H77.9629V5.28493H72.0421V7.65684H77.474V10.4452H72.0421V12.8171H77.9448V15.6055H68.602ZM90.8726 6.55237C90.8002 5.66516 90.2208 5.15819 89.0439 5.15819C87.9032 5.15819 87.3962 5.59274 87.3781 6.20835C87.36 6.87828 87.9756 7.25851 89.1887 7.51199L90.2751 7.76548C93.0997 8.36299 94.349 9.73906 94.3671 11.7488C94.349 14.3199 92.3754 15.7684 89.062 15.7684C85.6761 15.7684 83.4853 14.2837 83.4491 11.0608H86.7444C86.7987 12.2739 87.6497 12.9258 89.0077 12.9258C90.1846 12.9258 90.8183 12.4369 90.8364 11.7488C90.8183 11.1151 90.2932 10.753 88.8266 10.4271L87.5048 10.1374C85.2054 9.63042 83.7931 8.48973 83.7931 6.46184C83.775 3.98128 85.9658 2.31551 89.0439 2.31551C92.1944 2.31551 94.1679 3.99939 94.186 6.55237H90.8726ZM95.3992 5.28493V2.49658H106.697V5.28493H102.75V15.6055H99.3463V5.28493H95.3992ZM120.078 9.05102C120.078 13.4146 117.29 15.7865 113.741 15.7865C110.156 15.7865 107.385 13.3965 107.385 9.05102C107.385 4.68743 110.156 2.31551 113.741 2.31551C117.29 2.31551 120.078 4.68743 120.078 9.05102ZM116.529 9.05102C116.529 6.6429 115.533 5.32114 113.741 5.32114C111.93 5.32114 110.934 6.6429 110.934 9.05102C110.934 11.4591 111.93 12.7809 113.741 12.7809C115.533 12.7809 116.529 11.4591 116.529 9.05102ZM121.762 15.6055V2.49658H127.338C130.272 2.49658 132.191 4.16235 132.191 6.9326C132.191 8.74322 131.358 10.0288 129.946 10.6987L132.626 15.6055H128.878L126.56 11.2419H125.202V15.6055H121.762ZM125.202 8.54405H126.542C127.845 8.54405 128.588 8.07329 128.588 6.9326C128.588 5.7738 127.845 5.24872 126.542 5.24872H125.202V8.54405ZM132.571 2.49658H136.428L139.035 7.85601H139.144L141.769 2.49658H145.626L140.81 11.4048V15.6055H137.387V11.4048L132.571 2.49658Z" fill="#41652B"/>
<path d="M22.2883 28.5018V29.5977H15.3904V25.8802H16.7657V28.5018H22.2883ZM23.2338 30.7151V31.8325H19.3981V35.217H18.0228V31.8325H14.2837V30.7151H23.2338ZM31.6681 26.0091V26.8901C31.6681 27.8034 31.6681 28.8026 31.421 30.1672H32.7103V31.2738H28.8961V35.2277H27.5208V31.2738H23.7925V30.1672H30.035C30.2821 28.9047 30.3036 27.9484 30.3036 27.105H24.8132V26.0091H31.6681ZM42.4017 29.1464V30.2639H41.0157V35.1955H39.6404V25.4396H41.0157V29.1464H42.4017ZM34.9774 26.3744V31.6714C36.2291 31.6552 37.5721 31.5371 38.985 31.2523L39.1247 32.3912C37.4915 32.7243 35.9014 32.8103 34.4616 32.8103H33.6128V26.3744H34.9774ZM54.2634 29.4151V30.5002H45.3456V29.4151H54.2634ZM53.1783 31.0374V33.5301H47.7309V34.1211H53.4361V35.1525H46.3878V32.5739H51.8245V32.0367H46.3771V31.0374H53.1783ZM53.4576 25.7512V26.8257H50.7071C51.0079 27.422 52.0394 27.9861 53.8766 28.0935L53.4469 29.1464C51.6365 29.0121 50.3847 28.4427 49.7938 27.6207C49.2082 28.4373 47.9673 29.0121 46.173 29.1464L45.7432 28.0935C47.5643 27.9861 48.5851 27.422 48.8913 26.8257H46.1622V25.7512H53.4576ZM63.0416 25.4396V30.3606H61.6663V25.4396H63.0416ZM60.0761 25.7942C60.0654 28.4803 58.5719 29.9415 55.4776 30.5647L54.9941 29.458C57.4062 29.0121 58.4108 28.0774 58.5612 26.9009H55.5205V25.7942H60.0761ZM63.0416 30.7473V33.3905H57.8843V34.0566H63.3102V35.1203H56.4983V32.402H61.6556V31.811H56.4768V30.7473H63.0416ZM72.0883 26.2025C72.0883 27.3521 73.2594 28.6307 75.505 28.9101L74.9678 30.0167C73.2594 29.7696 72.0077 28.9799 71.3684 27.9216C70.7238 28.9799 69.4828 29.7696 67.7906 30.0167L67.2426 28.9101C69.4667 28.6307 70.6486 27.3521 70.6486 26.2025V25.7297H72.0883V26.2025ZM75.8166 30.7581V31.8755H72.0131V35.217H70.6593V31.8755H66.8988V30.7581H75.8166ZM82.4996 31.7143C82.4996 32.504 82.8273 33.3152 83.6277 33.8525C84.4336 33.283 84.7881 32.4396 84.7881 31.7143V31.3813H86.1419V31.7143C86.1312 32.7351 86.6791 33.6806 87.9792 34.0781L87.313 35.0773C86.3783 34.7604 85.7659 34.164 85.4328 33.4119C85.1051 34.164 84.5356 34.8195 83.66 35.1633C82.7359 34.8302 82.1611 34.1963 81.8442 33.4442C81.5003 34.1748 80.8987 34.7657 80.0069 35.0773L79.33 34.0781C80.6193 33.6376 81.1565 32.6706 81.1673 31.7143V31.3813H82.4996V31.7143ZM87.1304 25.4504V30.973H85.7551V25.4504H87.1304ZM81.769 25.9446C83.2947 25.9446 84.4443 26.9116 84.4443 28.2976C84.4443 29.6622 83.2947 30.6292 81.769 30.6292C80.2433 30.6292 79.0936 29.6622 79.0936 28.2976C79.0936 26.9116 80.2433 25.9446 81.769 25.9446ZM81.769 27.0943C80.9846 27.0943 80.4259 27.5455 80.4367 28.2976C80.4259 29.039 80.9846 29.4903 81.769 29.4903C82.5318 29.4903 83.0905 29.039 83.0905 28.2976C83.0905 27.5455 82.5318 27.0943 81.769 27.0943ZM96.5102 26.2884V27.2125C96.5102 28.4373 96.5102 29.8126 96.1127 31.8862L94.7374 31.7466C95.1081 29.8985 95.1242 28.5233 95.1349 27.3736H89.376V26.2884H96.5102ZM97.3697 32.907V34.0244H88.4519V32.907H91.643V29.544H93.0075V32.907H97.3697ZM108.254 25.4396V27.3306H109.575V28.4588H108.254V30.3283H106.878V25.4396H108.254ZM108.254 30.7151V33.3797H103.129V34.0351H108.533V35.1096H101.786V32.3912H106.889V31.7681H101.764V30.7151H108.254ZM103.193 25.7297C104.697 25.7405 105.815 26.643 105.815 27.9431C105.815 29.2324 104.697 30.1564 103.193 30.1564C101.689 30.1564 100.561 29.2324 100.561 27.9431C100.561 26.643 101.689 25.7405 103.193 25.7297ZM103.193 26.8472C102.441 26.8472 101.893 27.2554 101.904 27.9431C101.893 28.6415 102.441 29.0712 103.193 29.0712C103.945 29.0712 104.483 28.6415 104.483 27.9431C104.483 27.2554 103.945 26.8472 103.193 26.8472ZM112.637 26.1273C114.131 26.1273 115.205 27.4811 115.216 29.6084C115.205 31.7573 114.131 33.1004 112.637 33.1004C111.144 33.1004 110.048 31.7573 110.059 29.6084C110.048 27.4811 111.144 26.1273 112.637 26.1273ZM112.637 27.3629C111.885 27.3629 111.38 28.158 111.38 29.6084C111.38 31.0697 111.885 31.854 112.637 31.854C113.4 31.854 113.895 31.0697 113.905 29.6084C113.895 28.158 113.4 27.3629 112.637 27.3629ZM117.72 25.4396V29.125H119.159V30.2639H117.72V35.217H116.344V25.4396H117.72ZM127.271 25.4396V27.3844H128.593V28.5233H127.271V30.3283H125.896V25.4396H127.271ZM124.596 25.7942C124.596 28.4158 122.92 29.9845 119.965 30.5969L119.46 29.4688C121.77 29.0336 122.888 28.0398 123.059 26.9009H119.954V25.7942H124.596ZM127.271 30.7044V33.4012H122.146V34.0351H127.551V35.1203H120.803V32.3805H125.907V31.7896H120.782V30.7044H127.271ZM136.748 26.2025C136.748 27.3521 137.919 28.6307 140.164 28.9101L139.627 30.0167C137.919 29.7696 136.667 28.9799 136.028 27.9216C135.383 28.9799 134.142 29.7696 132.45 30.0167L131.902 28.9101C134.126 28.6307 135.308 27.3521 135.308 26.2025V25.7297H136.748V26.2025ZM140.476 30.7581V31.8755H136.673V35.217H135.319V31.8755H131.558V30.7581H140.476ZM147.159 31.7143C147.159 32.504 147.487 33.3152 148.287 33.8525C149.093 33.283 149.448 32.4396 149.448 31.7143V31.3813H150.801V31.7143C150.791 32.7351 151.339 33.6806 152.639 34.0781L151.972 35.0773C151.038 34.7604 150.425 34.164 150.092 33.4119C149.765 34.164 149.195 34.8195 148.319 35.1633C147.395 34.8302 146.821 34.1963 146.504 33.4442C146.16 34.1748 145.558 34.7657 144.666 35.0773L143.989 34.0781C145.279 33.6376 145.816 32.6706 145.827 31.7143V31.3813H147.159V31.7143ZM151.79 25.4504V30.973H150.415V25.4504H151.79ZM146.428 25.9446C147.954 25.9446 149.104 26.9116 149.104 28.2976C149.104 29.6622 147.954 30.6292 146.428 30.6292C144.903 30.6292 143.753 29.6622 143.753 28.2976C143.753 26.9116 144.903 25.9446 146.428 25.9446ZM146.428 27.0943C145.644 27.0943 145.085 27.5455 145.096 28.2976C145.085 29.039 145.644 29.4903 146.428 29.4903C147.191 29.4903 147.75 29.039 147.75 28.2976C147.75 27.5455 147.191 27.0943 146.428 27.0943ZM161.051 28.1042V29.1787H154.218V25.7835H155.583V28.1042H161.051ZM162.051 30.2316V31.3061H153.101V30.2316H162.051ZM161.116 33.9062V35.0021H154.132V32.1011H155.507V33.9062H161.116ZM170.635 26.1488V26.7612C170.635 27.4381 170.635 28.4158 170.41 29.6299L169.067 29.501C169.239 28.5609 169.282 27.8517 169.292 27.2662H165.607V26.1488H170.635ZM168.207 28.4051V30.2746C169.18 30.237 170.179 30.1618 171.097 30.0275L171.173 31.016C169.142 31.392 166.843 31.4242 165.145 31.435L165.027 30.3391C165.575 30.3391 166.193 30.3391 166.843 30.3176V28.4051H168.207ZM173.031 25.4396V28.4158H174.213V29.5655H173.031V32.7565H171.624V25.4396H173.031ZM173.332 33.9492V35.0451H166.467V32.1011H167.842V33.9492H173.332ZM180.166 25.9769V26.6108C180.155 27.2447 180.155 28.115 179.929 29.1787L178.586 29.082C178.742 28.26 178.78 27.6207 178.79 27.0728H175.116V25.9769H180.166ZM177.716 28.158V29.8448C178.694 29.8126 179.688 29.7481 180.606 29.6407L180.681 30.5969C178.651 30.9515 176.416 31.0052 174.654 31.0052L174.536 29.9093C175.094 29.9039 175.707 29.9039 176.351 29.8878V28.158H177.716ZM182.54 25.4396V27.8464H183.733V28.9853H182.54V31.4028H181.133V25.4396H182.54ZM179.209 31.5209C181.305 31.5209 182.605 32.2193 182.605 33.3367C182.605 34.5186 181.305 35.1955 179.209 35.1955C177.114 35.1955 175.803 34.5186 175.803 33.3367C175.803 32.2193 177.114 31.5209 179.209 31.5209ZM179.209 32.5739C177.92 32.5739 177.2 32.8425 177.2 33.3367C177.2 33.8954 177.92 34.1318 179.209 34.1318C180.488 34.1318 181.197 33.8954 181.197 33.3367C181.197 32.8425 180.488 32.5739 179.209 32.5739ZM187.966 28.1042C187.966 29.6837 188.772 31.3705 190.416 32.0582L189.674 33.1326C188.519 32.6437 187.724 31.6714 187.289 30.4787C186.843 31.7734 186.032 32.8479 184.882 33.3797L184.098 32.2945C185.72 31.5747 186.559 29.7589 186.559 28.1042V27.5026H184.485V26.3851H190.007V27.5026H187.966V28.1042ZM192.36 25.4396V35.217H190.974V25.4396H192.36Z" fill="#41652B"/>
</svg>
