<svg width="216" height="58" viewBox="0 0 216 58" fill="none" xmlns="http://www.w3.org/2000/svg">
<circle cx="34.5" cy="16.5" r="16.5" fill="#2C5016"/>
<circle cx="190.5" cy="41.5" r="16.5" fill="#2C5016"/>
<circle cx="198.5" cy="13.5" r="4.5" fill="#2C5016"/>
<path d="M36.2188 13.6834V10.6259H48.6075V13.6834H44.2794V25H40.5469V13.6834H36.2188Z" fill="white"/>
<path d="M50.1362 25V10.6259H53.9085V16.2842H59.2094V10.6259H63.0015V25H59.2094V19.3417H53.9085V25H50.1362ZM64.9273 25V10.6259H75.1917V13.6834H68.6995V16.2842H74.6556V19.3417H68.6995V21.9425H75.1718V25H64.9273ZM77.1771 10.6259H81.8824L85.2972 18.9843H85.4759L88.8908 10.6259H93.5961V25H89.9033V16.5423H89.7842L86.5083 24.9007H84.245L80.989 16.4827H80.8699V25H77.1771V10.6259ZM95.5418 25V10.6259H105.806V13.6834H99.314V16.2842H105.27V19.3417H99.314V21.9425H105.786V25H95.5418ZM119.962 15.0731C119.882 14.1003 119.247 13.5444 117.957 13.5444C116.706 13.5444 116.15 14.0209 116.13 14.6959C116.11 15.4305 116.785 15.8474 118.115 16.1254L119.307 16.4033C122.404 17.0585 123.774 18.5674 123.794 20.7712C123.774 23.5904 121.61 25.1787 117.977 25.1787C114.264 25.1787 111.862 23.5507 111.822 20.0167H115.435C115.495 21.3469 116.428 22.0616 117.917 22.0616C119.207 22.0616 119.902 21.5256 119.922 20.7712C119.902 20.0763 119.327 19.6792 117.718 19.3218L116.269 19.0042C113.748 18.4483 112.199 17.1975 112.199 14.9739C112.179 12.2539 114.582 10.4273 117.957 10.4273C121.411 10.4273 123.575 12.2737 123.595 15.0731H119.962ZM124.925 13.6834V10.6259H137.314V13.6834H132.986V25H129.253V13.6834H124.925ZM151.986 17.8129C151.986 22.5977 148.929 25.1985 145.037 25.1985C141.106 25.1985 138.069 22.5778 138.069 17.8129C138.069 13.0282 141.106 10.4273 145.037 10.4273C148.929 10.4273 151.986 13.0282 151.986 17.8129ZM148.095 17.8129C148.095 15.1724 147.003 13.7231 145.037 13.7231C143.052 13.7231 141.96 15.1724 141.96 17.8129C141.96 20.4535 143.052 21.9028 145.037 21.9028C147.003 21.9028 148.095 20.4535 148.095 17.8129ZM153.832 25V10.6259H159.947C163.164 10.6259 165.268 12.4524 165.268 15.4901C165.268 17.4754 164.355 18.885 162.806 19.6196L165.745 25H161.635L159.094 20.2152H157.605V25H153.832ZM157.605 17.257H159.074C160.503 17.257 161.317 16.7408 161.317 15.4901C161.317 14.2194 160.503 13.6437 159.074 13.6437H157.605V17.257ZM165.685 10.6259H169.914L172.773 16.5026H172.892L175.771 10.6259H180L174.719 20.3939V25H170.966V20.3939L165.685 10.6259Z" fill="#121212"/>
<path d="M19.1215 38.7205V39.9222H11.5579V35.8459H13.0659V38.7205H19.1215ZM20.1583 41.1475V42.3728H15.9523V46.0839H14.4443V42.3728H10.3444V41.1475H20.1583ZM29.4066 35.9873V36.9533C29.4066 37.9548 29.4066 39.0504 29.1357 40.5467H30.5494V41.7601H26.3671V46.0957H24.859V41.7601H20.7709V40.5467H27.6159C27.8868 39.1623 27.9104 38.1138 27.9104 37.189H21.8901V35.9873H29.4066ZM41.1762 39.4274V40.6527H39.6564V46.0603H38.1484V35.3629H39.6564V39.4274H41.1762ZM33.0353 36.3878V42.196C34.4078 42.1784 35.8805 42.0488 37.4297 41.7366L37.5829 42.9854C35.7921 43.3506 34.0485 43.4449 32.4698 43.4449H31.5391V36.3878H33.0353ZM54.2771 39.5688V41.0415H44.3336V39.5688H54.2771ZM53.0989 41.3949V44.3638H47.2907V44.729H53.3581V46.1192H45.4411V43.0796H51.2375V42.7498H45.4528V41.3949H53.0989ZM53.3699 35.5749V37.0476H50.6955C51.1079 37.4835 52.0386 37.8958 53.9001 37.9901L53.311 39.4392C51.208 39.3037 49.9239 38.7147 49.2936 37.8958C48.6456 38.7088 47.3791 39.3037 45.2997 39.4392L44.7224 37.9901C46.5544 37.8958 47.4674 37.4776 47.8798 37.0476H45.2408V35.5749H53.3699ZM63.9495 35.2686V40.7116H62.0528V35.2686H63.9495ZM60.6154 35.5985C60.6154 38.7088 59.1428 40.2639 55.5494 40.9237L54.9015 39.4156C57.5405 39.0033 58.3829 38.1197 58.5301 37.0947H55.5141V35.5985H60.6154ZM63.9495 41.0768V44.2342H58.4359V44.6112H64.1852V46.0603H56.5273V42.8794H62.041V42.5259H56.5037V41.0768H63.9495ZM73.787 36.0226C73.787 37.1536 74.6588 38.6263 77.4863 38.968L76.7559 40.476C74.7825 40.2168 73.4865 39.3921 72.7856 38.3082C72.0787 39.3862 70.8004 40.2168 68.8506 40.476L68.1201 38.968C70.9241 38.6263 71.7959 37.1301 71.7959 36.0226V35.5514H73.787V36.0226ZM77.7573 41.065V42.5966H73.6809V46.1664H71.8077V42.5966H67.8138V41.065H77.7573ZM85.0146 42.0664C85.0146 42.8794 85.2973 43.7099 86.0749 44.2931C86.8584 43.6864 87.1706 42.8499 87.1824 42.0664V41.8308H89.032V42.0664C89.032 43.2092 89.4915 44.2106 90.976 44.6466L90.0688 46.0014C89.0615 45.6774 88.4194 45.0766 88.0424 44.2931C87.6772 45.0884 87.0587 45.754 86.1103 46.1074C85.1147 45.7599 84.4903 45.1119 84.131 44.3285C83.7422 45.0825 83.1119 45.6774 82.1517 46.0014L81.2328 44.6466C82.6937 44.1635 83.1649 43.1268 83.1649 42.0664V41.8308H85.0146V42.0664ZM90.057 35.2922V41.3949H88.1602V35.2922H90.057ZM84.0367 35.787C85.7568 35.787 87.0881 36.8944 87.0881 38.4614C87.0881 39.9811 85.7568 41.1004 84.0367 41.1004C82.3049 41.1004 80.9736 39.9811 80.9854 38.4614C80.9736 36.8944 82.3049 35.787 84.0367 35.787ZM84.0367 37.3657C83.3181 37.3657 82.8233 37.7309 82.8233 38.4614C82.8233 39.1565 83.3181 39.5452 84.0367 39.5335C84.7201 39.5452 85.2149 39.1565 85.2149 38.4614C85.2149 37.7309 84.7201 37.3657 84.0367 37.3657ZM100.425 36.1169V37.1183C100.425 38.4967 100.425 40.0518 99.9651 42.4434L98.0565 42.2667C98.463 40.3169 98.5101 38.8325 98.516 37.6013H92.2955V36.1169H100.425ZM101.238 43.4449V44.9647H91.2941V43.4449H94.64V39.8044H96.5132V43.4449H101.238ZM113.066 35.2686V37.2125H114.421V38.7677H113.066V40.6527H111.169V35.2686H113.066ZM113.066 41.0297V44.2106H107.541V44.5994H113.325V46.0721H105.667V42.8558H111.181V42.467H105.667V41.0297H113.066ZM107.328 35.5631C109.013 35.5631 110.309 36.5881 110.309 38.0608C110.309 39.4863 109.013 40.5467 107.328 40.5467C105.632 40.5467 104.336 39.4863 104.336 38.0608C104.336 36.5881 105.632 35.5631 107.328 35.5631ZM107.328 37.0712C106.657 37.0829 106.162 37.401 106.174 38.0608C106.162 38.7088 106.657 39.0622 107.328 39.0622C108 39.0622 108.471 38.7088 108.483 38.0608C108.471 37.401 108 37.0829 107.328 37.0712ZM117.72 35.9991C119.416 35.9873 120.665 37.5188 120.665 39.9222C120.665 42.361 119.416 43.8808 117.72 43.8808C116.011 43.8808 114.751 42.361 114.762 39.9222C114.751 37.5188 116.011 35.9873 117.72 35.9991ZM117.72 37.7073C117.036 37.6956 116.589 38.4142 116.6 39.9222C116.589 41.4538 117.036 42.1489 117.72 42.1489C118.415 42.1489 118.851 41.4538 118.862 39.9222C118.851 38.4142 118.415 37.6956 117.72 37.7073ZM123.469 35.2686V39.2271H124.942V40.7941H123.469V46.1664H121.572V35.2686H123.469ZM133.919 35.2686V37.2597H135.274V38.8266H133.919V40.6527H132.022V35.2686H133.919ZM130.926 35.5985C130.926 38.6145 129.148 40.3464 125.778 40.9708L125.083 39.4274C127.551 39.0151 128.6 38.0667 128.794 37.0947H125.684V35.5985H130.926ZM133.919 41.0297V44.2342H128.394V44.5759H134.178V46.0603H126.52V42.844H132.034V42.5141H126.52V41.0297H133.919ZM144.228 36.0226C144.228 37.1536 145.099 38.6263 147.927 38.968L147.197 40.476C145.223 40.2168 143.927 39.3921 143.226 38.3082C142.519 39.3862 141.241 40.2168 139.291 40.476L138.561 38.968C141.365 38.6263 142.237 37.1301 142.237 36.0226V35.5514H144.228V36.0226ZM148.198 41.065V42.5966H144.122V46.1664H142.248V42.5966H138.254V41.065H148.198ZM155.455 42.0664C155.455 42.8794 155.738 43.7099 156.516 44.2931C157.299 43.6864 157.611 42.8499 157.623 42.0664V41.8308H159.473V42.0664C159.473 43.2092 159.932 44.2106 161.417 44.6466L160.509 46.0014C159.502 45.6774 158.86 45.0766 158.483 44.2931C158.118 45.0884 157.499 45.754 156.551 46.1074C155.555 45.7599 154.931 45.1119 154.572 44.3285C154.183 45.0825 153.553 45.6774 152.592 46.0014L151.673 44.6466C153.134 44.1635 153.606 43.1268 153.606 42.0664V41.8308H155.455V42.0664ZM160.498 35.2922V41.3949H158.601V35.2922H160.498ZM154.477 35.787C156.197 35.787 157.529 36.8944 157.529 38.4614C157.529 39.9811 156.197 41.1004 154.477 41.1004C152.746 41.1004 151.414 39.9811 151.426 38.4614C151.414 36.8944 152.746 35.787 154.477 35.787ZM154.477 37.3657C153.759 37.3657 153.264 37.7309 153.264 38.4614C153.264 39.1565 153.759 39.5452 154.477 39.5335C155.161 39.5452 155.656 39.1565 155.656 38.4614C155.656 37.7309 155.161 37.3657 154.477 37.3657ZM170.606 38.0372V39.4981H162.901V35.6574H164.786V38.0372H170.606ZM171.678 40.4642V41.9251H161.735V40.4642H171.678ZM170.677 44.4463V45.9543H162.771V42.6791H164.68V44.4463H170.677Z" fill="#121212"/>
<path d="M181.021 36.1404V36.812C181.021 37.5542 181.021 38.6263 180.773 39.9576L179.301 39.8162C179.489 38.7853 179.536 38.0078 179.548 37.3657H175.507V36.1404H181.021ZM178.358 38.6145V40.6645C179.424 40.6232 180.52 40.5408 181.527 40.3935L181.61 41.4774C179.383 41.8897 176.862 41.9251 175 41.9369L174.871 40.7352C175.472 40.7352 176.149 40.7352 176.862 40.7116V38.6145H178.358ZM183.648 35.3629V38.6263H184.944V39.8869H183.648V43.386H182.105V35.3629H183.648ZM183.978 44.6937V45.8954H176.45V42.6673H177.958V44.6937H183.978ZM191.471 35.9519V36.647C191.459 37.3421 191.459 38.2964 191.212 39.4628L189.739 39.3567C189.91 38.4555 189.951 37.7545 189.963 37.1536H185.934V35.9519H191.471ZM188.785 38.3435V40.1932C189.857 40.1579 190.947 40.0872 191.954 39.9694L192.036 41.0179C189.81 41.4067 187.359 41.4656 185.427 41.4656L185.297 40.2639C185.91 40.258 186.582 40.258 187.288 40.2403V38.3435H188.785ZM194.075 35.3629V38.0019H195.382V39.2507H194.075V41.9015H192.531V35.3629H194.075ZM190.422 42.0311C192.72 42.0311 194.145 42.7969 194.145 44.0221C194.145 45.3181 192.72 46.0603 190.422 46.0603C188.125 46.0603 186.688 45.3181 186.688 44.0221C186.688 42.7969 188.125 42.0311 190.422 42.0311ZM190.422 43.1857C189.009 43.1857 188.219 43.4802 188.219 44.0221C188.219 44.6348 189.009 44.894 190.422 44.894C191.824 44.894 192.602 44.6348 192.602 44.0221C192.602 43.4802 191.824 43.1857 190.422 43.1857ZM200.024 38.2846C200.024 40.0165 200.908 41.8662 202.71 42.6202L201.897 43.7983C200.631 43.2623 199.759 42.196 199.282 40.8883C198.793 42.308 197.903 43.4861 196.643 44.0693L195.783 42.8794C197.562 42.09 198.481 40.099 198.481 38.2846V37.6249H196.207V36.3996H202.263V37.6249H200.024V38.2846ZM204.843 35.3629V46.0839H203.323V35.3629H204.843Z" fill="white"/>
</svg>
