<svg width="216" height="39" viewBox="0 0 216 39" fill="none" xmlns="http://www.w3.org/2000/svg">
<path d="M0.555905 5.68336V2.62588H12.9446V5.68336H8.61653V17H4.88402V5.68336H0.555905ZM14.4734 17V2.62588H18.2456V8.2842H23.5465V2.62588H27.3386V17H23.5465V11.3417H18.2456V17H14.4734ZM29.2644 17V2.62588H39.5288V5.68336H33.0366V8.2842H38.9928V11.3417H33.0366V13.9425H39.509V17H29.2644ZM41.5142 2.62588H46.2195L49.6344 10.9843H49.8131L53.2279 2.62588H57.9332V17H54.2404V8.5423H54.1213L50.8455 16.9007H48.5821L45.3261 8.48274H45.207V17H41.5142V2.62588ZM59.8789 17V2.62588H70.1433V5.68336H63.6511V8.2842H69.6072V11.3417H63.6511V13.9425H70.1234V17H59.8789ZM84.299 7.07312C84.2196 6.10029 83.5843 5.54439 82.2938 5.54439C81.043 5.54439 80.4871 6.02088 80.4673 6.6959C80.4474 7.43049 81.1224 7.84742 82.4526 8.12537L83.6439 8.40333C86.741 9.0585 88.1109 10.5674 88.1308 12.7712C88.1109 15.5904 85.9469 17.1787 82.3137 17.1787C78.601 17.1787 76.1987 15.5507 76.159 12.0167H79.7724C79.8319 13.3469 80.7651 14.0616 82.2541 14.0616C83.5446 14.0616 84.2395 13.5256 84.2593 12.7712C84.2395 12.0763 83.6637 11.6792 82.0556 11.3218L80.6062 11.0042C78.0848 10.4483 76.5362 9.19748 76.5362 6.97386C76.5164 4.25389 78.9187 2.42735 82.2938 2.42735C85.7483 2.42735 87.9124 4.27375 87.9323 7.07312H84.299ZM89.2625 5.68336V2.62588H101.651V5.68336H97.3231V17H93.5906V5.68336H89.2625ZM116.323 9.81294C116.323 14.5977 113.266 17.1985 109.374 17.1985C105.443 17.1985 102.406 14.5778 102.406 9.81294C102.406 5.02819 105.443 2.42735 109.374 2.42735C113.266 2.42735 116.323 5.02819 116.323 9.81294ZM112.432 9.81294C112.432 7.17239 111.34 5.72307 109.374 5.72307C107.389 5.72307 106.297 7.17239 106.297 9.81294C106.297 12.4535 107.389 13.9028 109.374 13.9028C111.34 13.9028 112.432 12.4535 112.432 9.81294ZM118.17 17V2.62588H124.284C127.501 2.62588 129.605 4.45243 129.605 7.49005C129.605 9.47543 128.692 10.885 127.143 11.6196L130.082 17H125.972L123.431 12.2152H121.942V17H118.17ZM121.942 9.25704H123.411C124.84 9.25704 125.654 8.74084 125.654 7.49005C125.654 6.21941 124.84 5.64365 123.411 5.64365H121.942V9.25704ZM130.022 2.62588H134.251L137.11 8.50259H137.229L140.108 2.62588H144.337L139.056 12.3939V17H135.303V12.3939L130.022 2.62588Z" fill="#121212"/>
<path d="M8.81245 31.1093V31.7337H1.69651V28.0697H2.43874V31.1093H8.81245ZM9.9788 33.4303V34.0664H5.53723V37.9189H4.80679V34.0664H0.459472V33.4303H9.9788ZM19.0622 28.2229V29.1301C19.0504 30.1197 19.0504 31.1918 18.7559 32.6998H20.3582V33.336H15.9755V37.9307H15.2451V33.336H10.886V32.6998H17.9901C18.32 31.2036 18.32 30.0902 18.32 29.1301V28.8473H12.1112V28.2229H19.0622ZM31.0674 31.7455V32.3817H29.312V37.9189H28.5698V27.5278H29.312V31.7455H31.0674ZM22.5024 28.5528V34.6084H22.5731C24.14 34.6202 25.7069 34.5024 27.4741 34.1254L27.5683 34.7733C25.7658 35.1385 24.1753 35.2446 22.5731 35.2446H21.7719V28.5528H22.5024ZM44.1211 32.0283V32.6409H34.6489V32.0283H44.1211ZM42.8723 33.7248V35.975H36.5693V37.1767H43.2022V37.7894H35.8506V35.3977H42.1537V34.3139H35.8153V33.7248H42.8723ZM43.2729 27.9519V28.5646H39.7974C39.7974 29.8193 41.8297 30.6734 43.591 30.8384L43.3318 31.4274C41.7177 31.2507 39.9977 30.5733 39.3968 29.4599C38.7724 30.5733 37.0582 31.2507 35.4501 31.4274L35.1909 30.8384C36.9286 30.6734 38.9609 29.8193 38.9727 28.5646H35.5208V27.9519H43.2729ZM53.6169 27.5278V32.8647H52.8747V27.5278H53.6169ZM50.5184 28.0697C50.5184 30.6734 48.5391 32.3581 45.5349 33.0768L45.2639 32.4642C47.8617 31.8457 49.5347 30.5262 49.7055 28.7059H45.7823V28.0697H50.5184ZM53.6169 33.3831V35.7983H47.6909V37.2121H54.0175V37.8129H46.9604V35.221H52.8865V33.9958H46.9251V33.3831H53.6169ZM63.5368 28.541C63.5368 30.0843 65.6574 31.3214 67.3657 31.5806L67.0594 32.1932C65.5278 31.9163 63.8078 31.0092 63.1598 29.672C62.5118 31.021 60.7917 31.9105 59.2602 32.1932L58.9421 31.5806C60.6621 31.3214 62.771 30.1197 62.771 28.541V27.9166H63.5368V28.541ZM67.8841 33.442V34.0782H63.4897V37.9189H62.771V34.0782H58.4119V33.442H67.8841ZM75.1768 34.5966C75.1768 35.545 75.7246 36.5641 76.7555 37.1178C77.7863 36.5052 78.3577 35.4154 78.3577 34.5966V33.9486H79.0882V34.5966C79.0764 35.6687 79.9364 36.7526 81.2559 37.2121L80.8789 37.7776C79.8304 37.3947 79.0646 36.6407 78.7112 35.7512C78.399 36.6053 77.751 37.4418 76.779 37.86C75.7599 37.4654 75.1002 36.676 74.7998 35.7865C74.4345 36.6348 73.6864 37.3888 72.6791 37.7776L72.2903 37.2121C73.5981 36.729 74.4581 35.5862 74.4581 34.5966V33.9486H75.1768V34.5966ZM80.2899 27.5278V33.4892H79.5476V27.5278H80.2899ZM74.7055 28.164C76.2724 28.164 77.3917 29.1301 77.3917 30.5674C77.3917 31.9929 76.2724 32.959 74.7055 32.959C73.1386 32.959 72.0076 31.9929 72.0194 30.5674C72.0076 29.1301 73.1386 28.164 74.7055 28.164ZM74.7055 28.8002C73.5627 28.8002 72.738 29.5424 72.738 30.5674C72.738 31.5924 73.5627 32.3346 74.7055 32.3346C75.8483 32.3346 76.673 31.5924 76.673 30.5674C76.673 29.5424 75.8483 28.8002 74.7055 28.8002ZM90.4336 28.6235V29.672C90.4218 30.9444 90.4218 32.3581 90.0566 34.4081L89.3026 34.3139C89.6796 32.3581 89.6796 30.9208 89.6914 29.672V29.2479H83.1999V28.6235H90.4336ZM91.6471 35.7394V36.3756H82.1749V35.7394H85.992V31.9811H86.7225V35.7394H91.6471ZM103.605 27.5278V29.8605H105.207V30.4849H103.605V32.853H102.863V27.5278H103.605ZM103.605 33.3713V35.7983H97.8087V37.1532H104.006V37.7658H97.0783V35.221H102.863V33.984H97.0547V33.3713H103.605ZM98.4214 27.9284C99.9765 27.9284 101.084 28.8591 101.096 30.2139C101.084 31.5806 99.9765 32.5113 98.4214 32.5113C96.878 32.5113 95.747 31.5806 95.747 30.2139C95.747 28.8591 96.878 27.9284 98.4214 27.9284ZM98.4214 28.5528C97.3021 28.5528 96.4774 29.2597 96.4774 30.2139C96.4774 31.18 97.3021 31.8987 98.4214 31.8987C99.5406 31.8987 100.365 31.18 100.365 30.2139C100.365 29.2597 99.5406 28.5528 98.4214 28.5528ZM108.706 28.3525C110.226 28.3525 111.298 29.7545 111.298 31.9458C111.298 34.1371 110.226 35.5391 108.706 35.5391C107.187 35.5391 106.126 34.1371 106.138 31.9458C106.126 29.7545 107.187 28.3525 108.706 28.3525ZM108.706 29.0122C107.611 29.0122 106.833 30.2139 106.833 31.9458C106.833 33.6894 107.611 34.8794 108.706 34.8794C109.826 34.8794 110.58 33.6894 110.591 31.9458C110.58 30.2139 109.826 29.0122 108.706 29.0122ZM113.937 27.5278V31.7573H115.728V32.3935H113.937V37.9189H113.195V27.5278H113.937ZM124.458 27.5278V29.9548H126.06V30.5909H124.458V32.853H123.716V27.5278H124.458ZM121.631 28.0697C121.631 30.6381 119.687 32.3581 116.694 33.1004L116.4 32.476C119.027 31.8457 120.67 30.4908 120.818 28.7059H116.847V28.0697H121.631ZM124.458 33.336V35.8101H118.662V37.2003H124.859V37.8129H117.931V35.2092H123.716V33.9604H117.908V33.336H124.458ZM134.826 28.541C134.826 30.0843 136.946 31.3214 138.655 31.5806L138.348 32.1932C136.817 31.9163 135.097 31.0092 134.449 29.672C133.801 31.021 132.081 31.9105 130.549 32.1932L130.231 31.5806C131.951 31.3214 134.06 30.1197 134.06 28.541V27.9166H134.826V28.541ZM139.173 33.442V34.0782H134.779V37.9189H134.06V34.0782H129.701V33.442H139.173ZM146.466 34.5966C146.466 35.545 147.014 36.5641 148.044 37.1178C149.075 36.5052 149.647 35.4154 149.647 34.5966V33.9486H150.377V34.5966C150.365 35.6687 151.225 36.7526 152.545 37.2121L152.168 37.7776C151.119 37.3947 150.354 36.6407 150 35.7512C149.688 36.6053 149.04 37.4418 148.068 37.86C147.049 37.4654 146.389 36.676 146.089 35.7865C145.723 36.6348 144.975 37.3888 143.968 37.7776L143.579 37.2121C144.887 36.729 145.747 35.5862 145.747 34.5966V33.9486H146.466V34.5966ZM151.579 27.5278V33.4892H150.837V27.5278H151.579ZM145.994 28.164C147.561 28.164 148.681 29.1301 148.681 30.5674C148.681 31.9929 147.561 32.959 145.994 32.959C144.428 32.959 143.297 31.9929 143.308 30.5674C143.297 29.1301 144.428 28.164 145.994 28.164ZM145.994 28.8002C144.852 28.8002 144.027 29.5424 144.027 30.5674C144.027 31.5924 144.852 32.3346 145.994 32.3346C147.137 32.3346 147.962 31.5924 147.962 30.5674C147.962 29.5424 147.137 28.8002 145.994 28.8002ZM161.852 30.7677V31.3921H154.783V27.9048H155.514V30.7677H161.852ZM162.96 32.9001V33.5127H153.452V32.9001H162.96ZM161.911 37.0236V37.6598H154.736V34.6437H155.467V37.0236H161.911ZM172.538 28.3407V28.8709C172.526 29.5306 172.526 30.5674 172.255 31.9458L171.513 31.8869C171.79 30.5497 171.807 29.6308 171.807 28.9769H167.413V28.3407H172.538ZM169.828 30.6145V32.9237C171.024 32.8824 172.255 32.7941 173.374 32.6409L173.421 33.2064C171.242 33.5716 168.709 33.607 166.847 33.607L166.765 32.9826C167.466 32.9826 168.261 32.9767 169.098 32.9472V30.6145H169.828ZM174.871 27.5278V30.9797H176.473V31.6159H174.871V35.3624H174.128V27.5278H174.871ZM175.212 37.0471V37.6715H168.391V34.6437H169.133V37.0471H175.212ZM182.964 28.1993V28.7295C182.953 29.3657 182.953 30.32 182.67 31.5688L181.928 31.4981C182.204 30.3082 182.222 29.4599 182.222 28.8355H177.839V28.1993H182.964ZM180.255 30.4378V32.5584C181.45 32.5172 182.682 32.4347 183.801 32.2875L183.848 32.8412C181.668 33.1946 179.159 33.2535 177.274 33.2418L177.191 32.6056C177.892 32.6056 178.694 32.5997 179.524 32.582V30.4378H180.255ZM185.297 27.5278V30.4614H186.899V31.0975H185.297V34.0664H184.555V27.5278H185.297ZM181.975 34.196C184.107 34.196 185.391 34.8676 185.391 36.0221C185.391 37.2121 184.107 37.8836 181.975 37.8836C179.854 37.8836 178.558 37.2121 178.57 36.0221C178.558 34.8676 179.854 34.196 181.975 34.196ZM181.975 34.7851C180.337 34.7851 179.3 35.2681 179.3 36.0221C179.3 36.8115 180.337 37.271 181.975 37.271C183.612 37.271 184.649 36.8115 184.649 36.0221C184.649 35.2681 183.612 34.7851 181.975 34.7851ZM191.27 30.8384C191.27 32.6173 192.696 34.4199 194.157 35.0561L193.732 35.6451C192.537 35.0855 191.394 33.8426 190.905 32.3581C190.422 33.9192 189.285 35.2976 188.125 35.9043L187.677 35.3153C189.091 34.6202 190.516 32.6409 190.528 30.8384V29.2479H187.995V28.6117H193.838V29.2479H191.27V30.8384ZM196.183 27.5278V37.9189H195.441V27.5278H196.183Z" fill="#121212"/>
</svg>
