<svg width="311" height="125" viewBox="0 0 311 125" fill="none" xmlns="http://www.w3.org/2000/svg">
<g filter="url(#filter0_d_1364_18)">
<path d="M43.6896 38.0456V46.2267H40.9126V40.2472H28.2782V38.0456H43.6896ZM43.6896 23.6098V36.9698H40.9126V33.9675H35.6086C34.5328 35.1684 32.9066 35.894 31.0302 35.894C27.6277 35.894 25.0508 33.5923 25.0508 30.3398C25.0508 27.1375 27.6277 24.8358 31.0302 24.8608C32.8941 24.8483 34.5203 25.5488 35.5836 26.7372H40.9126V23.6098H43.6896ZM31.0302 27.2125C29.0788 27.2125 27.7028 28.4635 27.7028 30.3398C27.7028 32.2913 29.0788 33.5172 31.0302 33.5422C32.8816 33.5172 34.2826 32.2913 34.3077 30.3398C34.2826 28.4635 32.8816 27.2125 31.0302 27.2125ZM36.7845 31.7159H40.9126V29.0139H36.8095C36.8971 29.4392 36.9596 29.877 36.9596 30.3398C36.9596 30.8152 36.8971 31.278 36.7845 31.7159ZM54.973 29.0389C54.948 33.0669 56.9745 37.1699 60.4771 38.8462L58.7758 41.0728C56.324 39.8344 54.5602 37.4451 53.597 34.568C52.6088 37.6453 50.7574 40.1972 48.168 41.4981L46.4667 39.2715C50.0944 37.5452 52.1709 33.217 52.196 29.0389V25.4362H54.973V29.0389ZM64.6052 23.6098V32.4664H68.0828V34.8432H64.6052V46.2267H61.8281V23.6098H64.6052ZM86.7466 23.6098V32.4414H90.0991V34.7681H86.7466V46.1766H83.9696V23.6098H86.7466ZM80.7672 25.9616C80.7672 32.6165 78.0151 38.4459 70.4845 42.1486L68.9084 39.997C74.4125 37.2575 77.3897 33.4046 77.9651 28.2633H70.1343V25.9616H80.7672ZM115.368 38.3458V45.9515H99.6812V38.3458H106.136V36.0191H97.2544V33.7674H117.87V36.0191H108.938V38.3458H115.368ZM102.433 40.5474V43.6998H112.666V40.5474H102.433ZM108.988 24.7107C108.988 27.1875 112.09 29.7394 116.769 30.3148L115.793 32.4664C112.003 31.9661 109.013 30.2773 107.587 27.9881C106.111 30.3023 103.096 31.9535 99.331 32.4664L98.3052 30.3148C103.034 29.7144 106.111 27.2375 106.136 24.7107V23.835H108.988V24.7107ZM128.277 25.8115C128.252 28.2633 130.104 30.4149 133.757 31.2405L132.481 33.4422C129.779 32.7667 127.877 31.3656 126.876 29.4642C125.838 31.5658 123.874 33.1669 121.122 33.8925L119.796 31.7159C123.474 30.8152 125.375 28.4134 125.375 25.8115V24.5606H128.277V25.8115ZM138.31 23.6349V46.2016H135.558V23.6349H138.31ZM119.421 35.5187C123.549 35.5187 129.203 35.4687 134.082 34.7932L134.282 36.7696C132.331 37.1449 130.304 37.3951 128.328 37.5452V45.5261H125.525V37.6953C123.449 37.7829 121.485 37.7954 119.771 37.7954L119.421 35.5187ZM159.851 30.0146V32.2162H144.189V24.4355H146.941V30.0146H159.851ZM162.178 34.8432V37.0448H141.512V34.8432H162.178ZM160.001 43.4496V45.7013H143.989V39.0463H146.766V43.4496H160.001ZM188.697 23.6349V36.8447H185.92V34.3428H180.541V32.0911H185.92V29.6643H180.767C179.328 33.267 176.038 35.7814 171.109 37.1449L169.983 34.9433C175.275 33.5047 178.09 30.8277 178.54 27.4627H171.184V25.211H181.567C181.567 25.9991 181.505 26.7497 181.367 27.4627H185.92V23.6349H188.697ZM181.217 37.0949C185.795 37.0949 188.848 38.8212 188.848 41.5982C188.848 44.3753 185.795 46.1016 181.217 46.1016C176.588 46.1016 173.536 44.3753 173.536 41.5982C173.536 38.8212 176.588 37.0949 181.217 37.0949ZM181.217 39.2715C178.165 39.2715 176.313 40.0971 176.313 41.5982C176.313 43.0743 178.165 43.8999 181.217 43.8999C184.194 43.8999 186.07 43.0743 186.07 41.5982C186.07 40.0971 184.194 39.2715 181.217 39.2715ZM212.515 36.2192V38.4709H203.533V46.2016H200.781V38.4709H191.9V36.2192H212.515ZM210.614 24.8858V27.0874H203.834C203.996 29.5643 206.973 31.941 211.439 32.5165L210.439 34.6931C206.586 34.1552 203.583 32.3914 202.207 29.9396C200.831 32.3914 197.829 34.1552 194.026 34.6931L192.976 32.5165C197.416 31.941 200.394 29.5643 200.606 27.0874H193.801V24.8858H210.614ZM218.445 42.2237L216.343 49.2289H213.966L215.267 42.2237H218.445ZM33.7072 60.4392C33.7072 64.0919 35.3084 68.0698 39.3114 69.6961L37.3849 72.5232C34.7205 71.4223 32.9567 69.2707 31.9309 66.6438C30.9302 69.5209 29.1163 71.8977 26.4268 73.0986L24.3753 70.2715C28.3532 68.5202 30.0295 64.3171 30.0295 60.4392V59.5385H25.326V56.6113H38.3106V59.5385H33.7072V60.4392ZM43.8898 54.4347V77.4018H40.2621V54.4347H43.8898ZM67.6574 65.4929V68.3451H46.7419V65.4929H55.3733V62.6158H58.976V65.4929H67.6574ZM59.001 55.4855C59.001 58.0374 61.0776 60.5643 66.6067 61.2148L65.2306 64.0168C61.2902 63.4539 58.5632 61.9028 57.1246 59.6886C55.6735 61.8777 52.959 63.4539 49.0436 64.0168L47.7677 61.2148C53.1717 60.5643 55.3233 57.9123 55.3233 55.4855V54.835H59.001V55.4855ZM65.1556 69.7711V77.4018H61.5529V72.5482H49.0686V69.7711H65.1556ZM92.9012 54.4347V59.5385H95.8784V62.4407H92.9012V66.9941H89.2985V54.4347H92.9012ZM86.4964 55.6856C86.4964 61.9153 82.7937 65.8432 75.7635 67.4194L74.4625 64.5422C79.6288 63.4039 82.0932 61.1272 82.5185 58.5127H75.5633V55.6856H86.4964ZM93.1514 67.9197V70.7468H87.3721C87.7974 72.3605 89.8239 74.0993 94.2022 74.6247L92.9012 77.3517C89.1609 76.9014 86.6716 75.4879 85.3706 73.599C84.0696 75.4754 81.6053 76.8764 77.865 77.3517L76.5641 74.5497C80.9673 74.0868 82.9563 72.4231 83.3691 70.7468H77.5648V67.9197H93.1514ZM117.695 68.1449V71.0721H108.988V77.4268H105.385V71.0721H96.7541V68.1449H117.695ZM115.818 57.0116V59.8387H109.113C109.564 61.6151 111.803 63.7667 116.644 64.292L115.343 67.0941C111.415 66.6813 108.7 65.1552 107.212 63.1912C105.723 65.1802 102.996 66.6688 99.0308 67.0941L97.7298 64.292C102.608 63.7541 104.848 61.6401 105.31 59.8387H98.6054V57.0116H105.385V54.4848H108.988V57.0116H115.818ZM125.275 56.0109C128.365 56.0109 130.704 58.5127 131.18 62.5908H134.807V54.4347H138.36V77.4518H134.807V65.4429H131.23C130.854 69.8212 128.465 72.4981 125.275 72.4981C121.748 72.4981 119.221 69.3208 119.246 64.217C119.221 59.1882 121.748 56.0109 125.275 56.0109ZM125.275 59.2633C123.749 59.2633 122.673 60.9396 122.698 64.217C122.673 67.5445 123.749 69.2207 125.275 69.2207C126.851 69.2207 127.852 67.5445 127.852 64.217C127.852 60.9396 126.851 59.2633 125.275 59.2633ZM158.275 56.4112V59.3133H151.47V68.9955C154.56 68.9705 156.874 68.8204 159.401 68.3701L159.751 71.2722C156.674 71.8477 153.922 71.9728 149.743 71.9477H147.842V56.4112H158.275ZM166.281 54.4347V77.4518H162.678V65.1927H157.224V62.2405H162.678V54.4347H166.281ZM189.848 65.1177V67.9448H181.142V69.7711H187.321V77.4018H183.719V72.5982H171.234V69.7711H177.539V67.9448H168.908V65.1177H189.848ZM179.365 54.86C184.444 54.86 187.772 56.6364 187.797 59.4635C187.772 62.2906 184.444 64.0669 179.365 64.0669C174.262 64.0669 170.934 62.2906 170.934 59.4635C170.934 56.6364 174.262 54.86 179.365 54.86ZM179.365 57.6371C176.338 57.6371 174.662 58.2626 174.687 59.4635C174.662 60.6894 176.338 61.2648 179.365 61.2648C182.368 61.2648 184.069 60.6894 184.069 59.4635C184.069 58.2626 182.368 57.6371 179.365 57.6371ZM216.043 54.4347V67.5445H212.465V54.4347H216.043ZM216.393 68.7454V71.4474H210.188C210.701 72.7733 212.815 74.287 217.319 74.6247L216.093 77.3017C212.165 76.989 209.55 75.7005 208.162 73.9993C206.786 75.738 204.146 77.0015 200.181 77.3017L199.005 74.6748C203.546 74.337 205.648 72.8234 206.16 71.4474H199.931V68.7454H206.336V66.969H209.963V68.7454H216.393ZM201.482 55.3354V58.0374H205.685V55.3354H209.263V65.8432H197.929V55.3354H201.482ZM201.482 63.0411H205.685V60.7644H201.482V63.0411ZM240.211 62.9911V65.9183H237.133V77.3267H233.531V54.4347H237.133V62.9911H240.211ZM223.173 56.6113V68.8204C225.975 68.7579 229.015 68.4827 232.18 67.8697L232.555 70.8469C228.752 71.6225 224.974 71.7976 221.622 71.7976H219.57V56.6113H223.173ZM259.275 54.4347V62.7909H262.527V65.7181H259.275V77.4518H255.672V54.4347H259.275ZM252.72 56.5363V59.4384H245.54V68.9705C248.629 68.9455 251.294 68.7579 254.196 68.27L254.571 71.2722C251.044 71.8727 247.866 71.9477 243.913 71.9477H241.937V56.5363H252.72Z" fill="white"/>
</g>
<g filter="url(#filter1_d_1364_18)">
<path d="M27.366 95.919H28.279V98.13H27.366V95.919ZM31.777 90.914H32.69V98.482H31.777V90.914ZM25.903 99.89H32.932V100.638H25.903V99.89ZM25.903 97.745H26.816V100.099H25.903V97.745ZM24.616 96.26L24.495 95.512C26.332 95.512 28.796 95.49 30.908 95.215L30.974 95.886C28.829 96.227 26.42 96.26 24.616 96.26ZM29.753 96.788H32.008V97.459H29.753V96.788ZM27.729 91.321C29.181 91.321 30.171 92.003 30.171 93.048C30.171 94.104 29.181 94.786 27.729 94.786C26.266 94.786 25.276 94.104 25.276 93.048C25.276 92.003 26.266 91.321 27.729 91.321ZM27.729 92.003C26.794 92.003 26.145 92.41 26.145 93.048C26.145 93.686 26.794 94.093 27.729 94.093C28.653 94.093 29.302 93.686 29.302 93.048C29.302 92.41 28.653 92.003 27.729 92.003ZM37.1221 92.333H37.8481V93.95C37.8481 96.018 36.5831 98.152 35.0321 98.944L34.5041 98.218C35.9231 97.525 37.1221 95.633 37.1221 93.95V92.333ZM37.2871 92.333H38.0131V93.95C38.0131 95.523 39.1351 97.294 40.5761 97.976L40.0591 98.702C38.4861 97.921 37.2871 95.919 37.2871 93.95V92.333ZM34.8561 91.926H40.2131V92.696H34.8561V91.926ZM41.3901 90.914H42.3141V100.858H41.3901V90.914ZM42.0941 94.929H43.9421V95.699H42.0941V94.929ZM45.1953 95.842H45.9103C47.8683 95.842 48.8363 95.809 50.0243 95.6L50.1233 96.337C48.8913 96.557 47.9013 96.59 45.9103 96.59H45.1953V95.842ZM45.1733 91.508H49.4633V94.335H46.0973V96.293H45.1953V93.62H48.5613V92.256H45.1733V91.508ZM52.0483 90.925H52.9613V97.03H52.0483V90.925ZM50.1233 92.388H52.2573V93.136H50.1233V92.388ZM50.1233 94.445H52.2573V95.193H50.1233V94.445ZM46.3063 97.569H52.9613V100.88H52.0483V98.317H46.3063V97.569ZM64.7992 90.903H65.7122V98.229H64.7992V90.903ZM65.4262 93.928H67.1862V94.687H65.4262V93.928ZM59.5192 99.89H66.1632V100.638H59.5192V99.89ZM59.5192 97.481H60.4322V100.187H59.5192V97.481ZM60.7732 91.607C62.2582 91.607 63.3692 92.63 63.3692 94.06C63.3692 95.501 62.2582 96.513 60.7732 96.513C59.2882 96.513 58.1772 95.501 58.1772 94.06C58.1772 92.63 59.2882 91.607 60.7732 91.607ZM60.7732 92.41C59.8052 92.41 59.0682 93.092 59.0682 94.06C59.0682 95.039 59.8052 95.71 60.7732 95.71C61.7412 95.71 62.4782 95.039 62.4782 94.06C62.4782 93.092 61.7412 92.41 60.7732 92.41ZM73.3893 93.653H75.8973V94.401H73.3893V93.653ZM75.3803 90.925H76.2933V98.207H75.3803V90.925ZM69.9463 99.89H76.5683V100.638H69.9463V99.89ZM69.9463 97.569H70.8593V100.275H69.9463V97.569ZM70.6503 92.157H71.3983V92.96C71.3983 94.764 70.2763 96.326 68.6153 96.942L68.1423 96.216C69.6273 95.688 70.6503 94.368 70.6503 92.96V92.157ZM70.8263 92.157H71.5633V92.949C71.5633 94.236 72.5313 95.49 73.9723 95.996L73.5103 96.711C71.8933 96.128 70.8263 94.632 70.8263 92.949V92.157ZM68.4283 91.728H73.7413V92.465H68.4283V91.728ZM79.3725 95.556H86.2035V96.304H79.3725V95.556ZM78.2395 98.845H87.2485V99.615H78.2395V98.845ZM82.2655 95.875H83.1785V99.153H82.2655V95.875ZM79.3725 91.706H86.1045V92.454H80.2855V95.886H79.3725V91.706ZM99.0533 90.914H99.9223V100.858H99.0533V90.914ZM97.4803 94.918H99.3943V95.688H97.4803V94.918ZM96.8863 91.123H97.7443V100.363H96.8863V91.123ZM93.4983 92.454H94.2133V93.598C94.2133 95.985 93.4323 97.899 91.9033 98.812L91.3423 98.108C92.7723 97.316 93.4983 95.622 93.4983 93.598V92.454ZM93.6633 92.454H94.3783V93.598C94.3783 95.424 95.1153 97.041 96.5123 97.756L95.9733 98.46C94.4553 97.624 93.6633 95.787 93.6633 93.598V92.454ZM91.5733 92.08H96.1933V92.839H91.5733V92.08ZM102.517 91.904H108.919V92.663H102.517V91.904ZM101.571 98.713H110.558V99.472H101.571V98.713ZM105.058 95.16H105.971V99.087H105.058V95.16ZM108.578 91.904H109.48V92.894C109.48 94.126 109.48 95.49 109.117 97.503L108.204 97.382C108.578 95.479 108.578 94.082 108.578 92.894V91.904ZM115.301 91.552H119.932V95.622H115.301V91.552ZM119.052 92.289H116.181V94.896H119.052V92.289ZM122.011 90.914H122.924V96.623H122.011V90.914ZM119.316 97.8H120.097V97.987C120.097 99.417 118.326 100.561 116.313 100.825L116.005 100.121C117.732 99.923 119.316 98.977 119.316 97.987V97.8ZM119.448 97.8H120.24V97.987C120.24 98.944 121.78 99.912 123.507 100.121L123.199 100.825C121.175 100.55 119.448 99.384 119.448 97.987V97.8ZM116.401 97.294H123.155V98.009H116.401V97.294ZM119.316 96.337H120.24V97.613H119.316V96.337ZM130.626 92.333H131.363V93.95C131.363 96.051 130.098 98.163 128.514 98.944L127.986 98.218C129.427 97.536 130.626 95.666 130.626 93.95V92.333ZM130.802 92.333H131.539V93.95C131.539 95.633 132.738 97.349 134.201 97.976L133.684 98.702C132.078 97.954 130.802 96.018 130.802 93.95V92.333ZM128.316 91.926H133.871V92.696H128.316V91.926ZM135.213 90.914H136.126V100.858H135.213V90.914ZM142.637 92.377H145.673V93.125H142.637V92.377ZM142.637 94.599H145.673V95.358H142.637V94.599ZM139.656 97.327H146.289V100.858H145.376V98.064H139.656V97.327ZM145.376 90.914H146.289V96.777H145.376V90.914ZM140.822 91.464C142.285 91.464 143.385 92.454 143.385 93.862C143.385 95.27 142.285 96.249 140.822 96.249C139.348 96.249 138.259 95.27 138.259 93.862C138.259 92.454 139.348 91.464 140.822 91.464ZM140.822 92.245C139.854 92.245 139.139 92.916 139.139 93.862C139.139 94.808 139.854 95.468 140.822 95.468C141.79 95.468 142.516 94.808 142.516 93.862C142.516 92.916 141.79 92.245 140.822 92.245ZM158.875 90.914H159.755V100.858H158.875V90.914ZM157.203 94.962H159.117V95.71H157.203V94.962ZM156.62 91.134H157.478V100.352H156.62V91.134ZM151.802 92.113H152.715V97.855H151.802V92.113ZM151.802 97.492H152.44C153.463 97.492 154.607 97.426 155.905 97.173L156.004 97.965C154.651 98.229 153.507 98.284 152.44 98.284H151.802V97.492ZM168.524 91.893H169.316V92.311C169.316 94.093 167.424 95.402 165.422 95.743L165.07 95.017C166.819 94.764 168.524 93.62 168.524 92.311V91.893ZM168.755 91.893H169.536V92.311C169.536 93.62 171.252 94.764 172.99 95.017L172.649 95.743C170.636 95.402 168.755 94.093 168.755 92.311V91.893ZM168.557 97.063H169.459V100.858H168.557V97.063ZM164.542 96.579H173.529V97.327H164.542V96.579ZM165.378 91.53H172.66V92.267H165.378V91.53ZM179.402 92.74H182.273V93.477H179.402V92.74ZM179.402 94.885H182.295V95.622H179.402V94.885ZM181.921 90.925H182.834V98.284H181.921V90.925ZM176.443 99.89H183.076V100.638H176.443V99.89ZM176.443 97.569H177.356V100.275H176.443V97.569ZM175.145 91.574H176.047V93.334H178.742V91.574H179.633V96.59H175.145V91.574ZM176.047 94.049V95.842H178.742V94.049H176.047ZM188.402 91.684H192.802V92.432H188.402V91.684ZM189.898 93.906H190.8V96.392H189.898V93.906ZM192.439 91.684H193.341V92.212C193.341 92.861 193.341 93.851 193.077 95.16L192.186 95.061C192.439 93.752 192.439 92.85 192.439 92.212V91.684ZM194.694 90.914H195.607V98.405H194.694V90.914ZM195.189 94.148H197.026V94.907H195.189V94.148ZM189.326 99.89H195.926V100.638H189.326V99.89ZM189.326 97.712H190.228V100.121H189.326V97.712ZM187.896 96.821L187.797 96.073C189.568 96.073 192.01 96.029 194.023 95.754L194.089 96.414C192.021 96.777 189.645 96.821 187.896 96.821ZM198.521 91.53H202.921V92.278H198.521V91.53ZM200.017 93.686H200.919V96.062H200.017V93.686ZM202.558 91.53H203.449V92.069C203.449 92.696 203.449 93.587 203.196 94.764L202.305 94.687C202.558 93.521 202.558 92.696 202.558 92.069V91.53ZM204.813 90.914H205.726V97.118H204.813V90.914ZM205.308 93.62H207.145V94.39H205.308V93.62ZM198.026 96.436L197.916 95.677C199.72 95.677 202.129 95.644 204.142 95.38L204.208 96.051C202.151 96.392 199.797 96.436 198.026 96.436ZM202.514 97.239C204.56 97.239 205.825 97.899 205.825 99.032C205.825 100.176 204.56 100.836 202.514 100.836C200.468 100.836 199.225 100.176 199.225 99.032C199.225 97.899 200.468 97.239 202.514 97.239ZM202.514 97.954C201.04 97.954 200.138 98.35 200.138 99.032C200.138 99.714 201.04 100.11 202.514 100.11C203.999 100.11 204.89 99.714 204.89 99.032C204.89 98.35 203.999 97.954 202.514 97.954ZM215.243 97.239H216.145V100.869H215.243V97.239ZM211.206 96.92H220.193V97.679H211.206V96.92ZM215.232 92.619H216.035V92.872C216.035 94.588 214.176 95.853 212.086 96.172L211.767 95.446C213.56 95.204 215.232 94.115 215.232 92.872V92.619ZM215.353 92.619H216.145V92.872C216.145 94.104 217.828 95.204 219.61 95.446L219.28 96.172C217.201 95.864 215.353 94.566 215.353 92.872V92.619ZM212.075 92.135H219.324V92.883H212.075V92.135ZM215.243 90.914H216.145V92.399H215.243V90.914ZM223.8 92.784H224.548V93.279C224.548 95.072 223.459 96.546 221.798 97.129L221.347 96.414C222.821 95.908 223.8 94.676 223.8 93.279V92.784ZM223.954 92.784H224.713V93.279C224.713 94.599 225.725 95.765 227.199 96.227L226.748 96.953C225.087 96.403 223.954 94.995 223.954 93.279V92.784ZM221.6 92.245H226.902V92.982H221.6V92.245ZM223.8 90.98H224.713V92.52H223.8V90.98ZM226.572 93.972H229.08V94.731H226.572V93.972ZM228.585 90.925H229.498V98.339H228.585V90.925ZM223.151 99.89H229.773V100.638H223.151V99.89ZM223.151 97.679H224.064V100.297H223.151V97.679Z" fill="white"/>
</g>
<defs>
<filter id="filter0_d_1364_18" x="0.775244" y="0.0098629" width="285.352" height="101.042" filterUnits="userSpaceOnUse" color-interpolation-filters="sRGB">
<feFlood flood-opacity="0" result="BackgroundImageFix"/>
<feColorMatrix in="SourceAlpha" type="matrix" values="0 0 0 0 0 0 0 0 0 0 0 0 0 0 0 0 0 0 127 0" result="hardAlpha"/>
<feOffset/>
<feGaussianBlur stdDeviation="11.8"/>
<feComposite in2="hardAlpha" operator="out"/>
<feColorMatrix type="matrix" values="0 0 0 0 0 0 0 0 0 0 0 0 0 0 0 0 0 0 1 0"/>
<feBlend mode="normal" in2="BackgroundImageFix" result="effect1_dropShadow_1364_18"/>
<feBlend mode="normal" in="SourceGraphic" in2="effect1_dropShadow_1364_18" result="shape"/>
</filter>
<filter id="filter1_d_1364_18" x="0.894995" y="67.3031" width="252.478" height="57.1768" filterUnits="userSpaceOnUse" color-interpolation-filters="sRGB">
<feFlood flood-opacity="0" result="BackgroundImageFix"/>
<feColorMatrix in="SourceAlpha" type="matrix" values="0 0 0 0 0 0 0 0 0 0 0 0 0 0 0 0 0 0 127 0" result="hardAlpha"/>
<feOffset/>
<feGaussianBlur stdDeviation="11.8"/>
<feComposite in2="hardAlpha" operator="out"/>
<feColorMatrix type="matrix" values="0 0 0 0 0 0 0 0 0 0 0 0 0 0 0 0 0 0 1 0"/>
<feBlend mode="normal" in2="BackgroundImageFix" result="effect1_dropShadow_1364_18"/>
<feBlend mode="normal" in="SourceGraphic" in2="effect1_dropShadow_1364_18" result="shape"/>
</filter>
</defs>
</svg>
