<svg width="1140" height="491" viewBox="0 0 1140 491" fill="none" xmlns="http://www.w3.org/2000/svg">
<g filter="url(#filter0_d_1444_2)">
<path d="M169.665 150.513V182.783H158.711V159.197H108.875V150.513H169.665ZM169.665 93.5722V146.27H158.711V134.428H137.79C133.546 139.164 127.132 142.026 119.73 142.026C106.309 142.026 96.1447 132.947 96.1447 120.118C96.1447 107.487 106.309 98.4077 119.73 98.5064C127.082 98.4571 133.497 101.22 137.691 105.908H158.711V93.5722H169.665ZM119.73 107.783C112.033 107.783 106.605 112.717 106.605 120.118C106.605 127.816 112.033 132.651 119.73 132.75C127.033 132.651 132.559 127.816 132.658 120.118C132.559 112.717 127.033 107.783 119.73 107.783ZM142.428 125.546H158.711V114.888H142.526C142.872 116.566 143.119 118.293 143.119 120.118C143.119 121.993 142.872 123.819 142.428 125.546ZM214.171 114.987C214.073 130.875 222.066 147.059 235.882 153.671L229.171 162.454C219.5 157.569 212.543 148.145 208.744 136.796C204.846 148.934 197.543 159 187.329 164.132L180.619 155.349C194.928 148.539 203.119 131.467 203.217 114.987V100.776H214.171V114.987ZM252.165 93.5722V128.506H265.882V137.881H252.165V182.783H241.211V93.5722H252.165ZM339.501 93.5722V128.408H352.724V137.585H339.501V182.586H328.547V93.5722H339.501ZM315.915 102.849C315.915 129.099 305.06 152.092 275.356 166.697L269.139 158.21C290.849 147.405 302.593 132.207 304.862 111.927H273.974V102.849H315.915ZM452.396 151.697V181.697H390.52V151.697H415.981V142.52H380.948V133.638H462.264V142.52H427.034V151.697H452.396ZM401.376 160.382V172.816H441.738V160.382H401.376ZM427.231 97.9143C427.231 107.684 439.468 117.75 457.922 120.02L454.073 128.506C439.123 126.533 427.33 119.872 421.705 110.842C415.882 119.97 403.991 126.483 389.139 128.506L385.093 120.02C403.744 117.651 415.882 107.881 415.981 97.9143V94.4603H427.231V97.9143ZM503.317 102.256C503.218 111.927 510.521 120.414 524.929 123.671L519.896 132.355C509.238 129.691 501.738 124.164 497.79 116.664C493.695 124.954 485.948 131.27 475.093 134.131L469.863 125.546C484.369 121.993 491.869 112.52 491.869 102.256V97.3222H503.317V102.256ZM542.889 93.6709V182.684H532.034V93.6709H542.889ZM468.382 140.546C484.665 140.546 506.968 140.349 526.212 137.684L527.001 145.48C519.304 146.96 511.31 147.947 503.514 148.539V180.02H492.461V149.132C484.271 149.477 476.524 149.526 469.764 149.526L468.382 140.546ZM627.857 118.835V127.52H566.08V96.8288H576.935V118.835H627.857ZM637.034 137.881V146.566H555.521V137.881H637.034ZM628.449 171.829V180.711H565.291V154.46H576.245V171.829H628.449ZM741.64 93.6709V145.776H730.686V135.908H709.469V127.026H730.686V117.454H710.357C704.682 131.664 691.705 141.582 672.265 146.96L667.824 138.276C688.696 132.602 699.798 122.043 701.574 108.77H672.561V99.888H713.515C713.515 102.997 713.268 105.957 712.725 108.77H730.686V93.6709H741.64ZM712.133 146.763C730.192 146.763 742.232 153.572 742.232 164.526C742.232 175.48 730.192 182.289 712.133 182.289C693.876 182.289 681.837 175.48 681.837 164.526C681.837 153.572 693.876 146.763 712.133 146.763ZM712.133 155.349C700.094 155.349 692.791 158.605 692.791 164.526C692.791 170.349 700.094 173.605 712.133 173.605C723.877 173.605 731.278 170.349 731.278 164.526C731.278 158.605 723.877 155.349 712.133 155.349ZM835.587 143.309V152.191H800.16V182.684H789.304V152.191H754.271V143.309H835.587ZM828.087 98.6051V107.289H801.344C801.985 117.059 813.729 126.434 831.344 128.704L827.397 137.289C812.199 135.168 800.357 128.21 794.929 118.539C789.502 128.21 777.66 135.168 762.66 137.289L758.515 128.704C776.031 126.434 787.775 117.059 788.614 107.289H761.771V98.6051H828.087ZM858.976 166.993L850.686 194.625H841.311L846.443 166.993H858.976ZM130.29 238.566C130.29 252.974 136.605 268.664 152.395 275.079L144.796 286.23C134.286 281.888 127.329 273.401 123.283 263.039C119.336 274.388 112.181 283.763 101.572 288.5L93.4803 277.349C109.171 270.441 115.783 253.862 115.783 238.566V235.013H97.2303V223.467H148.448V235.013H130.29V238.566ZM170.454 214.881V305.474H156.145V214.881H170.454ZM264.204 258.5V269.75H181.704V258.5H215.75V247.151H229.961V258.5H264.204ZM230.06 219.026C230.06 229.092 238.25 239.059 260.06 241.625L254.632 252.678C239.089 250.457 228.333 244.339 222.658 235.605C216.935 244.24 206.227 250.457 190.783 252.678L185.75 241.625C207.066 239.059 215.553 228.599 215.553 219.026V216.46H230.06V219.026ZM254.336 275.375V305.474H240.125V286.329H190.882V275.375H254.336ZM363.777 214.881V235.013H375.52V246.46H363.777V264.421H349.566V214.881H363.777ZM338.514 219.816C338.514 244.388 323.908 259.881 296.178 266.099L291.047 254.75C311.425 250.26 321.145 241.279 322.823 230.967H295.389V219.816H338.514ZM364.764 268.072V279.224H341.968C343.645 285.589 351.639 292.447 368.909 294.52L363.777 305.276C349.024 303.5 339.205 297.924 334.073 290.474C328.941 297.875 319.221 303.401 304.468 305.276L299.336 294.224C316.704 292.398 324.55 285.836 326.178 279.224H303.283V268.072H364.764ZM461.573 268.96V280.507H427.231V305.572H413.021V280.507H378.974V268.96H461.573ZM454.172 225.046V236.197H427.725C429.501 243.204 438.333 251.691 457.429 253.763L452.297 264.816C436.803 263.187 426.096 257.168 420.224 249.421C414.353 257.266 403.596 263.138 387.955 264.816L382.823 253.763C402.067 251.641 410.899 243.303 412.724 236.197H386.277V225.046H413.021V215.079H427.231V225.046H454.172ZM491.475 221.099C503.662 221.099 512.889 230.967 514.764 247.053H529.073V214.881H543.087V305.671H529.073V258.303H514.962C513.481 275.572 504.057 286.132 491.475 286.132C477.56 286.132 467.593 273.599 467.692 253.467C467.593 233.631 477.56 221.099 491.475 221.099ZM491.475 233.927C485.455 233.927 481.211 240.539 481.31 253.467C481.211 266.592 485.455 273.204 491.475 273.204C497.692 273.204 501.639 266.592 501.639 253.467C501.639 240.539 497.692 233.927 491.475 233.927ZM621.639 222.677V234.125H594.797V272.316C606.985 272.217 616.113 271.625 626.08 269.849L627.462 281.296C615.324 283.566 604.468 284.059 587.988 283.96H580.488V222.677H621.639ZM653.218 214.881V305.671H639.008V257.316H617.495V245.671H639.008V214.881H653.218ZM746.179 257.02V268.171H711.837V275.375H736.212V305.474H722.002V286.526H672.758V275.375H697.626V268.171H663.58V257.02H746.179ZM704.83 216.559C724.863 216.559 737.988 223.566 738.087 234.717C737.988 245.868 724.863 252.875 704.83 252.875C684.699 252.875 671.574 245.868 671.574 234.717C671.574 223.566 684.699 216.559 704.83 216.559ZM704.83 227.513C692.89 227.513 686.278 229.98 686.376 234.717C686.278 239.552 692.89 241.822 704.83 241.822C716.673 241.822 723.383 239.552 723.383 234.717C723.383 229.98 716.673 227.513 704.83 227.513ZM849.502 214.881V266.592H835.39V214.881H849.502ZM850.883 271.329V281.987H826.41C828.433 287.217 836.772 293.187 854.535 294.52L849.699 305.079C834.206 303.845 823.893 298.763 818.416 292.053C812.989 298.911 802.577 303.895 786.936 305.079L782.298 294.717C800.209 293.385 808.498 287.414 810.522 281.987H785.949V271.329H811.212V264.322H825.522V271.329H850.883ZM792.068 218.434V229.092H808.647V218.434H822.758V259.881H778.054V218.434H792.068ZM792.068 248.829H808.647V239.849H792.068V248.829ZM944.831 248.631V260.178H932.693V305.178H918.482V214.881H932.693V248.631H944.831ZM877.627 223.467V271.625C888.68 271.378 900.67 270.293 913.153 267.875L914.634 279.618C899.634 282.678 884.732 283.368 871.508 283.368H863.416V223.467H877.627ZM1020.03 214.881V247.842H1032.86V259.388H1020.03V305.671H1005.82V214.881H1020.03ZM994.173 223.171V234.618H965.851V272.217C978.038 272.118 988.548 271.378 999.996 269.454L1001.48 281.296C987.561 283.664 975.028 283.96 959.436 283.96H951.64V223.171H994.173Z" fill="white"/>
</g>
<g filter="url(#filter1_d_1444_2)">
<path d="M105.277 377.625H108.878V386.346H105.277V377.625ZM122.676 357.883H126.277V387.735H122.676V357.883ZM99.5063 393.288H127.232V396.239H99.5063V393.288ZM99.5063 384.828H103.108V394.113H99.5063V384.828ZM94.4298 378.97L93.9525 376.02C101.198 376.02 110.918 375.933 119.248 374.848L119.509 377.495C111.048 378.84 101.546 378.97 94.4298 378.97ZM114.692 381.053H123.587V383.699H114.692V381.053ZM106.709 359.488C112.436 359.488 116.341 362.179 116.341 366.3C116.341 370.466 112.436 373.156 106.709 373.156C100.938 373.156 97.0331 370.466 97.0331 366.3C97.0331 362.179 100.938 359.488 106.709 359.488ZM106.709 362.179C103.021 362.179 100.461 363.784 100.461 366.3C100.461 368.817 103.021 370.422 106.709 370.422C110.354 370.422 112.913 368.817 112.913 366.3C112.913 363.784 110.354 362.179 106.709 362.179ZM143.76 363.48H146.623V369.858C146.623 378.015 141.633 386.433 135.516 389.557L133.433 386.693C139.03 383.96 143.76 376.497 143.76 369.858V363.48ZM144.41 363.48H147.274V369.858C147.274 376.063 151.7 383.049 157.384 385.739L155.344 388.602C149.14 385.522 144.41 377.625 144.41 369.858V363.48ZM134.821 361.875H155.952V364.912H134.821V361.875ZM160.594 357.883H164.239V397.107H160.594V357.883ZM163.371 373.72H170.661V376.757H163.371V373.72ZM175.604 377.321H178.424C186.147 377.321 189.965 377.191 194.651 376.367L195.042 379.274C190.182 380.142 186.277 380.272 178.424 380.272H175.604V377.321ZM175.517 360.226H192.438V371.377H179.161V379.1H175.604V368.557H188.881V363.176H175.517V360.226ZM202.635 357.926H206.236V382.007H202.635V357.926ZM195.042 363.697H203.459V366.648H195.042V363.697ZM195.042 371.811H203.459V374.761H195.042V371.811ZM179.986 384.133H206.236V397.193H202.635V387.084H179.986V384.133ZM252.93 357.84H256.531V386.737H252.93V357.84ZM255.403 369.772H262.345V372.765H255.403V369.772ZM232.103 393.288H258.31V396.239H232.103V393.288ZM232.103 383.786H235.705V394.46H232.103V383.786ZM237.05 360.617C242.907 360.617 247.29 364.652 247.29 370.292C247.29 375.976 242.907 379.968 237.05 379.968C231.192 379.968 226.81 375.976 226.81 370.292C226.81 364.652 231.192 360.617 237.05 360.617ZM237.05 363.784C233.232 363.784 230.324 366.474 230.324 370.292C230.324 374.154 233.232 376.801 237.05 376.801C240.868 376.801 243.775 374.154 243.775 370.292C243.775 366.474 240.868 363.784 237.05 363.784ZM286.813 368.687H296.706V371.637H286.813V368.687ZM294.667 357.926H298.268V386.65H294.667V357.926ZM273.233 393.288H299.353V396.239H273.233V393.288ZM273.233 384.133H276.834V394.807H273.233V384.133ZM276.01 362.786H278.96V365.953C278.96 373.069 274.534 379.23 267.983 381.66L266.117 378.796C271.974 376.714 276.01 371.507 276.01 365.953V362.786ZM276.704 362.786H279.611V365.91C279.611 370.986 283.429 375.933 289.113 377.929L287.291 380.749C280.913 378.449 276.704 372.548 276.704 365.91V362.786ZM267.245 361.094H288.202V364.001H267.245V361.094ZM310.414 376.193H337.358V379.144H310.414V376.193ZM305.944 389.166H341.48V392.204H305.944V389.166ZM321.825 377.451H325.426V390.381H321.825V377.451ZM310.414 361.007H336.968V363.957H314.015V377.495H310.414V361.007ZM388.044 357.883H391.471V397.107H388.044V357.883ZM381.839 373.677H389.389V376.714H381.839V373.677ZM379.496 358.707H382.88V395.154H379.496V358.707ZM366.132 363.957H368.953V368.47C368.953 377.885 365.872 385.435 359.841 389.036L357.628 386.259C363.269 383.135 366.132 376.453 366.132 368.47V363.957ZM366.783 363.957H369.603V368.47C369.603 375.672 372.511 382.051 378.021 384.871L375.895 387.648C369.907 384.35 366.783 377.104 366.783 368.47V363.957ZM358.539 362.482H376.763V365.476H358.539V362.482ZM401.708 361.788H426.96V364.782H401.708V361.788ZM397.976 388.646H433.425V391.64H397.976V388.646ZM411.731 374.631H415.332V390.121H411.731V374.631ZM425.615 361.788H429.173V365.693C429.173 370.553 429.173 375.933 427.741 383.873L424.14 383.396C425.615 375.889 425.615 370.379 425.615 365.693V361.788ZM452.133 360.4H470.4V376.453H452.133V360.4ZM466.929 363.307H455.604V373.59H466.929V363.307ZM478.6 357.883H482.202V380.402H478.6V357.883ZM467.97 385.044H471.051V385.782C471.051 391.423 464.065 395.935 456.125 396.976L454.91 394.2C461.722 393.419 467.97 389.687 467.97 385.782V385.044ZM468.491 385.044H471.615V385.782C471.615 389.557 477.689 393.375 484.501 394.2L483.286 396.976C475.303 395.892 468.491 391.292 468.491 385.782V385.044ZM456.472 383.049H483.113V385.869H456.472V383.049ZM467.97 379.274H471.615V384.307H467.97V379.274ZM512.581 363.48H515.488V369.858C515.488 378.146 510.499 386.476 504.251 389.557L502.168 386.693C507.852 384.003 512.581 376.627 512.581 369.858V363.48ZM513.276 363.48H516.183V369.858C516.183 376.497 520.912 383.266 526.683 385.739L524.643 388.602C518.309 385.652 513.276 378.015 513.276 369.858V363.48ZM503.47 361.875H525.381V364.912H503.47V361.875ZM530.675 357.883H534.276V397.107H530.675V357.883ZM559.959 363.654H571.934V366.604H559.959V363.654ZM559.959 372.418H571.934V375.412H559.959V372.418ZM548.2 383.179H574.364V397.107H570.762V386.086H548.2V383.179ZM570.762 357.883H574.364V381.009H570.762V357.883ZM552.799 360.052C558.57 360.052 562.909 363.957 562.909 369.511C562.909 375.065 558.57 378.927 552.799 378.927C546.985 378.927 542.69 375.065 542.69 369.511C542.69 363.957 546.985 360.052 552.799 360.052ZM552.799 363.133C548.981 363.133 546.161 365.78 546.161 369.511C546.161 373.243 548.981 375.846 552.799 375.846C556.618 375.846 559.481 373.243 559.481 369.511C559.481 365.78 556.618 363.133 552.799 363.133ZM624.008 357.883H627.479V397.107H624.008V357.883ZM617.413 373.85H624.963V376.801H617.413V373.85ZM615.113 358.751H618.498V395.111H615.113V358.751ZM596.109 362.612H599.71V385.261H596.109V362.612ZM596.109 383.83H598.626C602.661 383.83 607.173 383.569 612.293 382.571L612.684 385.695C607.347 386.737 602.834 386.954 598.626 386.954H596.109V383.83ZM662.068 361.745H665.192V363.393C665.192 370.422 657.729 375.586 649.832 376.931L648.444 374.067C655.342 373.069 662.068 368.557 662.068 363.393V361.745ZM662.979 361.745H666.059V363.393C666.059 368.557 672.828 373.069 679.684 374.067L678.338 376.931C670.398 375.586 662.979 370.422 662.979 363.393V361.745ZM662.198 382.137H665.756V397.107H662.198V382.137ZM646.361 380.228H681.81V383.179H646.361V380.228ZM649.658 360.313H678.382V363.22H649.658V360.313ZM704.976 365.086H716.3V367.993H704.976V365.086ZM704.976 373.546H716.387V376.453H704.976V373.546ZM714.912 357.926H718.513V386.954H714.912V357.926ZM693.304 393.288H719.468V396.239H693.304V393.288ZM693.304 384.133H696.905V394.807H693.304V384.133ZM688.184 360.486H691.742V367.429H702.372V360.486H705.887V380.272H688.184V360.486ZM691.742 370.249V377.321H702.372V370.249H691.742ZM740.475 360.92H757.831V363.871H740.475V360.92ZM746.376 369.685H749.934V379.491H746.376V369.685ZM756.399 360.92H759.957V363.003C759.957 365.563 759.957 369.468 758.916 374.631L755.401 374.241C756.399 369.077 756.399 365.519 756.399 363.003V360.92ZM765.294 357.883H768.895V387.431H765.294V357.883ZM767.246 370.639H774.492V373.633H767.246V370.639ZM744.12 393.288H770.153V396.239H744.12V393.288ZM744.12 384.697H747.678V394.2H744.12V384.697ZM738.479 381.183L738.089 378.232C745.075 378.232 754.707 378.059 762.647 376.974L762.907 379.577C754.75 381.009 745.378 381.183 738.479 381.183ZM780.39 360.313H797.745V363.263H780.39V360.313ZM786.291 368.817H789.849V378.189H786.291V368.817ZM796.314 360.313H799.828V362.439C799.828 364.912 799.828 368.427 798.83 373.069L795.316 372.765C796.314 368.166 796.314 364.912 796.314 362.439V360.313ZM805.208 357.883H808.81V382.354H805.208V357.883ZM807.161 368.557H814.407V371.594H807.161V368.557ZM778.437 379.664L778.003 376.67C785.119 376.67 794.621 376.54 802.562 375.499L802.822 378.146C794.708 379.491 785.423 379.664 778.437 379.664ZM796.14 382.832C804.21 382.832 809.2 385.435 809.2 389.904C809.2 394.416 804.21 397.02 796.14 397.02C788.07 397.02 783.167 394.416 783.167 389.904C783.167 385.435 788.07 382.832 796.14 382.832ZM796.14 385.652C790.326 385.652 786.768 387.214 786.768 389.904C786.768 392.594 790.326 394.156 796.14 394.156C801.997 394.156 805.512 392.594 805.512 389.904C805.512 387.214 801.997 385.652 796.14 385.652ZM846.348 382.832H849.906V397.15H846.348V382.832ZM830.425 381.573H865.873V384.567H830.425V381.573ZM846.305 364.608H849.472V365.606C849.472 372.375 842.14 377.365 833.896 378.623L832.637 375.759C839.71 374.805 846.305 370.509 846.305 365.606V364.608ZM846.782 364.608H849.906V365.606C849.906 370.466 856.545 374.805 863.574 375.759L862.272 378.623C854.072 377.408 846.782 372.288 846.782 365.606V364.608ZM833.852 362.699H862.446V365.65H833.852V362.699ZM846.348 357.883H849.906V363.741H846.348V357.883ZM880.102 365.259H883.052V367.212C883.052 374.284 878.756 380.098 872.205 382.398L870.426 379.577C876.24 377.582 880.102 372.722 880.102 367.212V365.259ZM880.709 365.259H883.703V367.212C883.703 372.418 887.695 377.018 893.509 378.84L891.73 381.704C885.178 379.534 880.709 373.98 880.709 367.212V365.259ZM871.424 363.133H892.337V366.04H871.424V363.133ZM880.102 358.143H883.703V364.218H880.102V358.143ZM891.036 369.945H900.928V372.939H891.036V369.945ZM898.976 357.926H902.577V387.171H898.976V357.926ZM877.542 393.288H903.662V396.239H877.542V393.288ZM877.542 384.567H881.143V394.894H877.542V384.567Z" fill="white"/>
</g>
<defs>
<filter id="filter0_d_1444_2" x="0.391335" y="0.483253" width="1125.55" height="398.277" filterUnits="userSpaceOnUse" color-interpolation-filters="sRGB">
<feFlood flood-opacity="0" result="BackgroundImageFix"/>
<feColorMatrix in="SourceAlpha" type="matrix" values="0 0 0 0 0 0 0 0 0 0 0 0 0 0 0 0 0 0 127 0" result="hardAlpha"/>
<feOffset/>
<feGaussianBlur stdDeviation="46.5444"/>
<feComposite in2="hardAlpha" operator="out"/>
<feColorMatrix type="matrix" values="0 0 0 0 0 0 0 0 0 0 0 0 0 0 0 0 0 0 1 0"/>
<feBlend mode="normal" in2="BackgroundImageFix" result="effect1_dropShadow_1444_2"/>
<feBlend mode="normal" in="SourceGraphic" in2="effect1_dropShadow_1444_2" result="shape"/>
</filter>
<filter id="filter1_d_1444_2" x="0.863503" y="264.751" width="995.887" height="225.532" filterUnits="userSpaceOnUse" color-interpolation-filters="sRGB">
<feFlood flood-opacity="0" result="BackgroundImageFix"/>
<feColorMatrix in="SourceAlpha" type="matrix" values="0 0 0 0 0 0 0 0 0 0 0 0 0 0 0 0 0 0 127 0" result="hardAlpha"/>
<feOffset/>
<feGaussianBlur stdDeviation="46.5444"/>
<feComposite in2="hardAlpha" operator="out"/>
<feColorMatrix type="matrix" values="0 0 0 0 0 0 0 0 0 0 0 0 0 0 0 0 0 0 1 0"/>
<feBlend mode="normal" in2="BackgroundImageFix" result="effect1_dropShadow_1444_2"/>
<feBlend mode="normal" in="SourceGraphic" in2="effect1_dropShadow_1444_2" result="shape"/>
</filter>
</defs>
</svg>
