<svg width="267" height="79" viewBox="0 0 267 79" fill="none" xmlns="http://www.w3.org/2000/svg">
<path d="M20.654 15.0456V23.2267H17.8769V17.2472H5.24253V15.0456H20.654ZM20.654 0.609846V13.9698H17.8769V10.9675H12.573C11.4972 12.1684 9.87097 12.894 7.99458 12.894C4.59205 12.894 2.01514 10.5923 2.01514 7.33985C2.01514 4.13747 4.59205 1.83576 7.99458 1.86078C9.85847 1.84827 11.4847 2.54879 12.548 3.73717H17.8769V0.609846H20.654ZM7.99458 4.21252C6.04313 4.21252 4.66711 5.46345 4.66711 7.33985C4.66711 9.2913 6.04313 10.5172 7.99458 10.5422C9.84596 10.5172 11.247 9.2913 11.272 7.33985C11.247 5.46345 9.84596 4.21252 7.99458 4.21252ZM13.7489 8.71587H17.8769V6.01386H13.7739C13.8614 6.43918 13.924 6.877 13.924 7.33985C13.924 7.8152 13.8614 8.27805 13.7489 8.71587ZM31.9374 6.03888C31.9124 10.0669 33.9389 14.1699 37.4415 15.8462L35.7402 18.0728C33.2884 16.8344 31.5246 14.4451 30.5614 11.568C29.5731 14.6453 27.7217 17.1972 25.1323 18.4981L23.4311 16.2715C27.0587 14.5452 29.1353 10.217 29.1603 6.03888V2.4362H31.9374V6.03888ZM41.5695 0.609846V9.46643H45.0471V11.8432H41.5695V23.2267H38.7925V0.609846H41.5695ZM63.711 0.609846V9.44141H67.0635V11.7681H63.711V23.1766H60.9339V0.609846H63.711ZM57.7315 2.96159C57.7315 9.61654 54.9795 15.4459 47.4489 19.1486L45.8727 16.997C51.3768 14.2575 54.354 10.4046 54.9295 5.2633H47.0986V2.96159H57.7315ZM92.3323 15.3458V22.9515H76.6456V15.3458H83.1004V13.0191H74.2188V10.7674H94.8341V13.0191H85.9025V15.3458H92.3323ZM79.3976 17.5474V20.6998H89.6303V17.5474H79.3976ZM85.9525 1.71066C85.9525 4.18751 89.0548 6.7394 93.7333 7.31483L92.7576 9.46643C88.9673 8.96606 85.9775 7.2773 84.5515 4.9881C83.0754 7.30232 80.0606 8.95355 76.2953 9.46643L75.2696 7.31483C79.9981 6.71438 83.0754 4.23754 83.1004 1.71066V0.835014H85.9525V1.71066ZM105.242 2.81148C105.217 5.2633 107.068 7.4149 110.721 8.24052L109.445 10.4422C106.743 9.76665 104.842 8.36561 103.841 6.4642C102.803 8.56576 100.839 10.1669 98.0865 10.8925L96.7606 8.71587C100.438 7.8152 102.34 5.41342 102.34 2.81148V1.56055H105.242V2.81148ZM115.274 0.634865V23.2016H112.522V0.634865H115.274ZM96.3853 12.5187C100.513 12.5187 106.168 12.4687 111.046 11.7932L111.246 13.7696C109.295 14.1449 107.268 14.3951 105.292 14.5452V22.5261H102.49V14.6953C100.413 14.7829 98.4493 14.7954 96.7355 14.7954L96.3853 12.5187ZM136.815 7.01461V9.21624H121.154V1.43546H123.906V7.01461H136.815ZM139.142 11.8432V14.0448H118.477V11.8432H139.142ZM136.965 20.4496V22.7013H120.954V16.0463H123.731V20.4496H136.965ZM165.662 0.634865V13.8447H162.885V11.3428H157.506V9.09115H162.885V6.66435H157.731C156.292 10.267 153.002 12.7814 148.074 14.1449L146.948 11.9433C152.239 10.5047 155.054 7.82771 155.504 4.46271H148.149V2.21104H158.531C158.531 2.99912 158.469 3.74968 158.331 4.46271H162.885V0.634865H165.662ZM158.181 14.0949C162.76 14.0949 165.812 15.8212 165.812 18.5982C165.812 21.3753 162.76 23.1016 158.181 23.1016C153.553 23.1016 150.5 21.3753 150.5 18.5982C150.5 15.8212 153.553 14.0949 158.181 14.0949ZM158.181 16.2715C155.129 16.2715 153.278 17.0971 153.278 18.5982C153.278 20.0743 155.129 20.8999 158.181 20.8999C161.158 20.8999 163.035 20.0743 163.035 18.5982C163.035 17.0971 161.158 16.2715 158.181 16.2715ZM189.479 13.2192V15.4709H180.498V23.2016H177.746V15.4709H168.864V13.2192H189.479ZM187.578 1.88579V4.08743H180.798C180.961 6.56427 183.938 8.94104 188.404 9.51647L187.403 11.6931C183.55 11.1552 180.548 9.39137 179.172 6.93955C177.796 9.39137 174.794 11.1552 170.991 11.6931L169.94 9.51647C174.381 8.94104 177.358 6.56427 177.571 4.08743H170.766V1.88579H187.578ZM195.409 19.2237L193.307 26.2289H190.931L192.232 19.2237H195.409ZM10.6716 37.4392C10.6716 41.0919 12.2728 45.0698 16.2757 46.6961L14.3493 49.5232C11.6848 48.4223 9.92101 46.2707 8.89525 43.6438C7.89451 46.5209 6.08066 48.8977 3.39116 50.0986L1.33963 47.2715C5.31759 45.5202 6.99384 41.3171 6.99384 37.4392V36.5385H2.29034V33.6113H15.275V36.5385H10.6716V37.4392ZM20.8541 31.4347V54.4018H17.2264V31.4347H20.8541ZM44.6218 42.4929V45.3451H23.7063V42.4929H32.3377V39.6158H35.9403V42.4929H44.6218ZM35.9654 32.4855C35.9654 35.0374 38.0419 37.5643 43.571 38.2148L42.195 41.0168C38.2546 40.4539 35.5275 38.9028 34.089 36.6886C32.6379 38.8777 29.9234 40.4539 26.008 41.0168L24.732 38.2148C30.136 37.5643 32.2876 34.9123 32.2876 32.4855V31.835H35.9654V32.4855ZM42.1199 46.7711V54.4018H38.5173V49.5482H26.033V46.7711H42.1199ZM69.8656 31.4347V36.5385H72.8428V39.4407H69.8656V43.9941H66.2629V31.4347H69.8656ZM63.4608 32.6856C63.4608 38.9153 59.7581 42.8432 52.7278 44.4194L51.4269 41.5422C56.5932 40.4039 59.0575 38.1272 59.4828 35.5127H52.5277V32.6856H63.4608ZM70.1157 44.9197V47.7468H64.3365C64.7618 49.3605 66.7883 51.0993 71.1665 51.6247L69.8656 54.3517C66.1253 53.9014 63.6359 52.4879 62.335 50.599C61.034 52.4754 58.5697 53.8764 54.8294 54.3517L53.5284 51.5497C57.9317 51.0868 59.9207 49.4231 60.3335 47.7468H54.5292V44.9197H70.1157ZM94.659 45.1449V48.0721H85.9525V54.4268H82.3498V48.0721H73.7184V45.1449H94.659ZM92.7826 34.0116V36.8387H86.0776C86.5279 38.6151 88.7671 40.7667 93.6082 41.292L92.3072 44.0941C88.3793 43.6813 85.6648 42.1552 84.1762 40.1912C82.6876 42.1802 79.9606 43.6688 75.9951 44.0941L74.6942 41.292C79.5728 40.7541 81.8119 38.6401 82.2748 36.8387H75.5698V34.0116H82.3498V31.4848H85.9525V34.0116H92.7826ZM102.24 33.0109C105.329 33.0109 107.669 35.5127 108.144 39.5908H111.772V31.4347H115.324V54.4518H111.772V42.4429H108.194C107.819 46.8212 105.429 49.4981 102.24 49.4981C98.712 49.4981 96.1851 46.3208 96.2101 41.217C96.1851 36.1882 98.712 33.0109 102.24 33.0109ZM102.24 36.2633C100.713 36.2633 99.6377 37.9396 99.6627 41.217C99.6377 44.5445 100.713 46.2207 102.24 46.2207C103.816 46.2207 104.817 44.5445 104.817 41.217C104.817 37.9396 103.816 36.2633 102.24 36.2633ZM135.239 33.4112V36.3133H128.434V45.9955C131.524 45.9705 133.838 45.8204 136.365 45.3701L136.715 48.2722C133.638 48.8477 130.886 48.9728 126.708 48.9477H124.806V33.4112H135.239ZM143.245 31.4347V54.4518H139.642V42.1927H134.188V39.2405H139.642V31.4347H143.245ZM166.813 42.1177V44.9448H158.106V46.7711H164.286V54.4018H160.683V49.5982H148.199V46.7711H154.503V44.9448H145.872V42.1177H166.813ZM156.33 31.86C161.409 31.86 164.736 33.6364 164.761 36.4635C164.736 39.2906 161.409 41.0669 156.33 41.0669C151.226 41.0669 147.899 39.2906 147.899 36.4635C147.899 33.6364 151.226 31.86 156.33 31.86ZM156.33 34.6371C153.303 34.6371 151.626 35.2626 151.651 36.4635C151.626 37.6894 153.303 38.2648 156.33 38.2648C159.332 38.2648 161.033 37.6894 161.033 36.4635C161.033 35.2626 159.332 34.6371 156.33 34.6371ZM193.007 31.4347V44.5445H189.429V31.4347H193.007ZM193.357 45.7454V48.4474H187.153C187.666 49.7733 189.78 51.287 194.283 51.6247L193.057 54.3017C189.129 53.989 186.515 52.7005 185.126 50.9993C183.75 52.738 181.111 54.0015 177.145 54.3017L175.969 51.6748C180.51 51.337 182.612 49.8234 183.125 48.4474H176.895V45.7454H183.3V43.969H186.928V45.7454H193.357ZM178.446 32.3354V35.0374H182.649V32.3354H186.227V42.8432H174.894V32.3354H178.446ZM178.446 40.0411H182.649V37.7644H178.446V40.0411ZM217.175 39.9911V42.9183H214.098V54.3267H210.495V31.4347H214.098V39.9911H217.175ZM200.137 33.6113V45.8204C202.939 45.7579 205.979 45.4827 209.144 44.8697L209.519 47.8469C205.717 48.6225 201.939 48.7976 198.586 48.7976H196.535V33.6113H200.137ZM236.239 31.4347V39.7909H239.492V42.7181H236.239V54.4518H232.637V31.4347H236.239ZM229.684 33.5363V36.4384H222.504V45.9705C225.594 45.9455 228.258 45.7579 231.16 45.27L231.536 48.2722C228.008 48.8727 224.831 48.9477 220.878 48.9477H218.901V33.5363H229.684Z" fill="white"/>
<path d="M4.33036 72.919H5.24336V75.13H4.33036V72.919ZM8.74136 67.914H9.65436V75.482H8.74136V67.914ZM2.86736 76.89H9.89636V77.638H2.86736V76.89ZM2.86736 74.745H3.78036V77.099H2.86736V74.745ZM1.58036 73.26L1.45936 72.512C3.29636 72.512 5.76036 72.49 7.87236 72.215L7.93836 72.886C5.79336 73.227 3.38436 73.26 1.58036 73.26ZM6.71736 73.788H8.97236V74.459H6.71736V73.788ZM4.69336 68.321C6.14536 68.321 7.13536 69.003 7.13536 70.048C7.13536 71.104 6.14536 71.786 4.69336 71.786C3.23036 71.786 2.24036 71.104 2.24036 70.048C2.24036 69.003 3.23036 68.321 4.69336 68.321ZM4.69336 69.003C3.75836 69.003 3.10936 69.41 3.10936 70.048C3.10936 70.686 3.75836 71.093 4.69336 71.093C5.61736 71.093 6.26636 70.686 6.26636 70.048C6.26636 69.41 5.61736 69.003 4.69336 69.003ZM14.0865 69.333H14.8125V70.95C14.8125 73.018 13.5475 75.152 11.9965 75.944L11.4685 75.218C12.8875 74.525 14.0865 72.633 14.0865 70.95V69.333ZM14.2515 69.333H14.9775V70.95C14.9775 72.523 16.0995 74.294 17.5405 74.976L17.0235 75.702C15.4505 74.921 14.2515 72.919 14.2515 70.95V69.333ZM11.8205 68.926H17.1775V69.696H11.8205V68.926ZM18.3545 67.914H19.2785V77.858H18.3545V67.914ZM19.0585 71.929H20.9065V72.699H19.0585V71.929ZM22.1596 72.842H22.8746C24.8326 72.842 25.8006 72.809 26.9886 72.6L27.0876 73.337C25.8556 73.557 24.8656 73.59 22.8746 73.59H22.1596V72.842ZM22.1376 68.508H26.4276V71.335H23.0616V73.293H22.1596V70.62H25.5256V69.256H22.1376V68.508ZM29.0126 67.925H29.9256V74.03H29.0126V67.925ZM27.0876 69.388H29.2216V70.136H27.0876V69.388ZM27.0876 71.445H29.2216V72.193H27.0876V71.445ZM23.2706 74.569H29.9256V77.88H29.0126V75.317H23.2706V74.569ZM41.7635 67.903H42.6765V75.229H41.7635V67.903ZM42.3905 70.928H44.1505V71.687H42.3905V70.928ZM36.4835 76.89H43.1275V77.638H36.4835V76.89ZM36.4835 74.481H37.3965V77.187H36.4835V74.481ZM37.7375 68.607C39.2225 68.607 40.3335 69.63 40.3335 71.06C40.3335 72.501 39.2225 73.513 37.7375 73.513C36.2525 73.513 35.1415 72.501 35.1415 71.06C35.1415 69.63 36.2525 68.607 37.7375 68.607ZM37.7375 69.41C36.7695 69.41 36.0325 70.092 36.0325 71.06C36.0325 72.039 36.7695 72.71 37.7375 72.71C38.7055 72.71 39.4425 72.039 39.4425 71.06C39.4425 70.092 38.7055 69.41 37.7375 69.41ZM50.3537 70.653H52.8617V71.401H50.3537V70.653ZM52.3447 67.925H53.2577V75.207H52.3447V67.925ZM46.9107 76.89H53.5327V77.638H46.9107V76.89ZM46.9107 74.569H47.8237V77.275H46.9107V74.569ZM47.6147 69.157H48.3627V69.96C48.3627 71.764 47.2407 73.326 45.5797 73.942L45.1067 73.216C46.5917 72.688 47.6147 71.368 47.6147 69.96V69.157ZM47.7907 69.157H48.5277V69.949C48.5277 71.236 49.4957 72.49 50.9367 72.996L50.4747 73.711C48.8577 73.128 47.7907 71.632 47.7907 69.949V69.157ZM45.3927 68.728H50.7057V69.465H45.3927V68.728ZM56.3368 72.556H63.1678V73.304H56.3368V72.556ZM55.2038 75.845H64.2128V76.615H55.2038V75.845ZM59.2298 72.875H60.1428V76.153H59.2298V72.875ZM56.3368 68.706H63.0688V69.454H57.2498V72.886H56.3368V68.706ZM76.0177 67.914H76.8867V77.858H76.0177V67.914ZM74.4447 71.918H76.3587V72.688H74.4447V71.918ZM73.8507 68.123H74.7087V77.363H73.8507V68.123ZM70.4627 69.454H71.1777V70.598C71.1777 72.985 70.3967 74.899 68.8677 75.812L68.3067 75.108C69.7367 74.316 70.4627 72.622 70.4627 70.598V69.454ZM70.6277 69.454H71.3427V70.598C71.3427 72.424 72.0797 74.041 73.4767 74.756L72.9377 75.46C71.4197 74.624 70.6277 72.787 70.6277 70.598V69.454ZM68.5377 69.08H73.1577V69.839H68.5377V69.08ZM79.4818 68.904H85.8838V69.663H79.4818V68.904ZM78.5358 75.713H87.5228V76.472H78.5358V75.713ZM82.0228 72.16H82.9358V76.087H82.0228V72.16ZM85.5428 68.904H86.4448V69.894C86.4448 71.126 86.4448 72.49 86.0818 74.503L85.1688 74.382C85.5428 72.479 85.5428 71.082 85.5428 69.894V68.904ZM92.2657 68.552H96.8967V72.622H92.2657V68.552ZM96.0167 69.289H93.1457V71.896H96.0167V69.289ZM98.9757 67.914H99.8887V73.623H98.9757V67.914ZM96.2807 74.8H97.0617V74.987C97.0617 76.417 95.2907 77.561 93.2777 77.825L92.9697 77.121C94.6967 76.923 96.2807 75.977 96.2807 74.987V74.8ZM96.4127 74.8H97.2047V74.987C97.2047 75.944 98.7447 76.912 100.472 77.121L100.164 77.825C98.1397 77.55 96.4127 76.384 96.4127 74.987V74.8ZM93.3657 74.294H100.12V75.009H93.3657V74.294ZM96.2807 73.337H97.2047V74.613H96.2807V73.337ZM107.591 69.333H108.328V70.95C108.328 73.051 107.063 75.163 105.479 75.944L104.951 75.218C106.392 74.536 107.591 72.666 107.591 70.95V69.333ZM107.767 69.333H108.504V70.95C108.504 72.633 109.703 74.349 111.166 74.976L110.649 75.702C109.043 74.954 107.767 73.018 107.767 70.95V69.333ZM105.281 68.926H110.836V69.696H105.281V68.926ZM112.178 67.914H113.091V77.858H112.178V67.914ZM119.602 69.377H122.638V70.125H119.602V69.377ZM119.602 71.599H122.638V72.358H119.602V71.599ZM116.621 74.327H123.254V77.858H122.341V75.064H116.621V74.327ZM122.341 67.914H123.254V73.777H122.341V67.914ZM117.787 68.464C119.25 68.464 120.35 69.454 120.35 70.862C120.35 72.27 119.25 73.249 117.787 73.249C116.313 73.249 115.224 72.27 115.224 70.862C115.224 69.454 116.313 68.464 117.787 68.464ZM117.787 69.245C116.819 69.245 116.104 69.916 116.104 70.862C116.104 71.808 116.819 72.468 117.787 72.468C118.755 72.468 119.481 71.808 119.481 70.862C119.481 69.916 118.755 69.245 117.787 69.245ZM135.84 67.914H136.72V77.858H135.84V67.914ZM134.168 71.962H136.082V72.71H134.168V71.962ZM133.585 68.134H134.443V77.352H133.585V68.134ZM128.767 69.113H129.68V74.855H128.767V69.113ZM128.767 74.492H129.405C130.428 74.492 131.572 74.426 132.87 74.173L132.969 74.965C131.616 75.229 130.472 75.284 129.405 75.284H128.767V74.492ZM145.489 68.893H146.281V69.311C146.281 71.093 144.389 72.402 142.387 72.743L142.035 72.017C143.784 71.764 145.489 70.62 145.489 69.311V68.893ZM145.72 68.893H146.501V69.311C146.501 70.62 148.217 71.764 149.955 72.017L149.614 72.743C147.601 72.402 145.72 71.093 145.72 69.311V68.893ZM145.522 74.063H146.424V77.858H145.522V74.063ZM141.507 73.579H150.494V74.327H141.507V73.579ZM142.343 68.53H149.625V69.267H142.343V68.53ZM156.367 69.74H159.238V70.477H156.367V69.74ZM156.367 71.885H159.26V72.622H156.367V71.885ZM158.886 67.925H159.799V75.284H158.886V67.925ZM153.408 76.89H160.041V77.638H153.408V76.89ZM153.408 74.569H154.321V77.275H153.408V74.569ZM152.11 68.574H153.012V70.334H155.707V68.574H156.598V73.59H152.11V68.574ZM153.012 71.049V72.842H155.707V71.049H153.012ZM165.367 68.684H169.767V69.432H165.367V68.684ZM166.863 70.906H167.765V73.392H166.863V70.906ZM169.404 68.684H170.306V69.212C170.306 69.861 170.306 70.851 170.042 72.16L169.151 72.061C169.404 70.752 169.404 69.85 169.404 69.212V68.684ZM171.659 67.914H172.572V75.405H171.659V67.914ZM172.154 71.148H173.991V71.907H172.154V71.148ZM166.291 76.89H172.891V77.638H166.291V76.89ZM166.291 74.712H167.193V77.121H166.291V74.712ZM164.861 73.821L164.762 73.073C166.533 73.073 168.975 73.029 170.988 72.754L171.054 73.414C168.986 73.777 166.61 73.821 164.861 73.821ZM175.486 68.53H179.886V69.278H175.486V68.53ZM176.982 70.686H177.884V73.062H176.982V70.686ZM179.523 68.53H180.414V69.069C180.414 69.696 180.414 70.587 180.161 71.764L179.27 71.687C179.523 70.521 179.523 69.696 179.523 69.069V68.53ZM181.778 67.914H182.691V74.118H181.778V67.914ZM182.273 70.62H184.11V71.39H182.273V70.62ZM174.991 73.436L174.881 72.677C176.685 72.677 179.094 72.644 181.107 72.38L181.173 73.051C179.116 73.392 176.762 73.436 174.991 73.436ZM179.479 74.239C181.525 74.239 182.79 74.899 182.79 76.032C182.79 77.176 181.525 77.836 179.479 77.836C177.433 77.836 176.19 77.176 176.19 76.032C176.19 74.899 177.433 74.239 179.479 74.239ZM179.479 74.954C178.005 74.954 177.103 75.35 177.103 76.032C177.103 76.714 178.005 77.11 179.479 77.11C180.964 77.11 181.855 76.714 181.855 76.032C181.855 75.35 180.964 74.954 179.479 74.954ZM192.208 74.239H193.11V77.869H192.208V74.239ZM188.171 73.92H197.158V74.679H188.171V73.92ZM192.197 69.619H193V69.872C193 71.588 191.141 72.853 189.051 73.172L188.732 72.446C190.525 72.204 192.197 71.115 192.197 69.872V69.619ZM192.318 69.619H193.11V69.872C193.11 71.104 194.793 72.204 196.575 72.446L196.245 73.172C194.166 72.864 192.318 71.566 192.318 69.872V69.619ZM189.04 69.135H196.289V69.883H189.04V69.135ZM192.208 67.914H193.11V69.399H192.208V67.914ZM200.765 69.784H201.513V70.279C201.513 72.072 200.424 73.546 198.763 74.129L198.312 73.414C199.786 72.908 200.765 71.676 200.765 70.279V69.784ZM200.919 69.784H201.678V70.279C201.678 71.599 202.69 72.765 204.164 73.227L203.713 73.953C202.052 73.403 200.919 71.995 200.919 70.279V69.784ZM198.565 69.245H203.867V69.982H198.565V69.245ZM200.765 67.98H201.678V69.52H200.765V67.98ZM203.537 70.972H206.045V71.731H203.537V70.972ZM205.55 67.925H206.463V75.339H205.55V67.925ZM200.116 76.89H206.738V77.638H200.116V76.89ZM200.116 74.679H201.029V77.297H200.116V74.679Z" fill="white"/>
</svg>
