<svg width="10" height="9" viewBox="0 0 10 9" fill="none" xmlns="http://www.w3.org/2000/svg">
<path d="M0.904976 2.05004C0.904976 1.60665 0.905675 1.30733 0.93576 1.0837C0.964563 0.869588 1.01477 0.77464 1.07842 0.710991C1.14207 0.647342 1.23702 0.597131 1.45113 0.568328C1.67476 0.538244 1.97408 0.537545 2.41748 0.537545H7.94139C8.38478 0.537545 8.68411 0.538244 8.90774 0.568328C9.12185 0.597131 9.21679 0.647342 9.28044 0.710991L9.512 0.479435L9.28044 0.710991C9.34409 0.77464 9.3943 0.869589 9.42311 1.0837C9.45319 1.30733 9.45389 1.60665 9.45389 2.05004C9.45389 2.10325 9.45387 2.14496 9.45305 2.18072C9.41727 2.18154 9.37556 2.18157 9.32237 2.18157H1.0365C0.983288 2.18157 0.941584 2.18155 0.90582 2.18073C0.904996 2.14494 0.904976 2.10324 0.904976 2.05004ZM1.07842 7.53203C1.01477 7.46838 0.964563 7.37343 0.93576 7.15933C0.905675 6.9357 0.904976 6.63637 0.904976 6.19298V3.89135C0.904976 3.83815 0.904996 3.79645 0.90582 3.76067C0.941584 3.75985 0.983288 3.75983 1.0365 3.75983H9.32237C9.37556 3.75983 9.41727 3.75985 9.45305 3.76067C9.45387 3.79644 9.45389 3.83814 9.45389 3.89135V6.19298C9.45389 6.63637 9.45319 6.9357 9.42311 7.15933C9.3943 7.37343 9.34409 7.46838 9.28044 7.53203C9.21679 7.59568 9.12185 7.64589 8.90774 7.67469C8.68411 7.70478 8.38478 7.70548 7.94139 7.70548H2.41748C1.97408 7.70548 1.67476 7.70478 1.45113 7.67469C1.23702 7.64589 1.14207 7.59568 1.07842 7.53203Z" fill="black" stroke="black" stroke-width="0.657609"/>
</svg>
