<svg width="73" height="121" viewBox="0 0 73 121" fill="none" xmlns="http://www.w3.org/2000/svg">
<rect x="1.14676" y="17.552" width="70.4124" height="101.595" rx="4.02357" stroke="black" stroke-width="2.01178"/>
<rect x="19.8716" y="0.606445" width="33.6587" height="13.9277" rx="3.31208" fill="black"/>
<path d="M2.15265 25.0962H1.14676V27.1079H2.15265V25.0962ZM8.95439 27.1079C9.50993 27.1079 9.96028 26.6576 9.96028 26.1021C9.96028 25.5465 9.50993 25.0962 8.95439 25.0962V27.1079ZM2.15265 27.1079H8.95439V25.0962H2.15265V27.1079Z" fill="black"/>
<path d="M2.15265 34.6179H1.14676V36.6297H2.15265V34.6179ZM8.95439 36.6297C9.50993 36.6297 9.96028 36.1793 9.96028 35.6238C9.96028 35.0682 9.50993 34.6179 8.95439 34.6179V36.6297ZM2.15265 36.6297H8.95439V34.6179H2.15265V36.6297Z" fill="black"/>
<path d="M2.15265 44.1403H1.14676V46.1521H2.15265V44.1403ZM8.95439 46.1521C9.50993 46.1521 9.96028 45.7018 9.96028 45.1462C9.96028 44.5907 9.50993 44.1403 8.95439 44.1403V46.1521ZM2.15265 46.1521H8.95439V44.1403H2.15265V46.1521Z" fill="black"/>
<path d="M2.15265 53.6635H1.14676V55.6753H2.15265V53.6635ZM8.95439 55.6753C9.50993 55.6753 9.96028 55.225 9.96028 54.6694C9.96028 54.1139 9.50993 53.6635 8.95439 53.6635V55.6753ZM2.15265 55.6753H8.95439V53.6635H2.15265V55.6753Z" fill="black"/>
<path d="M2.15265 63.1858H1.14676V65.1975H2.15265V63.1858ZM8.95439 65.1975C9.50993 65.1975 9.96028 64.7472 9.96028 64.1917C9.96028 63.6361 9.50993 63.1858 8.95439 63.1858V65.1975ZM2.15265 65.1975H8.95439V63.1858H2.15265V65.1975Z" fill="black"/>
<path d="M2.15265 72.7077H1.14676V74.7195H2.15265V72.7077ZM8.95439 74.7195C9.50993 74.7195 9.96028 74.2692 9.96028 73.7136C9.96028 73.1581 9.50993 72.7077 8.95439 72.7077V74.7195ZM2.15265 74.7195H8.95439V72.7077H2.15265V74.7195Z" fill="black"/>
<path d="M2.15265 82.2304H1.14676V84.2422H2.15265V82.2304ZM8.95439 84.2422C9.50993 84.2422 9.96028 83.7919 9.96028 83.2363C9.96028 82.6808 9.50993 82.2304 8.95439 82.2304V84.2422ZM2.15265 84.2422H8.95439V82.2304H2.15265V84.2422Z" fill="black"/>
<path d="M2.15265 91.7531H1.14676V93.7649H2.15265V91.7531ZM8.95439 93.7649C9.50993 93.7649 9.96028 93.3146 9.96028 92.759C9.96028 92.2035 9.50993 91.7531 8.95439 91.7531V93.7649ZM2.15265 93.7649H8.95439V91.7531H2.15265V93.7649Z" fill="black"/>
<path d="M2.15265 101.276H1.14676V103.287H2.15265V101.276ZM8.95439 103.287C9.50993 103.287 9.96028 102.837 9.96028 102.281C9.96028 101.726 9.50993 101.276 8.95439 101.276V103.287ZM2.15265 103.287H8.95439V101.276H2.15265V103.287Z" fill="black"/>
<path d="M2.15265 110.798H1.14676V112.81H2.15265V110.798ZM8.95439 112.81C9.50993 112.81 9.96028 112.359 9.96028 111.804C9.96028 111.248 9.50993 110.798 8.95439 110.798V112.81ZM2.15265 112.81H8.95439V110.798H2.15265V112.81Z" fill="black"/>
</svg>
