<svg width="35" height="17" viewBox="0 0 35 17" fill="none" xmlns="http://www.w3.org/2000/svg">
<path d="M8.75009 2.71086C7.60363 2.85739 6.57786 3.22375 5.4314 4.02972L6.15548 4.68913C6.15548 4.68913 7.16585 4.1516 8.38805 3.95644C9.38509 3.79722 10.5463 3.96388 11.224 4.02972C12.4308 4.14695 14.0399 5.32415 14.7237 5.93473C14.7237 5.93473 14.9197 5.72473 15.0254 5.56838C15.1333 5.40894 15.2668 5.12876 15.2668 5.12876C15.3151 4.36675 14.6031 3.98087 14.241 3.8099C12.1291 2.63758 9.83191 2.57259 8.75009 2.71086Z" fill="#2E2E2E"/>
<path d="M5.91425 10.6243L5.61255 9.8916C5.61255 9.8916 5.79357 10.0381 6.27629 10.3312C6.75901 10.6243 6.87969 10.6243 6.87969 10.6243V11.7233L5.91425 10.6243Z" fill="#2E2E2E"/>
<path d="M28.9039 7.91332C27.7454 7.8547 25.7864 8.47506 25.1629 8.64602C24.1989 9.16803 23.6986 9.39446 23.1113 9.89161C21.5223 11.2367 20.8315 12.7112 20.7581 13.3353C24.5233 12.2802 27.7776 9.28102 28.9039 7.91332Z" fill="#2E2E2E"/>
<path d="M16.943 3.73677C17.6188 6.60895 29.3661 5.00678 34.3341 4.39619C32.4032 7.76661 28.4644 7.33034 26.2485 7.83988C3.30633 16.559 -2.39957 0.439619 3.62113 0L5.00925 1.90502C4.47974 3.95658 5.17672 4.27882 6.27639 5.20216C9.27819 7.72265 14.1206 7.03179 14.9518 6.0814C15.9032 4.9936 15.453 4.12757 14.3616 3.50416C13.0699 2.76629 10.8797 2.36828 9.05172 2.34464C7.01471 2.31829 5.49167 3.6635 5.31065 3.73677C5.12963 3.81004 5.06929 3.0642 5.06929 2.85753C5.06929 2.65085 5.17671 2.34464 5.17671 2.34464C6.26283 0.36635 16.0982 0.14654 16.943 3.73677Z" fill="#2E2E2E"/>
<path d="M9.05172 11.2103L7.00016 10.4043C5.8405 10.0467 4.48307 8.77976 3.7418 8.05969C2.05317 6.41934 1.79252 4.95008 1.75059 4.54273C1.83215 4.95872 2.11789 5.41758 2.535 6.00813C3.00864 6.6787 3.66912 7.49645 4.70724 8.20623C6.1365 9.18343 8.95149 10.3527 11.767 10.5509L14.3616 10.6974C15.8542 10.6764 17.2303 10.5274 18.4647 10.4043C21.3183 10.1199 23.5953 9.13831 24.6194 8.71912C21.8679 9.92238 20.637 12.4688 20.3956 13.4084C17.3183 14.5074 12.9135 14.0678 11.224 13.848C9.87234 13.6722 9.21263 13.042 9.05172 12.749V11.2103Z" fill="#2E2E2E"/>
<path d="M5.25036 9.81822C3.8022 8.82175 2.65572 7.52243 2.29368 6.96069C1.27999 7.78132 0.563964 9.03667 0.302484 9.59841C-0.518139 11.943 0.523731 13.7992 1.14724 14.4342C5.73308 18.5373 7.56337 16.8521 7.96564 15.3135C8.20698 13.555 6.57784 11.7721 5.67274 10.6242L5.25036 9.81822Z" fill="#2E2E2E"/>
</svg>
