<svg width="160" height="122" viewBox="0 0 141 102" fill="none" xmlns="http://www.w3.org/2000/svg">
<g filter="url(#filter0_d_355_982)">
<path d="M42.4235 20.5075C38.5683 20.9133 35.119 21.9278 31.2638 24.1598L33.6986 25.9859C33.6986 25.9859 37.0962 24.4973 41.2061 23.9568C44.5588 23.5159 48.4636 23.9775 50.7426 24.1598C54.8006 24.4844 60.2114 27.7444 62.511 29.4353C62.511 29.4353 63.1698 28.8537 63.5255 28.4207C63.8882 27.9792 64.3371 27.2033 64.3371 27.2033C64.4994 25.0931 62.1052 24.0245 60.8877 23.551C53.7861 20.3046 46.0613 20.1246 42.4235 20.5075Z" fill="white"/>
<path d="M32.8872 42.4211L31.8727 40.3921C31.8727 40.3921 32.4814 40.7979 34.1046 41.6095C35.7279 42.4211 36.1337 42.4211 36.1337 42.4211V45.4647L32.8872 42.4211Z" fill="white"/>
<path d="M110.193 34.9136C106.298 34.7513 99.71 36.4692 97.6134 36.9427C94.3718 38.3882 92.6896 39.0153 90.7146 40.392C85.3712 44.1169 83.0483 48.2001 82.8014 49.9285C95.4626 47.0067 106.406 38.7011 110.193 34.9136Z" fill="white"/>
<path d="M69.9741 23.3481C72.2466 31.3019 111.749 26.8651 128.455 25.1742C121.962 34.5078 108.717 33.2997 101.265 34.7107C24.1184 58.8563 4.93125 14.2174 25.1769 13L29.8447 18.2755C28.0642 23.9568 30.4079 24.8492 34.1057 27.4062C44.1998 34.3861 60.4832 32.4729 63.2782 29.841C66.4775 26.8286 64.9639 24.4303 61.2938 22.7039C56.95 20.6606 49.5853 19.5584 43.4383 19.4929C36.5885 19.42 31.4669 23.1452 30.8582 23.3481C30.2495 23.551 30.0466 21.4856 30.0466 20.9132C30.0466 20.3409 30.4079 19.4929 30.4079 19.4929C34.0601 14.0145 67.1334 13.4058 69.9741 23.3481Z" fill="white"/>
<path d="M43.4383 44.0443L36.5395 41.8123C32.64 40.822 28.0754 37.3135 25.5827 35.3194C19.9044 30.7769 19.0279 26.7081 18.8869 25.58C19.1612 26.732 20.122 28.0027 21.5246 29.6381C23.1173 31.4951 25.3383 33.7597 28.8292 35.7252C33.6353 38.4314 43.1012 41.6693 52.5689 42.2181L61.2938 42.624C66.3127 42.5659 70.9403 42.1531 75.0912 41.8123C84.6869 41.0246 92.3436 38.3064 95.7874 37.1455C86.535 40.4777 82.3958 47.5293 81.5841 50.1314C71.2361 53.1749 56.4241 51.9575 50.7428 51.3488C46.1977 50.8618 43.9793 49.1169 43.4383 48.3053V44.0443Z" fill="white"/>
<path d="M30.6553 40.1891C25.7856 37.4296 21.9303 33.8315 20.7129 32.2759C17.3042 34.5484 14.8964 38.0248 14.0172 39.5804C11.2577 46.0733 14.7611 51.2136 16.8578 52.9721C32.2785 64.3347 38.4332 59.6679 39.7859 55.4069C40.5974 50.5372 35.1191 45.5999 32.0756 42.4211L30.6553 40.1891Z" fill="white"/>
</g>
<rect x="1" y="65" width="126" height="37" rx="8" fill="white"/>
<rect x="1.25" y="65.25" width="125.5" height="36.5" rx="7.75" stroke="black" stroke-opacity="0.5" stroke-width="0.5"/>
<path d="M20.153 89.2539V92.3594H19.5964V91.7207H18.2721V91.2637H19.5964V90.625H18.3249C17.988 91.4688 17.1999 92.0635 16.0632 92.3887L15.8405 91.9551C17.0827 91.5977 17.8092 90.9326 17.9089 90.0859H16.11V89.6289H18.5124C18.5124 89.8223 18.4919 90.0098 18.4596 90.1855H19.5964V89.2539H20.153ZM18.4245 92.418C19.485 92.418 20.1823 92.8047 20.1882 93.4434C20.1823 94.082 19.485 94.4746 18.4245 94.4746C17.3464 94.4746 16.6549 94.082 16.6549 93.4434C16.6549 92.8047 17.3464 92.418 18.4245 92.418ZM18.4245 92.8574C17.6745 92.8574 17.2057 93.0684 17.2057 93.4434C17.2057 93.8125 17.6745 94.0293 18.4245 94.0293C19.1628 94.0293 19.6257 93.8125 19.6315 93.4434C19.6257 93.0684 19.1628 92.8574 18.4245 92.8574ZM25.7487 91.7969V92.2422H23.6276V92.8047H25.1628V94.498H24.6003V93.2559H21.4948V92.8047H23.0768V92.2422H20.9616V91.7969H25.7487ZM22.1393 89.3711V89.9395H24.571V89.3711H25.1276V91.3574H21.5885V89.3711H22.1393ZM22.1393 90.9121H24.571V90.3555H22.1393V90.9121ZM31.9889 89.2539V92.3594H31.4323V91.7207H30.1081V91.2637H31.4323V90.625H30.1608C29.8239 91.4688 29.0358 92.0635 27.8991 92.3887L27.6764 91.9551C28.9186 91.5977 29.6452 90.9326 29.7448 90.0859H27.946V89.6289H30.3483C30.3483 89.8223 30.3278 90.0098 30.2956 90.1855H31.4323V89.2539H31.9889ZM30.2604 92.418C31.321 92.418 32.0182 92.8047 32.0241 93.4434C32.0182 94.082 31.321 94.4746 30.2604 94.4746C29.1823 94.4746 28.4909 94.082 28.4909 93.4434C28.4909 92.8047 29.1823 92.418 30.2604 92.418ZM30.2604 92.8574C29.5104 92.8574 29.0417 93.0684 29.0417 93.4434C29.0417 93.8125 29.5104 94.0293 30.2604 94.0293C30.9987 94.0293 31.4616 93.8125 31.4674 93.4434C31.4616 93.0684 30.9987 92.8574 30.2604 92.8574ZM37.5846 92.207V92.6582H35.4518V94.4922H34.9069V92.6582H32.7975V92.207H37.5846ZM37.1335 89.5586V90.0039H35.5104C35.5192 90.6543 36.3278 91.2344 37.321 91.3691L37.1159 91.8086C36.2546 91.6738 35.5104 91.249 35.194 90.6484C34.8688 91.249 34.1276 91.6738 33.278 91.8086L33.0671 91.3691C34.0485 91.2344 34.8571 90.6543 34.8776 90.0039H33.2428V89.5586H37.1335ZM39.9108 90.584C39.9049 91.5449 40.485 92.5059 41.2995 92.8691L40.9655 93.3086C40.362 93.0215 39.8844 92.4326 39.6413 91.7148C39.3952 92.4824 38.9118 93.1182 38.2819 93.4258L37.9421 92.957C38.7682 92.5879 39.3483 91.5859 39.3483 90.584V89.6875H39.9108V90.584ZM42.3307 89.248V94.5098H41.7741V89.248H42.3307ZM49.4323 91.9023V92.3535H47.3464V93.373H46.7956V92.3535H44.6276V91.9023H49.4323ZM48.8112 89.4941V91.3574H45.2428V89.4941H48.8112ZM45.7878 89.9336V90.918H48.2604V89.9336H45.7878ZM48.8991 93.9355V94.3867H45.2253V92.875H45.7819V93.9355H48.8991ZM54.6178 92.2598V92.7109H52.4733V94.4922H51.9284V92.7109H49.8132V92.2598H54.6178ZM54.0143 89.5293V91.5918H50.4167V89.5293H54.0143ZM50.9616 89.9746V91.1582H53.4577V89.9746H50.9616ZM59.5104 89.248V94.498H58.9772V91.7852H58.2975V94.2285H57.7878V89.3535H58.2975V91.3281H58.9772V89.248H59.5104ZM57.1491 89.8809V90.332H55.737V92.7637C56.3815 92.7578 56.8678 92.7285 57.4303 92.623L57.4714 93.0801C56.8385 93.209 56.2995 93.2324 55.5319 93.2383H55.1803V89.8809H57.1491ZM64.321 89.2539V90.6777H65.071V91.1406H64.321V92.5879H63.7643V89.2539H64.321ZM62.6042 92.6406C63.6882 92.6406 64.3503 92.9746 64.3561 93.5664C64.3503 94.1465 63.6882 94.4922 62.6042 94.4863C61.5143 94.4922 60.8522 94.1465 60.8522 93.5664C60.8522 92.9746 61.5143 92.6406 62.6042 92.6406ZM62.6042 93.0684C61.8424 93.0684 61.3971 93.2441 61.3971 93.5664C61.3971 93.877 61.8424 94.0586 62.6042 94.0586C63.3483 94.0586 63.7995 93.877 63.8053 93.5664C63.7995 93.2441 63.3483 93.0684 62.6042 93.0684ZM60.1842 91.832C60.5798 91.832 61.0397 91.8291 61.5202 91.8145V91.3691C60.8874 91.293 60.4714 90.9238 60.4772 90.4023C60.4714 89.8223 61.0046 89.4355 61.7839 89.4297C62.5573 89.4355 63.0905 89.8223 63.0964 90.4023C63.0905 90.915 62.6891 91.2783 62.0768 91.3633V91.791C62.5426 91.7676 63.0114 91.7295 63.4421 91.668L63.4889 92.0664C62.3874 92.2598 61.151 92.2715 60.2428 92.2715L60.1842 91.832ZM61.7839 89.8516C61.3092 89.8516 60.9928 90.0625 60.9987 90.4023C60.9928 90.7539 61.3092 90.9766 61.7839 90.9766C62.2526 90.9766 62.569 90.7539 62.569 90.4023C62.569 90.0625 62.2526 89.8516 61.7839 89.8516ZM68.0534 89.6934V90.1387H69.196V89.2539H69.7526V93.0801H69.196V91.7207H68.0534V92.1777H65.6159V89.6934H68.0534ZM66.1667 90.1445V91.7383H67.5085V90.1445H66.1667ZM69.8698 93.9355V94.3867H66.3249V92.7285H66.8874V93.9355H69.8698ZM68.0534 91.2637H69.196V90.5957H68.0534V91.2637ZM76.819 91.8027V92.248H72.026V91.8027H74.153V91.2461H72.6237V89.4883H76.2272V89.9277H73.1745V90.8008H76.2624V91.2461H74.6921V91.8027H76.819ZM74.4167 92.5879C75.5475 92.5879 76.2272 92.9336 76.2272 93.543C76.2272 94.1523 75.5475 94.4922 74.4167 94.498C73.2799 94.4922 72.5944 94.1523 72.5944 93.543C72.5944 92.9336 73.2799 92.5879 74.4167 92.5879ZM74.4167 93.0215C73.6139 93.0215 73.1569 93.209 73.1569 93.543C73.1569 93.877 73.6139 94.0645 74.4167 94.0586C75.2077 94.0645 75.6706 93.877 75.6706 93.543C75.6706 93.209 75.2077 93.0215 74.4167 93.0215ZM79.8073 90.1152V90.5664H77.1999V90.1152H78.2311V89.4004H78.7819V90.1152H79.8073ZM78.5065 90.8828C79.1745 90.8828 79.6432 91.3809 79.6491 92.0898C79.6432 92.8047 79.1745 93.3086 78.5065 93.3086C77.8503 93.3086 77.3639 92.8047 77.3698 92.0898C77.3639 91.3809 77.8503 90.8828 78.5065 90.8828ZM78.5065 91.3457C78.1257 91.3457 77.862 91.6562 77.862 92.0898C77.862 92.5352 78.1257 92.834 78.5065 92.834C78.8815 92.834 79.1569 92.5352 79.1569 92.0898C79.1569 91.6562 78.8815 91.3457 78.5065 91.3457ZM81.7057 89.248V94.498H81.1784V91.8906H80.5749V94.252H80.0475V89.3652H80.5749V91.4336H81.1784V89.248H81.7057ZM86.5221 89.2422V90.8125H87.2839V91.2812H86.5221V93.1035H85.9655V89.2422H86.5221ZM86.7448 93.9355V94.3867H83.194V92.6992H83.7507V93.9355H86.7448ZM83.8737 89.6055C84.6647 89.6055 85.2682 90.1445 85.2741 90.9121C85.2682 91.6738 84.6647 92.2188 83.8737 92.2188C83.0827 92.2188 82.4733 91.6738 82.4792 90.9121C82.4733 90.1445 83.0827 89.6055 83.8737 89.6055ZM83.8737 90.0918C83.3932 90.0918 83.0182 90.4258 83.0241 90.9121C83.0182 91.3984 83.3932 91.7324 83.8737 91.7324C84.36 91.7324 84.7292 91.3984 84.7292 90.9121C84.7292 90.4258 84.36 90.0918 83.8737 90.0918ZM92.3874 93.4023V93.8711H87.5827V93.4023H89.6979V92.4824H88.1686V90.8125H91.2507V90.0742H88.1569V89.6172H91.8014V91.2578H88.7194V92.0254H91.9245V92.4824H90.2487V93.4023H92.3874ZM96.026 89.7578V94H95.3757V90.4023H95.3522L94.3385 91.0645V90.4492L95.3932 89.7578H96.026ZM97.1042 94V93.5312L98.5749 92.0488C99.0378 91.5625 99.2721 91.293 99.2721 90.9238C99.2721 90.5078 98.9323 90.2383 98.487 90.2383C98.0182 90.2383 97.7135 90.5371 97.7135 90.9883H97.1042C97.0983 90.2148 97.6901 89.6992 98.4987 89.6992C99.319 89.6992 99.8815 90.2148 99.8874 90.9062C99.8815 91.3809 99.6589 91.7559 98.862 92.541L98.0007 93.4141V93.4492H99.9577V94H97.1042ZM100.485 93.1738V92.6523L102.36 89.7578H103.157V92.6289H103.737V93.1738H103.157V94H102.548V93.1738H100.485ZM101.165 92.6289H102.548V90.5254H102.501L101.165 92.5938V92.6289ZM105.846 89.6992C106.626 89.7051 107.446 90.1738 107.446 91.7266C107.446 93.2148 106.807 94.0586 105.788 94.0586C105.008 94.0586 104.458 93.5781 104.358 92.8867H104.997C105.085 93.2441 105.36 93.4961 105.788 93.4961C106.444 93.4961 106.825 92.9219 106.831 91.9551H106.778C106.549 92.3125 106.151 92.5293 105.694 92.5293C104.932 92.5293 104.323 91.9492 104.323 91.1348C104.323 90.3262 104.926 89.6934 105.846 89.6992ZM105.846 90.2383C105.331 90.2383 104.95 90.6367 104.95 91.123C104.95 91.6152 105.319 92.002 105.835 92.002C106.344 92.002 106.743 91.5859 106.743 91.1172C106.743 90.6602 106.368 90.2383 105.846 90.2383Z" fill="black"/>
<path d="M38.541 71.8193V76.4248H37.4248V75.6426H35.623V74.7461H37.4248V73.9814H35.7021C35.2056 75.2471 34.0718 76.1172 32.3096 76.6006L31.8701 75.7129C33.7114 75.2295 34.6123 74.3506 34.7705 73.252H32.3008V72.3555H35.9922C35.9922 72.6147 35.9746 72.8652 35.9395 73.1025H37.4248V71.8193H38.541ZM35.8779 76.5215C37.5039 76.5215 38.5938 77.1455 38.6025 78.1387C38.5938 79.1406 37.5039 79.7734 35.8779 79.7734C34.2344 79.7734 33.1357 79.1406 33.1445 78.1387C33.1357 77.1455 34.2344 76.5215 35.8779 76.5215ZM35.8779 77.4004C34.8672 77.3916 34.2607 77.6465 34.2607 78.1387C34.2607 78.6309 34.8672 78.8857 35.8779 78.8857C36.8711 78.8857 37.4775 78.6309 37.4775 78.1387C37.4775 77.6465 36.8711 77.3916 35.8779 77.4004ZM46.873 76.2227V77.1191H43.7617V79.8086H42.6543V77.1191H39.5781V76.2227H46.873ZM46.2227 72.2324V73.1113H43.8936C44.0034 73.8936 44.8867 74.6802 46.5303 74.8779L46.126 75.7568C44.7197 75.5679 43.7134 74.9658 43.2344 74.1396C42.7422 74.9658 41.7446 75.5679 40.3516 75.7568L39.9385 74.8779C41.5557 74.6802 42.4478 73.8936 42.5752 73.1113H40.2373V72.2324H46.2227ZM53.1572 76.7061C54.8184 76.7061 55.8555 77.2773 55.8555 78.2529C55.8555 79.2461 54.8184 79.8174 53.1572 79.8174C51.4609 79.8174 50.415 79.2461 50.415 78.2529C50.415 77.2773 51.4609 76.7061 53.1572 76.7061ZM53.1572 77.5762C52.1025 77.5762 51.5312 77.7959 51.54 78.2529C51.5312 78.71 52.1025 78.9473 53.1572 78.9473C54.1943 78.9473 54.748 78.71 54.748 78.2529C54.748 77.7959 54.1943 77.5762 53.1572 77.5762ZM55.7764 71.8105V73.665H56.8574V74.6055H55.7764V76.5303H54.6514V71.8105H55.7764ZM50.7842 72.3115V73.3223H52.4189V72.3115H53.5439V76.0732H49.668V72.3115H50.7842ZM50.7842 75.1855H52.4189V74.1924H50.7842V75.1855ZM64.2051 71.8105V79.8086H63.124V71.8105H64.2051ZM62.5879 71.9688V79.4307H61.542V76.5215H60.7598V75.6074H61.542V74.9307H60.7598V74.0166H61.542V71.9688H62.5879ZM60.9355 72.6982V73.6035H60.4258V76.9961C60.6455 76.9785 60.8564 76.9565 61.0498 76.9346L61.1289 77.7695C59.9072 77.9805 58.2725 78.0156 57.2441 78.0156L57.1211 77.0928L57.7891 77.084V73.6035H57.2705V72.6982H60.9355ZM58.7822 77.0752L59.415 77.0488V73.6035H58.7822V77.0752ZM72.2822 74.9834V75.8711H69.1885V76.3809H71.3945V78.4287H66.9385V78.9121H71.6055V79.7559H65.8398V77.6377H70.2871V77.2246H65.8311V76.3809H68.0635V75.8711H64.9873V74.9834H72.2822ZM71.3594 72.0391V74.5615H65.8926V72.0391H71.3594ZM66.9912 72.9092V73.7002H70.2432V72.9092H66.9912ZM81.5986 71.8105V79.8262H80.4736V75.7832H79.0322V74.8867H80.4736V71.8105H81.5986ZM77.8369 74.3154C77.8369 75.4756 78.4697 76.7676 79.7793 77.3301L79.1816 78.1914C78.272 77.8135 77.6392 77.0488 77.292 76.1348C76.9404 77.106 76.312 77.9233 75.3936 78.3145L74.8047 77.4531C76.0879 76.8818 76.7119 75.5195 76.7207 74.3154V74.0078H75.0596V73.1113H76.7207V71.9863H77.8457V73.1113H79.4629V74.0078H77.8369V74.3154ZM89.3242 71.8105V79.8262H88.208V71.8105H89.3242ZM86.8457 72.4785V75.5635H84.209V77.0312C85.4263 77.0269 86.4634 76.9565 87.6367 76.7676L87.7334 77.6729C86.415 77.9014 85.2285 77.9541 83.7695 77.9541H83.0488V74.6758H85.7031V73.3838H83.04V72.4785H86.8457ZM94.9404 72.3467V73.2432H93.3496C93.3584 74.1748 93.9165 75.0757 95.1953 75.4492L94.6592 76.3281C93.7759 76.0601 93.165 75.5239 92.8135 74.834C92.4575 75.6426 91.8071 76.2842 90.8447 76.6006L90.2734 75.7129C91.6006 75.2954 92.1982 74.2583 92.2158 73.2432H90.5811V72.3467H94.9404ZM96.7422 71.8105V73.665H97.8232V74.5791H96.7422V76.5566H95.6172V71.8105H96.7422ZM94.123 76.7148C95.7842 76.7061 96.8213 77.2773 96.8213 78.2529C96.8213 79.2285 95.7842 79.8086 94.123 79.8086C92.4268 79.8086 91.3809 79.2285 91.3809 78.2529C91.3809 77.2773 92.4268 76.7061 94.123 76.7148ZM94.123 77.585C93.0684 77.585 92.4971 77.8047 92.5059 78.2529C92.4971 78.71 93.0684 78.9385 94.123 78.9385C95.1602 78.9385 95.7139 78.71 95.7139 78.2529C95.7139 77.8047 95.1602 77.585 94.123 77.585Z" fill="black"/>
<line x1="11" y1="84.75" x2="117" y2="84.75" stroke="#D6D6D6" stroke-width="0.5"/>
<defs>
<filter id="filter0_d_355_982" x="0.928847" y="0.928847" width="139.597" height="71.2199" filterUnits="userSpaceOnUse" color-interpolation-filters="sRGB">
<feFlood flood-opacity="0" result="BackgroundImageFix"/>
<feColorMatrix in="SourceAlpha" type="matrix" values="0 0 0 0 0 0 0 0 0 0 0 0 0 0 0 0 0 0 127 0" result="hardAlpha"/>
<feOffset/>
<feGaussianBlur stdDeviation="6.03558"/>
<feComposite in2="hardAlpha" operator="out"/>
<feColorMatrix type="matrix" values="0 0 0 0 0 0 0 0 0 0 0 0 0 0 0 0 0 0 0.5 0"/>
<feBlend mode="normal" in2="BackgroundImageFix" result="effect1_dropShadow_355_982"/>
<feBlend mode="normal" in="SourceGraphic" in2="effect1_dropShadow_355_982" result="shape"/>
</filter>
</defs>
</svg>
