<svg width="17" height="10" viewBox="0 0 14.5 10" fill="none" xmlns="http://www.w3.org/2000/svg">
<path d="M16.111 1.65923C16.1116 1.87269 16.0737 2.0836 16 2.27646C15.9263 2.46932 15.8188 2.63924 15.6853 2.77372L8.78117 9.67496C8.57527 9.88511 8.31701 10 8.05048 10C7.78396 10 7.52569 9.88511 7.3198 9.67496L0.415688 2.53082C0.180699 2.28829 0.0329225 1.93978 0.00486912 1.56196C-0.0231843 1.18414 0.0707829 0.807958 0.266098 0.516167C0.461414 0.224376 0.742079 0.0408802 1.04635 0.00604534C1.35062 -0.0287886 1.65358 0.0878916 1.88856 0.330419L8.05624 6.71728L14.2239 0.544744C14.3928 0.370022 14.5985 0.259035 14.8166 0.224916C15.0347 0.190796 15.2561 0.23497 15.4547 0.352214C15.6532 0.469458 15.8205 0.654862 15.9368 0.886491C16.0531 1.11812 16.1136 1.38628 16.111 1.65923Z" fill="black"/>
</svg>
