<svg width="10" height="17" viewBox="0 0 10 17" fill="none" xmlns="http://www.w3.org/2000/svg">
<path d="M8.34077 16.111C8.12731 16.1116 7.9164 16.0737 7.72354 16C7.53068 15.9263 7.36076 15.8188 7.22628 15.6853L0.325041 8.78117C0.114887 8.57527 0 8.31701 0 8.05048C0 7.78396 0.114887 7.52569 0.325041 7.3198L7.46918 0.415688C7.71171 0.180699 8.06022 0.0329225 8.43804 0.00486912C8.81586 -0.0231843 9.19204 0.0707829 9.48383 0.266098C9.77562 0.461414 9.95912 0.742079 9.99395 1.04635C10.0288 1.35062 9.91211 1.65358 9.66958 1.88856L3.28272 8.05624L9.45526 14.2239C9.62998 14.3928 9.74096 14.5985 9.77508 14.8166C9.8092 15.0347 9.76503 15.2561 9.64779 15.4547C9.53054 15.6532 9.34514 15.8205 9.11351 15.9368C8.88188 16.0531 8.61372 16.1136 8.34077 16.111Z" fill="white"/>
</svg>
