<svg width="21" height="14" viewBox="0 0 21 14" fill="none" xmlns="http://www.w3.org/2000/svg">
<path d="M1.13328 13.8H19.2666C19.8899 13.8 20.4 13.29 20.4 12.6666C20.4 12.0433 19.8899 11.5333 19.2666 11.5333H1.13328C0.509947 11.5333 -5.34058e-05 12.0433 -5.34058e-05 12.6666C-5.34058e-05 13.29 0.509947 13.8 1.13328 13.8ZM1.13328 8.13329H19.2666C19.8899 8.13329 20.4 7.62329 20.4 6.99995C20.4 6.37662 19.8899 5.86662 19.2666 5.86662H1.13328C0.509947 5.86662 -5.34058e-05 6.37662 -5.34058e-05 6.99995C-5.34058e-05 7.62329 0.509947 8.13329 1.13328 8.13329ZM-5.34058e-05 1.33328C-5.34058e-05 1.95662 0.509947 2.46662 1.13328 2.46662H19.2666C19.8899 2.46662 20.4 1.95662 20.4 1.33328C20.4 0.709951 19.8899 0.199951 19.2666 0.199951H1.13328C0.509947 0.199951 -5.34058e-05 0.709951 -5.34058e-05 1.33328Z" fill="white"/>
</svg>
