<svg width="157" height="175" viewBox="0 0 157 175" fill="none" xmlns="http://www.w3.org/2000/svg">
<g filter="url(#filter0_d_543_152)">
<path d="M52.1988 28.0299V32.0697H51.0032V28.9738H44.5596V28.0299H52.1988ZM52.1988 20.7935V27.4384H51.0032V25.8905H48.2219C47.6996 26.5071 46.8753 26.8784 45.9188 26.8721C44.2198 26.8847 42.9613 25.752 42.9613 24.1411C42.9613 22.5554 44.2198 21.4102 45.9188 21.4228C46.8753 21.4165 47.6933 21.7877 48.2219 22.4044H51.0032V20.7935H52.1988ZM45.9188 22.4296C44.8617 22.4296 44.1066 23.1343 44.1066 24.1411C44.1066 25.1731 44.8617 25.8653 45.9188 25.8653C46.9382 25.8653 47.7059 25.1731 47.7059 24.1411C47.7059 23.1343 46.9382 22.4296 45.9188 22.4296ZM48.7505 24.9088H51.0032V23.386H48.7505C48.8134 23.6252 48.8511 23.8769 48.8511 24.1411C48.8511 24.4117 48.8134 24.6697 48.7505 24.9088ZM57.8494 23.6629C57.8369 25.6639 58.9947 27.7027 60.6811 28.5207L59.9386 29.4772C58.7115 28.8417 57.7613 27.5769 57.2705 26.0667C56.7608 27.6775 55.7729 29.0241 54.4892 29.6912L53.7467 28.7221C55.4835 27.8915 56.6539 25.7269 56.6539 23.6629V21.7374H57.8494V23.6629ZM62.7199 20.7935V25.2864H64.5321V26.3058H62.7199V32.0697H61.5243V20.7935H62.7199ZM68.7481 21.599C70.5352 21.5864 71.8063 22.6939 71.8188 24.2796C71.8063 25.8653 70.5352 26.9728 68.7481 26.9728C66.9736 26.9728 65.6648 25.8653 65.6773 24.2796C65.6648 22.6939 66.9736 21.5864 68.7481 21.599ZM68.7481 22.6309C67.6532 22.6309 66.8477 23.2854 66.8603 24.2796C66.8477 25.2738 67.6532 25.9282 68.7481 25.9282C69.843 25.9282 70.6484 25.2738 70.6484 24.2796C70.6484 23.2854 69.843 22.6309 68.7481 22.6309ZM74.3988 20.7935V32.0949H73.2032V20.7935H74.3988ZM65.1362 28.6718C67.1875 28.6718 70.0318 28.6466 72.4984 28.2942L72.5865 29.1626C70.0318 29.6534 67.3008 29.666 65.2872 29.666L65.1362 28.6718ZM89.6393 26.0163V26.9854H85.0835V28.0677C87.1537 28.1809 88.3808 28.8794 88.3808 30.0561C88.3808 31.3398 86.9209 32.0571 84.492 32.0446C82.0379 32.0571 80.578 31.3398 80.578 30.0561C80.578 28.8794 81.8051 28.1809 83.9005 28.0677V26.9854H79.3573V26.0163H89.6393ZM84.492 28.9738C82.7678 28.9738 81.7862 29.3639 81.7862 30.0561C81.7862 30.7357 82.7678 31.1384 84.492 31.1259C86.191 31.1384 87.1852 30.7357 87.1852 30.0561C87.1852 29.3639 86.191 28.9738 84.492 28.9738ZM88.7206 21.3095V22.266H85.2974C85.4673 23.3546 87.053 24.2796 89.1107 24.4809L88.6828 25.4248C86.7321 25.1983 85.1149 24.374 84.5046 23.1721C83.8753 24.374 82.2644 25.1983 80.3138 25.4248L79.8984 24.4809C81.9246 24.2796 83.5166 23.3546 83.6865 22.266H80.3012V21.3095H88.7206ZM99.8457 20.8061V27.1867H98.6502V20.8061H99.8457ZM99.8457 27.7908V31.9313H92.4332V27.7908H99.8457ZM93.6161 28.7473V30.9622H98.6753V28.7473H93.6161ZM94.5978 22.3289C94.5852 23.8517 95.6801 25.2235 97.3917 25.8024L96.8002 26.7211C95.4913 26.2869 94.5097 25.3934 93.9937 24.2292C93.4903 25.4689 92.4898 26.4568 91.1369 26.935L90.5454 25.9912C92.3073 25.3997 93.377 23.902 93.377 22.3289V21.234H94.5978V22.3289ZM105.786 24.116C105.786 26.0037 107.019 27.9544 108.756 28.6969L108.102 29.6282C106.774 29.043 105.717 27.8034 105.194 26.2932C104.672 27.9041 103.609 29.2758 102.3 29.9177L101.608 28.9738C103.307 28.1809 104.565 26.0541 104.578 24.116V22.9204H101.998V21.9262H108.353V22.9204H105.786V24.116ZM110.971 20.7935V32.0697H109.775V20.7935H110.971ZM114.797 30.1316L113.79 33.6051H112.72L113.387 30.1316H114.797ZM29.9358 36.7626V38.1343C29.9358 39.7075 29.9358 41.268 29.5205 43.634L27.897 43.4956C28.3249 41.2932 28.3249 39.6571 28.3375 38.1343V38.0462H21.8562V36.7626H29.9358ZM31.2195 44.3388V45.6602H20.7739V44.3388H31.2195ZM41.514 35.7054V47.183H39.9157V35.7054H41.514ZM37.9651 36.6619V41.0792H34.1896V43.1809C35.9326 43.1747 37.4176 43.074 39.0977 42.8034L39.2362 44.0997C37.3484 44.4269 35.6494 44.5024 33.5603 44.5024H32.5283V39.8082H36.329V37.9582H32.5157V36.6619H37.9651ZM52.4882 36.6996V37.782C52.4882 39.2167 52.4882 40.8275 52.0226 43.2565L50.4117 43.0929C50.8459 40.9282 50.8647 39.3173 50.8773 37.9707H44.1317V36.6996H52.4882ZM53.495 44.452V45.7609H43.0494V44.452H46.7872V40.5129H48.3855V44.452H53.495ZM66.2437 35.718V38.235H67.7916V39.5313H66.2437V42.0735H64.6328V35.718H66.2437ZM66.4576 42.5769V43.8354H65.0733V45.698H66.596V46.9816H58.6171V45.698H60.1147V43.8354H58.7052V42.5769H66.4576ZM60.379 36.2843C62.1535 36.2843 63.5001 37.4296 63.5001 39.0531C63.5001 40.6514 62.1535 41.784 60.379 41.784C58.592 41.784 57.2328 40.6514 57.2328 39.0531C57.2328 37.4296 58.592 36.2843 60.379 36.2843ZM60.379 37.6309C59.4855 37.6309 58.8059 38.1469 58.8185 39.0531C58.8059 39.9214 59.4855 40.45 60.379 40.45C61.26 40.45 61.927 39.9214 61.9396 39.0531C61.927 38.1469 61.26 37.6309 60.379 37.6309ZM61.6879 45.698H63.5001V43.8354H61.6879V45.698ZM73.5178 36.2843C75.9342 36.2969 77.8219 37.5932 77.8345 39.5816C77.8219 41.5826 75.9342 42.8915 73.5178 42.8789C71.0889 42.8915 69.2137 41.5826 69.2137 39.5816C69.2137 37.5932 71.0889 36.2969 73.5178 36.2843ZM73.5178 37.5932C71.9321 37.5806 70.7743 38.3483 70.7743 39.5816C70.7743 40.8275 71.9321 41.5701 73.5178 41.5701C75.1035 41.5701 76.2362 40.8275 76.2488 39.5816C76.2362 38.3483 75.1035 37.5806 73.5178 37.5932ZM78.7784 44.4646V45.7609H68.295V44.4646H78.7784ZM89.9161 44.5653V45.8867H79.4328V44.5653H83.8502V42.8412H80.641V38.9901H87.1223V37.7316H80.6284V36.4479H88.708V40.2486H82.2518V41.5323H88.9723V42.8412H85.4485V44.5653H89.9161ZM94.2832 36.4731C96.0954 36.4605 97.4546 37.6435 97.4546 39.2796C97.4546 40.9282 96.0954 42.0986 94.2832 42.0986C92.4709 42.0986 91.0991 40.9282 91.0991 39.2796C91.0991 37.6435 92.4709 36.4605 94.2832 36.4731ZM94.2832 37.8575C93.377 37.8575 92.6849 38.386 92.6974 39.2796C92.6849 40.1857 93.377 40.7017 94.2832 40.7017C95.1893 40.7017 95.8815 40.1857 95.894 39.2796C95.8815 38.386 95.2019 37.8575 94.2832 37.8575ZM100.198 35.7054V47.183H98.5998V35.7054H100.198ZM90.6209 43.5333C92.6597 43.5459 95.4913 43.5082 97.9454 43.1684L98.0713 44.3262C95.5291 44.817 92.8107 44.8422 90.8097 44.8422L90.6209 43.5333ZM106.617 36.2214V37.5806H108.957V36.2214H110.568V41.2177H105.018V36.2214H106.617ZM106.617 39.9592H108.957V38.7888H106.617V39.9592ZM113.765 35.7054V37.933H115.313V39.2292H113.765V41.5323H112.154V35.7054H113.765ZM113.765 41.9602V45.0687H107.762V45.8112H114.092V47.0823H106.189V43.9235H112.167V43.2061H106.163V41.9602H113.765ZM125.469 35.718V44.0745H123.871V39.9718H121.995V38.6755H123.871V35.718H125.469ZM125.746 45.6728V46.9565H117.868V43.3446H119.478V45.6728H125.746ZM120.145 37.9582C120.145 39.2796 120.951 40.7017 122.776 41.2932L121.983 42.5643C120.712 42.1553 119.843 41.3184 119.34 40.2738C118.837 41.4316 117.924 42.3503 116.571 42.8034L115.753 41.4946C117.641 40.9031 118.497 39.4054 118.509 37.9456V37.7694H116.206V36.4857H122.423V37.7694H120.145V37.9582ZM131.396 38.8265C131.396 40.6765 132.34 42.6524 134.266 43.4578L133.397 44.7163C132.045 44.1437 131.113 43.0048 130.604 41.6078C130.081 43.1243 129.131 44.3828 127.785 45.0058L126.866 43.7347C128.766 42.8915 129.748 40.7646 129.748 38.8265V38.1218H127.319V36.8129H133.788V38.1218H131.396V38.8265ZM136.544 35.7054V47.1578H134.92V35.7054H136.544Z" fill="white"/>
</g>
<path d="M56.0483 154.784V162.496H54.9075V160.763H51.4995V159.824H54.9075V158.091H51.6294C50.7847 160.156 48.7991 161.651 46.0553 162.467L45.5788 161.571C48.6835 160.647 50.6114 158.914 50.8496 156.691H46.2286V155.737H52.0771C52.0771 156.243 52.0193 156.727 51.9182 157.182H54.9075V154.784H56.0483ZM51.846 162.626C54.4454 162.626 56.1205 163.55 56.1205 165.081C56.1205 166.626 54.4454 167.55 51.846 167.55C49.2178 167.55 47.5572 166.626 47.5572 165.081C47.5572 163.55 49.2178 162.626 51.846 162.626ZM51.846 163.535C49.911 163.521 48.6691 164.113 48.6691 165.081C48.6691 166.048 49.911 166.626 51.846 166.626C53.7522 166.626 54.9797 166.048 54.9941 165.081C54.9797 164.113 53.7522 163.521 51.846 163.535ZM120.338 156.589C120.324 158.308 122.62 159.766 124.858 160.099L124.439 160.994C122.432 160.655 120.482 159.586 119.703 158.034C118.923 159.586 116.966 160.655 114.995 160.994L114.547 160.099C116.771 159.766 119.067 158.308 119.067 156.589V156.503H114.952V155.579H124.439V156.503H120.338V156.589ZM125.551 162.091V163.03H120.237V167.608H119.125V163.03H113.854V162.091H125.551Z" fill="white" fill-opacity="0.65"/>
<path d="M64.9607 88.0885V92.6061H69.7442L72.3352 89.6829C72.6452 89.4172 72.911 89.3065 73.1324 89.3508C73.3539 89.3951 73.5532 89.4615 73.7304 89.5501C74.2176 89.8601 74.7712 90.2366 75.3913 90.6795C76.0556 91.1224 76.6093 91.521 77.0522 91.8753C77.4951 92.1854 77.8937 92.5619 78.248 93.0048C78.6467 93.4034 78.846 93.7356 78.846 94.0013C78.846 94.2228 78.7352 94.4442 78.5138 94.6657C78.2923 94.8871 78.0709 95.0643 77.8494 95.1972C77.6723 95.33 77.4729 95.4851 77.2515 95.6622C77.0743 95.7951 76.9193 95.9058 76.7864 95.9944V97.7882C76.7864 98.1868 76.8086 98.6297 76.8529 99.1169C76.9415 99.6041 77.0079 100.069 77.0522 100.512C77.1408 101.088 76.6093 101.619 75.4577 102.107C74.3504 102.594 73.3539 102.837 72.4681 102.837C71.8923 102.837 71.3829 102.749 70.94 102.572C70.4971 102.35 70.2757 101.907 70.2757 101.243V101.11H38.2532V104.631H74.129C74.4833 104.188 74.9041 103.723 75.3913 103.236C75.8785 102.705 76.2549 102.284 76.5207 101.974C76.7421 101.797 76.9193 101.708 77.0522 101.708C77.2293 101.664 77.4508 101.708 77.7165 101.841C78.1595 102.151 78.6245 102.527 79.1117 102.97C79.6432 103.369 80.1526 103.79 80.6398 104.233C81.2598 104.808 81.8135 105.406 82.3007 106.026C82.7879 106.646 83.0315 107.134 83.0315 107.488C83.0315 107.842 82.8765 108.086 82.5664 108.219C82.2564 108.352 81.9463 108.462 81.6363 108.551C81.3263 108.595 80.9719 108.64 80.5733 108.684C80.1747 108.728 79.8425 108.772 79.5768 108.817C79.0896 108.95 78.5581 109.127 77.9823 109.348C77.4065 109.57 76.9193 109.769 76.5207 109.946C76.2992 110.035 76.0556 110.145 75.7899 110.278C75.5684 110.367 75.347 110.478 75.1255 110.61C75.2141 110.655 75.3248 110.721 75.4577 110.81C75.5906 110.854 75.7013 110.92 75.7899 111.009C76.1885 111.275 76.565 111.541 76.9193 111.806C77.2736 112.028 77.5837 112.271 77.8494 112.537C78.2037 112.891 78.5138 113.357 78.7795 113.932C79.0896 114.464 79.2446 114.973 79.2446 115.46C79.2446 116.036 79.1339 116.568 78.9124 117.055C78.7352 117.542 78.4916 117.963 78.1816 118.317C77.8716 118.671 77.4729 118.937 76.9857 119.114C76.5428 119.291 76.1442 119.38 75.7899 119.38C75.3913 119.38 75.0148 119.291 74.6605 119.114C74.3061 118.937 74.0182 118.716 73.7968 118.45C73.6639 118.273 73.531 118.051 73.3982 117.786C73.2653 117.476 73.1546 117.099 73.066 116.656C72.9774 116.213 72.8667 115.77 72.7338 115.327C72.6452 114.885 72.5123 114.353 72.3352 113.733C72.2466 113.379 72.1137 113.002 71.9366 112.604C71.8037 112.205 71.6487 111.784 71.4715 111.341C71.2943 110.943 71.0507 110.544 70.7407 110.145C70.4307 109.747 70.1649 109.415 69.9435 109.149C69.7663 108.927 69.7442 108.728 69.877 108.551C70.0099 108.374 70.2314 108.329 70.5414 108.418C70.8514 108.507 71.2279 108.662 71.6708 108.883C72.1137 109.06 72.4902 109.237 72.8002 109.415C72.8888 109.459 72.9553 109.503 72.9996 109.547C73.0881 109.547 73.1546 109.592 73.1989 109.68C73.4203 109.105 73.6196 108.551 73.7968 108.019C73.974 107.444 74.1511 106.824 74.3283 106.159H38.2532C38.2532 107.311 38.1868 108.883 38.0539 110.876C37.9653 112.869 37.8546 114.464 37.7217 115.66C37.5889 117.033 37.3896 118.428 37.1238 119.845C36.9024 121.218 36.6809 122.325 36.4594 123.167C36.1937 124.319 35.9058 125.404 35.5958 126.422C35.2857 127.441 34.9535 128.371 34.5992 129.213C34.1563 130.32 33.7134 131.317 33.2705 132.202C32.8276 133.088 32.3625 133.93 31.8753 134.727C31.4324 135.436 30.9452 136.233 30.4137 137.119C29.8822 138.004 29.395 138.735 28.9521 139.311C28.6864 139.533 28.4428 139.577 28.2213 139.444C28.0441 139.355 27.9777 139.156 28.022 138.846C28.2435 138.226 28.4649 137.473 28.6864 136.587C28.9521 135.746 29.1736 134.993 29.3507 134.328C29.5722 133.708 29.7494 133.022 29.8822 132.269C30.0594 131.516 30.2366 130.763 30.4137 130.01C30.5466 129.39 30.6795 128.637 30.8123 127.751C30.9452 126.865 31.0781 125.979 31.211 125.094C31.2995 124.341 31.3881 123.455 31.4767 122.436C31.6096 121.373 31.6982 120.354 31.7424 119.38C31.831 118.273 31.8975 116.789 31.9418 114.929C31.986 113.024 32.0082 111.186 32.0082 109.415V91.4103C32.0082 89.9487 31.9418 88.4649 31.8089 86.959C31.7203 85.4531 31.6096 84.213 31.4767 83.2386C32.9383 83.7701 34.2449 84.3016 35.3965 84.8331C36.5923 85.3203 37.6996 85.8739 38.7183 86.494H54.4638C54.3309 86.3611 54.2202 86.2282 54.1316 86.0954C54.043 85.9182 53.9544 85.741 53.8658 85.5639C53.7772 85.2095 53.6887 84.8995 53.6001 84.6338C53.5558 84.3237 53.4893 84.0137 53.4008 83.7036C53.3565 83.3493 53.2679 83.0171 53.135 82.7071C53.0464 82.3528 52.9357 81.9763 52.8028 81.5777C52.67 81.1791 52.4707 80.8247 52.2049 80.5147C51.9835 80.2047 51.7177 79.9389 51.4077 79.7175C51.2305 79.496 51.1419 79.2967 51.1419 79.1195C51.1862 78.8981 51.4298 78.7873 51.8727 78.7873C52.2271 78.8316 52.67 78.8759 53.2015 78.9202C53.7772 78.9645 54.2423 79.0088 54.5966 79.0531C55.1724 79.0974 55.7703 79.186 56.3904 79.3188C57.0548 79.4517 57.6084 79.5846 58.0513 79.7175C58.6714 79.8946 59.225 80.2047 59.7122 80.6476C60.1994 81.0462 60.5095 81.4448 60.6424 81.8434C60.8638 82.5521 60.9081 83.2386 60.7752 83.903C60.6424 84.523 60.3987 85.0545 60.0444 85.4974C59.8673 85.6746 59.6901 85.8518 59.5129 86.0289C59.3358 86.2061 59.1365 86.3611 58.915 86.494H71.1393C71.6265 85.8739 72.2023 85.121 72.8667 84.2351C73.531 83.3493 74.1511 82.5521 74.7269 81.8434C74.9484 81.622 75.1477 81.5112 75.3248 81.5112C75.5463 81.5112 75.7677 81.5777 75.9892 81.7106C76.5207 82.1092 77.0079 82.4856 77.4508 82.84C77.8937 83.1943 78.3588 83.5929 78.846 84.0358C79.466 84.5673 79.9532 85.0324 80.3076 85.431C80.7062 85.8296 81.0605 86.2061 81.3706 86.5604C81.7249 87.0033 81.8135 87.3798 81.6363 87.6898C81.4591 87.9556 81.127 88.0885 80.6398 88.0885H64.9607ZM52.3378 88.0885V92.6061H58.5828V88.0885H52.3378ZM45.9599 88.0885H38.2532V92.6061H45.9599V88.0885ZM64.9607 99.582H70.2757V94.1342H64.9607V99.582ZM45.9599 99.582V94.1342H38.2532V99.582H45.9599ZM52.3378 99.582H58.5828V94.1342H52.3378V99.582ZM56.4568 106.691C56.7226 106.735 57.1212 106.801 57.6527 106.89C58.2285 106.979 58.7378 107.067 59.1807 107.156C59.6679 107.244 60.1994 107.377 60.7752 107.554C61.3953 107.732 61.8604 107.909 62.1704 108.086C62.569 108.307 62.9455 108.617 63.2998 109.016C63.6541 109.415 63.8313 109.902 63.8313 110.478C63.8313 110.965 63.7649 111.408 63.632 111.806C63.4991 112.205 63.2777 112.559 62.9676 112.869C62.6576 113.179 62.3033 113.423 61.9046 113.6C61.506 113.777 61.0853 113.866 60.6424 113.866C60.1994 113.866 59.823 113.711 59.5129 113.401C59.2029 113.091 58.9593 112.736 58.7821 112.338C58.6935 112.116 58.5828 111.828 58.4499 111.474C58.3614 111.12 58.2285 110.743 58.0513 110.345C57.9185 109.99 57.7856 109.68 57.6527 109.415C57.5198 109.149 57.3648 108.883 57.1877 108.617C57.0548 108.396 56.8776 108.197 56.6562 108.019C56.479 107.798 56.3018 107.599 56.1247 107.422C55.9475 107.289 55.8811 107.134 55.9254 106.956C55.9696 106.779 56.1468 106.691 56.4568 106.691ZM45.3619 114.464C45.3177 115.04 45.1848 115.66 44.9633 116.324C44.7419 116.944 44.3875 117.498 43.9003 117.985C43.4574 118.472 42.9481 118.826 42.3723 119.048C41.7965 119.225 41.3315 119.314 40.9771 119.314C40.6671 119.314 40.3128 119.225 39.9141 119.048C39.5598 118.871 39.2719 118.627 39.0505 118.317C38.8733 118.051 38.6961 117.719 38.519 117.321C38.3418 116.922 38.2532 116.545 38.2532 116.191C38.2532 115.704 38.3861 115.283 38.6519 114.929C38.9619 114.575 39.2719 114.264 39.582 113.999C39.8034 113.777 40.0692 113.556 40.3792 113.334C40.7335 113.113 41.0657 112.847 41.3757 112.537C41.6858 112.271 41.9737 111.983 42.2394 111.673C42.5052 111.363 42.7266 111.053 42.9038 110.743C43.081 110.389 43.236 110.013 43.3688 109.614C43.5017 109.171 43.5903 108.75 43.6346 108.352C43.7232 108.086 43.856 107.953 44.0332 107.953C44.2104 107.953 44.3654 108.064 44.4983 108.285C44.6311 108.728 44.7419 109.193 44.8304 109.68C44.9633 110.168 45.0519 110.588 45.0962 110.943C45.1848 111.43 45.2734 112.006 45.3619 112.67C45.4505 113.334 45.4505 113.932 45.3619 114.464ZM54.2644 122.901H65.8244C66.223 122.414 66.6659 121.949 67.1531 121.506C67.6403 121.063 68.0611 120.687 68.4154 120.377C68.6369 120.199 68.814 120.133 68.9469 120.177C69.1241 120.177 69.3234 120.222 69.5448 120.31C70.0321 120.665 70.5414 121.041 71.0729 121.44C71.6044 121.838 72.1359 122.281 72.6674 122.768C73.0217 123.078 73.4868 123.521 74.0625 124.097C74.6383 124.673 74.9262 125.138 74.9262 125.492C74.9262 125.758 74.7933 125.979 74.5276 126.157C74.3061 126.334 74.0625 126.489 73.7968 126.622C73.531 126.71 73.221 126.821 72.8667 126.954C72.5566 127.087 72.2687 127.197 72.003 127.286C71.4715 127.729 70.8514 128.216 70.1428 128.748C69.4341 129.235 68.7033 129.722 67.9504 130.209C67.6403 130.431 67.286 130.674 66.8874 130.94C66.4888 131.161 66.068 131.383 65.6251 131.604C65.9794 131.604 66.3116 131.627 66.6216 131.671C66.976 131.671 67.3082 131.693 67.6182 131.737C68.7698 131.826 70.1871 131.914 71.8701 132.003C73.5975 132.092 74.9484 132.158 75.9228 132.202C76.9415 132.247 78.0044 132.269 79.1117 132.269C80.2633 132.224 81.2598 132.224 82.1014 132.269C82.3671 132.313 82.4778 132.468 82.4335 132.734C82.4335 133 82.3228 133.199 82.1014 133.332C81.6584 133.598 81.2155 133.885 80.7726 134.195C80.3297 134.55 79.9754 134.904 79.7096 135.258C79.3996 135.613 79.1339 135.989 78.9124 136.388C78.6909 136.786 78.4916 137.185 78.3145 137.584C78.2259 137.849 78.1152 138.182 77.9823 138.58C77.8937 138.979 77.8051 139.355 77.7165 139.71C76.9636 139.621 76.0335 139.466 74.9262 139.245C73.8189 139.067 72.7559 138.89 71.7373 138.713C70.6743 138.492 69.5006 138.226 68.2161 137.916C66.9317 137.606 65.6694 137.274 64.4292 136.919C63.5877 136.698 62.6576 136.388 61.6389 135.989C60.6202 135.635 59.6015 135.281 58.5828 134.926C58.2728 134.971 57.9849 135.037 57.7191 135.126C57.4534 135.214 57.2098 135.303 56.9883 135.391C55.7039 135.834 54.3087 136.233 52.8028 136.587C51.3412 136.986 50.0789 137.296 49.016 137.517C47.8644 137.783 46.5357 138.027 45.0298 138.248C43.5239 138.514 42.2616 138.713 41.2429 138.846C40.3128 138.979 39.1612 139.112 37.7882 139.245C36.4152 139.377 35.2857 139.488 34.3999 139.577C33.957 139.533 33.7355 139.355 33.7355 139.045C33.7798 138.78 33.957 138.602 34.267 138.514C35.1529 138.337 36.1051 138.115 37.1238 137.849C38.1868 137.628 39.1612 137.384 40.047 137.119C40.9328 136.853 41.9515 136.521 43.1031 136.122C44.2547 135.768 45.2734 135.436 46.1592 135.126C46.9564 134.816 47.9308 134.439 49.0824 133.996C50.234 133.553 51.2748 133.132 52.2049 132.734C52.3821 132.645 52.5371 132.579 52.67 132.535C52.8471 132.446 53.0243 132.38 53.2015 132.335C52.67 132.025 52.1385 131.737 51.607 131.472C51.1198 131.161 50.6547 130.851 50.2118 130.541C49.7689 130.231 49.2817 129.877 48.7502 129.478C48.2187 129.08 47.6651 128.659 47.0893 128.216C46.3806 128.526 45.6498 128.881 44.8969 129.279C44.1882 129.633 43.546 129.921 42.9702 130.143C42.0401 130.541 40.955 130.962 39.7148 131.405C38.519 131.848 37.5667 132.18 36.8581 132.402C36.4594 132.446 36.1937 132.38 36.0608 132.202C35.9722 132.025 36.0387 131.826 36.2601 131.604C36.8359 131.25 37.5446 130.785 38.3861 130.209C39.2276 129.589 40.0027 129.013 40.7114 128.482C41.2872 128.039 41.863 127.574 42.4387 127.087C43.0588 126.555 43.6567 126.024 44.2325 125.492C43.7896 124.961 43.3024 124.385 42.7709 123.765C42.2394 123.101 41.7301 122.458 41.2429 121.838L42.4387 120.975C42.8816 121.462 43.391 121.993 43.9668 122.569C44.5426 123.101 45.1183 123.61 45.6941 124.097C46.2699 123.521 46.7793 122.968 47.2222 122.436C47.7094 121.86 48.1744 121.307 48.6173 120.775C48.7945 120.554 48.9717 120.31 49.1488 120.044C49.3703 119.779 49.5696 119.491 49.7468 119.181C49.7025 119.136 49.6803 119.114 49.6803 119.114C49.6803 119.114 49.6582 119.114 49.6139 119.114C48.7724 118.804 48.1523 118.339 47.7537 117.719C47.355 117.055 47.1557 116.147 47.1557 114.995V111.076C47.1557 110.367 47.1114 109.614 47.0229 108.817C46.9786 108.019 46.9121 107.333 46.8235 106.757C47.5765 106.801 48.5952 106.912 49.8796 107.089C51.2084 107.266 52.2271 107.422 52.9357 107.554C53.4672 107.599 53.9544 107.709 54.3973 107.887C54.8402 108.064 55.0617 108.329 55.0617 108.684C55.0617 108.861 54.951 109.038 54.7295 109.215C54.5523 109.392 54.353 109.57 54.1316 109.747C53.9987 109.88 53.8658 109.99 53.7329 110.079C53.6001 110.168 53.4229 110.3 53.2015 110.478V113.002C53.2015 113.711 53.4008 114.176 53.7994 114.397C54.2423 114.575 54.7959 114.663 55.4603 114.663H61.9046C62.1704 114.663 62.6133 114.641 63.2334 114.597C63.8535 114.552 64.2521 114.508 64.4292 114.464C64.695 114.375 64.9386 114.264 65.16 114.132C65.4258 113.954 65.6251 113.733 65.758 113.467C65.8908 113.201 66.0459 112.869 66.223 112.471C66.4002 112.028 66.5331 111.673 66.6216 111.408C66.7102 111.142 66.821 110.81 66.9538 110.411C67.0867 110.013 67.2196 109.636 67.3524 109.282C67.441 109.06 67.596 108.972 67.8175 109.016C68.039 109.06 68.1718 109.193 68.2161 109.415C68.2161 109.725 68.2161 110.079 68.2161 110.478C68.2161 110.832 68.2383 111.12 68.2826 111.341C68.3268 111.607 68.349 111.939 68.349 112.338C68.3933 112.692 68.4376 112.98 68.4819 113.201C68.5262 113.379 68.6147 113.578 68.7476 113.799C68.9248 114.021 69.0798 114.176 69.2127 114.264C69.3898 114.397 69.5448 114.53 69.6777 114.663C69.8549 114.752 70.0321 114.862 70.2092 114.995C70.3421 115.084 70.475 115.217 70.6078 115.394C70.7407 115.571 70.8071 115.77 70.8071 115.992C70.8071 116.435 70.6964 116.855 70.475 117.254C70.2535 117.608 69.9878 117.896 69.6777 118.118C69.2791 118.428 68.814 118.671 68.2826 118.849C67.7954 119.026 67.2417 119.159 66.6216 119.247C66.0459 119.336 65.2929 119.424 64.3628 119.513C63.4327 119.557 62.724 119.579 62.2368 119.579H57.2541C56.7669 120.155 56.2575 120.753 55.726 121.373C55.1946 121.949 54.7074 122.458 54.2644 122.901ZM52.67 124.429C52.1828 124.828 51.6734 125.226 51.1419 125.625C50.6547 125.979 50.1454 126.334 49.6139 126.688C50.234 126.998 50.8319 127.308 51.4077 127.618C52.0277 127.884 52.5149 128.105 52.8693 128.283C53.5336 128.593 54.3087 128.903 55.1946 129.213C56.0804 129.478 56.944 129.744 57.7856 130.01C58.4499 129.611 59.1365 129.191 59.8451 128.748C60.5981 128.26 61.2624 127.818 61.8382 127.419C62.4583 127.02 63.0562 126.577 63.632 126.09C64.2078 125.559 64.8057 125.005 65.4258 124.429H52.67ZM95.1997 97.7882C95.4212 98.364 95.6869 99.0505 95.997 99.8477C96.307 100.601 96.5728 101.309 96.7942 101.974C97.1043 102.815 97.37 103.812 97.5915 104.963C97.8572 106.071 97.9901 106.934 97.9901 107.554C97.9901 108.263 97.9236 108.972 97.7908 109.68C97.6579 110.389 97.5029 110.987 97.3257 111.474C97.1485 111.961 96.9049 112.449 96.5949 112.936C96.2849 113.379 95.9305 113.755 95.5319 114.065C95.089 114.375 94.5797 114.619 94.0039 114.796C93.4281 114.973 92.8745 115.062 92.343 115.062C92.0329 115.062 91.6565 114.973 91.2135 114.796C90.8149 114.575 90.5049 114.331 90.2834 114.065C89.9734 113.711 89.7519 113.312 89.6191 112.869C89.4862 112.382 89.4198 111.939 89.4198 111.541C89.4198 110.92 89.5748 110.345 89.8848 109.813C90.1949 109.282 90.527 108.772 90.8814 108.285C91.1914 107.887 91.5014 107.466 91.8115 107.023C92.1215 106.536 92.4315 106.048 92.7416 105.561C93.0959 104.941 93.3617 104.299 93.5388 103.635C93.7603 102.97 93.8932 102.35 93.9374 101.774C93.9817 101.376 94.0039 100.844 94.0039 100.18C94.0482 99.4713 94.0482 98.7626 94.0039 98.0539C94.0482 97.7439 94.181 97.5446 94.4025 97.456C94.624 97.3674 94.8897 97.4782 95.1997 97.7882ZM106.029 86.1618V107.023C106.029 108.219 105.962 109.813 105.83 111.806C105.697 113.799 105.52 115.438 105.298 116.723C105.121 117.918 104.855 119.203 104.501 120.576C104.147 121.905 103.792 123.012 103.438 123.898C103.039 124.872 102.53 125.957 101.91 127.153C101.334 128.349 100.758 129.368 100.182 130.209C99.6067 131.006 98.9202 131.914 98.1229 132.933C97.3257 133.952 96.6392 134.771 96.0634 135.391C95.3548 136.1 94.624 136.853 93.871 137.65C93.1623 138.447 92.498 139.09 91.8779 139.577C91.5236 139.754 91.2357 139.776 91.0142 139.643C90.8371 139.51 90.8371 139.267 91.0142 138.912C91.3686 138.292 91.8115 137.495 92.343 136.521C92.9187 135.546 93.4502 134.572 93.9374 133.598C94.3804 132.756 94.8233 131.782 95.2662 130.674C95.7534 129.567 96.1963 128.504 96.5949 127.485C96.9049 126.732 97.2371 125.647 97.5915 124.23C97.9901 122.813 98.278 121.55 98.4551 120.443C98.6766 119.247 98.8759 117.719 99.0531 115.859C99.2745 113.999 99.3852 112.116 99.3852 110.212V88.8193C99.3852 87.402 99.3188 85.9846 99.1859 84.5673C99.0973 83.15 98.9866 81.9763 98.8537 81.0462C99.6953 81.1348 100.825 81.3119 102.242 81.5777C103.704 81.7991 104.833 81.9984 105.63 82.1756C106.25 82.3085 106.893 82.4856 107.557 82.7071C108.221 82.9286 108.553 83.2607 108.553 83.7036C108.553 84.0137 108.421 84.3016 108.155 84.5673C107.889 84.7888 107.623 85.0102 107.358 85.2317C107.136 85.4089 106.915 85.586 106.693 85.7632C106.472 85.8961 106.25 86.0289 106.029 86.1618ZM107.623 98.6519C107.978 98.9619 108.376 99.3384 108.819 99.7813C109.262 100.18 109.683 100.579 110.082 100.977C110.524 101.42 111.012 101.974 111.543 102.638C112.075 103.258 112.495 103.79 112.805 104.233C113.293 104.941 113.669 105.694 113.935 106.491C114.201 107.244 114.333 107.953 114.333 108.617C114.333 109.415 114.245 110.123 114.068 110.743C113.891 111.319 113.647 111.806 113.337 112.205C113.027 112.648 112.584 113.024 112.008 113.334C111.477 113.6 110.989 113.733 110.547 113.733C110.104 113.733 109.705 113.622 109.351 113.401C109.041 113.179 108.797 112.914 108.62 112.604C108.487 112.382 108.376 112.05 108.288 111.607C108.199 111.12 108.133 110.633 108.088 110.145C108.044 109.658 108.022 109.082 108.022 108.418C108.022 107.709 108.022 107.111 108.022 106.624C108.022 105.96 107.978 105.251 107.889 104.498C107.845 103.701 107.756 102.948 107.623 102.239C107.535 101.664 107.402 101.11 107.225 100.579C107.092 100.047 106.937 99.5598 106.76 99.1169C106.715 98.8069 106.804 98.6297 107.025 98.5854C107.247 98.4969 107.446 98.519 107.623 98.6519ZM131.408 129.013V88.6864C131.408 87.2691 131.341 85.8518 131.208 84.4345C131.12 83.0171 131.009 81.8434 130.876 80.9133C131.718 81.0019 132.869 81.1791 134.331 81.4448C135.837 81.6663 136.988 81.8656 137.786 82.0427C138.406 82.1756 139.048 82.3528 139.712 82.5742C140.377 82.7957 140.709 83.1279 140.709 83.5708C140.709 83.8808 140.576 84.1687 140.31 84.4345C140.044 84.6559 139.779 84.8774 139.513 85.0988C139.291 85.276 139.07 85.4531 138.849 85.6303C138.627 85.7632 138.406 85.8961 138.184 86.0289V127.884C138.184 129.08 138.206 130.652 138.251 132.601C138.339 134.505 138.428 135.967 138.516 136.986C138.605 137.872 137.963 138.536 136.59 138.979C135.261 139.466 134.22 139.71 133.467 139.71C132.98 139.71 132.448 139.599 131.873 139.377C131.297 139.156 131.031 138.735 131.075 138.115C131.164 137.318 131.23 135.945 131.275 133.996C131.363 132.092 131.408 130.431 131.408 129.013ZM122.904 98.8512C123.347 99.1612 123.812 99.5377 124.299 99.9806C124.786 100.379 125.251 100.778 125.694 101.176C126.181 101.575 126.735 102.084 127.355 102.705C127.975 103.28 128.462 103.812 128.817 104.299C129.392 105.008 129.857 105.716 130.212 106.425C130.566 107.134 130.765 107.864 130.81 108.617C130.854 109.415 130.788 110.101 130.61 110.677C130.478 111.208 130.278 111.718 130.012 112.205C129.702 112.781 129.26 113.246 128.684 113.6C128.152 113.91 127.687 114.065 127.289 114.065C126.846 114.065 126.447 113.977 126.093 113.799C125.783 113.622 125.517 113.379 125.295 113.069C125.118 112.803 124.985 112.449 124.897 112.006C124.808 111.563 124.742 111.098 124.698 110.61C124.653 110.123 124.587 109.57 124.498 108.95C124.454 108.285 124.388 107.665 124.299 107.089C124.255 106.425 124.144 105.694 123.967 104.897C123.79 104.1 123.59 103.347 123.369 102.638C123.192 102.062 122.992 101.487 122.771 100.911C122.549 100.291 122.328 99.7813 122.107 99.3827C122.062 99.1169 122.107 98.9398 122.239 98.8512C122.417 98.7183 122.638 98.7183 122.904 98.8512ZM114.931 126.688V91.4767C114.931 90.0594 114.865 88.6421 114.732 87.2248C114.644 85.8075 114.533 84.6338 114.4 83.7036C115.241 83.7922 116.371 83.9694 117.788 84.2351C119.25 84.4566 120.379 84.6559 121.176 84.8331C121.797 84.9659 122.439 85.1431 123.103 85.3646C123.767 85.586 124.1 85.9182 124.1 86.3611C124.1 86.6711 123.967 86.959 123.701 87.2248C123.435 87.4462 123.17 87.6677 122.904 87.8892C122.682 88.0663 122.461 88.2435 122.239 88.4206C122.018 88.5535 121.797 88.6864 121.575 88.8193V125.559C121.575 126.755 121.597 128.327 121.641 130.276C121.73 132.18 121.819 133.642 121.907 134.66C121.996 135.546 121.376 136.211 120.047 136.654C118.763 137.141 117.744 137.384 116.991 137.384C116.504 137.384 115.972 137.274 115.396 137.052C114.821 136.831 114.555 136.41 114.599 135.79C114.688 134.993 114.754 133.642 114.799 131.737C114.887 129.788 114.931 128.105 114.931 126.688Z" fill="white"/>
<defs>
<filter id="filter0_d_543_152" x="0.773926" y="0.793457" width="155.77" height="66.3896" filterUnits="userSpaceOnUse" color-interpolation-filters="sRGB">
<feFlood flood-opacity="0" result="BackgroundImageFix"/>
<feColorMatrix in="SourceAlpha" type="matrix" values="0 0 0 0 0 0 0 0 0 0 0 0 0 0 0 0 0 0 127 0" result="hardAlpha"/>
<feOffset/>
<feGaussianBlur stdDeviation="10"/>
<feComposite in2="hardAlpha" operator="out"/>
<feColorMatrix type="matrix" values="0 0 0 0 0 0 0 0 0 0 0 0 0 0 0 0 0 0 0.5 0"/>
<feBlend mode="normal" in2="BackgroundImageFix" result="effect1_dropShadow_543_152"/>
<feBlend mode="normal" in="SourceGraphic" in2="effect1_dropShadow_543_152" result="shape"/>
</filter>
</defs>
</svg>
