<svg width="10" height="10" viewBox="0 0 10 10" fill="none" xmlns="http://www.w3.org/2000/svg">
<path fill-rule="evenodd" clip-rule="evenodd" d="M4.62731 5.87302L7.74039 8.9861C7.90558 9.1513 8.12963 9.2441 8.36324 9.2441C8.59686 9.2441 8.8209 9.1513 8.98609 8.9861C9.15128 8.82091 9.24409 8.59687 9.24409 8.36325C9.24409 8.12964 9.15128 7.90559 8.98609 7.7404L5.87184 4.62732L8.98551 1.51424C9.06726 1.43244 9.13211 1.33535 9.17634 1.22849C9.22057 1.12164 9.24332 1.00712 9.24329 0.891471C9.24327 0.775824 9.22046 0.661314 9.17618 0.554481C9.1319 0.447647 9.06701 0.350582 8.98521 0.268827C8.90342 0.187071 8.80632 0.122227 8.69947 0.0779959C8.59262 0.0337649 8.4781 0.0110135 8.36245 0.0110407C8.2468 0.011068 8.13229 0.0338732 8.02546 0.0781546C7.91863 0.122436 7.82156 0.187326 7.73981 0.26912L4.62731 3.3822L1.51423 0.26912C1.43304 0.18498 1.3359 0.117852 1.22849 0.0716525C1.12108 0.0254532 1.00555 0.00110768 0.888627 3.69271e-05C0.771707 -0.00103383 0.655745 0.0211914 0.547507 0.0654158C0.439268 0.10964 0.340922 0.174978 0.258204 0.257617C0.175487 0.340257 0.110057 0.438542 0.0657303 0.546739C0.0214038 0.654935 -0.000930791 0.770876 2.97142e-05 0.887797C0.000990219 1.00472 0.0252265 1.12028 0.0713245 1.22773C0.117423 1.33518 0.184459 1.43238 0.268523 1.51365L3.38278 4.62732L0.26911 7.74099C0.185046 7.82226 0.11801 7.91946 0.0719118 8.02691C0.0258137 8.13436 0.00157722 8.24992 0.000616714 8.36684C-0.000343791 8.48376 0.0219908 8.5997 0.0663173 8.7079C0.110644 8.8161 0.176074 8.91438 0.258791 8.99702C0.341509 9.07966 0.439855 9.145 0.548094 9.18922C0.656332 9.23345 0.772294 9.25567 0.889214 9.2546C1.00613 9.25353 1.12167 9.22919 1.22908 9.18299C1.33649 9.13679 1.43362 9.06966 1.51481 8.98552L4.62731 5.87302Z" fill="#363636"/>
</svg>
