<svg width="14" height="21" viewBox="0 0 14 21" fill="none" xmlns="http://www.w3.org/2000/svg">
<path d="M7 0C3.13 0 0 3.1665 0 7.08163C0 12.3929 7 20.2332 7 20.2332C7 20.2332 14 12.3929 14 7.08163C14 3.1665 10.87 0 7 0ZM7 9.61079C6.33696 9.61079 5.70107 9.34432 5.23223 8.87002C4.76339 8.39571 4.5 7.75241 4.5 7.08163C4.5 6.41086 4.76339 5.76756 5.23223 5.29325C5.70107 4.81894 6.33696 4.55248 7 4.55248C7.66304 4.55248 8.29893 4.81894 8.76777 5.29325C9.23661 5.76756 9.5 6.41086 9.5 7.08163C9.5 7.75241 9.23661 8.39571 8.76777 8.87002C8.29893 9.34432 7.66304 9.61079 7 9.61079Z" fill="white"/>
</svg>
