<svg width="14" height="22" viewBox="0 0 14 22" fill="none" xmlns="http://www.w3.org/2000/svg">
<path d="M7 0.897949C3.13 0.897949 0 4.06445 0 7.97958C0 13.2908 7 21.1312 7 21.1312C7 21.1312 14 13.2908 14 7.97958C14 4.06445 10.87 0.897949 7 0.897949ZM7 10.5087C6.33696 10.5087 5.70107 10.2423 5.23223 9.76796C4.76339 9.29366 4.5 8.65036 4.5 7.97958C4.5 7.30881 4.76339 6.66551 5.23223 6.1912C5.70107 5.71689 6.33696 5.45043 7 5.45043C7.66304 5.45043 8.29893 5.71689 8.76777 6.1912C9.23661 6.66551 9.5 7.30881 9.5 7.97958C9.5 8.65036 9.23661 9.29366 8.76777 9.76796C8.29893 10.2423 7.66304 10.5087 7 10.5087Z" fill="#848484"/>
</svg>
