<svg width="20" height="21" viewBox="0 0 20 21" fill="none" xmlns="http://www.w3.org/2000/svg">
<path d="M13.7221 13.0051H12.8549L12.5475 12.6927C13.6605 11.3323 14.2722 9.59551 14.271 7.79929C14.271 6.31207 13.8525 4.85825 13.0685 3.62168C12.2844 2.3851 11.17 1.42131 9.86615 0.852176C8.5623 0.283043 7.12759 0.134132 5.74344 0.424274C4.35929 0.714415 3.08786 1.43058 2.08994 2.4822C1.09203 3.53382 0.412435 4.87366 0.13711 6.3323C-0.138215 7.79094 0.00309169 9.30286 0.543161 10.6769C1.08323 12.0509 1.99781 13.2253 3.17123 14.0515C4.34466 14.8778 5.72424 15.3188 7.13551 15.3188C8.90292 15.3188 10.5276 14.6362 11.7791 13.5025L12.0755 13.8265V14.7404L17.5643 20.513L19.2 18.7893L13.7221 13.0051ZM7.13551 13.0051C4.40206 13.0051 2.19554 10.6798 2.19554 7.79929C2.19554 4.91874 4.40206 2.59348 7.13551 2.59348C9.86896 2.59348 12.0755 4.91874 12.0755 7.79929C12.0755 10.6798 9.86896 13.0051 7.13551 13.0051Z" fill="white"/>
</svg>
